G04*
G04 #@! TF.GenerationSoftware,Altium Limited,Altium Designer,21.3.2 (30)*
G04*
G04 Layer_Color=2752767*
%FSTAX24Y24*%
%MOIN*%
G70*
G04*
G04 #@! TF.SameCoordinates,110FFF50-2F86-4F7F-B504-3501B117D145*
G04*
G04*
G04 #@! TF.FilePolarity,Positive*
G04*
G01*
G75*
%ADD93C,0.0020*%
%ADD94C,0.0027*%
%ADD95C,0.0013*%
D93*
X03757Y01457D02*
Y01473D01*
X03773D01*
Y01457D01*
X03757D01*
X03957D02*
Y01473D01*
X03973D01*
Y01457D01*
X03957D01*
X04357D02*
Y01473D01*
X04373D01*
Y01457D01*
X04357D01*
X04257D02*
Y01473D01*
X04273D01*
Y01457D01*
X04257D01*
X04157D02*
Y01473D01*
X04173D01*
Y01457D01*
X04157D01*
X04057D02*
Y01473D01*
X04073D01*
Y01457D01*
X04057D01*
X03857D02*
Y01473D01*
X03873D01*
Y01457D01*
X03857D01*
X04599Y02347D02*
X04591Y02363D01*
X04607D01*
X04599Y02347D01*
X04421D02*
X04413Y02363D01*
X04429D01*
X04421Y02347D01*
X04599Y02067D02*
X04591Y02083D01*
X04607D01*
X04599Y02067D01*
X04421D02*
X04413Y02083D01*
X04429D01*
X04421Y02067D01*
X03794Y03682D02*
X03786Y03698D01*
X03802D01*
X03794Y03682D01*
X03616D02*
X03608Y03698D01*
X03624D01*
X03616Y03682D01*
X03794Y03402D02*
X03786Y03418D01*
X03802D01*
X03794Y03402D01*
X03616D02*
X03608Y03418D01*
X03624D01*
X03616Y03402D01*
X03793Y02347D02*
X03785Y02363D01*
X03801D01*
X03793Y02347D01*
X03615D02*
X03607Y02363D01*
X03623D01*
X03615Y02347D01*
X03793Y02067D02*
X03785Y02083D01*
X03801D01*
X03793Y02067D01*
X03615D02*
X03607Y02083D01*
X03623D01*
X03615Y02067D01*
X04199Y02987D02*
X04191Y03003D01*
X04207D01*
X04199Y02987D01*
X04021D02*
X04013Y03003D01*
X04029D01*
X04021Y02987D01*
X04199Y02707D02*
X04191Y02723D01*
X04207D01*
X04199Y02707D01*
X04021D02*
X04013Y02723D01*
X04029D01*
X04021Y02707D01*
X04604Y03682D02*
X04596Y03698D01*
X04612D01*
X04604Y03682D01*
X04426D02*
X04418Y03698D01*
X04434D01*
X04426Y03682D01*
X04604Y03402D02*
X04596Y03418D01*
X04612D01*
X04604Y03402D01*
X04426D02*
X04418Y03418D01*
X04434D01*
X04426Y03402D01*
X04199Y04377D02*
X04191Y04393D01*
X04207D01*
X04199Y04377D01*
X04021D02*
X04013Y04393D01*
X04029D01*
X04021Y04377D01*
X04199Y04097D02*
X04191Y04113D01*
X04207D01*
X04199Y04097D01*
X04021D02*
X04013Y04113D01*
X04029D01*
X04021Y04097D01*
X033324Y010576D02*
X033364Y010616D01*
X033404D01*
X033364Y010656D01*
X033404Y010696D01*
X033364D01*
X033324Y010736D01*
X033284Y010696D01*
X033244D01*
X033284Y010656D01*
X033244Y010616D01*
X033284D01*
X033324Y010576D01*
X032751Y010379D02*
X032791Y010419D01*
X032831D01*
X032791Y010459D01*
X032831Y010499D01*
X032791D01*
X032751Y010539D01*
X032711Y010499D01*
X032671D01*
X032711Y010459D01*
X032671Y010419D01*
X032711D01*
X032751Y010379D01*
X032206Y010646D02*
X032246Y010686D01*
X032286D01*
X032246Y010726D01*
X032286Y010766D01*
X032246D01*
X032206Y010806D01*
X032166Y010766D01*
X032126D01*
X032166Y010726D01*
X032126Y010686D01*
X032166D01*
X032206Y010646D01*
X032009Y011219D02*
X032049Y011259D01*
X032089D01*
X032049Y011299D01*
X032089Y011339D01*
X032049D01*
X032009Y011379D01*
X031969Y011339D01*
X031929D01*
X031969Y011299D01*
X031929Y011259D01*
X031969D01*
X032009Y011219D01*
X032276Y011764D02*
X032316Y011804D01*
X032356D01*
X032316Y011844D01*
X032356Y011884D01*
X032316D01*
X032276Y011924D01*
X032236Y011884D01*
X032196D01*
X032236Y011844D01*
X032196Y011804D01*
X032236D01*
X032276Y011764D01*
X032849Y011961D02*
X032889Y012001D01*
X032929D01*
X032889Y012041D01*
X032929Y012081D01*
X032889D01*
X032849Y012121D01*
X032809Y012081D01*
X032769D01*
X032809Y012041D01*
X032769Y012001D01*
X032809D01*
X032849Y011961D01*
X033394Y011694D02*
X033434Y011734D01*
X033474D01*
X033434Y011774D01*
X033474Y011814D01*
X033434D01*
X033394Y011854D01*
X033354Y011814D01*
X033314D01*
X033354Y011774D01*
X033314Y011734D01*
X033354D01*
X033394Y011694D01*
X033591Y011121D02*
X033631Y011161D01*
X033671D01*
X033631Y011201D01*
X033671Y011241D01*
X033631D01*
X033591Y011281D01*
X033551Y011241D01*
X033511D01*
X033551Y011201D01*
X033511Y011161D01*
X033551D01*
X033591Y011121D01*
X03272Y01117D02*
X03276Y01125D01*
X03272Y01133D01*
X0328Y01129D01*
X03288Y01133D01*
X03284Y01125D01*
X03288Y01117D01*
X0328Y01121D01*
X03272Y01117D01*
X01611Y04226D02*
Y04222D01*
X01619D01*
Y04226D01*
X01623D01*
Y04234D01*
X01619D01*
Y04238D01*
X01611D01*
Y04234D01*
X01607D01*
Y04226D01*
X01611D01*
Y03326D02*
Y03322D01*
X01619D01*
Y03326D01*
X01623D01*
Y03334D01*
X01619D01*
Y03338D01*
X01611D01*
Y03334D01*
X01607D01*
Y03326D01*
X01611D01*
Y03926D02*
Y03922D01*
X01619D01*
Y03926D01*
X01623D01*
Y03934D01*
X01619D01*
Y03938D01*
X01611D01*
Y03934D01*
X01607D01*
Y03926D01*
X01611D01*
Y03526D02*
Y03522D01*
X01619D01*
Y03526D01*
X01623D01*
Y03534D01*
X01619D01*
Y03538D01*
X01611D01*
Y03534D01*
X01607D01*
Y03526D01*
X01611D01*
Y03426D02*
Y03422D01*
X01619D01*
Y03426D01*
X01623D01*
Y03434D01*
X01619D01*
Y03438D01*
X01611D01*
Y03434D01*
X01607D01*
Y03426D01*
X01611D01*
Y03726D02*
Y03722D01*
X01619D01*
Y03726D01*
X01623D01*
Y03734D01*
X01619D01*
Y03738D01*
X01611D01*
Y03734D01*
X01607D01*
Y03726D01*
X01611D01*
Y03826D02*
Y03822D01*
X01619D01*
Y03826D01*
X01623D01*
Y03834D01*
X01619D01*
Y03838D01*
X01611D01*
Y03834D01*
X01607D01*
Y03826D01*
X01611D01*
Y04126D02*
Y04122D01*
X01619D01*
Y04126D01*
X01623D01*
Y04134D01*
X01619D01*
Y04138D01*
X01611D01*
Y04134D01*
X01607D01*
Y04126D01*
X01611D01*
Y03626D02*
Y03622D01*
X01619D01*
Y03626D01*
X01623D01*
Y03634D01*
X01619D01*
Y03638D01*
X01611D01*
Y03634D01*
X01607D01*
Y03626D01*
X01611D01*
Y04026D02*
Y04022D01*
X01619D01*
Y04026D01*
X01623D01*
Y04034D01*
X01619D01*
Y04038D01*
X01611D01*
Y04034D01*
X01607D01*
Y04026D01*
X01611D01*
X01272Y01352D02*
X01276D01*
X0128Y01356D01*
X01284Y01352D01*
X01288D01*
Y01356D01*
X01284Y0136D01*
X01288Y01364D01*
Y01368D01*
X01284D01*
X0128Y01364D01*
X01276Y01368D01*
X01272D01*
Y01364D01*
X01276Y0136D01*
X01272Y01356D01*
Y01352D01*
Y01552D02*
X01276D01*
X0128Y01556D01*
X01284Y01552D01*
X01288D01*
Y01556D01*
X01284Y0156D01*
X01288Y01564D01*
Y01568D01*
X01284D01*
X0128Y01564D01*
X01276Y01568D01*
X01272D01*
Y01564D01*
X01276Y0156D01*
X01272Y01556D01*
Y01552D01*
Y01752D02*
X01276D01*
X0128Y01756D01*
X01284Y01752D01*
X01288D01*
Y01756D01*
X01284Y0176D01*
X01288Y01764D01*
Y01768D01*
X01284D01*
X0128Y01764D01*
X01276Y01768D01*
X01272D01*
Y01764D01*
X01276Y0176D01*
X01272Y01756D01*
Y01752D01*
Y01952D02*
X01276D01*
X0128Y01956D01*
X01284Y01952D01*
X01288D01*
Y01956D01*
X01284Y0196D01*
X01288Y01964D01*
Y01968D01*
X01284D01*
X0128Y01964D01*
X01276Y01968D01*
X01272D01*
Y01964D01*
X01276Y0196D01*
X01272Y01956D01*
Y01952D01*
X035824Y010576D02*
X035864Y010616D01*
X035904D01*
X035864Y010656D01*
X035904Y010696D01*
X035864D01*
X035824Y010736D01*
X035784Y010696D01*
X035744D01*
X035784Y010656D01*
X035744Y010616D01*
X035784D01*
X035824Y010576D01*
X035251Y010379D02*
X035291Y010419D01*
X035331D01*
X035291Y010459D01*
X035331Y010499D01*
X035291D01*
X035251Y010539D01*
X035211Y010499D01*
X035171D01*
X035211Y010459D01*
X035171Y010419D01*
X035211D01*
X035251Y010379D01*
X034706Y010646D02*
X034746Y010686D01*
X034786D01*
X034746Y010726D01*
X034786Y010766D01*
X034746D01*
X034706Y010806D01*
X034666Y010766D01*
X034626D01*
X034666Y010726D01*
X034626Y010686D01*
X034666D01*
X034706Y010646D01*
X034509Y011219D02*
X034549Y011259D01*
X034589D01*
X034549Y011299D01*
X034589Y011339D01*
X034549D01*
X034509Y011379D01*
X034469Y011339D01*
X034429D01*
X034469Y011299D01*
X034429Y011259D01*
X034469D01*
X034509Y011219D01*
X034776Y011764D02*
X034816Y011804D01*
X034856D01*
X034816Y011844D01*
X034856Y011884D01*
X034816D01*
X034776Y011924D01*
X034736Y011884D01*
X034696D01*
X034736Y011844D01*
X034696Y011804D01*
X034736D01*
X034776Y011764D01*
X035349Y011961D02*
X035389Y012001D01*
X035429D01*
X035389Y012041D01*
X035429Y012081D01*
X035389D01*
X035349Y012121D01*
X035309Y012081D01*
X035269D01*
X035309Y012041D01*
X035269Y012001D01*
X035309D01*
X035349Y011961D01*
X035894Y011694D02*
X035934Y011734D01*
X035974D01*
X035934Y011774D01*
X035974Y011814D01*
X035934D01*
X035894Y011854D01*
X035854Y011814D01*
X035814D01*
X035854Y011774D01*
X035814Y011734D01*
X035854D01*
X035894Y011694D01*
X036091Y011121D02*
X036131Y011161D01*
X036171D01*
X036131Y011201D01*
X036171Y011241D01*
X036131D01*
X036091Y011281D01*
X036051Y011241D01*
X036011D01*
X036051Y011201D01*
X036011Y011161D01*
X036051D01*
X036091Y011121D01*
X03522Y01117D02*
X03526Y01125D01*
X03522Y01133D01*
X0353Y01129D01*
X03538Y01133D01*
X03534Y01125D01*
X03538Y01117D01*
X0353Y01121D01*
X03522Y01117D01*
X046674Y010576D02*
X046714Y010616D01*
X046754D01*
X046714Y010656D01*
X046754Y010696D01*
X046714D01*
X046674Y010736D01*
X046634Y010696D01*
X046594D01*
X046634Y010656D01*
X046594Y010616D01*
X046634D01*
X046674Y010576D01*
X046101Y010379D02*
X046141Y010419D01*
X046181D01*
X046141Y010459D01*
X046181Y010499D01*
X046141D01*
X046101Y010539D01*
X046061Y010499D01*
X046021D01*
X046061Y010459D01*
X046021Y010419D01*
X046061D01*
X046101Y010379D01*
X045556Y010646D02*
X045596Y010686D01*
X045636D01*
X045596Y010726D01*
X045636Y010766D01*
X045596D01*
X045556Y010806D01*
X045516Y010766D01*
X045476D01*
X045516Y010726D01*
X045476Y010686D01*
X045516D01*
X045556Y010646D01*
X045359Y011219D02*
X045399Y011259D01*
X045439D01*
X045399Y011299D01*
X045439Y011339D01*
X045399D01*
X045359Y011379D01*
X045319Y011339D01*
X045279D01*
X045319Y011299D01*
X045279Y011259D01*
X045319D01*
X045359Y011219D01*
X045626Y011764D02*
X045666Y011804D01*
X045706D01*
X045666Y011844D01*
X045706Y011884D01*
X045666D01*
X045626Y011924D01*
X045586Y011884D01*
X045546D01*
X045586Y011844D01*
X045546Y011804D01*
X045586D01*
X045626Y011764D01*
X046199Y011961D02*
X046239Y012001D01*
X046279D01*
X046239Y012041D01*
X046279Y012081D01*
X046239D01*
X046199Y012121D01*
X046159Y012081D01*
X046119D01*
X046159Y012041D01*
X046119Y012001D01*
X046159D01*
X046199Y011961D01*
X046744Y011694D02*
X046784Y011734D01*
X046824D01*
X046784Y011774D01*
X046824Y011814D01*
X046784D01*
X046744Y011854D01*
X046704Y011814D01*
X046664D01*
X046704Y011774D01*
X046664Y011734D01*
X046704D01*
X046744Y011694D01*
X046941Y011121D02*
X046981Y011161D01*
X047021D01*
X046981Y011201D01*
X047021Y011241D01*
X046981D01*
X046941Y011281D01*
X046901Y011241D01*
X046861D01*
X046901Y011201D01*
X046861Y011161D01*
X046901D01*
X046941Y011121D01*
X04607Y01117D02*
X04611Y01125D01*
X04607Y01133D01*
X04615Y01129D01*
X04623Y01133D01*
X04619Y01125D01*
X04623Y01117D01*
X04615Y01121D01*
X04607Y01117D01*
X046674Y045476D02*
X046714Y045516D01*
X046754D01*
X046714Y045556D01*
X046754Y045596D01*
X046714D01*
X046674Y045636D01*
X046634Y045596D01*
X046594D01*
X046634Y045556D01*
X046594Y045516D01*
X046634D01*
X046674Y045476D01*
X046101Y045279D02*
X046141Y045319D01*
X046181D01*
X046141Y045359D01*
X046181Y045399D01*
X046141D01*
X046101Y045439D01*
X046061Y045399D01*
X046021D01*
X046061Y045359D01*
X046021Y045319D01*
X046061D01*
X046101Y045279D01*
X045556Y045546D02*
X045596Y045586D01*
X045636D01*
X045596Y045626D01*
X045636Y045666D01*
X045596D01*
X045556Y045706D01*
X045516Y045666D01*
X045476D01*
X045516Y045626D01*
X045476Y045586D01*
X045516D01*
X045556Y045546D01*
X045359Y046119D02*
X045399Y046159D01*
X045439D01*
X045399Y046199D01*
X045439Y046239D01*
X045399D01*
X045359Y046279D01*
X045319Y046239D01*
X045279D01*
X045319Y046199D01*
X045279Y046159D01*
X045319D01*
X045359Y046119D01*
X045626Y046664D02*
X045666Y046704D01*
X045706D01*
X045666Y046744D01*
X045706Y046784D01*
X045666D01*
X045626Y046824D01*
X045586Y046784D01*
X045546D01*
X045586Y046744D01*
X045546Y046704D01*
X045586D01*
X045626Y046664D01*
X046199Y046861D02*
X046239Y046901D01*
X046279D01*
X046239Y046941D01*
X046279Y046981D01*
X046239D01*
X046199Y047021D01*
X046159Y046981D01*
X046119D01*
X046159Y046941D01*
X046119Y046901D01*
X046159D01*
X046199Y046861D01*
X046744Y046594D02*
X046784Y046634D01*
X046824D01*
X046784Y046674D01*
X046824Y046714D01*
X046784D01*
X046744Y046754D01*
X046704Y046714D01*
X046664D01*
X046704Y046674D01*
X046664Y046634D01*
X046704D01*
X046744Y046594D01*
X046941Y046021D02*
X046981Y046061D01*
X047021D01*
X046981Y046101D01*
X047021Y046141D01*
X046981D01*
X046941Y046181D01*
X046901Y046141D01*
X046861D01*
X046901Y046101D01*
X046861Y046061D01*
X046901D01*
X046941Y046021D01*
X04607Y04607D02*
X04611Y04615D01*
X04607Y04623D01*
X04615Y04619D01*
X04623Y04623D01*
X04619Y04615D01*
X04623Y04607D01*
X04615Y04611D01*
X04607Y04607D01*
X035824Y045476D02*
X035864Y045516D01*
X035904D01*
X035864Y045556D01*
X035904Y045596D01*
X035864D01*
X035824Y045636D01*
X035784Y045596D01*
X035744D01*
X035784Y045556D01*
X035744Y045516D01*
X035784D01*
X035824Y045476D01*
X035251Y045279D02*
X035291Y045319D01*
X035331D01*
X035291Y045359D01*
X035331Y045399D01*
X035291D01*
X035251Y045439D01*
X035211Y045399D01*
X035171D01*
X035211Y045359D01*
X035171Y045319D01*
X035211D01*
X035251Y045279D01*
X034706Y045546D02*
X034746Y045586D01*
X034786D01*
X034746Y045626D01*
X034786Y045666D01*
X034746D01*
X034706Y045706D01*
X034666Y045666D01*
X034626D01*
X034666Y045626D01*
X034626Y045586D01*
X034666D01*
X034706Y045546D01*
X034509Y046119D02*
X034549Y046159D01*
X034589D01*
X034549Y046199D01*
X034589Y046239D01*
X034549D01*
X034509Y046279D01*
X034469Y046239D01*
X034429D01*
X034469Y046199D01*
X034429Y046159D01*
X034469D01*
X034509Y046119D01*
X034776Y046664D02*
X034816Y046704D01*
X034856D01*
X034816Y046744D01*
X034856Y046784D01*
X034816D01*
X034776Y046824D01*
X034736Y046784D01*
X034696D01*
X034736Y046744D01*
X034696Y046704D01*
X034736D01*
X034776Y046664D01*
X035349Y046861D02*
X035389Y046901D01*
X035429D01*
X035389Y046941D01*
X035429Y046981D01*
X035389D01*
X035349Y047021D01*
X035309Y046981D01*
X035269D01*
X035309Y046941D01*
X035269Y046901D01*
X035309D01*
X035349Y046861D01*
X035894Y046594D02*
X035934Y046634D01*
X035974D01*
X035934Y046674D01*
X035974Y046714D01*
X035934D01*
X035894Y046754D01*
X035854Y046714D01*
X035814D01*
X035854Y046674D01*
X035814Y046634D01*
X035854D01*
X035894Y046594D01*
X036091Y046021D02*
X036131Y046061D01*
X036171D01*
X036131Y046101D01*
X036171Y046141D01*
X036131D01*
X036091Y046181D01*
X036051Y046141D01*
X036011D01*
X036051Y046101D01*
X036011Y046061D01*
X036051D01*
X036091Y046021D01*
X03522Y04607D02*
X03526Y04615D01*
X03522Y04623D01*
X0353Y04619D01*
X03538Y04623D01*
X03534Y04615D01*
X03538Y04607D01*
X0353Y04611D01*
X03522Y04607D01*
X033325Y045485D02*
X033365Y045525D01*
X033405D01*
X033365Y045565D01*
X033405Y045605D01*
X033365D01*
X033325Y045645D01*
X033285Y045605D01*
X033245D01*
X033285Y045565D01*
X033245Y045525D01*
X033285D01*
X033325Y045485D01*
X032752Y045288D02*
X032792Y045328D01*
X032832D01*
X032792Y045368D01*
X032832Y045408D01*
X032792D01*
X032752Y045448D01*
X032712Y045408D01*
X032672D01*
X032712Y045368D01*
X032672Y045328D01*
X032712D01*
X032752Y045288D01*
X032207Y045555D02*
X032247Y045595D01*
X032287D01*
X032247Y045635D01*
X032287Y045675D01*
X032247D01*
X032207Y045715D01*
X032167Y045675D01*
X032127D01*
X032167Y045635D01*
X032127Y045595D01*
X032167D01*
X032207Y045555D01*
X03201Y046128D02*
X03205Y046168D01*
X03209D01*
X03205Y046208D01*
X03209Y046248D01*
X03205D01*
X03201Y046288D01*
X03197Y046248D01*
X03193D01*
X03197Y046208D01*
X03193Y046168D01*
X03197D01*
X03201Y046128D01*
X032276Y046673D02*
X032316Y046713D01*
X032356D01*
X032316Y046753D01*
X032356Y046793D01*
X032316D01*
X032276Y046833D01*
X032236Y046793D01*
X032196D01*
X032236Y046753D01*
X032196Y046713D01*
X032236D01*
X032276Y046673D01*
X03285Y04687D02*
X03289Y04691D01*
X03293D01*
X03289Y04695D01*
X03293Y04699D01*
X03289D01*
X03285Y04703D01*
X03281Y04699D01*
X03277D01*
X03281Y04695D01*
X03277Y04691D01*
X03281D01*
X03285Y04687D01*
X033395Y046604D02*
X033435Y046644D01*
X033475D01*
X033435Y046684D01*
X033475Y046724D01*
X033435D01*
X033395Y046764D01*
X033355Y046724D01*
X033315D01*
X033355Y046684D01*
X033315Y046644D01*
X033355D01*
X033395Y046604D01*
X033592Y04603D02*
X033632Y04607D01*
X033672D01*
X033632Y04611D01*
X033672Y04615D01*
X033632D01*
X033592Y04619D01*
X033552Y04615D01*
X033512D01*
X033552Y04611D01*
X033512Y04607D01*
X033552D01*
X033592Y04603D01*
X032721Y046079D02*
X032761Y046159D01*
X032721Y046239D01*
X032801Y046199D01*
X032881Y046239D01*
X032841Y046159D01*
X032881Y046079D01*
X032801Y046119D01*
X032721Y046079D01*
X011774Y010576D02*
X011814Y010616D01*
X011854D01*
X011814Y010656D01*
X011854Y010696D01*
X011814D01*
X011774Y010736D01*
X011734Y010696D01*
X011694D01*
X011734Y010656D01*
X011694Y010616D01*
X011734D01*
X011774Y010576D01*
X011201Y010379D02*
X011241Y010419D01*
X011281D01*
X011241Y010459D01*
X011281Y010499D01*
X011241D01*
X011201Y010539D01*
X011161Y010499D01*
X011121D01*
X011161Y010459D01*
X011121Y010419D01*
X011161D01*
X011201Y010379D01*
X010656Y010646D02*
X010696Y010686D01*
X010736D01*
X010696Y010726D01*
X010736Y010766D01*
X010696D01*
X010656Y010806D01*
X010616Y010766D01*
X010576D01*
X010616Y010726D01*
X010576Y010686D01*
X010616D01*
X010656Y010646D01*
X010459Y011219D02*
X010499Y011259D01*
X010539D01*
X010499Y011299D01*
X010539Y011339D01*
X010499D01*
X010459Y011379D01*
X010419Y011339D01*
X010379D01*
X010419Y011299D01*
X010379Y011259D01*
X010419D01*
X010459Y011219D01*
X010726Y011764D02*
X010766Y011804D01*
X010806D01*
X010766Y011844D01*
X010806Y011884D01*
X010766D01*
X010726Y011924D01*
X010686Y011884D01*
X010646D01*
X010686Y011844D01*
X010646Y011804D01*
X010686D01*
X010726Y011764D01*
X011299Y011961D02*
X011339Y012001D01*
X011379D01*
X011339Y012041D01*
X011379Y012081D01*
X011339D01*
X011299Y012121D01*
X011259Y012081D01*
X011219D01*
X011259Y012041D01*
X011219Y012001D01*
X011259D01*
X011299Y011961D01*
X011844Y011694D02*
X011884Y011734D01*
X011924D01*
X011884Y011774D01*
X011924Y011814D01*
X011884D01*
X011844Y011854D01*
X011804Y011814D01*
X011764D01*
X011804Y011774D01*
X011764Y011734D01*
X011804D01*
X011844Y011694D01*
X012041Y011121D02*
X012081Y011161D01*
X012121D01*
X012081Y011201D01*
X012121Y011241D01*
X012081D01*
X012041Y011281D01*
X012001Y011241D01*
X011961D01*
X012001Y011201D01*
X011961Y011161D01*
X012001D01*
X012041Y011121D01*
X01117Y01117D02*
X01121Y01125D01*
X01117Y01133D01*
X01125Y01129D01*
X01133Y01133D01*
X01129Y01125D01*
X01133Y01117D01*
X01125Y01121D01*
X01117Y01117D01*
X011774Y045476D02*
X011814Y045516D01*
X011854D01*
X011814Y045556D01*
X011854Y045596D01*
X011814D01*
X011774Y045636D01*
X011734Y045596D01*
X011694D01*
X011734Y045556D01*
X011694Y045516D01*
X011734D01*
X011774Y045476D01*
X011201Y045279D02*
X011241Y045319D01*
X011281D01*
X011241Y045359D01*
X011281Y045399D01*
X011241D01*
X011201Y045439D01*
X011161Y045399D01*
X011121D01*
X011161Y045359D01*
X011121Y045319D01*
X011161D01*
X011201Y045279D01*
X010656Y045546D02*
X010696Y045586D01*
X010736D01*
X010696Y045626D01*
X010736Y045666D01*
X010696D01*
X010656Y045706D01*
X010616Y045666D01*
X010576D01*
X010616Y045626D01*
X010576Y045586D01*
X010616D01*
X010656Y045546D01*
X010459Y046119D02*
X010499Y046159D01*
X010539D01*
X010499Y046199D01*
X010539Y046239D01*
X010499D01*
X010459Y046279D01*
X010419Y046239D01*
X010379D01*
X010419Y046199D01*
X010379Y046159D01*
X010419D01*
X010459Y046119D01*
X010726Y046664D02*
X010766Y046704D01*
X010806D01*
X010766Y046744D01*
X010806Y046784D01*
X010766D01*
X010726Y046824D01*
X010686Y046784D01*
X010646D01*
X010686Y046744D01*
X010646Y046704D01*
X010686D01*
X010726Y046664D01*
X011299Y046861D02*
X011339Y046901D01*
X011379D01*
X011339Y046941D01*
X011379Y046981D01*
X011339D01*
X011299Y047021D01*
X011259Y046981D01*
X011219D01*
X011259Y046941D01*
X011219Y046901D01*
X011259D01*
X011299Y046861D01*
X011844Y046594D02*
X011884Y046634D01*
X011924D01*
X011884Y046674D01*
X011924Y046714D01*
X011884D01*
X011844Y046754D01*
X011804Y046714D01*
X011764D01*
X011804Y046674D01*
X011764Y046634D01*
X011804D01*
X011844Y046594D01*
X012041Y046021D02*
X012081Y046061D01*
X012121D01*
X012081Y046101D01*
X012121Y046141D01*
X012081D01*
X012041Y046181D01*
X012001Y046141D01*
X011961D01*
X012001Y046101D01*
X011961Y046061D01*
X012001D01*
X012041Y046021D01*
X01117Y04607D02*
X01121Y04615D01*
X01117Y04623D01*
X01125Y04619D01*
X01133Y04623D01*
X01129Y04615D01*
X01133Y04607D01*
X01125Y04611D01*
X01117Y04607D01*
X01527Y04545D02*
X01535Y04553D01*
X01543Y04545D01*
X01535Y04537D01*
X01527Y04545D01*
X013301D02*
X013381Y04553D01*
X013461Y04545D01*
X013381Y04537D01*
X013301Y04545D01*
X02879Y02977D02*
Y02993D01*
X02895D01*
Y02977D01*
X02879D01*
X02883Y02981D02*
Y02989D01*
X02891D01*
Y02981D01*
X02883D01*
X02879Y02877D02*
Y02893D01*
X02895D01*
Y02877D01*
X02879D01*
X02883Y02881D02*
Y02889D01*
X02891D01*
Y02881D01*
X02883D01*
X02879Y02778D02*
Y02794D01*
X02895D01*
Y02778D01*
X02879D01*
X02883Y02782D02*
Y0279D01*
X02891D01*
Y02782D01*
X02883D01*
X02877Y02677D02*
Y02693D01*
X02893D01*
Y02677D01*
X02877D01*
X02881Y02681D02*
Y02689D01*
X02889D01*
Y02681D01*
X02881D01*
X0298Y02676D02*
Y02692D01*
X02996D01*
Y02676D01*
X0298D01*
X02984Y0268D02*
Y02688D01*
X02992D01*
Y0268D01*
X02984D01*
X029785Y027765D02*
Y027925D01*
X029945D01*
Y027765D01*
X029785D01*
X029825Y027805D02*
Y027885D01*
X029905D01*
Y027805D01*
X029825D01*
X0298Y02876D02*
Y02892D01*
X02996D01*
Y02876D01*
X0298D01*
X02984Y0288D02*
Y02888D01*
X02992D01*
Y0288D01*
X02984D01*
X0298Y02976D02*
Y02992D01*
X02996D01*
Y02976D01*
X0298D01*
X02984Y0298D02*
Y02988D01*
X02992D01*
Y0298D01*
X02984D01*
X03195Y03642D02*
X03187Y03658D01*
X03203D01*
X03195Y03642D01*
Y03542D02*
X03187Y03558D01*
X03203D01*
X03195Y03542D01*
Y03442D02*
X03187Y03458D01*
X03203D01*
X03195Y03442D01*
Y03342D02*
X03187Y03358D01*
X03203D01*
X03195Y03342D01*
X02987Y04587D02*
Y04603D01*
X03003D01*
Y04587D01*
X02987D01*
Y04387D02*
Y04403D01*
X03003D01*
Y04387D01*
X02987D01*
Y03987D02*
Y04003D01*
X03003D01*
Y03987D01*
X02987D01*
Y04087D02*
Y04103D01*
X03003D01*
Y04087D01*
X02987D01*
Y04187D02*
Y04203D01*
X03003D01*
Y04187D01*
X02987D01*
Y04287D02*
Y04303D01*
X03003D01*
Y04287D01*
X02987D01*
Y04487D02*
Y04503D01*
X03003D01*
Y04487D01*
X02987D01*
X019987Y01592D02*
X019907Y01608D01*
X020067D01*
X019987Y01592D01*
Y01596D02*
X019947Y01604D01*
X020027D01*
X019987Y01596D01*
X0192Y01592D02*
X01912Y01608D01*
X01928D01*
X0192Y01592D01*
Y01596D02*
X01916Y01604D01*
X01924D01*
X0192Y01596D01*
X02137Y01222D02*
X02141D01*
X02145Y01226D01*
X02149Y01222D01*
X02153D01*
Y01226D01*
X02149Y0123D01*
X02153Y01234D01*
Y01238D01*
X02149D01*
X02145Y01234D01*
X02141Y01238D01*
X02137D01*
Y01234D01*
X02141Y0123D01*
X02137Y01226D01*
Y01222D01*
X02337D02*
X02341D01*
X02345Y01226D01*
X02349Y01222D01*
X02353D01*
Y01226D01*
X02349Y0123D01*
X02353Y01234D01*
Y01238D01*
X02349D01*
X02345Y01234D01*
X02341Y01238D01*
X02337D01*
Y01234D01*
X02341Y0123D01*
X02337Y01226D01*
Y01222D01*
X01652Y01232D02*
X01656D01*
X0166Y01236D01*
X01664Y01232D01*
X01668D01*
Y01236D01*
X01664Y0124D01*
X01668Y01244D01*
Y01248D01*
X01664D01*
X0166Y01244D01*
X01656Y01248D01*
X01652D01*
Y01244D01*
X01656Y0124D01*
X01652Y01236D01*
Y01232D01*
X01852D02*
X01856D01*
X0186Y01236D01*
X01864Y01232D01*
X01868D01*
Y01236D01*
X01864Y0124D01*
X01868Y01244D01*
Y01248D01*
X01864D01*
X0186Y01244D01*
X01856Y01248D01*
X01852D01*
Y01244D01*
X01856Y0124D01*
X01852Y01236D01*
Y01232D01*
X017063Y01592D02*
X016983Y01608D01*
X017143D01*
X017063Y01592D01*
Y01596D02*
X017023Y01604D01*
X017103D01*
X017063Y01596D01*
X01785Y01592D02*
X01777Y01608D01*
X01793D01*
X01785Y01592D01*
Y01596D02*
X01781Y01604D01*
X01789D01*
X01785Y01596D01*
X02637Y03375D02*
X02645Y03383D01*
X02653Y03375D01*
X02645Y03367D01*
X02637Y03375D01*
Y04275D02*
X02645Y04283D01*
X02653Y04275D01*
X02645Y04267D01*
X02637Y04275D01*
Y04175D02*
X02645Y04183D01*
X02653Y04175D01*
X02645Y04167D01*
X02637Y04175D01*
Y04075D02*
X02645Y04083D01*
X02653Y04075D01*
X02645Y04067D01*
X02637Y04075D01*
Y03975D02*
X02645Y03983D01*
X02653Y03975D01*
X02645Y03967D01*
X02637Y03975D01*
Y03875D02*
X02645Y03883D01*
X02653Y03875D01*
X02645Y03867D01*
X02637Y03875D01*
Y03775D02*
X02645Y03783D01*
X02653Y03775D01*
X02645Y03767D01*
X02637Y03775D01*
Y03675D02*
X02645Y03683D01*
X02653Y03675D01*
X02645Y03667D01*
X02637Y03675D01*
Y03575D02*
X02645Y03583D01*
X02653Y03575D01*
X02645Y03567D01*
X02637Y03575D01*
Y03275D02*
X02645Y03283D01*
X02653Y03275D01*
X02645Y03267D01*
X02637Y03275D01*
Y03175D02*
X02645Y03183D01*
X02653Y03175D01*
X02645Y03167D01*
X02637Y03175D01*
Y03075D02*
X02645Y03083D01*
X02653Y03075D01*
X02645Y03067D01*
X02637Y03075D01*
Y02975D02*
X02645Y02983D01*
X02653Y02975D01*
X02645Y02967D01*
X02637Y02975D01*
Y02875D02*
X02645Y02883D01*
X02653Y02875D01*
X02645Y02867D01*
X02637Y02875D01*
Y02775D02*
X02645Y02783D01*
X02653Y02775D01*
X02645Y02767D01*
X02637Y02775D01*
Y02675D02*
X02645Y02683D01*
X02653Y02675D01*
X02645Y02667D01*
X02637Y02675D01*
Y03475D02*
X02645Y03483D01*
X02653Y03475D01*
X02645Y03467D01*
X02637Y03475D01*
Y04575D02*
X02645Y04583D01*
X02653Y04575D01*
X02645Y04567D01*
X02637Y04575D01*
Y04475D02*
X02645Y04483D01*
X02653Y04475D01*
X02645Y04467D01*
X02637Y04475D01*
Y04375D02*
X02645Y04383D01*
X02653Y04375D01*
X02645Y04367D01*
X02637Y04375D01*
X02486Y04426D02*
X02494Y04434D01*
X02502Y04426D01*
X02494Y04418D01*
X02486Y04426D01*
X02386D02*
X02394Y04434D01*
X02402Y04426D01*
X02394Y04418D01*
X02386Y04426D01*
X02286D02*
X02294Y04434D01*
X02302Y04426D01*
X02294Y04418D01*
X02286Y04426D01*
X02186D02*
X02194Y04434D01*
X02202Y04426D01*
X02194Y04418D01*
X02186Y04426D01*
X02038Y04575D02*
X02046Y04583D01*
X02054Y04575D01*
X02046Y04567D01*
X02038Y04575D01*
Y04475D02*
X02046Y04483D01*
X02054Y04475D01*
X02046Y04467D01*
X02038Y04475D01*
Y04375D02*
X02046Y04383D01*
X02054Y04375D01*
X02046Y04367D01*
X02038Y04375D01*
Y04275D02*
X02046Y04283D01*
X02054Y04275D01*
X02046Y04267D01*
X02038Y04275D01*
Y04175D02*
X02046Y04183D01*
X02054Y04175D01*
X02046Y04167D01*
X02038Y04175D01*
Y04075D02*
X02046Y04083D01*
X02054Y04075D01*
X02046Y04067D01*
X02038Y04075D01*
Y03975D02*
X02046Y03983D01*
X02054Y03975D01*
X02046Y03967D01*
X02038Y03975D01*
Y03875D02*
X02046Y03883D01*
X02054Y03875D01*
X02046Y03867D01*
X02038Y03875D01*
Y03775D02*
X02046Y03783D01*
X02054Y03775D01*
X02046Y03767D01*
X02038Y03775D01*
Y03675D02*
X02046Y03683D01*
X02054Y03675D01*
X02046Y03667D01*
X02038Y03675D01*
Y03575D02*
X02046Y03583D01*
X02054Y03575D01*
X02046Y03567D01*
X02038Y03575D01*
Y03475D02*
X02046Y03483D01*
X02054Y03475D01*
X02046Y03467D01*
X02038Y03475D01*
Y03375D02*
X02046Y03383D01*
X02054Y03375D01*
X02046Y03367D01*
X02038Y03375D01*
Y03275D02*
X02046Y03283D01*
X02054Y03275D01*
X02046Y03267D01*
X02038Y03275D01*
Y03175D02*
X02046Y03183D01*
X02054Y03175D01*
X02046Y03167D01*
X02038Y03175D01*
Y03075D02*
X02046Y03083D01*
X02054Y03075D01*
X02046Y03067D01*
X02038Y03075D01*
Y02975D02*
X02046Y02983D01*
X02054Y02975D01*
X02046Y02967D01*
X02038Y02975D01*
Y02875D02*
X02046Y02883D01*
X02054Y02875D01*
X02046Y02867D01*
X02038Y02875D01*
Y02775D02*
X02046Y02783D01*
X02054Y02775D01*
X02046Y02767D01*
X02038Y02775D01*
Y02675D02*
X02046Y02683D01*
X02054Y02675D01*
X02046Y02667D01*
X02038Y02675D01*
X03915Y03902D02*
X03919Y03906D01*
X03923D01*
X03919Y0391D01*
X03923Y03914D01*
X03919D01*
X03915Y03918D01*
X03911Y03914D01*
X03907D01*
X03911Y0391D01*
X03907Y03906D01*
X03911D01*
X03915Y03902D01*
Y03906D02*
X03917Y03908D01*
X03919D01*
X03917Y0391D01*
X03919Y03912D01*
X03917D01*
X03915Y03914D01*
X03913Y03912D01*
X03911D01*
X03913Y0391D01*
X03911Y03908D01*
X03913D01*
X03915Y03906D01*
Y03707D02*
X03919Y03711D01*
X03923D01*
X03919Y03715D01*
X03923Y03719D01*
X03919D01*
X03915Y03723D01*
X03911Y03719D01*
X03907D01*
X03911Y03715D01*
X03907Y03711D01*
X03911D01*
X03915Y03707D01*
Y03711D02*
X03917Y03713D01*
X03919D01*
X03917Y03715D01*
X03919Y03717D01*
X03917D01*
X03915Y03719D01*
X03913Y03717D01*
X03911D01*
X03913Y03715D01*
X03911Y03713D01*
X03913D01*
X03915Y03711D01*
X01816Y01934D02*
Y0193D01*
X01824D01*
Y01934D01*
X01828D01*
Y01942D01*
X01824D01*
Y01946D01*
X01816D01*
Y01942D01*
X01812D01*
Y01934D01*
X01816D01*
X024014Y026546D02*
X024054Y026586D01*
X024094D01*
X024054Y026626D01*
X024094Y026666D01*
X024054D01*
X024014Y026706D01*
X023974Y026666D01*
X023934D01*
X023974Y026626D01*
X023934Y026586D01*
X023974D01*
X024014Y026546D01*
Y026586D02*
X024034Y026606D01*
X024054D01*
X024034Y026626D01*
X024054Y026646D01*
X024034D01*
X024014Y026666D01*
X023994Y026646D01*
X023974D01*
X023994Y026626D01*
X023974Y026606D01*
X023994D01*
X024014Y026586D01*
X0225Y01062D02*
X02254Y01066D01*
X02258D01*
X02254Y0107D01*
X02258Y01074D01*
X02254D01*
X0225Y01078D01*
X02246Y01074D01*
X02242D01*
X02246Y0107D01*
X02242Y01066D01*
X02246D01*
X0225Y01062D01*
Y01066D02*
X02252Y01068D01*
X02254D01*
X02252Y0107D01*
X02254Y01072D01*
X02252D01*
X0225Y01074D01*
X02248Y01072D01*
X02246D01*
X02248Y0107D01*
X02246Y01068D01*
X02248D01*
X0225Y01066D01*
X0218Y015126D02*
X02184Y015166D01*
X02188D01*
X02184Y015206D01*
X02188Y015246D01*
X02184D01*
X0218Y015286D01*
X02176Y015246D01*
X02172D01*
X02176Y015206D01*
X02172Y015166D01*
X02176D01*
X0218Y015126D01*
Y015166D02*
X02182Y015186D01*
X02184D01*
X02182Y015206D01*
X02184Y015226D01*
X02182D01*
X0218Y015246D01*
X02178Y015226D01*
X02176D01*
X02178Y015206D01*
X02176Y015186D01*
X02178D01*
X0218Y015166D01*
X0256Y01087D02*
X02564Y01091D01*
X02568D01*
X02564Y01095D01*
X02568Y01099D01*
X02564D01*
X0256Y01103D01*
X02556Y01099D01*
X02552D01*
X02556Y01095D01*
X02552Y01091D01*
X02556D01*
X0256Y01087D01*
Y01091D02*
X02562Y01093D01*
X02564D01*
X02562Y01095D01*
X02564Y01097D01*
X02562D01*
X0256Y01099D01*
X02558Y01097D01*
X02556D01*
X02558Y01095D01*
X02556Y01093D01*
X02558D01*
X0256Y01091D01*
X02445Y01062D02*
X02449Y01066D01*
X02453D01*
X02449Y0107D01*
X02453Y01074D01*
X02449D01*
X02445Y01078D01*
X02441Y01074D01*
X02437D01*
X02441Y0107D01*
X02437Y01066D01*
X02441D01*
X02445Y01062D01*
Y01066D02*
X02447Y01068D01*
X02449D01*
X02447Y0107D01*
X02449Y01072D01*
X02447D01*
X02445Y01074D01*
X02443Y01072D01*
X02441D01*
X02443Y0107D01*
X02441Y01068D01*
X02443D01*
X02445Y01066D01*
X013764Y022645D02*
X013804Y022685D01*
X013844D01*
X013804Y022725D01*
X013844Y022765D01*
X013804D01*
X013764Y022805D01*
X013724Y022765D01*
X013684D01*
X013724Y022725D01*
X013684Y022685D01*
X013724D01*
X013764Y022645D01*
Y022685D02*
X013784Y022705D01*
X013804D01*
X013784Y022725D01*
X013804Y022745D01*
X013784D01*
X013764Y022765D01*
X013744Y022745D01*
X013724D01*
X013744Y022725D01*
X013724Y022705D01*
X013744D01*
X013764Y022685D01*
X0366Y01702D02*
X03664Y01706D01*
X03668D01*
X03664Y0171D01*
X03668Y01714D01*
X03664D01*
X0366Y01718D01*
X03656Y01714D01*
X03652D01*
X03656Y0171D01*
X03652Y01706D01*
X03656D01*
X0366Y01702D01*
X027Y01594D02*
X02704Y01598D01*
X02708D01*
X02704Y01602D01*
X02708Y01606D01*
X02704D01*
X027Y0161D01*
X02696Y01606D01*
X02692D01*
X02696Y01602D01*
X02692Y01598D01*
X02696D01*
X027Y01594D01*
Y01598D02*
X02702Y016D01*
X02704D01*
X02702Y01602D01*
X02704Y01604D01*
X02702D01*
X027Y01606D01*
X02698Y01604D01*
X02696D01*
X02698Y01602D01*
X02696Y016D01*
X02698D01*
X027Y01598D01*
X02805Y04492D02*
X02809Y04496D01*
X02813D01*
X02809Y045D01*
X02813Y04504D01*
X02809D01*
X02805Y04508D01*
X02801Y04504D01*
X02797D01*
X02801Y045D01*
X02797Y04496D01*
X02801D01*
X02805Y04492D01*
Y04496D02*
X02807Y04498D01*
X02809D01*
X02807Y045D01*
X02809Y04502D01*
X02807D01*
X02805Y04504D01*
X02803Y04502D01*
X02801D01*
X02803Y045D01*
X02801Y04498D01*
X02803D01*
X02805Y04496D01*
X020242Y01776D02*
Y01772D01*
X020322D01*
Y01776D01*
X020362D01*
Y01784D01*
X020322D01*
Y01788D01*
X020242D01*
Y01784D01*
X020202D01*
Y01776D01*
X020242D01*
X02676Y0133D02*
X0268Y01334D01*
X02684D01*
X0268Y01338D01*
X02684Y01342D01*
X0268D01*
X02676Y01346D01*
X02672Y01342D01*
X02668D01*
X02672Y01338D01*
X02668Y01334D01*
X02672D01*
X02676Y0133D01*
Y01334D02*
X02678Y01336D01*
X0268D01*
X02678Y01338D01*
X0268Y0134D01*
X02678D01*
X02676Y01342D01*
X02674Y0134D01*
X02672D01*
X02674Y01338D01*
X02672Y01336D01*
X02674D01*
X02676Y01334D01*
X02406Y02498D02*
X0241Y02502D01*
X02414D01*
X0241Y02506D01*
X02414Y0251D01*
X0241D01*
X02406Y02514D01*
X02402Y0251D01*
X02398D01*
X02402Y02506D01*
X02398Y02502D01*
X02402D01*
X02406Y02498D01*
Y02502D02*
X02408Y02504D01*
X0241D01*
X02408Y02506D01*
X0241Y02508D01*
X02408D01*
X02406Y0251D01*
X02404Y02508D01*
X02402D01*
X02404Y02506D01*
X02402Y02504D01*
X02404D01*
X02406Y02502D01*
X01258Y03098D02*
X01262Y03102D01*
X01266D01*
X01262Y03106D01*
X01266Y0311D01*
X01262D01*
X01258Y03114D01*
X01254Y0311D01*
X0125D01*
X01254Y03106D01*
X0125Y03102D01*
X01254D01*
X01258Y03098D01*
Y03102D02*
X0126Y03104D01*
X01262D01*
X0126Y03106D01*
X01262Y03108D01*
X0126D01*
X01258Y0311D01*
X01256Y03108D01*
X01254D01*
X01256Y03106D01*
X01254Y03104D01*
X01256D01*
X01258Y03102D01*
X02434Y04537D02*
X02438Y04541D01*
X02442D01*
X02438Y04545D01*
X02442Y04549D01*
X02438D01*
X02434Y04553D01*
X0243Y04549D01*
X02426D01*
X0243Y04545D01*
X02426Y04541D01*
X0243D01*
X02434Y04537D01*
Y04541D02*
X02436Y04543D01*
X02438D01*
X02436Y04545D01*
X02438Y04547D01*
X02436D01*
X02434Y04549D01*
X02432Y04547D01*
X0243D01*
X02432Y04545D01*
X0243Y04543D01*
X02432D01*
X02434Y04541D01*
X02377Y02752D02*
X02381Y02756D01*
X02385D01*
X02381Y0276D01*
X02385Y02764D01*
X02381D01*
X02377Y02768D01*
X02373Y02764D01*
X02369D01*
X02373Y0276D01*
X02369Y02756D01*
X02373D01*
X02377Y02752D01*
Y02756D02*
X02379Y02758D01*
X02381D01*
X02379Y0276D01*
X02381Y02762D01*
X02379D01*
X02377Y02764D01*
X02375Y02762D01*
X02373D01*
X02375Y0276D01*
X02373Y02758D01*
X02375D01*
X02377Y02756D01*
Y03636D02*
X02381Y0364D01*
X02385D01*
X02381Y03644D01*
X02385Y03648D01*
X02381D01*
X02377Y03652D01*
X02373Y03648D01*
X02369D01*
X02373Y03644D01*
X02369Y0364D01*
X02373D01*
X02377Y03636D01*
Y0364D02*
X02379Y03642D01*
X02381D01*
X02379Y03644D01*
X02381Y03646D01*
X02379D01*
X02377Y03648D01*
X02375Y03646D01*
X02373D01*
X02375Y03644D01*
X02373Y03642D01*
X02375D01*
X02377Y0364D01*
X01125Y0406D02*
X01129Y04064D01*
X01133D01*
X01129Y04068D01*
X01133Y04072D01*
X01129D01*
X01125Y04076D01*
X01121Y04072D01*
X01117D01*
X01121Y04068D01*
X01117Y04064D01*
X01121D01*
X01125Y0406D01*
Y04064D02*
X01127Y04066D01*
X01129D01*
X01127Y04068D01*
X01129Y0407D01*
X01127D01*
X01125Y04072D01*
X01123Y0407D01*
X01121D01*
X01123Y04068D01*
X01121Y04066D01*
X01123D01*
X01125Y04064D01*
X01155Y02702D02*
X01159Y02706D01*
X01163D01*
X01159Y0271D01*
X01163Y02714D01*
X01159D01*
X01155Y02718D01*
X01151Y02714D01*
X01147D01*
X01151Y0271D01*
X01147Y02706D01*
X01151D01*
X01155Y02702D01*
Y02706D02*
X01157Y02708D01*
X01159D01*
X01157Y0271D01*
X01159Y02712D01*
X01157D01*
X01155Y02714D01*
X01153Y02712D01*
X01151D01*
X01153Y0271D01*
X01151Y02708D01*
X01153D01*
X01155Y02706D01*
X0456Y01321D02*
X04564Y01325D01*
X04568D01*
X04564Y01329D01*
X04568Y01333D01*
X04564D01*
X0456Y01337D01*
X04556Y01333D01*
X04552D01*
X04556Y01329D01*
X04552Y01325D01*
X04556D01*
X0456Y01321D01*
Y01325D02*
X04562Y01327D01*
X04564D01*
X04562Y01329D01*
X04564Y01331D01*
X04562D01*
X0456Y01333D01*
X04558Y01331D01*
X04556D01*
X04558Y01329D01*
X04556Y01327D01*
X04558D01*
X0456Y01325D01*
X03065Y035575D02*
X03069Y035615D01*
X03073D01*
X03069Y035655D01*
X03073Y035695D01*
X03069D01*
X03065Y035735D01*
X03061Y035695D01*
X03057D01*
X03061Y035655D01*
X03057Y035615D01*
X03061D01*
X03065Y035575D01*
Y035615D02*
X03067Y035635D01*
X03069D01*
X03067Y035655D01*
X03069Y035675D01*
X03067D01*
X03065Y035695D01*
X03063Y035675D01*
X03061D01*
X03063Y035655D01*
X03061Y035635D01*
X03063D01*
X03065Y035615D01*
X02823Y03489D02*
X02827Y03493D01*
X02831D01*
X02827Y03497D01*
X02831Y03501D01*
X02827D01*
X02823Y03505D01*
X02819Y03501D01*
X02815D01*
X02819Y03497D01*
X02815Y03493D01*
X02819D01*
X02823Y03489D01*
Y03493D02*
X02825Y03495D01*
X02827D01*
X02825Y03497D01*
X02827Y03499D01*
X02825D01*
X02823Y03501D01*
X02821Y03499D01*
X02819D01*
X02821Y03497D01*
X02819Y03495D01*
X02821D01*
X02823Y03493D01*
D94*
X01288Y02985D02*
G03*
X01288Y02985I-00008J0D01*
G01*
Y02785D02*
G03*
X01288Y02785I-00008J0D01*
G01*
Y02585D02*
G03*
X01288Y02585I-00008J0D01*
G01*
Y02385D02*
G03*
X01288Y02385I-00008J0D01*
G01*
Y02185D02*
G03*
X01288Y02185I-00008J0D01*
G01*
X01283Y0424D02*
G03*
X01283Y0424I-00008J0D01*
G01*
Y0404D02*
G03*
X01283Y0404I-00008J0D01*
G01*
Y0384D02*
G03*
X01283Y0384I-00008J0D01*
G01*
Y0364D02*
G03*
X01283Y0364I-00008J0D01*
G01*
Y0344D02*
G03*
X01283Y0344I-00008J0D01*
G01*
Y0324D02*
G03*
X01283Y0324I-00008J0D01*
G01*
X02958Y0109D02*
G03*
X02958Y0109I-00008J0D01*
G01*
X02858D02*
G03*
X02858Y0109I-00008J0D01*
G01*
X02758D02*
G03*
X02758Y0109I-00008J0D01*
G01*
X02658D02*
G03*
X02658Y0109I-00008J0D01*
G01*
Y0119D02*
G03*
X02658Y0119I-00008J0D01*
G01*
X02758D02*
G03*
X02758Y0119I-00008J0D01*
G01*
X02858D02*
G03*
X02858Y0119I-00008J0D01*
G01*
X02958D02*
G03*
X02958Y0119I-00008J0D01*
G01*
X02913Y03715D02*
G03*
X02913Y03715I-00008J0D01*
G01*
Y03615D02*
G03*
X02913Y03615I-00008J0D01*
G01*
Y03515D02*
G03*
X02913Y03515I-00008J0D01*
G01*
Y03415D02*
G03*
X02913Y03415I-00008J0D01*
G01*
Y03315D02*
G03*
X02913Y03315I-00008J0D01*
G01*
Y03215D02*
G03*
X02913Y03215I-00008J0D01*
G01*
D95*
X02954Y0109D02*
G03*
X02954Y0109I-00004J0D01*
G01*
X02854D02*
G03*
X02854Y0109I-00004J0D01*
G01*
X02754D02*
G03*
X02754Y0109I-00004J0D01*
G01*
X02654D02*
G03*
X02654Y0109I-00004J0D01*
G01*
Y0119D02*
G03*
X02654Y0119I-00004J0D01*
G01*
X02754D02*
G03*
X02754Y0119I-00004J0D01*
G01*
X02854D02*
G03*
X02854Y0119I-00004J0D01*
G01*
X02954D02*
G03*
X02954Y0119I-00004J0D01*
G01*
X02909Y03715D02*
G03*
X02909Y03715I-00004J0D01*
G01*
Y03615D02*
G03*
X02909Y03615I-00004J0D01*
G01*
Y03515D02*
G03*
X02909Y03515I-00004J0D01*
G01*
Y03415D02*
G03*
X02909Y03415I-00004J0D01*
G01*
Y03315D02*
G03*
X02909Y03315I-00004J0D01*
G01*
Y03215D02*
G03*
X02909Y03215I-00004J0D01*
G01*
M02*
