G04*
G04 #@! TF.GenerationSoftware,Altium Limited,Altium Designer,21.3.2 (30)*
G04*
G04 Layer_Physical_Order=2*
G04 Layer_Color=16711680*
%FSTAX24Y24*%
%MOIN*%
G70*
G04*
G04 #@! TF.SameCoordinates,110FFF50-2F86-4F7F-B504-3501B117D145*
G04*
G04*
G04 #@! TF.FilePolarity,Positive*
G04*
G01*
G75*
%ADD61C,0.0236*%
%ADD62C,0.0787*%
%ADD66O,0.0750X0.0900*%
%ADD67R,0.0750X0.0900*%
%ADD68C,0.0945*%
%ADD69C,0.0650*%
%ADD70R,0.0650X0.0650*%
%ADD71C,0.0197*%
%ADD72C,0.1969*%
%ADD73O,0.0787X0.0630*%
%ADD74R,0.0945X0.0945*%
%ADD75C,0.0669*%
%ADD76O,0.0860X0.0600*%
%ADD77R,0.0598X0.0598*%
%ADD78C,0.0598*%
%ADD79R,0.0598X0.0598*%
%ADD80O,0.0709X0.0630*%
%ADD81R,0.0709X0.0630*%
%ADD82O,0.0900X0.0750*%
%ADD83R,0.0900X0.0750*%
%ADD84R,0.0591X0.0591*%
%ADD85C,0.0591*%
%ADD86R,0.0945X0.0945*%
%ADD87R,0.0669X0.0669*%
%ADD88C,0.0500*%
%ADD89C,0.0787*%
%ADD90C,0.0394*%
G36*
X045647Y047131D02*
X045572Y047093D01*
X045432Y046991D01*
X045309Y046868D01*
X045207Y046728D01*
X045128Y046573D01*
X045075Y046408D01*
X045048Y046237D01*
Y046063D01*
X045075Y045892D01*
X045128Y045727D01*
X045207Y045572D01*
X045309Y045432D01*
X045432Y045309D01*
X045572Y045207D01*
X045727Y045128D01*
X045892Y045075D01*
X046063Y045048D01*
X046237D01*
X046408Y045075D01*
X046573Y045128D01*
X046728Y045207D01*
X046868Y045309D01*
X046991Y045432D01*
X047093Y045572D01*
X047131Y045647D01*
X047181Y045635D01*
Y011765D01*
X047131Y011753D01*
X047093Y011828D01*
X046991Y011968D01*
X046868Y012091D01*
X046728Y012193D01*
X046573Y012272D01*
X046408Y012325D01*
X046237Y012352D01*
X046063D01*
X045892Y012325D01*
X045727Y012272D01*
X045572Y012193D01*
X045432Y012091D01*
X045309Y011968D01*
X045207Y011828D01*
X045128Y011673D01*
X045075Y011508D01*
X045048Y011337D01*
Y011163D01*
X045075Y010992D01*
X045128Y010827D01*
X045207Y010672D01*
X045309Y010532D01*
X045432Y010409D01*
X045572Y010307D01*
X045644Y010271D01*
X045632Y010221D01*
X035818D01*
X035806Y010271D01*
X035878Y010307D01*
X036018Y010409D01*
X036141Y010532D01*
X036243Y010672D01*
X036322Y010827D01*
X036375Y010992D01*
X036402Y011163D01*
Y011337D01*
X036375Y011508D01*
X036322Y011673D01*
X036243Y011828D01*
X036141Y011968D01*
X036018Y012091D01*
X035878Y012193D01*
X035723Y012272D01*
X035558Y012325D01*
X035387Y012352D01*
X035213D01*
X035042Y012325D01*
X034877Y012272D01*
X034722Y012193D01*
X034582Y012091D01*
X034459Y011968D01*
X034357Y011828D01*
X034278Y011673D01*
X034225Y011508D01*
X034198Y011337D01*
Y011163D01*
X034225Y010992D01*
X034278Y010827D01*
X034357Y010672D01*
X034459Y010532D01*
X034582Y010409D01*
X034722Y010307D01*
X034794Y010271D01*
X034782Y010221D01*
X033318D01*
X033306Y010271D01*
X033378Y010307D01*
X033518Y010409D01*
X033641Y010532D01*
X033743Y010672D01*
X033822Y010827D01*
X033875Y010992D01*
X033902Y011163D01*
Y011337D01*
X033875Y011508D01*
X033822Y011673D01*
X033743Y011828D01*
X033641Y011968D01*
X033518Y012091D01*
X033378Y012193D01*
X033223Y012272D01*
X033058Y012325D01*
X032887Y012352D01*
X032713D01*
X032542Y012325D01*
X032377Y012272D01*
X032222Y012193D01*
X032082Y012091D01*
X031959Y011968D01*
X031857Y011828D01*
X031778Y011673D01*
X031725Y011508D01*
X031698Y011337D01*
Y011163D01*
X031725Y010992D01*
X031778Y010827D01*
X031857Y010672D01*
X031959Y010532D01*
X032082Y010409D01*
X032222Y010307D01*
X032294Y010271D01*
X032282Y010221D01*
X030477D01*
X030458Y010267D01*
X030875Y010684D01*
X030927Y010762D01*
X030945Y010854D01*
Y015796D01*
X030927Y015888D01*
X030875Y015966D01*
X03065Y01619D01*
X030572Y016243D01*
X03048Y016261D01*
X02728D01*
X027226Y016315D01*
X027142Y016363D01*
X027048Y016388D01*
X026952D01*
X026858Y016363D01*
X026774Y016315D01*
X026705Y016246D01*
X026657Y016162D01*
X026632Y016068D01*
Y015972D01*
X026657Y015878D01*
X026705Y015794D01*
X026774Y015725D01*
X026858Y015677D01*
X026952Y015652D01*
X027048D01*
X027142Y015677D01*
X027226Y015725D01*
X02728Y015779D01*
X03038D01*
X030463Y015696D01*
Y013534D01*
X030417Y013515D01*
X030382Y01355D01*
X030304Y013603D01*
X030212Y013621D01*
X02704D01*
X026986Y013675D01*
X026902Y013723D01*
X026808Y013748D01*
X026712D01*
X026618Y013723D01*
X026534Y013675D01*
X026465Y013606D01*
X026417Y013522D01*
X026392Y013428D01*
Y013332D01*
X026417Y013238D01*
X026465Y013154D01*
X026534Y013085D01*
X026618Y013037D01*
X026712Y013012D01*
X026808D01*
X026902Y013037D01*
X026986Y013085D01*
X02704Y013139D01*
X030109D01*
Y0113D01*
X029967Y011158D01*
X029917Y011179D01*
Y011317D01*
X029083D01*
Y010601D01*
X028854D01*
X028838Y010651D01*
X028889Y010739D01*
X028917Y010845D01*
Y010955D01*
X028889Y011061D01*
X028834Y011156D01*
X028756Y011234D01*
X028661Y011289D01*
X028555Y011317D01*
X028445D01*
X028339Y011289D01*
X028244Y011234D01*
X028166Y011156D01*
X028111Y011061D01*
X028083Y010955D01*
Y010845D01*
X028111Y010739D01*
X028166Y010644D01*
X028244Y010566D01*
X028309Y010528D01*
Y010498D01*
X028328Y010406D01*
X02838Y010328D01*
X028441Y010267D01*
X028422Y010221D01*
X011768D01*
X011756Y010271D01*
X011828Y010307D01*
X011968Y010409D01*
X012091Y010532D01*
X012193Y010672D01*
X012272Y010827D01*
X012325Y010992D01*
X012352Y011163D01*
Y011337D01*
X012325Y011508D01*
X012272Y011673D01*
X012193Y011828D01*
X012091Y011968D01*
X011968Y012091D01*
X011828Y012193D01*
X011673Y012272D01*
X011508Y012325D01*
X011337Y012352D01*
X011163D01*
X010992Y012325D01*
X010827Y012272D01*
X010672Y012193D01*
X010532Y012091D01*
X010409Y011968D01*
X010307Y011828D01*
X010271Y011756D01*
X010221Y011768D01*
Y045632D01*
X010271Y045644D01*
X010307Y045572D01*
X010409Y045432D01*
X010532Y045309D01*
X010672Y045207D01*
X010827Y045128D01*
X010992Y045075D01*
X011163Y045048D01*
X011337D01*
X011508Y045075D01*
X011673Y045128D01*
X011828Y045207D01*
X011968Y045309D01*
X012091Y045432D01*
X012193Y045572D01*
X012272Y045727D01*
X012325Y045892D01*
X012352Y046063D01*
Y046237D01*
X012325Y046408D01*
X012272Y046573D01*
X012193Y046728D01*
X012091Y046868D01*
X011968Y046991D01*
X011828Y047093D01*
X011753Y047131D01*
X011765Y047181D01*
X032268D01*
X03228Y047131D01*
X032223Y047102D01*
X032083Y047D01*
X03196Y046877D01*
X031858Y046737D01*
X031779Y046582D01*
X031726Y046417D01*
X031699Y046246D01*
Y046072D01*
X031726Y045901D01*
X031779Y045736D01*
X031858Y045581D01*
X03196Y045441D01*
X032083Y045318D01*
X032223Y045216D01*
X032378Y045138D01*
X032543Y045084D01*
X032714Y045057D01*
X032888D01*
X033059Y045084D01*
X033224Y045138D01*
X033379Y045216D01*
X033519Y045318D01*
X033642Y045441D01*
X033744Y045581D01*
X033822Y045736D01*
X033876Y045901D01*
X033903Y046072D01*
Y046246D01*
X033876Y046417D01*
X033822Y046582D01*
X033744Y046737D01*
X033642Y046877D01*
X033519Y047D01*
X033379Y047102D01*
X033322Y047131D01*
X033334Y047181D01*
X034785D01*
X034797Y047131D01*
X034722Y047093D01*
X034582Y046991D01*
X034459Y046868D01*
X034357Y046728D01*
X034278Y046573D01*
X034225Y046408D01*
X034198Y046237D01*
Y046063D01*
X034225Y045892D01*
X034278Y045727D01*
X034357Y045572D01*
X034459Y045432D01*
X034582Y045309D01*
X034722Y045207D01*
X034877Y045128D01*
X035042Y045075D01*
X035213Y045048D01*
X035387D01*
X035558Y045075D01*
X035723Y045128D01*
X035878Y045207D01*
X036018Y045309D01*
X036141Y045432D01*
X036243Y045572D01*
X036322Y045727D01*
X036375Y045892D01*
X036402Y046063D01*
Y046237D01*
X036375Y046408D01*
X036322Y046573D01*
X036243Y046728D01*
X036141Y046868D01*
X036018Y046991D01*
X035878Y047093D01*
X035803Y047131D01*
X035815Y047181D01*
X045635D01*
X045647Y047131D01*
D02*
G37*
%LPC*%
G36*
X02626Y046931D02*
X013D01*
X012908Y046913D01*
X01283Y04686D01*
X01258Y04661D01*
X012527Y046532D01*
X012509Y04644D01*
Y042939D01*
X01247Y042923D01*
X012374Y042859D01*
X012291Y042776D01*
X012227Y04268D01*
X012182Y042572D01*
X012159Y042458D01*
Y042342D01*
X012182Y042228D01*
X012227Y04212D01*
X012291Y042024D01*
X012374Y041941D01*
X01247Y041877D01*
X012578Y041832D01*
X012692Y041809D01*
X012808D01*
X012922Y041832D01*
X01303Y041877D01*
X013126Y041941D01*
X013209Y042024D01*
X013273Y04212D01*
X013318Y042228D01*
X013341Y042342D01*
Y042458D01*
X013318Y042572D01*
X013273Y04268D01*
X013209Y042776D01*
X013126Y042859D01*
X01303Y042923D01*
X012991Y042939D01*
Y04513D01*
X013041Y04515D01*
X013103Y045088D01*
X013207Y045028D01*
X013322Y044997D01*
X013441D01*
X013556Y045028D01*
X013659Y045088D01*
X013744Y045172D01*
X013803Y045275D01*
X013834Y04539D01*
Y04551D01*
X013823Y045551D01*
X014361Y046089D01*
X020094D01*
X020113Y046043D01*
X020098Y046028D01*
X020038Y045925D01*
X020007Y04581D01*
Y04569D01*
X020038Y045575D01*
X020098Y045472D01*
X020182Y045388D01*
X020285Y045328D01*
X0204Y045297D01*
X02052D01*
X020635Y045328D01*
X020738Y045388D01*
X020822Y045472D01*
X020882Y045575D01*
X020913Y04569D01*
Y04581D01*
X020882Y045925D01*
X020822Y046028D01*
X020807Y046043D01*
X020826Y046089D01*
X025565D01*
X025629Y046025D01*
Y04433D01*
X025647Y044238D01*
X0257Y04416D01*
X026008Y043851D01*
X025997Y04381D01*
Y04369D01*
X026028Y043575D01*
X026088Y043472D01*
X026172Y043388D01*
X026275Y043328D01*
X02639Y043297D01*
X02651D01*
X026625Y043328D01*
X026728Y043388D01*
X026812Y043472D01*
X026872Y043575D01*
X026903Y04369D01*
Y04381D01*
X026872Y043925D01*
X026812Y044028D01*
X026728Y044112D01*
X026625Y044172D01*
X02651Y044203D01*
X02639D01*
X026349Y044192D01*
X026214Y044327D01*
X026245Y044367D01*
X026282Y044345D01*
X026393Y044315D01*
X0264D01*
Y04475D01*
Y045185D01*
X026393D01*
X026282Y045155D01*
X026183Y045098D01*
X026157Y045072D01*
X026111Y045091D01*
Y045384D01*
X026157Y045403D01*
X026172Y045388D01*
X026275Y045328D01*
X02639Y045297D01*
X02651D01*
X026625Y045328D01*
X026728Y045388D01*
X026812Y045472D01*
X026834Y045509D01*
X0282D01*
X028292Y045527D01*
X02837Y04558D01*
X0285Y045709D01*
X029441D01*
X029444Y045701D01*
X029523Y045598D01*
X029626Y045519D01*
X029729Y045477D01*
Y045423D01*
X029626Y045381D01*
X029523Y045302D01*
X029457Y045216D01*
X02835D01*
X028345Y045226D01*
X028276Y045295D01*
X028192Y045343D01*
X028098Y045368D01*
X028002D01*
X027908Y045343D01*
X027824Y045295D01*
X027755Y045226D01*
X027707Y045142D01*
X027682Y045048D01*
Y044952D01*
X027707Y044858D01*
X027755Y044774D01*
X027824Y044705D01*
X027908Y044657D01*
X028002Y044632D01*
X028098D01*
X028192Y044657D01*
X028276Y044705D01*
X028305Y044734D01*
X029431D01*
X029444Y044701D01*
X029523Y044598D01*
X029626Y044519D01*
X029729Y044477D01*
Y044423D01*
X029626Y044381D01*
X029523Y044302D01*
X029444Y044199D01*
X029395Y044079D01*
X029378Y04395D01*
X029395Y043821D01*
X029444Y043701D01*
X029523Y043598D01*
X029626Y043519D01*
X029729Y043477D01*
Y043423D01*
X029626Y043381D01*
X029523Y043302D01*
X029444Y043199D01*
X029441Y043191D01*
X0284D01*
X028308Y043173D01*
X02823Y04312D01*
X0281Y042991D01*
X026834D01*
X026812Y043028D01*
X026728Y043112D01*
X026625Y043172D01*
X02651Y043203D01*
X02639D01*
X026275Y043172D01*
X026172Y043112D01*
X026088Y043028D01*
X026028Y042925D01*
X025997Y04281D01*
Y04269D01*
X026028Y042575D01*
X026088Y042472D01*
X026172Y042388D01*
X026275Y042328D01*
X02639Y042297D01*
X02651D01*
X026625Y042328D01*
X026728Y042388D01*
X026812Y042472D01*
X026834Y042509D01*
X0282D01*
X028292Y042527D01*
X02837Y04258D01*
X0285Y042709D01*
X029441D01*
X029444Y042701D01*
X029523Y042598D01*
X029626Y042519D01*
X029729Y042477D01*
Y042423D01*
X029626Y042381D01*
X029523Y042302D01*
X029444Y042199D01*
X029441Y042191D01*
X0284D01*
X028308Y042173D01*
X02823Y04212D01*
X0281Y041991D01*
X026834D01*
X026812Y042028D01*
X026728Y042112D01*
X026625Y042172D01*
X02651Y042203D01*
X02639D01*
X026275Y042172D01*
X026172Y042112D01*
X026088Y042028D01*
X026028Y041925D01*
X025997Y04181D01*
Y04169D01*
X026028Y041575D01*
X026088Y041472D01*
X026172Y041388D01*
X026275Y041328D01*
X02639Y041297D01*
X02651D01*
X026625Y041328D01*
X026728Y041388D01*
X026812Y041472D01*
X026834Y041509D01*
X0282D01*
X028292Y041527D01*
X02837Y04158D01*
X0285Y041709D01*
X029441D01*
X029444Y041701D01*
X029523Y041598D01*
X029626Y041519D01*
X029729Y041477D01*
Y041423D01*
X029626Y041381D01*
X029523Y041302D01*
X029444Y041199D01*
X029441Y041191D01*
X02865D01*
X028558Y041173D01*
X02848Y04112D01*
X026916Y039557D01*
X026912Y039558D01*
X026875Y039586D01*
X026903Y03969D01*
Y03981D01*
X026872Y039925D01*
X026812Y040028D01*
X026728Y040112D01*
X026625Y040172D01*
X02651Y040203D01*
X02639D01*
X026275Y040172D01*
X026172Y040112D01*
X026088Y040028D01*
X026028Y039925D01*
X025997Y03981D01*
Y03969D01*
X026028Y039575D01*
X026088Y039472D01*
X026172Y039388D01*
X026275Y039328D01*
X02639Y039297D01*
X02651D01*
X026614Y039325D01*
X026642Y039288D01*
X026643Y039284D01*
X026551Y039192D01*
X02651Y039203D01*
X02639D01*
X026275Y039172D01*
X026172Y039112D01*
X026088Y039028D01*
X026028Y038925D01*
X025997Y03881D01*
Y03869D01*
X026028Y038575D01*
X026088Y038472D01*
X026172Y038388D01*
X026275Y038328D01*
X02639Y038297D01*
X02651D01*
X026614Y038325D01*
X026642Y038288D01*
X026643Y038284D01*
X026551Y038192D01*
X02651Y038203D01*
X02639D01*
X026275Y038172D01*
X026172Y038112D01*
X026088Y038028D01*
X026028Y037925D01*
X025997Y03781D01*
Y03769D01*
X026028Y037575D01*
X026088Y037472D01*
X026172Y037388D01*
X026275Y037328D01*
X02639Y037297D01*
X02651D01*
X026625Y037328D01*
X026728Y037388D01*
X026812Y037472D01*
X026872Y037575D01*
X026903Y03769D01*
Y03781D01*
X026892Y037851D01*
X02875Y039709D01*
X029382D01*
Y039457D01*
X030399D01*
Y0385D01*
X03034Y038441D01*
X028338D01*
X028246Y038423D01*
X028168Y03837D01*
X02743Y037632D01*
X027377Y037554D01*
X027359Y037462D01*
Y036D01*
X026916Y035557D01*
X026912Y035558D01*
X026875Y035586D01*
X026903Y03569D01*
Y03581D01*
X026872Y035925D01*
X026812Y036028D01*
X026728Y036112D01*
X026625Y036172D01*
X02651Y036203D01*
X02639D01*
X026275Y036172D01*
X026172Y036112D01*
X026088Y036028D01*
X026028Y035925D01*
X025997Y03581D01*
Y03569D01*
X026008Y035649D01*
X021331Y030971D01*
X021319Y030972D01*
X021281Y030983D01*
Y03317D01*
X021263Y033262D01*
X02121Y03334D01*
X020902Y033649D01*
X020913Y03369D01*
Y03381D01*
X020882Y033925D01*
X020822Y034028D01*
X020738Y034112D01*
X020635Y034172D01*
X02052Y034203D01*
X0204D01*
X020285Y034172D01*
X020182Y034112D01*
X020098Y034028D01*
X020038Y033925D01*
X020007Y03381D01*
Y03369D01*
X020038Y033575D01*
X020098Y033472D01*
X020182Y033388D01*
X020285Y033328D01*
X0204Y033297D01*
X02052D01*
X020561Y033308D01*
X020653Y033216D01*
X020652Y033212D01*
X020624Y033175D01*
X02052Y033203D01*
X0204D01*
X020285Y033172D01*
X020182Y033112D01*
X020098Y033028D01*
X020076Y032991D01*
X01925D01*
X019158Y032973D01*
X01908Y03292D01*
X01696Y030801D01*
X012907D01*
X012884Y030851D01*
X012908Y030891D01*
X012935Y030909D01*
X016244D01*
X016336Y030927D01*
X016414Y03098D01*
X01875Y033316D01*
X018803Y033394D01*
X018821Y033486D01*
Y03768D01*
X01965Y038509D01*
X020076D01*
X020098Y038472D01*
X020182Y038388D01*
X020285Y038328D01*
X0204Y038297D01*
X02052D01*
X020635Y038328D01*
X020738Y038388D01*
X020822Y038472D01*
X020882Y038575D01*
X020913Y03869D01*
Y03881D01*
X020885Y038914D01*
X020922Y038942D01*
X020926Y038943D01*
X023402Y036467D01*
Y036392D01*
X023427Y036298D01*
X023475Y036214D01*
X023544Y036145D01*
X023628Y036097D01*
X023722Y036072D01*
X023818D01*
X023912Y036097D01*
X023996Y036145D01*
X024065Y036214D01*
X024113Y036298D01*
X024138Y036392D01*
Y036488D01*
X024113Y036582D01*
X024065Y036666D01*
X023996Y036735D01*
X023912Y036783D01*
X023818Y036808D01*
X023742D01*
X020902Y039649D01*
X020913Y03969D01*
Y03981D01*
X020882Y039925D01*
X020822Y040028D01*
X020738Y040112D01*
X020635Y040172D01*
X02052Y040203D01*
X0204D01*
X020285Y040172D01*
X020182Y040112D01*
X020098Y040028D01*
X020038Y039925D01*
X020007Y03981D01*
Y03969D01*
X020038Y039575D01*
X020098Y039472D01*
X020182Y039388D01*
X020285Y039328D01*
X0204Y039297D01*
X02052D01*
X020561Y039308D01*
X020653Y039216D01*
X020652Y039212D01*
X020624Y039175D01*
X02052Y039203D01*
X0204D01*
X020285Y039172D01*
X020182Y039112D01*
X020098Y039028D01*
X020076Y038991D01*
X01955D01*
X019458Y038973D01*
X01938Y03892D01*
X01841Y03795D01*
X018357Y037872D01*
X018339Y03778D01*
Y033586D01*
X016144Y031391D01*
X01285D01*
X012771Y031375D01*
X01277Y031375D01*
X012757Y03144D01*
X012764Y031449D01*
X015457D01*
X015549Y031467D01*
X015627Y03152D01*
X01817Y034063D01*
X018223Y034141D01*
X018241Y034233D01*
Y039D01*
X01975Y040509D01*
X020076D01*
X020098Y040472D01*
X020182Y040388D01*
X020285Y040328D01*
X0204Y040297D01*
X02052D01*
X020635Y040328D01*
X020738Y040388D01*
X020822Y040472D01*
X020882Y040575D01*
X020913Y04069D01*
Y04081D01*
X020882Y040925D01*
X020822Y041028D01*
X020738Y041112D01*
X020635Y041172D01*
X02052Y041203D01*
X0204D01*
X020285Y041172D01*
X020182Y041112D01*
X020098Y041028D01*
X020076Y040991D01*
X01965D01*
X019558Y040973D01*
X01948Y04092D01*
X01783Y03927D01*
X017777Y039192D01*
X017759Y0391D01*
Y034333D01*
X016709Y033282D01*
X016664Y033309D01*
X016651Y033413D01*
X016607Y033518D01*
X016538Y033609D01*
X016447Y033678D01*
X016342Y033722D01*
X016229Y033737D01*
X016071D01*
X015958Y033722D01*
X015853Y033678D01*
X015762Y033609D01*
X01571Y033541D01*
X01365D01*
X013558Y033523D01*
X01348Y03347D01*
X012961Y032952D01*
X012922Y032968D01*
X012808Y032991D01*
X012692D01*
X012578Y032968D01*
X01247Y032923D01*
X012374Y032859D01*
X012291Y032776D01*
X012227Y03268D01*
X012182Y032572D01*
X012159Y032458D01*
Y032342D01*
X012182Y032228D01*
X012227Y03212D01*
X012291Y032024D01*
X012349Y031966D01*
X012339Y031916D01*
X012334Y03191D01*
X01226Y03186D01*
X01138Y03098D01*
X011327Y030902D01*
X011309Y03081D01*
Y02738D01*
X011255Y027326D01*
X011207Y027242D01*
X011182Y027148D01*
Y027052D01*
X011207Y026958D01*
X011255Y026874D01*
X011324Y026805D01*
X011408Y026757D01*
X011502Y026732D01*
X011598D01*
X011692Y026757D01*
X011776Y026805D01*
X011799Y026829D01*
X011849Y026808D01*
Y02256D01*
X011867Y022468D01*
X01192Y02239D01*
X012248Y022061D01*
X012232Y022022D01*
X012209Y021908D01*
Y021792D01*
X012232Y021678D01*
X012277Y02157D01*
X012341Y021474D01*
X012424Y021391D01*
X01252Y021327D01*
X012628Y021282D01*
X012742Y021259D01*
X012858D01*
X012972Y021282D01*
X01308Y021327D01*
X013176Y021391D01*
X013259Y021474D01*
X013323Y02157D01*
X013368Y021678D01*
X013391Y021792D01*
Y021908D01*
X013368Y022022D01*
X013323Y02213D01*
X013259Y022226D01*
X013176Y022309D01*
X01308Y022373D01*
X012972Y022418D01*
X012858Y022441D01*
X012742D01*
X012628Y022418D01*
X012589Y022402D01*
X012331Y02266D01*
Y023413D01*
X012381Y023434D01*
X012424Y023391D01*
X01252Y023327D01*
X012628Y023282D01*
X012742Y023259D01*
X012858D01*
X012972Y023282D01*
X01308Y023327D01*
X013176Y023391D01*
X013259Y023474D01*
X013323Y02357D01*
X013339Y023609D01*
X019122D01*
X019214Y023627D01*
X01922Y023631D01*
X019252Y023592D01*
X0186Y022941D01*
X014064D01*
X014058Y022951D01*
X01399Y02302D01*
X013906Y023068D01*
X013812Y023093D01*
X013715D01*
X013622Y023068D01*
X013538Y02302D01*
X013469Y022951D01*
X013421Y022867D01*
X013396Y022773D01*
Y022677D01*
X013421Y022583D01*
X013469Y022499D01*
X013538Y02243D01*
X013622Y022382D01*
X013715Y022357D01*
X013812D01*
X013906Y022382D01*
X01399Y02243D01*
X014019Y022459D01*
X0187D01*
X01876Y022471D01*
X018784Y022425D01*
X0142Y017841D01*
X013339D01*
X013323Y01788D01*
X013259Y017976D01*
X013176Y018059D01*
X01308Y018123D01*
X012972Y018168D01*
X012858Y018191D01*
X012742D01*
X012628Y018168D01*
X01252Y018123D01*
X012424Y018059D01*
X012341Y017976D01*
X012277Y01788D01*
X012232Y017772D01*
X012209Y017658D01*
Y017542D01*
X012232Y017428D01*
X012277Y01732D01*
X012341Y017224D01*
X012424Y017141D01*
X01252Y017077D01*
X012628Y017032D01*
X012742Y017009D01*
X012858D01*
X012972Y017032D01*
X01308Y017077D01*
X013176Y017141D01*
X013259Y017224D01*
X013323Y01732D01*
X013339Y017359D01*
X014203D01*
X014222Y017313D01*
X013046Y016137D01*
X012972Y016168D01*
X012858Y016191D01*
X012742D01*
X012628Y016168D01*
X01252Y016123D01*
X012424Y016059D01*
X012341Y015976D01*
X012277Y01588D01*
X012232Y015772D01*
X012209Y015658D01*
Y015542D01*
X012232Y015428D01*
X012277Y01532D01*
X012341Y015224D01*
X012424Y015141D01*
X01252Y015077D01*
X012628Y015032D01*
X012742Y015009D01*
X012858D01*
X012972Y015032D01*
X01308Y015077D01*
X013176Y015141D01*
X013259Y015224D01*
X013323Y01532D01*
X013368Y015428D01*
X013391Y015542D01*
Y015658D01*
X013368Y015772D01*
X013366Y015776D01*
X0216Y024009D01*
X02325D01*
X023342Y024027D01*
X02342Y02408D01*
X024032Y024692D01*
X024108D01*
X024202Y024717D01*
X024286Y024765D01*
X024355Y024834D01*
X024403Y024918D01*
X024428Y025012D01*
Y025108D01*
X024403Y025202D01*
X024355Y025286D01*
X024286Y025355D01*
X024202Y025403D01*
X024108Y025428D01*
X024012D01*
X023918Y025403D01*
X023834Y025355D01*
X023765Y025286D01*
X023717Y025202D01*
X023692Y025108D01*
Y025032D01*
X02315Y024491D01*
X021597D01*
X021578Y024537D01*
X023599Y026558D01*
X023655Y026544D01*
X023671Y026484D01*
X023719Y0264D01*
X023788Y026332D01*
X023872Y026283D01*
X023965Y026258D01*
X024042D01*
X024695Y025605D01*
X024773Y025553D01*
X024865Y025535D01*
X029742D01*
X029834Y025553D01*
X029912Y025605D01*
X03005Y025744D01*
X030103Y025822D01*
X030121Y025914D01*
Y026433D01*
X030221Y026475D01*
X030308Y026542D01*
X030375Y026629D01*
X030417Y026731D01*
X030432Y02684D01*
X030417Y026949D01*
X030375Y027051D01*
X030308Y027138D01*
X030221Y027205D01*
X030119Y027247D01*
X03001Y027262D01*
X02975D01*
X029641Y027247D01*
X029539Y027205D01*
X029452Y027138D01*
X029397Y027067D01*
X02937Y027064D01*
X029349Y027066D01*
X029338Y02707D01*
X029278Y027148D01*
X029191Y027215D01*
X029089Y027257D01*
X02898Y027272D01*
X02872D01*
X028611Y027257D01*
X028509Y027215D01*
X028422Y027148D01*
X028378Y027091D01*
X027182D01*
X027089Y027073D01*
X027011Y02702D01*
X026949Y026958D01*
X026903Y026977D01*
Y027203D01*
X026111D01*
Y027384D01*
X026157Y027403D01*
X026172Y027388D01*
X026275Y027328D01*
X02639Y027297D01*
X02651D01*
X026625Y027328D01*
X026728Y027388D01*
X026812Y027472D01*
X026872Y027575D01*
X026903Y02769D01*
Y02781D01*
X026872Y027925D01*
X026812Y028028D01*
X026728Y028112D01*
X026625Y028172D01*
X02651Y028203D01*
X02639D01*
X026275Y028172D01*
X026172Y028112D01*
X026157Y028097D01*
X026111Y028116D01*
Y028384D01*
X026157Y028403D01*
X026172Y028388D01*
X026275Y028328D01*
X02639Y028297D01*
X02651D01*
X026625Y028328D01*
X026728Y028388D01*
X026812Y028472D01*
X026872Y028575D01*
X026903Y02869D01*
Y02881D01*
X026872Y028925D01*
X026812Y029028D01*
X026728Y029112D01*
X026625Y029172D01*
X02651Y029203D01*
X02639D01*
X026275Y029172D01*
X026172Y029112D01*
X026157Y029097D01*
X026111Y029116D01*
Y029384D01*
X026157Y029403D01*
X026172Y029388D01*
X026275Y029328D01*
X02639Y029297D01*
X02651D01*
X026625Y029328D01*
X026728Y029388D01*
X026812Y029472D01*
X026872Y029575D01*
X026903Y02969D01*
Y02981D01*
X026872Y029925D01*
X026812Y030028D01*
X026728Y030112D01*
X026625Y030172D01*
X02651Y030203D01*
X02639D01*
X026275Y030172D01*
X026172Y030112D01*
X026157Y030097D01*
X026111Y030116D01*
Y030384D01*
X026157Y030403D01*
X026172Y030388D01*
X026275Y030328D01*
X02639Y030297D01*
X02651D01*
X026625Y030328D01*
X026728Y030388D01*
X026812Y030472D01*
X026872Y030575D01*
X026903Y03069D01*
Y03081D01*
X026872Y030925D01*
X026812Y031028D01*
X026728Y031112D01*
X026625Y031172D01*
X02651Y031203D01*
X02639D01*
X026286Y031175D01*
X026258Y031212D01*
X026257Y031216D01*
X026349Y031308D01*
X02639Y031297D01*
X02651D01*
X026625Y031328D01*
X026728Y031388D01*
X026812Y031472D01*
X026872Y031575D01*
X026903Y03169D01*
Y03181D01*
X026875Y031914D01*
X026912Y031942D01*
X026916Y031943D01*
X027159Y0317D01*
Y027998D01*
X027177Y027906D01*
X02723Y027828D01*
X027368Y02769D01*
X027446Y027637D01*
X027538Y027619D01*
X028398D01*
X028442Y027562D01*
X028529Y027495D01*
X028631Y027453D01*
X02874Y027438D01*
X029D01*
X029109Y027453D01*
X029211Y027495D01*
X029298Y027562D01*
X02933Y027604D01*
X029393D01*
X029437Y027547D01*
X029524Y02748D01*
X029626Y027438D01*
X029735Y027423D01*
X029995D01*
X030104Y027438D01*
X030206Y02748D01*
X030293Y027547D01*
X03036Y027634D01*
X030402Y027736D01*
X030417Y027845D01*
X030402Y027954D01*
X03036Y028056D01*
X030293Y028143D01*
X030206Y02821D01*
X030104Y028252D01*
X029995Y028267D01*
X029735D01*
X029626Y028252D01*
X029524Y02821D01*
X029437Y028143D01*
X029405Y028101D01*
X029342D01*
X029298Y028158D01*
X029211Y028225D01*
X029109Y028267D01*
X029Y028282D01*
X02874D01*
X028631Y028267D01*
X028529Y028225D01*
X028442Y028158D01*
X028398Y028101D01*
X027641D01*
Y0318D01*
X027623Y031892D01*
X02757Y03197D01*
X026892Y032649D01*
X026903Y03269D01*
Y03281D01*
X026872Y032925D01*
X026812Y033028D01*
X026728Y033112D01*
X026625Y033172D01*
X02651Y033203D01*
X02639D01*
X026275Y033172D01*
X026172Y033112D01*
X026088Y033028D01*
X026028Y032925D01*
X025997Y03281D01*
Y03269D01*
X026028Y032575D01*
X026088Y032472D01*
X026172Y032388D01*
X026275Y032328D01*
X02639Y032297D01*
X02651D01*
X026551Y032308D01*
X026643Y032216D01*
X026642Y032212D01*
X026614Y032175D01*
X02651Y032203D01*
X02639D01*
X026275Y032172D01*
X026172Y032112D01*
X026088Y032028D01*
X026028Y031925D01*
X025997Y03181D01*
Y03169D01*
X026008Y031649D01*
X0257Y03134D01*
X025647Y031262D01*
X025629Y03117D01*
Y02626D01*
X025647Y026168D01*
X0257Y02609D01*
X025727Y026063D01*
X025708Y026017D01*
X024965D01*
X024382Y026599D01*
Y026675D01*
X024357Y026768D01*
X024308Y026852D01*
X02424Y026921D01*
X024156Y026969D01*
X024062Y026994D01*
X024006D01*
X023963Y027018D01*
X02396Y027042D01*
Y027285D01*
X023996Y027305D01*
X024065Y027374D01*
X024113Y027458D01*
X024138Y027552D01*
Y027648D01*
X024113Y027742D01*
X024065Y027826D01*
X023996Y027895D01*
X023912Y027943D01*
X023818Y027968D01*
X023722D01*
X023628Y027943D01*
X023544Y027895D01*
X023475Y027826D01*
X023427Y027742D01*
X023402Y027648D01*
Y027552D01*
X023427Y027458D01*
X023475Y027374D01*
X023479Y027371D01*
Y027119D01*
X021775Y025416D01*
X021729Y02544D01*
X021741Y0255D01*
Y0307D01*
X025984Y034943D01*
X025988Y034942D01*
X026025Y034914D01*
X025997Y03481D01*
Y03469D01*
X026028Y034575D01*
X026088Y034472D01*
X026172Y034388D01*
X026275Y034328D01*
X02639Y034297D01*
X02651D01*
X026625Y034328D01*
X026728Y034388D01*
X026812Y034472D01*
X026872Y034575D01*
X026903Y03469D01*
Y03481D01*
X026892Y034851D01*
X02741Y03537D01*
X02746Y035349D01*
Y034278D01*
X027479Y034186D01*
X027531Y034107D01*
X027729Y033909D01*
Y03D01*
X027747Y029908D01*
X0278Y02983D01*
X02795Y02968D01*
X028028Y029627D01*
X02812Y029609D01*
X028398D01*
X028442Y029552D01*
X028529Y029485D01*
X028631Y029443D01*
X02874Y029428D01*
X029D01*
X029109Y029443D01*
X029211Y029485D01*
X029298Y029552D01*
X029353Y029623D01*
X029365Y029627D01*
X029402Y029627D01*
X029413Y029623D01*
X029465Y029555D01*
X029548Y029491D01*
X029646Y02945D01*
X02975Y029437D01*
X02983D01*
Y02984D01*
Y030243D01*
X02975D01*
X029646Y03023D01*
X029548Y030189D01*
X029465Y030125D01*
X029418Y030064D01*
X029391Y030063D01*
X02936Y030068D01*
X029298Y030148D01*
X029211Y030215D01*
X029109Y030257D01*
X029Y030272D01*
X02874D01*
X028631Y030257D01*
X028529Y030215D01*
X028442Y030148D01*
X028398Y030091D01*
X02822D01*
X028211Y0301D01*
Y034009D01*
X028193Y034101D01*
X02814Y034179D01*
X027942Y034378D01*
Y034672D01*
X027988Y034691D01*
X028004Y034675D01*
X028088Y034627D01*
X028182Y034602D01*
X028258D01*
X028637Y034222D01*
X028633Y034205D01*
Y034095D01*
X028661Y033989D01*
X028716Y033894D01*
X028794Y033816D01*
X028889Y033761D01*
X028995Y033733D01*
X029105D01*
X029122Y033737D01*
X029339Y03352D01*
X029306Y033484D01*
X029211Y033539D01*
X029105Y033567D01*
X028995D01*
X028889Y033539D01*
X028794Y033484D01*
X028716Y033406D01*
X028661Y033311D01*
X028633Y033205D01*
Y033095D01*
X028661Y032989D01*
X028716Y032894D01*
X028794Y032816D01*
X028889Y032761D01*
X028995Y032733D01*
X029105D01*
X029211Y032761D01*
X029306Y032816D01*
X029384Y032894D01*
X029439Y032989D01*
X029467Y033095D01*
Y033205D01*
X029439Y033311D01*
X029384Y033406D01*
X02942Y033439D01*
X02953Y03333D01*
X029608Y033277D01*
X0297Y033259D01*
X031478D01*
Y033067D01*
X032422D01*
Y033933D01*
X031478D01*
Y033741D01*
X0298D01*
X029463Y034078D01*
X029467Y034095D01*
Y034205D01*
X029439Y034311D01*
X029384Y034406D01*
X029306Y034484D01*
X029211Y034539D01*
X029105Y034567D01*
X028995D01*
X028978Y034563D01*
X028761Y03478D01*
X028794Y034816D01*
X028889Y034761D01*
X028995Y034733D01*
X029105D01*
X029211Y034761D01*
X029306Y034816D01*
X02936Y03487D01*
X0299Y03433D01*
X029978Y034277D01*
X03007Y034259D01*
X03155D01*
X031602Y034191D01*
X031692Y034122D01*
X031798Y034078D01*
X031911Y034063D01*
X031989D01*
X032102Y034078D01*
X032208Y034122D01*
X032298Y034191D01*
X032368Y034282D01*
X032411Y034387D01*
X032426Y0345D01*
X032411Y034613D01*
X032368Y034718D01*
X032298Y034809D01*
X032208Y034878D01*
X032102Y034922D01*
X031989Y034937D01*
X031911D01*
X031798Y034922D01*
X031692Y034878D01*
X031602Y034809D01*
X03155Y034741D01*
X03017D01*
X02959Y03532D01*
X029512Y035373D01*
X02942Y035391D01*
X029393D01*
X029384Y035406D01*
X029306Y035484D01*
X029211Y035539D01*
X029105Y035567D01*
X028995D01*
X028889Y035539D01*
X028794Y035484D01*
X028716Y035406D01*
X028661Y035311D01*
X028633Y035205D01*
Y035095D01*
X028661Y034989D01*
X028716Y034894D01*
X02868Y034861D01*
X028598Y034943D01*
Y035018D01*
X028573Y035112D01*
X028525Y035196D01*
X028456Y035265D01*
X028372Y035313D01*
X028278Y035338D01*
X028182D01*
X028088Y035313D01*
X028032Y03528D01*
X027976Y035304D01*
X027975Y035308D01*
X028576Y035909D01*
X028707D01*
X028716Y035894D01*
X028794Y035816D01*
X028889Y035761D01*
X028995Y035733D01*
X029105D01*
X029211Y035761D01*
X029306Y035816D01*
X029384Y035894D01*
X029439Y035989D01*
X029467Y036095D01*
Y036205D01*
X029439Y036311D01*
X029384Y036406D01*
X029306Y036484D01*
X029211Y036539D01*
X029105Y036567D01*
X028995D01*
X028889Y036539D01*
X028794Y036484D01*
X028716Y036406D01*
X028707Y036391D01*
X028476D01*
X028384Y036373D01*
X028306Y03632D01*
X027891Y035905D01*
X027841Y035926D01*
Y037362D01*
X028438Y037959D01*
X03044D01*
X030532Y037977D01*
X03061Y03803D01*
X03081Y03823D01*
X030863Y038308D01*
X030881Y0384D01*
Y04381D01*
X030863Y043902D01*
X03081Y04398D01*
X03067Y04412D01*
X030592Y044173D01*
X0305Y044191D01*
X030459D01*
X030456Y044199D01*
X030377Y044302D01*
X030274Y044381D01*
X030171Y044423D01*
Y044477D01*
X030274Y044519D01*
X030377Y044598D01*
X030456Y044701D01*
X030505Y044821D01*
X030522Y04495D01*
X030505Y045079D01*
X030456Y045199D01*
X030377Y045302D01*
X030274Y045381D01*
X030171Y045423D01*
Y045477D01*
X030274Y045519D01*
X030377Y045598D01*
X030456Y045701D01*
X030505Y045821D01*
X030522Y04595D01*
X030505Y046079D01*
X030456Y046199D01*
X030377Y046302D01*
X030274Y046381D01*
X030154Y04643D01*
X030025Y046447D01*
X029875D01*
X029746Y04643D01*
X029626Y046381D01*
X029523Y046302D01*
X029444Y046199D01*
X029441Y046191D01*
X0284D01*
X028308Y046173D01*
X02823Y04612D01*
X0281Y045991D01*
X026834D01*
X026812Y046028D01*
X026728Y046112D01*
X026691Y046134D01*
Y0465D01*
X026673Y046592D01*
X02662Y04667D01*
X02643Y04686D01*
X026352Y046913D01*
X02626Y046931D01*
D02*
G37*
G36*
X024388Y045818D02*
X024292D01*
X024198Y045793D01*
X024114Y045745D01*
X02406Y045691D01*
X0215D01*
X021408Y045673D01*
X02133Y04562D01*
X02116Y04545D01*
X021107Y045372D01*
X021089Y04528D01*
Y04372D01*
X020926Y043557D01*
X020922Y043558D01*
X020885Y043586D01*
X020913Y04369D01*
Y04381D01*
X020882Y043925D01*
X020822Y044028D01*
X020738Y044112D01*
X020635Y044172D01*
X02052Y044203D01*
X0204D01*
X020285Y044172D01*
X020182Y044112D01*
X020098Y044028D01*
X020038Y043925D01*
X020007Y04381D01*
Y04369D01*
X020038Y043575D01*
X020098Y043472D01*
X020182Y043388D01*
X020285Y043328D01*
X0204Y043297D01*
X02052D01*
X020624Y043325D01*
X020652Y043288D01*
X020653Y043284D01*
X020561Y043192D01*
X02052Y043203D01*
X0204D01*
X020285Y043172D01*
X020182Y043112D01*
X020098Y043028D01*
X020038Y042925D01*
X020007Y04281D01*
Y04269D01*
X020035Y042586D01*
X019998Y042558D01*
X019994Y042557D01*
X01922Y04333D01*
X019142Y043383D01*
X01905Y043401D01*
X01522D01*
X015128Y043383D01*
X01505Y04333D01*
X01336Y041641D01*
X01197D01*
X011878Y041623D01*
X0118Y04157D01*
X011278Y041048D01*
X011202D01*
X011108Y041023D01*
X011024Y040975D01*
X010955Y040906D01*
X010907Y040822D01*
X010882Y040728D01*
Y040632D01*
X010907Y040538D01*
X010955Y040454D01*
X011024Y040385D01*
X011108Y040337D01*
X011202Y040312D01*
X011298D01*
X011392Y040337D01*
X011476Y040385D01*
X011545Y040454D01*
X011593Y040538D01*
X011618Y040632D01*
Y040708D01*
X01207Y041159D01*
X01346D01*
X013552Y041177D01*
X01363Y04123D01*
X01532Y042919D01*
X01895D01*
X020018Y041851D01*
X020007Y04181D01*
Y04169D01*
X020038Y041575D01*
X020098Y041472D01*
X020182Y041388D01*
X020285Y041328D01*
X0204Y041297D01*
X02052D01*
X020635Y041328D01*
X020738Y041388D01*
X020822Y041472D01*
X020882Y041575D01*
X020913Y04169D01*
Y04181D01*
X020882Y041925D01*
X020822Y042028D01*
X020738Y042112D01*
X020635Y042172D01*
X02052Y042203D01*
X0204D01*
X020359Y042192D01*
X020267Y042284D01*
X020268Y042288D01*
X020296Y042325D01*
X0204Y042297D01*
X02052D01*
X020635Y042328D01*
X020738Y042388D01*
X020822Y042472D01*
X020882Y042575D01*
X020913Y04269D01*
Y04281D01*
X020902Y042851D01*
X0215Y04345D01*
X021553Y043528D01*
X021571Y04362D01*
Y043918D01*
X021621Y043939D01*
X021662Y043898D01*
X021765Y043838D01*
X02188Y043807D01*
X022D01*
X022115Y043838D01*
X022218Y043898D01*
X022302Y043982D01*
X022362Y044085D01*
X022393Y0442D01*
Y04432D01*
X022362Y044435D01*
X022302Y044538D01*
X022218Y044622D01*
X022115Y044682D01*
X022Y044713D01*
X02188D01*
X021765Y044682D01*
X021662Y044622D01*
X021621Y044581D01*
X021571Y044602D01*
Y04518D01*
X0216Y045209D01*
X02406D01*
X024114Y045155D01*
X024198Y045107D01*
X024292Y045082D01*
X024388D01*
X024482Y045107D01*
X024566Y045155D01*
X024635Y045224D01*
X024683Y045308D01*
X024708Y045402D01*
Y045498D01*
X024683Y045592D01*
X024635Y045676D01*
X024566Y045745D01*
X024482Y045793D01*
X024388Y045818D01*
D02*
G37*
G36*
X01541Y045903D02*
X01529D01*
X015175Y045872D01*
X015072Y045812D01*
X014988Y045728D01*
X014928Y045625D01*
X014897Y04551D01*
Y04539D01*
X014928Y045275D01*
X014988Y045172D01*
X015072Y045088D01*
X015175Y045028D01*
X01529Y044997D01*
X01541D01*
X015525Y045028D01*
X015628Y045088D01*
X015712Y045172D01*
X015772Y045275D01*
X015803Y04539D01*
Y04551D01*
X015772Y045625D01*
X015712Y045728D01*
X015628Y045812D01*
X015525Y045872D01*
X01541Y045903D01*
D02*
G37*
G36*
X026507Y045185D02*
X0265D01*
Y0448D01*
X026885D01*
Y044807D01*
X026855Y044918D01*
X026798Y045017D01*
X026717Y045098D01*
X026618Y045155D01*
X026507Y045185D01*
D02*
G37*
G36*
X026885Y0447D02*
X0265D01*
Y044315D01*
X026507D01*
X026618Y044345D01*
X026717Y044402D01*
X026798Y044483D01*
X026855Y044582D01*
X026885Y044693D01*
Y0447D01*
D02*
G37*
G36*
X02052Y045203D02*
X0204D01*
X020285Y045172D01*
X020182Y045112D01*
X020098Y045028D01*
X020038Y044925D01*
X020007Y04481D01*
Y04469D01*
X020038Y044575D01*
X020098Y044472D01*
X020182Y044388D01*
X020285Y044328D01*
X0204Y044297D01*
X02052D01*
X020635Y044328D01*
X020738Y044388D01*
X020822Y044472D01*
X020882Y044575D01*
X020913Y04469D01*
Y04481D01*
X020882Y044925D01*
X020822Y045028D01*
X020738Y045112D01*
X020635Y045172D01*
X02052Y045203D01*
D02*
G37*
G36*
X025353Y044673D02*
X024527D01*
Y043847D01*
X025353D01*
Y044673D01*
D02*
G37*
G36*
X024Y044713D02*
X02388D01*
X023765Y044682D01*
X023662Y044622D01*
X023578Y044538D01*
X023518Y044435D01*
X023487Y04432D01*
Y0442D01*
X023518Y044085D01*
X023578Y043982D01*
X023662Y043898D01*
X023765Y043838D01*
X02388Y043807D01*
X024D01*
X024115Y043838D01*
X024218Y043898D01*
X024302Y043982D01*
X024362Y044085D01*
X024393Y0442D01*
Y04432D01*
X024362Y044435D01*
X024302Y044538D01*
X024218Y044622D01*
X024115Y044682D01*
X024Y044713D01*
D02*
G37*
G36*
X023D02*
X02288D01*
X022765Y044682D01*
X022662Y044622D01*
X022578Y044538D01*
X022518Y044435D01*
X022487Y04432D01*
Y0442D01*
X022518Y044085D01*
X022578Y043982D01*
X022662Y043898D01*
X022765Y043838D01*
X02288Y043807D01*
X023D01*
X023115Y043838D01*
X023218Y043898D01*
X023302Y043982D01*
X023362Y044085D01*
X023393Y0442D01*
Y04432D01*
X023362Y044435D01*
X023302Y044538D01*
X023218Y044622D01*
X023115Y044682D01*
X023Y044713D01*
D02*
G37*
G36*
X042048Y044293D02*
X041932D01*
X041819Y044263D01*
X041718Y044205D01*
X041635Y044122D01*
X041577Y044021D01*
X041547Y043908D01*
Y043792D01*
X041577Y043679D01*
X041635Y043578D01*
X041718Y043495D01*
X041819Y043437D01*
X041932Y043407D01*
X042048D01*
X042161Y043437D01*
X042262Y043495D01*
X042345Y043578D01*
X042403Y043679D01*
X042433Y043792D01*
Y043908D01*
X042403Y044021D01*
X042345Y044122D01*
X042262Y044205D01*
X042161Y044263D01*
X042048Y044293D01*
D02*
G37*
G36*
X040268D02*
X040152D01*
X040039Y044263D01*
X039938Y044205D01*
X039855Y044122D01*
X039797Y044021D01*
X039767Y043908D01*
Y043792D01*
X039797Y043679D01*
X039855Y043578D01*
X039938Y043495D01*
X040039Y043437D01*
X040152Y043407D01*
X040268D01*
X040381Y043437D01*
X040482Y043495D01*
X040565Y043578D01*
X040623Y043679D01*
X040653Y043792D01*
Y043908D01*
X040623Y044021D01*
X040565Y044122D01*
X040482Y044205D01*
X040381Y044263D01*
X040268Y044293D01*
D02*
G37*
G36*
X016229Y042737D02*
X016071D01*
X015958Y042722D01*
X015853Y042678D01*
X015762Y042609D01*
X015693Y042518D01*
X015649Y042413D01*
X015634Y0423D01*
X015649Y042187D01*
X015693Y042082D01*
X015762Y041991D01*
X015853Y041922D01*
X015958Y041878D01*
X016071Y041863D01*
X016229D01*
X016342Y041878D01*
X016447Y041922D01*
X016538Y041991D01*
X016607Y042082D01*
X016651Y042187D01*
X016666Y0423D01*
X016651Y042413D01*
X016607Y042518D01*
X016538Y042609D01*
X016447Y042678D01*
X016342Y042722D01*
X016229Y042737D01*
D02*
G37*
G36*
Y041719D02*
X0162D01*
Y04135D01*
X016641D01*
X016633Y041408D01*
X016591Y041509D01*
X016525Y041596D01*
X016438Y041662D01*
X016337Y041704D01*
X016229Y041719D01*
D02*
G37*
G36*
X016641Y04125D02*
X0162D01*
Y040881D01*
X016229D01*
X016337Y040896D01*
X016438Y040938D01*
X016525Y041004D01*
X016591Y041091D01*
X016633Y041192D01*
X016641Y04125D01*
D02*
G37*
G36*
X0161Y041719D02*
X016071D01*
X015963Y041704D01*
X015862Y041662D01*
X015775Y041596D01*
X015733Y041541D01*
X01477D01*
X014678Y041523D01*
X0146Y04147D01*
X01377Y040641D01*
X013272D01*
X013208Y040751D01*
X013101Y040858D01*
X012971Y040933D01*
X012825Y040972D01*
X0128D01*
Y0404D01*
Y039828D01*
X012825D01*
X012971Y039867D01*
X013101Y039942D01*
X013208Y040049D01*
X013272Y040159D01*
X01387D01*
X013962Y040177D01*
X01404Y04023D01*
X01487Y041059D01*
X015733D01*
X015775Y041004D01*
X015862Y040938D01*
X015963Y040896D01*
X016071Y040881D01*
X0161D01*
Y0413D01*
Y041719D01*
D02*
G37*
G36*
X042048Y041493D02*
X041932D01*
X041819Y041463D01*
X041718Y041405D01*
X041635Y041322D01*
X041577Y041221D01*
X041547Y041108D01*
Y040992D01*
X041577Y040879D01*
X041635Y040778D01*
X041718Y040695D01*
X041819Y040637D01*
X041932Y040607D01*
X042048D01*
X042161Y040637D01*
X042262Y040695D01*
X042345Y040778D01*
X042403Y040879D01*
X042433Y040992D01*
Y041108D01*
X042403Y041221D01*
X042345Y041322D01*
X042262Y041405D01*
X042161Y041463D01*
X042048Y041493D01*
D02*
G37*
G36*
X040653D02*
X039767D01*
Y040607D01*
X040653D01*
Y041493D01*
D02*
G37*
G36*
X0127Y040972D02*
X012675D01*
X012529Y040933D01*
X012399Y040858D01*
X012292Y040751D01*
X012217Y040621D01*
X012178Y040475D01*
Y04045D01*
X0127D01*
Y040972D01*
D02*
G37*
G36*
X02651Y041203D02*
X02639D01*
X026275Y041172D01*
X026172Y041112D01*
X026088Y041028D01*
X026028Y040925D01*
X025997Y04081D01*
Y04069D01*
X026028Y040575D01*
X026088Y040472D01*
X026172Y040388D01*
X026275Y040328D01*
X02639Y040297D01*
X02651D01*
X026625Y040328D01*
X026728Y040388D01*
X026812Y040472D01*
X026872Y040575D01*
X026903Y04069D01*
Y04081D01*
X026872Y040925D01*
X026812Y041028D01*
X026728Y041112D01*
X026625Y041172D01*
X02651Y041203D01*
D02*
G37*
G36*
X016229Y040737D02*
X016071D01*
X015958Y040722D01*
X015853Y040678D01*
X015762Y040609D01*
X015693Y040518D01*
X015649Y040413D01*
X015634Y0403D01*
X015649Y040187D01*
X015693Y040082D01*
X015762Y039991D01*
X015853Y039922D01*
X015958Y039878D01*
X016071Y039863D01*
X016229D01*
X016342Y039878D01*
X016447Y039922D01*
X016538Y039991D01*
X016607Y040082D01*
X016651Y040187D01*
X016666Y0403D01*
X016651Y040413D01*
X016607Y040518D01*
X016538Y040609D01*
X016447Y040678D01*
X016342Y040722D01*
X016229Y040737D01*
D02*
G37*
G36*
X0127Y04035D02*
X012178D01*
Y040325D01*
X012217Y040179D01*
X012292Y040049D01*
X012399Y039942D01*
X012529Y039867D01*
X012675Y039828D01*
X0127D01*
Y04035D01*
D02*
G37*
G36*
X016229Y039737D02*
X016071D01*
X015958Y039722D01*
X015853Y039678D01*
X015762Y039609D01*
X015693Y039518D01*
X015649Y039413D01*
X015634Y0393D01*
X015649Y039187D01*
X015693Y039082D01*
X015762Y038991D01*
X015853Y038922D01*
X015958Y038878D01*
X016071Y038863D01*
X016229D01*
X016342Y038878D01*
X016447Y038922D01*
X016538Y038991D01*
X016607Y039082D01*
X016651Y039187D01*
X016666Y0393D01*
X016651Y039413D01*
X016607Y039518D01*
X016538Y039609D01*
X016447Y039678D01*
X016342Y039722D01*
X016229Y039737D01*
D02*
G37*
G36*
Y038737D02*
X016071D01*
X015958Y038722D01*
X015853Y038678D01*
X015762Y038609D01*
X015693Y038518D01*
X015649Y038413D01*
X015634Y0383D01*
X015649Y038187D01*
X015693Y038082D01*
X015762Y037991D01*
X015853Y037922D01*
X015958Y037878D01*
X016071Y037863D01*
X016229D01*
X016342Y037878D01*
X016447Y037922D01*
X016538Y037991D01*
X016607Y038082D01*
X016651Y038187D01*
X016666Y0383D01*
X016651Y038413D01*
X016607Y038518D01*
X016538Y038609D01*
X016447Y038678D01*
X016342Y038722D01*
X016229Y038737D01*
D02*
G37*
G36*
X02052Y038203D02*
X0204D01*
X020285Y038172D01*
X020182Y038112D01*
X020098Y038028D01*
X020038Y037925D01*
X020007Y03781D01*
Y03769D01*
X020038Y037575D01*
X020098Y037472D01*
X020182Y037388D01*
X020285Y037328D01*
X0204Y037297D01*
X02052D01*
X020635Y037328D01*
X020738Y037388D01*
X020822Y037472D01*
X020882Y037575D01*
X020913Y03769D01*
Y03781D01*
X020882Y037925D01*
X020822Y038028D01*
X020738Y038112D01*
X020635Y038172D01*
X02052Y038203D01*
D02*
G37*
G36*
X029Y037549D02*
X028997D01*
X028896Y037522D01*
X028805Y037469D01*
X028731Y037395D01*
X028678Y037304D01*
X028651Y037203D01*
Y0372D01*
X029D01*
Y037549D01*
D02*
G37*
G36*
X016229Y037737D02*
X016071D01*
X015958Y037722D01*
X015853Y037678D01*
X015762Y037609D01*
X015693Y037518D01*
X015649Y037413D01*
X015634Y0373D01*
X015649Y037187D01*
X015693Y037082D01*
X015762Y036991D01*
X015853Y036922D01*
X015958Y036878D01*
X016071Y036863D01*
X016229D01*
X016342Y036878D01*
X016447Y036922D01*
X016538Y036991D01*
X016607Y037082D01*
X016651Y037187D01*
X016666Y0373D01*
X016651Y037413D01*
X016607Y037518D01*
X016538Y037609D01*
X016447Y037678D01*
X016342Y037722D01*
X016229Y037737D01*
D02*
G37*
G36*
X039198Y039468D02*
X039102D01*
X039008Y039443D01*
X038924Y039395D01*
X038855Y039326D01*
X038807Y039242D01*
X038782Y039148D01*
Y039052D01*
X038807Y038958D01*
X038855Y038874D01*
X038909Y03882D01*
Y03743D01*
X038855Y037376D01*
X038807Y037292D01*
X038782Y037198D01*
Y037102D01*
X038807Y037008D01*
X038855Y036924D01*
X038924Y036855D01*
X039008Y036807D01*
X039102Y036782D01*
X039198D01*
X039292Y036807D01*
X039376Y036855D01*
X039445Y036924D01*
X039493Y037008D01*
X039518Y037102D01*
Y037198D01*
X039493Y037292D01*
X039445Y037376D01*
X039391Y03743D01*
Y03882D01*
X039445Y038874D01*
X039493Y038958D01*
X039518Y039052D01*
Y039148D01*
X039493Y039242D01*
X039445Y039326D01*
X039376Y039395D01*
X039292Y039443D01*
X039198Y039468D01*
D02*
G37*
G36*
X029Y0371D02*
X028651D01*
Y037097D01*
X028678Y036996D01*
X028731Y036905D01*
X028805Y036831D01*
X028896Y036778D01*
X028997Y036751D01*
X029D01*
Y0371D01*
D02*
G37*
G36*
X032Y036917D02*
Y03655D01*
X032401D01*
X032394Y036608D01*
X032352Y036709D01*
X032285Y036796D01*
X032199Y036862D01*
X032098Y036904D01*
X032Y036917D01*
D02*
G37*
G36*
X046098Y037343D02*
X045982D01*
X045869Y037313D01*
X045768Y037255D01*
X045685Y037172D01*
X045627Y037071D01*
X045597Y036958D01*
Y036842D01*
X045627Y036729D01*
X045685Y036628D01*
X045768Y036545D01*
X045869Y036487D01*
X045982Y036457D01*
X046098D01*
X046211Y036487D01*
X046312Y036545D01*
X046395Y036628D01*
X046453Y036729D01*
X046483Y036842D01*
Y036958D01*
X046453Y037071D01*
X046395Y037172D01*
X046312Y037255D01*
X046211Y037313D01*
X046098Y037343D01*
D02*
G37*
G36*
X044318D02*
X044202D01*
X044089Y037313D01*
X043988Y037255D01*
X043905Y037172D01*
X043847Y037071D01*
X043817Y036958D01*
Y036842D01*
X043847Y036729D01*
X043905Y036628D01*
X043988Y036545D01*
X044089Y036487D01*
X044202Y036457D01*
X044318D01*
X044431Y036487D01*
X044532Y036545D01*
X044615Y036628D01*
X044673Y036729D01*
X044703Y036842D01*
Y036958D01*
X044673Y037071D01*
X044615Y037172D01*
X044532Y037255D01*
X044431Y037313D01*
X044318Y037343D01*
D02*
G37*
G36*
X037998D02*
X037882D01*
X037769Y037313D01*
X037668Y037255D01*
X037585Y037172D01*
X037527Y037071D01*
X037497Y036958D01*
Y036842D01*
X037527Y036729D01*
X037585Y036628D01*
X037668Y036545D01*
X037769Y036487D01*
X037882Y036457D01*
X037998D01*
X038111Y036487D01*
X038212Y036545D01*
X038295Y036628D01*
X038353Y036729D01*
X038383Y036842D01*
Y036958D01*
X038353Y037071D01*
X038295Y037172D01*
X038212Y037255D01*
X038111Y037313D01*
X037998Y037343D01*
D02*
G37*
G36*
X036218D02*
X036102D01*
X035989Y037313D01*
X035888Y037255D01*
X035805Y037172D01*
X035747Y037071D01*
X035717Y036958D01*
Y036842D01*
X035747Y036729D01*
X035805Y036628D01*
X035888Y036545D01*
X035989Y036487D01*
X036102Y036457D01*
X036218D01*
X036331Y036487D01*
X036432Y036545D01*
X036515Y036628D01*
X036573Y036729D01*
X036603Y036842D01*
Y036958D01*
X036573Y037071D01*
X036515Y037172D01*
X036432Y037255D01*
X036331Y037313D01*
X036218Y037343D01*
D02*
G37*
G36*
X02651Y037203D02*
X02639D01*
X026275Y037172D01*
X026172Y037112D01*
X026088Y037028D01*
X026028Y036925D01*
X025997Y03681D01*
Y03669D01*
X026028Y036575D01*
X026088Y036472D01*
X026172Y036388D01*
X026275Y036328D01*
X02639Y036297D01*
X02651D01*
X026625Y036328D01*
X026728Y036388D01*
X026812Y036472D01*
X026872Y036575D01*
X026903Y03669D01*
Y03681D01*
X026872Y036925D01*
X026812Y037028D01*
X026728Y037112D01*
X026625Y037172D01*
X02651Y037203D01*
D02*
G37*
G36*
X02052D02*
X0204D01*
X020285Y037172D01*
X020182Y037112D01*
X020098Y037028D01*
X020038Y036925D01*
X020007Y03681D01*
Y03669D01*
X020038Y036575D01*
X020098Y036472D01*
X020182Y036388D01*
X020285Y036328D01*
X0204Y036297D01*
X02052D01*
X020635Y036328D01*
X020738Y036388D01*
X020822Y036472D01*
X020882Y036575D01*
X020913Y03669D01*
Y03681D01*
X020882Y036925D01*
X020822Y037028D01*
X020738Y037112D01*
X020635Y037172D01*
X02052Y037203D01*
D02*
G37*
G36*
X032401Y03645D02*
X032D01*
Y036083D01*
X032098Y036096D01*
X032199Y036138D01*
X032285Y036204D01*
X032352Y036291D01*
X032394Y036392D01*
X032401Y03645D01*
D02*
G37*
G36*
X029103Y037549D02*
X0291D01*
Y03715D01*
Y036751D01*
X029103D01*
X029204Y036778D01*
X029295Y036831D01*
X029361Y036896D01*
X029389D01*
X029956Y03633D01*
X030034Y036277D01*
X030126Y036259D01*
X030409D01*
Y035909D01*
X03037Y03587D01*
X030324Y03579D01*
X030301Y035705D01*
X030999D01*
X030976Y03579D01*
X03093Y03587D01*
X030891Y035909D01*
Y036259D01*
X031572D01*
X031615Y036204D01*
X031701Y036138D01*
X031802Y036096D01*
X0319Y036083D01*
Y0365D01*
Y036917D01*
X031802Y036904D01*
X031701Y036862D01*
X031615Y036796D01*
X031572Y036741D01*
X030226D01*
X029659Y037307D01*
X029581Y03736D01*
X029489Y037378D01*
X029379D01*
X029369Y037395D01*
X029295Y037469D01*
X029204Y037522D01*
X029103Y037549D01*
D02*
G37*
G36*
X012808Y038991D02*
X012692D01*
X012578Y038968D01*
X01247Y038923D01*
X012374Y038859D01*
X012291Y038776D01*
X012227Y03868D01*
X012182Y038572D01*
X012159Y038458D01*
Y038342D01*
X012182Y038228D01*
X012227Y03812D01*
X012291Y038024D01*
X012374Y037941D01*
X01247Y037877D01*
X012578Y037832D01*
X012692Y037809D01*
X012808D01*
X012922Y037832D01*
X012961Y037848D01*
X01468Y03613D01*
X014758Y036077D01*
X01485Y036059D01*
X01571D01*
X015762Y035991D01*
X015853Y035922D01*
X015958Y035878D01*
X016071Y035863D01*
X016229D01*
X016342Y035878D01*
X016447Y035922D01*
X016538Y035991D01*
X016607Y036082D01*
X016651Y036187D01*
X016666Y0363D01*
X016651Y036413D01*
X016607Y036518D01*
X016538Y036609D01*
X016447Y036678D01*
X016342Y036722D01*
X016229Y036737D01*
X016071D01*
X015958Y036722D01*
X015853Y036678D01*
X015762Y036609D01*
X01571Y036541D01*
X01495D01*
X013302Y038189D01*
X013318Y038228D01*
X013341Y038342D01*
Y038458D01*
X013318Y038572D01*
X013273Y03868D01*
X013209Y038776D01*
X013126Y038859D01*
X01303Y038923D01*
X012922Y038968D01*
X012808Y038991D01*
D02*
G37*
G36*
X030999Y035605D02*
X0307D01*
Y035306D01*
X030785Y035329D01*
X030865Y035375D01*
X03093Y03544D01*
X030976Y03552D01*
X030999Y035605D01*
D02*
G37*
G36*
X0306D02*
X030301D01*
X030324Y03552D01*
X03037Y03544D01*
X030435Y035375D01*
X030515Y035329D01*
X0306Y035306D01*
Y035605D01*
D02*
G37*
G36*
X02052Y036203D02*
X0204D01*
X020285Y036172D01*
X020182Y036112D01*
X020098Y036028D01*
X020038Y035925D01*
X020007Y03581D01*
Y03569D01*
X020038Y035575D01*
X020098Y035472D01*
X020182Y035388D01*
X020285Y035328D01*
X0204Y035297D01*
X02052D01*
X020635Y035328D01*
X020738Y035388D01*
X020822Y035472D01*
X020882Y035575D01*
X020913Y03569D01*
Y03581D01*
X020882Y035925D01*
X020822Y036028D01*
X020738Y036112D01*
X020635Y036172D01*
X02052Y036203D01*
D02*
G37*
G36*
X031989Y035937D02*
X031911D01*
X031798Y035922D01*
X031692Y035878D01*
X031602Y035809D01*
X031532Y035718D01*
X031489Y035613D01*
X031474Y0355D01*
X031489Y035387D01*
X031532Y035282D01*
X031602Y035191D01*
X031692Y035122D01*
X031798Y035078D01*
X031911Y035063D01*
X031989D01*
X032102Y035078D01*
X032208Y035122D01*
X032298Y035191D01*
X032368Y035282D01*
X032411Y035387D01*
X032426Y0355D01*
X032411Y035613D01*
X032368Y035718D01*
X032298Y035809D01*
X032208Y035878D01*
X032102Y035922D01*
X031989Y035937D01*
D02*
G37*
G36*
X012808Y036991D02*
X012692D01*
X012578Y036968D01*
X01247Y036923D01*
X012374Y036859D01*
X012291Y036776D01*
X012227Y03668D01*
X012182Y036572D01*
X012159Y036458D01*
Y036342D01*
X012182Y036228D01*
X012227Y03612D01*
X012291Y036024D01*
X012374Y035941D01*
X01247Y035877D01*
X012578Y035832D01*
X012692Y035809D01*
X012808D01*
X012922Y035832D01*
X012961Y035848D01*
X01368Y03513D01*
X013758Y035077D01*
X01385Y035059D01*
X01571D01*
X015762Y034991D01*
X015853Y034922D01*
X015958Y034878D01*
X016071Y034863D01*
X016229D01*
X016342Y034878D01*
X016447Y034922D01*
X016538Y034991D01*
X016607Y035082D01*
X016651Y035187D01*
X016666Y0353D01*
X016651Y035413D01*
X016607Y035518D01*
X016538Y035609D01*
X016447Y035678D01*
X016342Y035722D01*
X016229Y035737D01*
X016071D01*
X015958Y035722D01*
X015853Y035678D01*
X015762Y035609D01*
X01571Y035541D01*
X01395D01*
X013302Y036189D01*
X013318Y036228D01*
X013341Y036342D01*
Y036458D01*
X013318Y036572D01*
X013273Y03668D01*
X013209Y036776D01*
X013126Y036859D01*
X01303Y036923D01*
X012922Y036968D01*
X012808Y036991D01*
D02*
G37*
G36*
X02052Y035203D02*
X0204D01*
X020285Y035172D01*
X020182Y035112D01*
X020098Y035028D01*
X020038Y034925D01*
X020007Y03481D01*
Y03469D01*
X020038Y034575D01*
X020098Y034472D01*
X020182Y034388D01*
X020285Y034328D01*
X0204Y034297D01*
X02052D01*
X020635Y034328D01*
X020738Y034388D01*
X020822Y034472D01*
X020882Y034575D01*
X020913Y03469D01*
Y03481D01*
X020882Y034925D01*
X020822Y035028D01*
X020738Y035112D01*
X020635Y035172D01*
X02052Y035203D01*
D02*
G37*
G36*
X012808Y034991D02*
X012692D01*
X012578Y034968D01*
X01247Y034923D01*
X012374Y034859D01*
X012291Y034776D01*
X012227Y03468D01*
X012182Y034572D01*
X012159Y034458D01*
Y034342D01*
X012182Y034228D01*
X012227Y03412D01*
X012291Y034024D01*
X012374Y033941D01*
X01247Y033877D01*
X012578Y033832D01*
X012692Y033809D01*
X012808D01*
X012922Y033832D01*
X01303Y033877D01*
X013126Y033941D01*
X013209Y034024D01*
X013233Y034059D01*
X01571D01*
X015762Y033991D01*
X015853Y033922D01*
X015958Y033878D01*
X016071Y033863D01*
X016229D01*
X016342Y033878D01*
X016447Y033922D01*
X016538Y033991D01*
X016607Y034082D01*
X016651Y034187D01*
X016666Y0343D01*
X016651Y034413D01*
X016607Y034518D01*
X016538Y034609D01*
X016447Y034678D01*
X016342Y034722D01*
X016229Y034737D01*
X016071D01*
X015958Y034722D01*
X015853Y034678D01*
X015762Y034609D01*
X01571Y034541D01*
X013324D01*
X013318Y034572D01*
X013273Y03468D01*
X013209Y034776D01*
X013126Y034859D01*
X01303Y034923D01*
X012922Y034968D01*
X012808Y034991D01*
D02*
G37*
G36*
X046098Y034543D02*
X045982D01*
X045869Y034513D01*
X045768Y034455D01*
X045685Y034372D01*
X045627Y034271D01*
X045597Y034158D01*
Y034042D01*
X045627Y033929D01*
X045685Y033828D01*
X045768Y033745D01*
X045869Y033687D01*
X045982Y033657D01*
X046098D01*
X046211Y033687D01*
X046312Y033745D01*
X046395Y033828D01*
X046453Y033929D01*
X046483Y034042D01*
Y034158D01*
X046453Y034271D01*
X046395Y034372D01*
X046312Y034455D01*
X046211Y034513D01*
X046098Y034543D01*
D02*
G37*
G36*
X044703D02*
X043817D01*
Y033657D01*
X044703D01*
Y034543D01*
D02*
G37*
G36*
X036603D02*
X035717D01*
Y033657D01*
X036603D01*
Y034543D01*
D02*
G37*
G36*
X02651Y034203D02*
X02639D01*
X026275Y034172D01*
X026172Y034112D01*
X026088Y034028D01*
X026028Y033925D01*
X025997Y03381D01*
Y03369D01*
X026028Y033575D01*
X026088Y033472D01*
X026172Y033388D01*
X026275Y033328D01*
X02639Y033297D01*
X02651D01*
X026625Y033328D01*
X026728Y033388D01*
X026812Y033472D01*
X026872Y033575D01*
X026903Y03369D01*
Y03381D01*
X026872Y033925D01*
X026812Y034028D01*
X026728Y034112D01*
X026625Y034172D01*
X02651Y034203D01*
D02*
G37*
G36*
X029467Y032567D02*
X028633D01*
Y031733D01*
X029467D01*
Y032567D01*
D02*
G37*
G36*
X03001Y030243D02*
X02993D01*
Y02989D01*
X030407D01*
X0304Y029944D01*
X030359Y030042D01*
X030295Y030125D01*
X030212Y030189D01*
X030114Y03023D01*
X03001Y030243D01*
D02*
G37*
G36*
X042048Y030393D02*
X041932D01*
X041819Y030363D01*
X041718Y030305D01*
X041635Y030222D01*
X041577Y030121D01*
X041547Y030008D01*
Y029892D01*
X041577Y029779D01*
X041635Y029678D01*
X041718Y029595D01*
X041819Y029537D01*
X041932Y029507D01*
X042048D01*
X042161Y029537D01*
X042262Y029595D01*
X042345Y029678D01*
X042403Y029779D01*
X042433Y029892D01*
Y030008D01*
X042403Y030121D01*
X042345Y030222D01*
X042262Y030305D01*
X042161Y030363D01*
X042048Y030393D01*
D02*
G37*
G36*
X040268D02*
X040152D01*
X040039Y030363D01*
X039938Y030305D01*
X039855Y030222D01*
X039797Y030121D01*
X039767Y030008D01*
Y029892D01*
X039797Y029779D01*
X039855Y029678D01*
X039938Y029595D01*
X040039Y029537D01*
X040152Y029507D01*
X040268D01*
X040381Y029537D01*
X040482Y029595D01*
X040565Y029678D01*
X040623Y029779D01*
X040653Y029892D01*
Y030008D01*
X040623Y030121D01*
X040565Y030222D01*
X040482Y030305D01*
X040381Y030363D01*
X040268Y030393D01*
D02*
G37*
G36*
X030407Y02979D02*
X02993D01*
Y029437D01*
X03001D01*
X030114Y02945D01*
X030212Y029491D01*
X030295Y029555D01*
X030359Y029638D01*
X0304Y029736D01*
X030407Y02979D01*
D02*
G37*
G36*
X03001Y029243D02*
X02993D01*
Y02889D01*
X030407D01*
X0304Y028944D01*
X030359Y029042D01*
X030295Y029125D01*
X030212Y029189D01*
X030114Y02923D01*
X03001Y029243D01*
D02*
G37*
G36*
X030407Y02879D02*
X02993D01*
Y028437D01*
X03001D01*
X030114Y02845D01*
X030212Y028491D01*
X030295Y028555D01*
X030359Y028638D01*
X0304Y028736D01*
X030407Y02879D01*
D02*
G37*
G36*
X029Y029272D02*
X02874D01*
X028631Y029257D01*
X028529Y029215D01*
X028442Y029148D01*
X028375Y029061D01*
X028333Y028959D01*
X028318Y02885D01*
X028333Y028741D01*
X028375Y028639D01*
X028442Y028552D01*
X028529Y028485D01*
X028631Y028443D01*
X02874Y028428D01*
X029D01*
X029109Y028443D01*
X029211Y028485D01*
X029298Y028552D01*
X029353Y028623D01*
X029365Y028627D01*
X029402Y028627D01*
X029413Y028623D01*
X029465Y028555D01*
X029548Y028491D01*
X029646Y02845D01*
X02975Y028437D01*
X02983D01*
Y02884D01*
Y029243D01*
X02975D01*
X029646Y02923D01*
X029548Y029189D01*
X029465Y029125D01*
X029418Y029064D01*
X029391Y029063D01*
X02936Y029068D01*
X029298Y029148D01*
X029211Y029215D01*
X029109Y029257D01*
X029Y029272D01*
D02*
G37*
G36*
X040653Y027593D02*
X039767D01*
Y026707D01*
X040653D01*
Y027593D01*
D02*
G37*
G36*
X037998Y034543D02*
X037882D01*
X037769Y034513D01*
X037668Y034455D01*
X037585Y034372D01*
X037527Y034271D01*
X037497Y034158D01*
Y034042D01*
X037527Y033929D01*
X037585Y033828D01*
X037668Y033745D01*
X037694Y03373D01*
Y02495D01*
Y023925D01*
X037658Y023905D01*
X037575Y023822D01*
X037517Y023721D01*
X037487Y023608D01*
Y023492D01*
X037517Y023379D01*
X037575Y023278D01*
X037658Y023195D01*
X037759Y023137D01*
X037872Y023107D01*
X037988D01*
X038101Y023137D01*
X038202Y023195D01*
X038285Y023278D01*
X038343Y023379D01*
X038373Y023492D01*
Y023608D01*
X038343Y023721D01*
X038285Y023822D01*
X038202Y023905D01*
X038176Y02392D01*
Y024709D01*
X0454D01*
X045749Y02436D01*
Y023923D01*
X045718Y023905D01*
X045635Y023822D01*
X045577Y023721D01*
X045547Y023608D01*
Y023492D01*
X045577Y023379D01*
X045635Y023278D01*
X045718Y023195D01*
X045819Y023137D01*
X045932Y023107D01*
X046048D01*
X046161Y023137D01*
X046262Y023195D01*
X046345Y023278D01*
X046403Y023379D01*
X046433Y023492D01*
Y023608D01*
X046403Y023721D01*
X046345Y023822D01*
X046262Y023905D01*
X046231Y023923D01*
Y02446D01*
X046213Y024552D01*
X04616Y02463D01*
X04567Y02512D01*
X045592Y025173D01*
X0455Y025191D01*
X042231D01*
Y026777D01*
X042262Y026795D01*
X042345Y026878D01*
X042403Y026979D01*
X042433Y027092D01*
Y027208D01*
X042403Y027321D01*
X042345Y027422D01*
X042262Y027505D01*
X042161Y027563D01*
X042048Y027593D01*
X041932D01*
X041819Y027563D01*
X041718Y027505D01*
X041635Y027422D01*
X041577Y027321D01*
X041547Y027208D01*
Y027092D01*
X041577Y026979D01*
X041635Y026878D01*
X041718Y026795D01*
X041749Y026777D01*
Y025191D01*
X038176D01*
Y033725D01*
X038212Y033745D01*
X038295Y033828D01*
X038353Y033929D01*
X038383Y034042D01*
Y034158D01*
X038353Y034271D01*
X038295Y034372D01*
X038212Y034455D01*
X038111Y034513D01*
X037998Y034543D01*
D02*
G37*
G36*
X044268Y023993D02*
X044152D01*
X044039Y023963D01*
X043938Y023905D01*
X043855Y023822D01*
X043797Y023721D01*
X043767Y023608D01*
Y023492D01*
X043797Y023379D01*
X043855Y023278D01*
X043938Y023195D01*
X044039Y023137D01*
X044152Y023107D01*
X044268D01*
X044381Y023137D01*
X044482Y023195D01*
X044565Y023278D01*
X044623Y023379D01*
X044653Y023492D01*
Y023608D01*
X044623Y023721D01*
X044565Y023822D01*
X044482Y023905D01*
X044381Y023963D01*
X044268Y023993D01*
D02*
G37*
G36*
X036208D02*
X036092D01*
X035979Y023963D01*
X035878Y023905D01*
X035795Y023822D01*
X035737Y023721D01*
X035707Y023608D01*
Y023492D01*
X035737Y023379D01*
X035795Y023278D01*
X035878Y023195D01*
X035979Y023137D01*
X036092Y023107D01*
X036208D01*
X036321Y023137D01*
X036422Y023195D01*
X036505Y023278D01*
X036563Y023379D01*
X036593Y023492D01*
Y023608D01*
X036563Y023721D01*
X036505Y023822D01*
X036422Y023905D01*
X036321Y023963D01*
X036208Y023993D01*
D02*
G37*
G36*
X046048Y021193D02*
X045932D01*
X045819Y021163D01*
X045718Y021105D01*
X045635Y021022D01*
X045577Y020921D01*
X045547Y020808D01*
Y020692D01*
X045577Y020579D01*
X045635Y020478D01*
X045718Y020395D01*
X045819Y020337D01*
X045932Y020307D01*
X046048D01*
X046161Y020337D01*
X046262Y020395D01*
X046345Y020478D01*
X046403Y020579D01*
X046433Y020692D01*
Y020808D01*
X046403Y020921D01*
X046345Y021022D01*
X046262Y021105D01*
X046161Y021163D01*
X046048Y021193D01*
D02*
G37*
G36*
X044653D02*
X043767D01*
Y020307D01*
X044653D01*
Y021193D01*
D02*
G37*
G36*
X037988D02*
X037872D01*
X037759Y021163D01*
X037658Y021105D01*
X037575Y021022D01*
X037517Y020921D01*
X037487Y020808D01*
Y020692D01*
X037517Y020579D01*
X037575Y020478D01*
X037658Y020395D01*
X037759Y020337D01*
X037872Y020307D01*
X037988D01*
X038101Y020337D01*
X038202Y020395D01*
X038285Y020478D01*
X038343Y020579D01*
X038373Y020692D01*
Y020808D01*
X038343Y020921D01*
X038285Y021022D01*
X038202Y021105D01*
X038101Y021163D01*
X037988Y021193D01*
D02*
G37*
G36*
X036593D02*
X035707D01*
Y020307D01*
X036593D01*
Y021193D01*
D02*
G37*
G36*
X012858Y020191D02*
X012742D01*
X012628Y020168D01*
X01252Y020123D01*
X012424Y020059D01*
X012341Y019976D01*
X012277Y01988D01*
X012232Y019772D01*
X012209Y019658D01*
Y019542D01*
X012232Y019428D01*
X012277Y01932D01*
X012341Y019224D01*
X012424Y019141D01*
X01252Y019077D01*
X012628Y019032D01*
X012742Y019009D01*
X012858D01*
X012972Y019032D01*
X01308Y019077D01*
X013176Y019141D01*
X013259Y019224D01*
X013323Y01932D01*
X013368Y019428D01*
X013391Y019542D01*
Y019658D01*
X013368Y019772D01*
X013323Y01988D01*
X013259Y019976D01*
X013176Y020059D01*
X01308Y020123D01*
X012972Y020168D01*
X012858Y020191D01*
D02*
G37*
G36*
X01915Y016395D02*
X019148D01*
X019047Y016368D01*
X018957Y016316D01*
X018884Y016243D01*
X018883Y016241D01*
X018167D01*
X018166Y016243D01*
X018093Y016316D01*
X018003Y016368D01*
X017902Y016395D01*
X0179D01*
Y016D01*
Y015605D01*
X017902D01*
X018003Y015632D01*
X018093Y015684D01*
X018166Y015757D01*
X018167Y015759D01*
X018883D01*
X018884Y015757D01*
X018957Y015684D01*
X019047Y015632D01*
X019148Y015605D01*
X01915D01*
Y016D01*
Y016395D01*
D02*
G37*
G36*
X018702Y019896D02*
X018702Y019896D01*
X0182D01*
X018166Y019892D01*
X018133D01*
X0181Y019883D01*
X018066Y019879D01*
X018035Y019866D01*
X018002Y019857D01*
X017973Y01984D01*
X017942Y019827D01*
X017915Y019806D01*
X017886Y01979D01*
X017862Y019766D01*
X017835Y019745D01*
X017814Y019718D01*
X01779Y019694D01*
X017774Y019665D01*
X017753Y019638D01*
X01774Y019607D01*
X017723Y019578D01*
X017714Y019545D01*
X017701Y019514D01*
X017697Y01948D01*
X017688Y019447D01*
Y019414D01*
X017684Y01938D01*
X017688Y019346D01*
Y019313D01*
X017697Y01928D01*
X017701Y019246D01*
X017714Y019215D01*
X017723Y019182D01*
X01774Y019153D01*
X017753Y019122D01*
X017774Y019095D01*
X01779Y019066D01*
X017814Y019042D01*
X017835Y019015D01*
X017862Y018994D01*
X017886Y01897D01*
X017915Y018954D01*
X017942Y018933D01*
X017973Y01892D01*
X018002Y018903D01*
X018035Y018894D01*
X018066Y018881D01*
X0181Y018877D01*
X018133Y018868D01*
X018166D01*
X0182Y018864D01*
X018488D01*
X019765Y017586D01*
Y016413D01*
X019574D01*
Y016243D01*
X019524Y016229D01*
X019516Y016243D01*
X019443Y016316D01*
X019353Y016368D01*
X019252Y016395D01*
X01925D01*
Y016D01*
Y015605D01*
X019252D01*
X019353Y015632D01*
X019443Y015684D01*
X019516Y015757D01*
X019524Y015771D01*
X019574Y015757D01*
Y015587D01*
X019765D01*
Y013468D01*
X019765Y013468D01*
X019783Y013335D01*
X019835Y01321D01*
X019917Y013103D01*
X020859Y012161D01*
Y011709D01*
X022041D01*
Y012657D01*
X022087Y012676D01*
X022259Y012503D01*
Y01098D01*
X022205Y010926D01*
X022157Y010842D01*
X022132Y010748D01*
Y010652D01*
X022157Y010558D01*
X022205Y010474D01*
X022274Y010405D01*
X022358Y010357D01*
X022452Y010332D01*
X022548D01*
X022642Y010357D01*
X022726Y010405D01*
X022795Y010474D01*
X022843Y010558D01*
X022868Y010652D01*
Y010748D01*
X022843Y010842D01*
X022795Y010926D01*
X022741Y01098D01*
Y012603D01*
X022723Y012695D01*
X02267Y012773D01*
X022041Y013403D01*
Y014926D01*
X022095Y01498D01*
X022143Y015064D01*
X022168Y015158D01*
Y015255D01*
X022143Y015348D01*
X022095Y015432D01*
X022026Y015501D01*
X021942Y015549D01*
X021848Y015574D01*
X021752D01*
X021658Y015549D01*
X021574Y015501D01*
X021505Y015432D01*
X021457Y015348D01*
X021432Y015255D01*
Y015158D01*
X021457Y015064D01*
X021505Y01498D01*
X021559Y014926D01*
Y013303D01*
X021577Y013211D01*
X02163Y013133D01*
X021826Y012937D01*
X021807Y012891D01*
X02159D01*
X020798Y013682D01*
Y0178D01*
X020793Y017834D01*
Y017867D01*
X020785Y0179D01*
X02078Y017934D01*
X020767Y017965D01*
X020759Y017998D01*
X020742Y018027D01*
X020729Y018058D01*
X020708Y018085D01*
X020691Y018114D01*
X020667Y018138D01*
X020647Y018165D01*
X020647Y018165D01*
X019067Y019745D01*
X01896Y019827D01*
X018835Y019879D01*
X018702Y019896D01*
D02*
G37*
G36*
X017476Y016413D02*
X016649D01*
Y015587D01*
X017476D01*
Y015757D01*
X017526Y015771D01*
X017534Y015757D01*
X017607Y015684D01*
X017697Y015632D01*
X017798Y015605D01*
X0178D01*
Y016D01*
Y016395D01*
X017798D01*
X017697Y016368D01*
X017607Y016316D01*
X017534Y016243D01*
X017526Y016229D01*
X017476Y016243D01*
Y016413D01*
D02*
G37*
G36*
X036641Y017415D02*
X036559D01*
X036478Y017393D01*
X036407Y017352D01*
X036348Y017293D01*
X036307Y017222D01*
X036285Y017141D01*
Y017059D01*
X036307Y016978D01*
X036348Y016907D01*
X036359Y016895D01*
Y016488D01*
X036377Y016396D01*
X03643Y016318D01*
X036568Y01618D01*
X036646Y016127D01*
X036738Y016109D01*
X039409D01*
Y015159D01*
X039401Y015156D01*
X039298Y015077D01*
X039219Y014974D01*
X039177Y014871D01*
X039123D01*
X039081Y014974D01*
X039002Y015077D01*
X038899Y015156D01*
X038779Y015205D01*
X03865Y015222D01*
X038521Y015205D01*
X038401Y015156D01*
X038298Y015077D01*
X038219Y014974D01*
X038177Y014871D01*
X038123D01*
X038081Y014974D01*
X038002Y015077D01*
X037899Y015156D01*
X037779Y015205D01*
X03765Y015222D01*
X037521Y015205D01*
X037401Y015156D01*
X037298Y015077D01*
X037219Y014974D01*
X03717Y014854D01*
X037153Y014725D01*
Y014575D01*
X03717Y014446D01*
X037219Y014326D01*
X037298Y014223D01*
X037401Y014144D01*
X037521Y014095D01*
X03765Y014078D01*
X037779Y014095D01*
X037899Y014144D01*
X038002Y014223D01*
X038081Y014326D01*
X038123Y014429D01*
X038177D01*
X038219Y014326D01*
X038298Y014223D01*
X038401Y014144D01*
X038409Y014141D01*
Y0135D01*
X038427Y013408D01*
X03848Y01333D01*
X03869Y01312D01*
X038768Y013067D01*
X03886Y013049D01*
X04532D01*
X045374Y012995D01*
X045458Y012947D01*
X045552Y012922D01*
X045648D01*
X045742Y012947D01*
X045826Y012995D01*
X045895Y013064D01*
X045943Y013148D01*
X045968Y013242D01*
Y013338D01*
X045943Y013432D01*
X045895Y013516D01*
X045826Y013585D01*
X045742Y013633D01*
X045648Y013658D01*
X045552D01*
X045458Y013633D01*
X045374Y013585D01*
X04532Y013531D01*
X03896D01*
X038891Y0136D01*
Y014141D01*
X038899Y014144D01*
X039002Y014223D01*
X039081Y014326D01*
X039123Y014429D01*
X039177D01*
X039219Y014326D01*
X039298Y014223D01*
X039401Y014144D01*
X039521Y014095D01*
X03965Y014078D01*
X039779Y014095D01*
X039899Y014144D01*
X040002Y014223D01*
X040081Y014326D01*
X040123Y014429D01*
X040177D01*
X040219Y014326D01*
X040298Y014223D01*
X040401Y014144D01*
X040521Y014095D01*
X04065Y014078D01*
X040779Y014095D01*
X040899Y014144D01*
X041002Y014223D01*
X041081Y014326D01*
X041123Y014429D01*
X041177D01*
X041219Y014326D01*
X041298Y014223D01*
X041401Y014144D01*
X041521Y014095D01*
X04165Y014078D01*
X041779Y014095D01*
X041899Y014144D01*
X042002Y014223D01*
X042081Y014326D01*
X042123Y014429D01*
X042177D01*
X042219Y014326D01*
X042298Y014223D01*
X042401Y014144D01*
X042521Y014095D01*
X04265Y014078D01*
X042779Y014095D01*
X042899Y014144D01*
X043002Y014223D01*
X043081Y014326D01*
X043107Y014389D01*
X043157Y01438D01*
Y014082D01*
X044143D01*
Y015218D01*
X043157D01*
Y01492D01*
X043107Y014911D01*
X043081Y014974D01*
X043002Y015077D01*
X042899Y015156D01*
X042779Y015205D01*
X04265Y015222D01*
X042521Y015205D01*
X042401Y015156D01*
X042298Y015077D01*
X042219Y014974D01*
X042177Y014871D01*
X042123D01*
X042081Y014974D01*
X042002Y015077D01*
X041899Y015156D01*
X041779Y015205D01*
X04165Y015222D01*
X041521Y015205D01*
X041401Y015156D01*
X041298Y015077D01*
X041219Y014974D01*
X041177Y014871D01*
X041123D01*
X041081Y014974D01*
X041002Y015077D01*
X040899Y015156D01*
X040779Y015205D01*
X04065Y015222D01*
X040521Y015205D01*
X040401Y015156D01*
X040298Y015077D01*
X040219Y014974D01*
X040177Y014871D01*
X040123D01*
X040081Y014974D01*
X040002Y015077D01*
X039899Y015156D01*
X039891Y015159D01*
Y016212D01*
X039873Y016304D01*
X03982Y016382D01*
X039682Y01652D01*
X039604Y016573D01*
X039512Y016591D01*
X036841D01*
Y016895D01*
X036852Y016907D01*
X036893Y016978D01*
X036915Y017059D01*
Y017141D01*
X036893Y017222D01*
X036852Y017293D01*
X036793Y017352D01*
X036722Y017393D01*
X036641Y017415D01*
D02*
G37*
G36*
X013391Y014191D02*
X012209D01*
Y013009D01*
X013391D01*
Y014191D01*
D02*
G37*
G36*
X018675Y012972D02*
X01865D01*
Y01245D01*
X019172D01*
Y012475D01*
X019133Y012621D01*
X019058Y012751D01*
X018951Y012858D01*
X018821Y012933D01*
X018675Y012972D01*
D02*
G37*
G36*
X01855D02*
X018525D01*
X018379Y012933D01*
X018249Y012858D01*
X018142Y012751D01*
X018067Y012621D01*
X018028Y012475D01*
Y01245D01*
X01855D01*
Y012972D01*
D02*
G37*
G36*
X0234Y012872D02*
X023375D01*
X023229Y012833D01*
X023099Y012758D01*
X022992Y012651D01*
X022917Y012521D01*
X022878Y012375D01*
Y01235D01*
X0234D01*
Y012872D01*
D02*
G37*
G36*
X019172Y01235D02*
X01865D01*
Y011828D01*
X018675D01*
X018821Y011867D01*
X018951Y011942D01*
X019058Y012049D01*
X019133Y012179D01*
X019172Y012325D01*
Y01235D01*
D02*
G37*
G36*
X01855D02*
X018028D01*
Y012325D01*
X018067Y012179D01*
X018142Y012049D01*
X018249Y011942D01*
X018379Y011867D01*
X018525Y011828D01*
X01855D01*
Y01235D01*
D02*
G37*
G36*
X017191Y012991D02*
X016009D01*
Y011809D01*
X017191D01*
Y012991D01*
D02*
G37*
G36*
X0234Y01225D02*
X022878D01*
Y012225D01*
X022917Y012079D01*
X022992Y011949D01*
X023099Y011842D01*
X023229Y011767D01*
X023375Y011728D01*
X0234D01*
Y01225D01*
D02*
G37*
G36*
X029555Y012317D02*
X029445D01*
X029339Y012289D01*
X029244Y012234D01*
X029166Y012156D01*
X029111Y012061D01*
X029083Y011955D01*
Y011845D01*
X029111Y011739D01*
X029166Y011644D01*
X029244Y011566D01*
X029339Y011511D01*
X029445Y011483D01*
X029555D01*
X029661Y011511D01*
X029756Y011566D01*
X029834Y011644D01*
X029889Y011739D01*
X029917Y011845D01*
Y011955D01*
X029889Y012061D01*
X029834Y012156D01*
X029756Y012234D01*
X029661Y012289D01*
X029555Y012317D01*
D02*
G37*
G36*
X028555D02*
X028445D01*
X028339Y012289D01*
X028244Y012234D01*
X028166Y012156D01*
X028111Y012061D01*
X028083Y011955D01*
Y011845D01*
X028111Y011739D01*
X028166Y011644D01*
X028244Y011566D01*
X028339Y011511D01*
X028445Y011483D01*
X028555D01*
X028661Y011511D01*
X028756Y011566D01*
X028834Y011644D01*
X028889Y011739D01*
X028917Y011845D01*
Y011955D01*
X028889Y012061D01*
X028834Y012156D01*
X028756Y012234D01*
X028661Y012289D01*
X028555Y012317D01*
D02*
G37*
G36*
X027555D02*
X027445D01*
X027339Y012289D01*
X027244Y012234D01*
X027166Y012156D01*
X027111Y012061D01*
X027083Y011955D01*
Y011845D01*
X027111Y011739D01*
X027166Y011644D01*
X027244Y011566D01*
X027339Y011511D01*
X027445Y011483D01*
X027555D01*
X027661Y011511D01*
X027756Y011566D01*
X027834Y011644D01*
X027889Y011739D01*
X027917Y011845D01*
Y011955D01*
X027889Y012061D01*
X027834Y012156D01*
X027756Y012234D01*
X027661Y012289D01*
X027555Y012317D01*
D02*
G37*
G36*
X023525Y012872D02*
X0235D01*
Y0123D01*
Y011728D01*
X023525D01*
X023671Y011767D01*
X023801Y011842D01*
X023908Y011949D01*
X023972Y012059D01*
X025D01*
X025705Y011355D01*
X025679Y01131D01*
X025648Y011318D01*
X025552D01*
X025458Y011293D01*
X025374Y011245D01*
X025305Y011176D01*
X025257Y011092D01*
X025232Y010998D01*
Y010994D01*
X025179Y010941D01*
X02473D01*
X024676Y010995D01*
X024592Y011043D01*
X024498Y011068D01*
X024402D01*
X024308Y011043D01*
X024224Y010995D01*
X024155Y010926D01*
X024107Y010842D01*
X024082Y010748D01*
Y010652D01*
X024107Y010558D01*
X024155Y010474D01*
X024224Y010405D01*
X024308Y010357D01*
X024402Y010332D01*
X024498D01*
X024592Y010357D01*
X024676Y010405D01*
X02473Y010459D01*
X025279D01*
X025371Y010477D01*
X025449Y01053D01*
X025512Y010593D01*
X025552Y010582D01*
X025648D01*
X025742Y010607D01*
X025826Y010655D01*
X025895Y010724D01*
X025943Y010808D01*
X025968Y010902D01*
Y010998D01*
X02596Y011029D01*
X026005Y011055D01*
X026102Y010957D01*
X026101Y010953D01*
Y01095D01*
X02645D01*
Y011299D01*
X026447D01*
X026443Y011298D01*
X026211Y01153D01*
X026244Y011566D01*
X026339Y011511D01*
X026445Y011483D01*
X026555D01*
X026661Y011511D01*
X026756Y011566D01*
X026834Y011644D01*
X026889Y011739D01*
X026917Y011845D01*
Y011955D01*
X026889Y012061D01*
X026834Y012156D01*
X026756Y012234D01*
X026661Y012289D01*
X026555Y012317D01*
X026445D01*
X026339Y012289D01*
X026244Y012234D01*
X026166Y012156D01*
X026111Y012061D01*
X026083Y011955D01*
Y011845D01*
X026111Y011739D01*
X026166Y011644D01*
X02613Y011611D01*
X02527Y01247D01*
X025192Y012523D01*
X0251Y012541D01*
X023972D01*
X023908Y012651D01*
X023801Y012758D01*
X023671Y012833D01*
X023525Y012872D01*
D02*
G37*
G36*
X026553Y011299D02*
X02655D01*
Y01095D01*
X026899D01*
Y010953D01*
X026872Y011054D01*
X026819Y011145D01*
X026745Y011219D01*
X026654Y011272D01*
X026553Y011299D01*
D02*
G37*
G36*
X026899Y01085D02*
X02655D01*
Y010501D01*
X026553D01*
X026654Y010528D01*
X026745Y010581D01*
X026819Y010655D01*
X026872Y010746D01*
X026899Y010847D01*
Y01085D01*
D02*
G37*
G36*
X02645D02*
X026101D01*
Y010847D01*
X026128Y010746D01*
X026181Y010655D01*
X026255Y010581D01*
X026346Y010528D01*
X026447Y010501D01*
X02645D01*
Y01085D01*
D02*
G37*
G36*
X027555Y011317D02*
X027445D01*
X027339Y011289D01*
X027244Y011234D01*
X027166Y011156D01*
X027111Y011061D01*
X027083Y010955D01*
Y010845D01*
X027111Y010739D01*
X027166Y010644D01*
X027244Y010566D01*
X027339Y010511D01*
X027445Y010483D01*
X027555D01*
X027661Y010511D01*
X027756Y010566D01*
X027834Y010644D01*
X027889Y010739D01*
X027917Y010845D01*
Y010955D01*
X027889Y011061D01*
X027834Y011156D01*
X027756Y011234D01*
X027661Y011289D01*
X027555Y011317D01*
D02*
G37*
%LPD*%
G36*
X020098Y032472D02*
X020182Y032388D01*
X020285Y032328D01*
X0204Y032297D01*
X02052D01*
X020635Y032328D01*
X020738Y032388D01*
X020753Y032403D01*
X020799Y032384D01*
Y032116D01*
X020753Y032097D01*
X020738Y032112D01*
X020635Y032172D01*
X02052Y032203D01*
X0204D01*
X020285Y032172D01*
X020182Y032112D01*
X020098Y032028D01*
X020038Y031925D01*
X020007Y03181D01*
Y03169D01*
X020038Y031575D01*
X020098Y031472D01*
X020182Y031388D01*
X020285Y031328D01*
X0204Y031297D01*
X02052D01*
X020635Y031328D01*
X020738Y031388D01*
X020753Y031403D01*
X020799Y031384D01*
Y031116D01*
X020753Y031097D01*
X020738Y031112D01*
X020635Y031172D01*
X02052Y031203D01*
X0204D01*
X020285Y031172D01*
X020182Y031112D01*
X020098Y031028D01*
X020038Y030925D01*
X020007Y03081D01*
Y03069D01*
X020038Y030575D01*
X020098Y030472D01*
X020182Y030388D01*
X020285Y030328D01*
X0204Y030297D01*
X02052D01*
X020635Y030328D01*
X020738Y030388D01*
X020753Y030403D01*
X020799Y030384D01*
Y030116D01*
X020753Y030097D01*
X020738Y030112D01*
X020635Y030172D01*
X02052Y030203D01*
X0204D01*
X020285Y030172D01*
X020182Y030112D01*
X020098Y030028D01*
X020038Y029925D01*
X020007Y02981D01*
Y02969D01*
X020038Y029575D01*
X020098Y029472D01*
X020182Y029388D01*
X020285Y029328D01*
X0204Y029297D01*
X02052D01*
X020635Y029328D01*
X020738Y029388D01*
X020753Y029403D01*
X020799Y029384D01*
Y029116D01*
X020753Y029097D01*
X020738Y029112D01*
X020635Y029172D01*
X02052Y029203D01*
X0204D01*
X020285Y029172D01*
X020182Y029112D01*
X020098Y029028D01*
X020038Y028925D01*
X020007Y02881D01*
Y02869D01*
X020038Y028575D01*
X020098Y028472D01*
X020182Y028388D01*
X020285Y028328D01*
X0204Y028297D01*
X02052D01*
X020635Y028328D01*
X020738Y028388D01*
X020753Y028403D01*
X020799Y028384D01*
Y028091D01*
X020753Y028072D01*
X020727Y028098D01*
X020628Y028155D01*
X020517Y028185D01*
X02051D01*
Y02775D01*
Y027315D01*
X020517D01*
X020628Y027345D01*
X020727Y027402D01*
X020753Y027428D01*
X020799Y027409D01*
Y027203D01*
X020007D01*
Y026297D01*
X020799D01*
Y025838D01*
X020784Y025823D01*
X02078Y025823D01*
X020702Y02577D01*
X019022Y024091D01*
X013339D01*
X013323Y02413D01*
X013259Y024226D01*
X013176Y024309D01*
X01308Y024373D01*
X012972Y024418D01*
X012858Y024441D01*
X012742D01*
X012628Y024418D01*
X01252Y024373D01*
X012424Y024309D01*
X012381Y024266D01*
X012331Y024287D01*
Y025413D01*
X012381Y025434D01*
X012424Y025391D01*
X01252Y025327D01*
X012628Y025282D01*
X012742Y025259D01*
X012858D01*
X012972Y025282D01*
X01308Y025327D01*
X013176Y025391D01*
X013259Y025474D01*
X013323Y02557D01*
X013368Y025678D01*
X013391Y025792D01*
Y025908D01*
X013368Y026022D01*
X013323Y02613D01*
X013259Y026226D01*
X013176Y026309D01*
X01308Y026373D01*
X012972Y026418D01*
X012858Y026441D01*
X012742D01*
X012628Y026418D01*
X01252Y026373D01*
X012424Y026309D01*
X012381Y026266D01*
X012331Y026287D01*
Y027413D01*
X012381Y027434D01*
X012424Y027391D01*
X01252Y027327D01*
X012628Y027282D01*
X012742Y027259D01*
X012858D01*
X012972Y027282D01*
X01308Y027327D01*
X013176Y027391D01*
X013259Y027474D01*
X013323Y02757D01*
X013368Y027678D01*
X013391Y027792D01*
Y027908D01*
X013368Y028022D01*
X013323Y02813D01*
X013259Y028226D01*
X013176Y028309D01*
X01308Y028373D01*
X012972Y028418D01*
X012858Y028441D01*
X012742D01*
X012628Y028418D01*
X01252Y028373D01*
X012424Y028309D01*
X012381Y028266D01*
X012331Y028287D01*
Y029439D01*
X012381Y02946D01*
X012449Y029392D01*
X012579Y029317D01*
X012725Y029278D01*
X01275D01*
Y02985D01*
X01285D01*
Y029278D01*
X012875D01*
X013021Y029317D01*
X013151Y029392D01*
X013258Y029499D01*
X013322Y029609D01*
X01375D01*
X01598Y02738D01*
X016058Y027327D01*
X01615Y027309D01*
X020143D01*
X020235Y027327D01*
X020276Y027355D01*
X020292Y027345D01*
X020403Y027315D01*
X02041D01*
Y02775D01*
Y028185D01*
X020403D01*
X020292Y028155D01*
X020193Y028098D01*
X020112Y028017D01*
X020055Y027918D01*
X020025Y027807D01*
Y027791D01*
X01625D01*
X01402Y03002D01*
X013942Y030073D01*
X01385Y030091D01*
X013322D01*
X013258Y030201D01*
X01319Y030269D01*
X013211Y030319D01*
X01706D01*
X017152Y030337D01*
X01723Y03039D01*
X01935Y032509D01*
X020076D01*
X020098Y032472D01*
D02*
G37*
D61*
X03915Y03715D02*
Y0391D01*
X037935Y02495D02*
X04199D01*
X037935Y023555D02*
Y02495D01*
Y02495D02*
X037935Y02495D01*
X037935D02*
Y034095D01*
X03793Y02355D02*
X037935Y023555D01*
Y034095D02*
X03794Y0341D01*
X018Y034233D02*
Y0391D01*
X015457Y03169D02*
X018Y034233D01*
Y0391D02*
X01965Y04075D01*
X01858Y033486D02*
Y03778D01*
X01955Y03875D01*
X02046D01*
X01965Y04075D02*
X02046D01*
X0128Y0156D02*
X01285D01*
X0215Y02425D02*
X02325D01*
X01285Y0156D02*
X0215Y02425D01*
X0143Y0176D02*
X02372Y02702D01*
X0128Y0176D02*
X0143D01*
X02372Y02702D02*
Y02755D01*
X01785Y016D02*
X0192D01*
X02855Y010498D02*
X028689Y01036D01*
X03021D01*
X0285Y0109D02*
X02855Y01085D01*
Y010498D02*
Y01085D01*
X030704Y010854D02*
Y015796D01*
X03021Y01036D02*
X030704Y010854D01*
X03005Y0109D02*
X03035Y0112D01*
Y013242D01*
X0295Y0109D02*
X03005D01*
X030212Y01338D02*
X03035Y013242D01*
X03048Y01602D02*
X030704Y015796D01*
X02676Y01338D02*
X030212D01*
X027Y01602D02*
X03048D01*
X039512Y01635D02*
X03965Y016212D01*
Y01465D02*
Y016212D01*
X0366Y016488D02*
Y0171D01*
Y016488D02*
X036738Y01635D01*
X039512D01*
X04199Y02495D02*
X0455D01*
X04599Y02355D02*
Y02446D01*
X0455Y02495D02*
X04599Y02446D01*
X04199Y02495D02*
Y02715D01*
X0276Y037462D02*
X028338Y0382D01*
X0276Y0359D02*
Y037462D01*
X028338Y0382D02*
X03044D01*
X03064Y0384D01*
X02645Y03475D02*
X0276Y0359D01*
X01275Y0344D02*
X01285Y0343D01*
X01615D01*
X01925Y03275D02*
X02046D01*
X01225Y03056D02*
X01706D01*
X01925Y03275D01*
X01285Y03115D02*
X016244D01*
X01858Y033486D01*
X01258Y03106D02*
X01263Y03111D01*
X012811D02*
X01285Y03115D01*
X01263Y03111D02*
X012811D01*
X02325Y02425D02*
X02406Y02506D01*
X0215Y0308D02*
X02645Y03575D01*
X0187Y0227D02*
X0215Y0255D01*
Y0308D01*
X013764Y022725D02*
X013789Y0227D01*
X0187D01*
X019122Y02385D02*
X020872Y0256D01*
X0128Y02385D02*
X019122D01*
X020872Y0256D02*
X020902D01*
X02104Y025738D01*
Y03317D01*
X024014Y026626D02*
X024865Y025776D01*
X024014Y026626D02*
X024014D01*
X02372Y02755D02*
X02377Y0276D01*
X01615Y02755D02*
X020143D01*
X0128Y02985D02*
X01385D01*
X01615Y02755D01*
X020343Y02775D02*
X02046D01*
X020143Y02755D02*
X020343Y02775D01*
X029742Y025776D02*
X02988Y025914D01*
X024865Y025776D02*
X029742D01*
X02988Y025914D02*
Y02684D01*
X02645Y03275D02*
X0274Y0318D01*
X027538Y02786D02*
X02887D01*
X0274Y027998D02*
Y0318D01*
Y027998D02*
X027538Y02786D01*
X030126Y0365D02*
X03065D01*
X02905Y03715D02*
X029063Y037137D01*
X029489D01*
X030126Y0365D01*
X03065Y035655D02*
Y0365D01*
X03195D01*
X0218Y013303D02*
Y015206D01*
Y013303D02*
X0225Y012603D01*
Y0107D02*
Y012603D01*
X02445Y0107D02*
X025279D01*
X025529Y01095D02*
X0256D01*
X025279Y0107D02*
X025529Y01095D01*
X029925Y044975D02*
X02995Y04495D01*
X028075Y044975D02*
X029925D01*
X02805Y045D02*
X028075Y044975D01*
X02587Y04433D02*
X02645Y04375D01*
X02587Y04433D02*
Y046125D01*
X025665Y04633D02*
X02587Y046125D01*
X014261Y04633D02*
X025665D01*
X013381Y04545D02*
X014261Y04633D01*
X02995Y04395D02*
X0305D01*
X03064Y04381D01*
Y0384D02*
Y04381D01*
X0297Y0335D02*
X03195D01*
X02905Y03415D02*
X0297Y0335D01*
X01365Y0333D02*
X01615D01*
X01275Y0324D02*
X01365Y0333D01*
X0215Y04545D02*
X02434D01*
X02133Y04528D02*
X0215Y04545D01*
X02133Y04362D02*
Y04528D01*
X02046Y04275D02*
X02133Y04362D01*
X0284Y04295D02*
X02995D01*
X0282Y04275D02*
X0284Y04295D01*
X02645Y04275D02*
X0282D01*
X0284Y04195D02*
X02995D01*
X0282Y04175D02*
X0284Y04195D01*
X02645Y04175D02*
X0282D01*
X01477Y0413D02*
X01615D01*
X01387Y0404D02*
X01477Y0413D01*
X01275Y0404D02*
X01387D01*
X0284Y04595D02*
X02995D01*
X0282Y04575D02*
X0284Y04595D01*
X02645Y04575D02*
X0282D01*
X02046Y03975D02*
X02377Y03644D01*
X01125Y04068D02*
X01197Y0414D01*
X01346D01*
X01522Y04316D01*
X01905D01*
X02046Y04175D01*
X01243Y03169D02*
X015457D01*
X01155Y03081D02*
X01243Y03169D01*
X01155Y0271D02*
Y03081D01*
X01209Y02256D02*
X0128Y02185D01*
X01209Y02256D02*
Y0304D01*
X01225Y03056D01*
X02645Y04575D02*
Y0465D01*
X02626Y04669D02*
X02645Y0465D01*
X013Y04669D02*
X02626D01*
X01275Y04644D02*
X013Y04669D01*
X01275Y0424D02*
Y04644D01*
X03886Y01329D02*
X0456D01*
X03865Y0135D02*
X03886Y01329D01*
X03865Y0135D02*
Y01465D01*
X03007Y0345D02*
X03195D01*
X02942Y03515D02*
X03007Y0345D01*
X02905Y03515D02*
X02942D01*
X02046Y03375D02*
X02104Y03317D01*
X02823Y03497D02*
X02905Y03415D01*
X02812Y02985D02*
X02887D01*
X02797Y03D02*
X02812Y02985D01*
X02797Y03D02*
Y034009D01*
X027701Y034278D02*
X02797Y034009D01*
X027701Y034278D02*
Y035375D01*
X028476Y03615D01*
X02905D01*
X027182Y02685D02*
X02885D01*
X027054Y026722D02*
X027182Y02685D01*
X027054Y026254D02*
Y026722D01*
X02693Y02613D02*
X027054Y026254D01*
X026Y02613D02*
X02693D01*
X02587Y02626D02*
X026Y02613D01*
X02587Y02626D02*
Y03117D01*
X02645Y03175D01*
X02345Y0123D02*
X0251D01*
X0265Y0109D01*
X02865Y03995D02*
X02995D01*
X02645Y03775D02*
X02865Y03995D01*
Y04095D02*
X02995D01*
X02645Y03875D02*
X02865Y04095D01*
X01485Y0363D02*
X01615D01*
X01275Y0384D02*
X01485Y0363D01*
X01385Y0353D02*
X01615D01*
X01275Y0364D02*
X01385Y0353D01*
D62*
X020282Y013468D02*
Y0178D01*
X0182Y01938D02*
X018702D01*
X020282Y0178D01*
Y013468D02*
X02145Y0123D01*
D66*
X03765Y01465D02*
D03*
X03965D02*
D03*
X04265D02*
D03*
X04165D02*
D03*
X04065D02*
D03*
X03865D02*
D03*
D67*
X04365D02*
D03*
D68*
X0128Y02985D02*
D03*
Y02785D02*
D03*
Y02585D02*
D03*
Y02385D02*
D03*
Y02185D02*
D03*
Y0156D02*
D03*
Y0176D02*
D03*
Y0196D02*
D03*
X01275Y0424D02*
D03*
Y0404D02*
D03*
Y0384D02*
D03*
Y0364D02*
D03*
Y0344D02*
D03*
Y0324D02*
D03*
X02345Y0123D02*
D03*
X0186Y0124D02*
D03*
D69*
X04599Y02355D02*
D03*
X04421D02*
D03*
X04599Y02075D02*
D03*
X03794Y0369D02*
D03*
X03616D02*
D03*
X03794Y0341D02*
D03*
X03793Y02355D02*
D03*
X03615D02*
D03*
X03793Y02075D02*
D03*
X04199Y02995D02*
D03*
X04021D02*
D03*
X04199Y02715D02*
D03*
X04604Y0369D02*
D03*
X04426D02*
D03*
X04604Y0341D02*
D03*
X04199Y04385D02*
D03*
X04021D02*
D03*
X04199Y04105D02*
D03*
D70*
X04421Y02075D02*
D03*
X03616Y0341D02*
D03*
X03615Y02075D02*
D03*
X04021Y02715D02*
D03*
X04426Y0341D02*
D03*
X04021Y04105D02*
D03*
D71*
X033324Y010656D02*
D03*
X032751Y010459D02*
D03*
X032206Y010726D02*
D03*
X032009Y011299D02*
D03*
X032276Y011844D02*
D03*
X032849Y012041D02*
D03*
X033394Y011774D02*
D03*
X033591Y011201D02*
D03*
X035824Y010656D02*
D03*
X035251Y010459D02*
D03*
X034706Y010726D02*
D03*
X034509Y011299D02*
D03*
X034776Y011844D02*
D03*
X035349Y012041D02*
D03*
X035894Y011774D02*
D03*
X036091Y011201D02*
D03*
X046674Y010656D02*
D03*
X046101Y010459D02*
D03*
X045556Y010726D02*
D03*
X045359Y011299D02*
D03*
X045626Y011844D02*
D03*
X046199Y012041D02*
D03*
X046744Y011774D02*
D03*
X046941Y011201D02*
D03*
X046674Y045556D02*
D03*
X046101Y045359D02*
D03*
X045556Y045626D02*
D03*
X045359Y046199D02*
D03*
X045626Y046744D02*
D03*
X046199Y046941D02*
D03*
X046744Y046674D02*
D03*
X046941Y046101D02*
D03*
X035824Y045556D02*
D03*
X035251Y045359D02*
D03*
X034706Y045626D02*
D03*
X034509Y046199D02*
D03*
X034776Y046744D02*
D03*
X035349Y046941D02*
D03*
X035894Y046674D02*
D03*
X036091Y046101D02*
D03*
X033325Y045565D02*
D03*
X032752Y045368D02*
D03*
X032207Y045635D02*
D03*
X03201Y046208D02*
D03*
X032276Y046753D02*
D03*
X03285Y04695D02*
D03*
X033395Y046684D02*
D03*
X033592Y04611D02*
D03*
X011774Y010656D02*
D03*
X011201Y010459D02*
D03*
X010656Y010726D02*
D03*
X010459Y011299D02*
D03*
X010726Y011844D02*
D03*
X011299Y012041D02*
D03*
X011844Y011774D02*
D03*
X012041Y011201D02*
D03*
X011774Y045556D02*
D03*
X011201Y045359D02*
D03*
X010656Y045626D02*
D03*
X010459Y046199D02*
D03*
X010726Y046744D02*
D03*
X011299Y046941D02*
D03*
X011844Y046674D02*
D03*
X012041Y046101D02*
D03*
D72*
X0328Y01125D02*
D03*
X0353D02*
D03*
X04615D02*
D03*
Y04615D02*
D03*
X0353D02*
D03*
X032801Y046159D02*
D03*
X01125Y01125D02*
D03*
Y04615D02*
D03*
D73*
X01615Y0423D02*
D03*
Y0333D02*
D03*
Y0393D02*
D03*
Y0353D02*
D03*
Y0343D02*
D03*
Y0373D02*
D03*
Y0383D02*
D03*
Y0413D02*
D03*
Y0363D02*
D03*
Y0403D02*
D03*
D74*
X0128Y0136D02*
D03*
D75*
X01535Y04545D02*
D03*
X013381D02*
D03*
X02645Y03375D02*
D03*
Y04275D02*
D03*
Y04175D02*
D03*
Y04075D02*
D03*
Y03975D02*
D03*
Y03875D02*
D03*
Y03775D02*
D03*
Y03675D02*
D03*
Y03575D02*
D03*
Y03275D02*
D03*
Y03175D02*
D03*
Y03075D02*
D03*
Y02975D02*
D03*
Y02875D02*
D03*
Y02775D02*
D03*
Y03475D02*
D03*
Y04575D02*
D03*
Y04475D02*
D03*
Y04375D02*
D03*
X02394Y04426D02*
D03*
X02294D02*
D03*
X02194D02*
D03*
X02046Y04575D02*
D03*
Y04475D02*
D03*
Y04375D02*
D03*
Y04275D02*
D03*
Y04175D02*
D03*
Y04075D02*
D03*
Y03975D02*
D03*
Y03875D02*
D03*
Y03775D02*
D03*
Y03675D02*
D03*
Y03575D02*
D03*
Y03475D02*
D03*
Y03375D02*
D03*
Y03275D02*
D03*
Y03175D02*
D03*
Y03075D02*
D03*
Y02975D02*
D03*
Y02875D02*
D03*
Y02775D02*
D03*
D76*
X02887Y02985D02*
D03*
Y02885D02*
D03*
Y02786D02*
D03*
X02885Y02685D02*
D03*
X02988Y02684D02*
D03*
X029865Y027845D02*
D03*
X02988Y02884D02*
D03*
Y02984D02*
D03*
D77*
X0295Y0109D02*
D03*
D78*
X0285D02*
D03*
X0275D02*
D03*
X0265D02*
D03*
Y0119D02*
D03*
X0275D02*
D03*
X0285D02*
D03*
X0295D02*
D03*
X02905Y03715D02*
D03*
Y03615D02*
D03*
Y03515D02*
D03*
Y03415D02*
D03*
Y03315D02*
D03*
D79*
Y03215D02*
D03*
D80*
X03195Y0365D02*
D03*
Y0355D02*
D03*
Y0345D02*
D03*
D81*
Y0335D02*
D03*
D82*
X02995Y04595D02*
D03*
Y04395D02*
D03*
Y04095D02*
D03*
Y04195D02*
D03*
Y04295D02*
D03*
Y04495D02*
D03*
D83*
Y03995D02*
D03*
D84*
X019987Y016D02*
D03*
X017063D02*
D03*
X02494Y04426D02*
D03*
D85*
X0192Y016D02*
D03*
X01785D02*
D03*
D86*
X02145Y0123D02*
D03*
X0166Y0124D02*
D03*
D87*
X02645Y02675D02*
D03*
X02046D02*
D03*
D88*
X03915Y0391D02*
D03*
Y03715D02*
D03*
X024014Y026626D02*
D03*
X0225Y0107D02*
D03*
X0218Y015206D02*
D03*
X0256Y01095D02*
D03*
X02445Y0107D02*
D03*
X013764Y022725D02*
D03*
X027Y01602D02*
D03*
X02805Y045D02*
D03*
X02676Y01338D02*
D03*
X02406Y02506D02*
D03*
X01258Y03106D02*
D03*
X02434Y04545D02*
D03*
X02377Y0276D02*
D03*
Y03644D02*
D03*
X01125Y04068D02*
D03*
X01155Y0271D02*
D03*
X0456Y01329D02*
D03*
X03065Y035655D02*
D03*
X02823Y03497D02*
D03*
D89*
X0182Y01938D02*
D03*
X020282Y0178D02*
D03*
D90*
X0366Y0171D02*
D03*
M02*
