M48
;Layer_Color=9474304
;FILE_FORMAT=2:4
INCH,LZ
;TYPE=PLATED
T1F00S00C0.0197
T2F00S00C0.0280
T3F00S00C0.0315
T4F00S00C0.0340
T5F00S00C0.0354
T6F00S00C0.0360
T7F00S00C0.0394
T8F00S00C0.0402
T9F00S00C0.0433
T10F00S00C0.0472
T11F00S00C0.0630
T12F00S00C0.1220
%
T01
X010656Y010726
X010459Y011299
X010726Y011844
X011299Y012041
X011844Y011774
X012041Y011201
X011774Y010656
X011201Y010459
X032206Y010726
X032009Y011299
X032276Y011844
X032849Y012041
X033394Y011774
X033591Y011201
X033324Y010656
X032751Y010459
X034706Y010726
X034509Y011299
X034776Y011844
X035349Y012041
X035894Y011774
X036091Y011201
X035824Y010656
X035251Y010459
X045556Y010726
X045359Y011299
X045626Y011844
X046199Y012041
X046744Y011774
X046674Y010656
X046101Y010459
X046941Y011201
X0366Y0171
X011774Y045556
X011201Y045359
X010656Y045626
X010459Y046199
X010726Y046744
X011844Y046674
X012041Y046101
X03201Y046208
X032207Y045635
X032752Y045368
X033325Y045565
X033592Y04611
X033395Y046684
X032276Y046753
X034776Y046744
X034509Y046199
X034706Y045626
X035251Y045359
X035824Y045556
X036091Y046101
X035894Y046674
X045626Y046744
X045359Y046199
X045556Y045626
X046101Y045359
X046674Y045556
X046744Y046674
X046941Y046101
X046199Y046941
X035349
X03285Y04695
X011299Y046941
T02
X0225Y0107
X02445
X0256Y01095
X02676Y01338
X0218Y015206
X0456Y01329
X027Y01602
X02406Y02506
X024014Y026626
X02377Y0276
X01155Y0271
X01258Y03106
X013764Y022725
X01125Y04068
X02377Y03644
X02823Y03497
X03065Y035655
X02805Y045
X02434Y04545
X03915Y0391
Y03715
T03
X017063Y016
X01785
X0192
X019987
T04
X03765Y01465
X03865
X03965
X04065
X04165
X04265
X04365
X02995Y03995
Y04095
Y04195
Y04295
Y04395
Y04495
Y04595
T05
X02046Y02675
Y02775
Y02875
Y02975
Y03075
X02645
Y02975
Y02875
Y02775
Y02675
X01535Y04545
X013381
X02046Y04575
Y04475
Y04375
Y04275
Y04175
Y04075
Y03975
Y03875
Y03775
Y03675
Y03575
Y03475
Y03375
Y03275
Y03175
X02645
Y03275
Y03375
Y03475
Y03575
Y03675
Y03775
Y03875
Y03975
Y04075
Y04175
Y04275
Y04375
Y04475
Y04575
X02494Y04426
X02394
X02294
X02194
T06
X02885Y02685
X02887Y02786
Y02885
Y02985
X02988Y02984
Y02884
X029865Y027845
X02988Y02684
T07
X0182Y01938
X020282Y0178
X01615Y0333
Y0343
Y0353
Y0363
Y0373
Y0383
Y0393
Y0403
Y0413
Y0423
T08
X0265Y0109
X0275
X0285
X0295
Y0119
X0285
X0275
X0265
X02905Y03215
Y03315
Y03415
Y03515
Y03615
Y03715
T09
X03615Y02075
X03793
Y02355
X03615
X04021Y02715
X04199
Y02995
X04021
X04421Y02355
X04599
Y02075
X04421
X04426Y0341
X04604
Y0369
X04426
X03794
X03616
Y0341
X03794
X03195Y0345
Y0355
Y0365
Y0335
X04021Y04105
X04199
Y04385
X04021
T10
X0128Y02185
Y02385
Y02585
Y02785
Y02985
X01275Y0324
Y0344
Y0364
Y0384
Y0404
Y0424
T11
X0128Y0136
Y0156
X0166Y0124
X0186
X02145Y0123
X02345
X0128Y0176
Y0196
T12
X01125Y01125
X0328
X0353
X04615
X01125Y04615
X032801Y046159
X0353Y04615
X04615
M30
