G04*
G04 #@! TF.GenerationSoftware,Altium Limited,Altium Designer,21.3.2 (30)*
G04*
G04 Layer_Color=32896*
%FSTAX24Y24*%
%MOIN*%
G70*
G04*
G04 #@! TF.SameCoordinates,110FFF50-2F86-4F7F-B504-3501B117D145*
G04*
G04*
G04 #@! TF.FilePolarity,Positive*
G04*
G01*
G75*
%ADD10C,0.0100*%
%ADD11C,0.0079*%
%ADD17C,0.0070*%
G36*
X044005Y013155D02*
X043295D01*
X043645Y013505D01*
Y013515D01*
X044005Y013155D01*
D02*
G37*
G36*
X044455Y04231D02*
X044487D01*
X044503Y042294D01*
X044519Y042262D01*
Y042246D01*
Y04223D01*
Y042213D01*
X044551Y042197D01*
X044632D01*
X044648Y042181D01*
X044696Y042165D01*
X04476Y042133D01*
X044776D01*
X044808Y042117D01*
X04484Y042101D01*
X044856Y042085D01*
Y042069D01*
X044872Y042053D01*
X044904D01*
X04492Y042037D01*
Y042021D01*
X044904Y041989D01*
Y041973D01*
X044888Y041941D01*
Y041909D01*
Y041877D01*
Y041861D01*
X04492Y041845D01*
X044952Y041813D01*
X044985Y04178D01*
X045017Y041748D01*
X045033D01*
X045081Y041764D01*
X045097D01*
X045145Y041748D01*
X045161D01*
X045193Y041732D01*
X045225Y0417D01*
X045241D01*
X045273Y041684D01*
X045305Y041668D01*
X045353Y041652D01*
X045386D01*
X045402Y041668D01*
X045418Y0417D01*
Y041716D01*
Y041732D01*
X045434Y041764D01*
Y04178D01*
X045466D01*
X045498Y041764D01*
X045514Y041748D01*
X045562Y041732D01*
X045578D01*
X045594Y041716D01*
X045626Y041684D01*
X045642Y041652D01*
Y041636D01*
Y04162D01*
X045658Y041572D01*
Y041508D01*
Y041476D01*
Y041444D01*
X045722D01*
X045754Y04146D01*
X04577Y041492D01*
X045851Y041556D01*
X045867Y041572D01*
X045931Y041636D01*
Y041652D01*
X045947Y041668D01*
X045963Y0417D01*
X045995Y041716D01*
X046043D01*
X046059Y0417D01*
X046075Y041652D01*
Y041636D01*
X046091Y041604D01*
X046123Y041572D01*
X046155Y04154D01*
X046171Y041556D01*
X046187Y041572D01*
X046203Y04162D01*
X04622Y041636D01*
X046236Y041668D01*
X046252Y041684D01*
X046268Y041732D01*
X046332Y041764D01*
X046348Y041684D01*
X046364Y041668D01*
X04638Y04162D01*
X046396Y041604D01*
X046428Y041588D01*
X046444Y041572D01*
X04646Y041556D01*
Y04154D01*
X046476Y041524D01*
Y041508D01*
X046492Y041492D01*
X046508Y041476D01*
X046524Y04146D01*
X04654Y041444D01*
Y041428D01*
Y041395D01*
X046556D01*
X046572Y041379D01*
X046604D01*
X046669Y041395D01*
X046685Y041412D01*
X046733Y041476D01*
X046749Y041492D01*
X046781Y041508D01*
X046797Y041524D01*
X046813Y041556D01*
X046861Y041588D01*
X046893Y041604D01*
X046973Y041636D01*
X047005Y041652D01*
X047038Y041668D01*
X04707D01*
Y041684D01*
X047086Y0417D01*
X047102Y041716D01*
X047118D01*
X047134Y041684D01*
X04715Y041668D01*
X047166Y041636D01*
Y04162D01*
Y041588D01*
Y041572D01*
X047198Y04154D01*
X047214Y041524D01*
X047246Y041492D01*
X047262Y041476D01*
X04731Y041444D01*
Y041428D01*
X047326Y041395D01*
Y041379D01*
X047342Y041363D01*
X047374D01*
X047406Y041331D01*
Y041315D01*
Y041299D01*
X04739Y041283D01*
Y041267D01*
Y041251D01*
Y041235D01*
Y041219D01*
X047374Y041203D01*
X047342Y041187D01*
X047326Y041171D01*
X047294Y041155D01*
X047246Y041107D01*
X047198Y041043D01*
X047182Y041027D01*
X04715Y040995D01*
X047118Y040962D01*
X047102Y040946D01*
X047086Y040914D01*
X04707Y040898D01*
X047054Y040866D01*
X047038D01*
X047021Y04085D01*
X046989Y040802D01*
X046973Y040786D01*
Y040754D01*
Y040738D01*
X046957Y040706D01*
Y040658D01*
X046941Y040626D01*
X046925D01*
X046893Y04061D01*
X046845D01*
X046829Y040626D01*
X046813Y04069D01*
Y040706D01*
Y040722D01*
Y040754D01*
X046797Y04077D01*
X046781D01*
Y040754D01*
X046765D01*
Y040738D01*
Y040722D01*
Y04069D01*
Y040658D01*
X046749Y040626D01*
X046733D01*
X046701Y040658D01*
X046669D01*
X046653Y040642D01*
Y040626D01*
X046637Y040578D01*
Y040545D01*
Y040513D01*
Y040497D01*
X046669Y040465D01*
X046685Y040449D01*
X046717Y040385D01*
Y040369D01*
Y040321D01*
X046733Y040305D01*
X046749Y040257D01*
Y040241D01*
Y040225D01*
X046765D01*
X046781Y040193D01*
X046765Y040177D01*
X046749Y04016D01*
X046733D01*
Y040144D01*
X046717D01*
Y040128D01*
Y040112D01*
X046701Y04008D01*
X046685Y040064D01*
X046653Y040032D01*
X046604Y039984D01*
X046588Y039968D01*
X046572Y039936D01*
X046556Y03992D01*
X04654Y039888D01*
X046524Y039872D01*
X046508Y03984D01*
X046492D01*
X04646Y039824D01*
X046444D01*
X046428Y039808D01*
X046412D01*
Y039792D01*
Y039776D01*
X046396Y039743D01*
X046348D01*
X046332Y039727D01*
X0463D01*
X046284Y039711D01*
X046268Y039695D01*
X046252D01*
X04622Y039727D01*
X046171D01*
Y039711D01*
Y039695D01*
X046155Y039679D01*
X046123D01*
X046107Y039663D01*
X046091D01*
X046059Y039647D01*
X046043Y039631D01*
X046011Y039599D01*
X045963D01*
X045947Y039615D01*
X045931Y039647D01*
X045915Y039663D01*
X045899Y039679D01*
X045883Y039695D01*
Y039711D01*
Y039727D01*
Y039743D01*
X045867Y03976D01*
X045851Y039792D01*
X045835Y039808D01*
X045819D01*
X045803Y039824D01*
X04569D01*
X045674Y03984D01*
X045626Y039872D01*
X04561Y039888D01*
X045594D01*
X045578Y039904D01*
X04553D01*
X045498Y039888D01*
X04545Y039856D01*
X045434D01*
X045402Y039824D01*
X045353Y039792D01*
X045289Y039727D01*
X045273Y039711D01*
X045225Y039663D01*
X045193D01*
X045177Y039647D01*
X045161D01*
X045129Y039615D01*
X045113Y039599D01*
X045097Y039567D01*
Y039551D01*
X045129Y039519D01*
X045161Y039503D01*
X045193Y039471D01*
X045241Y039423D01*
X045257Y039407D01*
X045289Y039391D01*
Y039375D01*
X045305Y039359D01*
Y039343D01*
X045289D01*
X045273Y039326D01*
X045257Y03931D01*
X045241Y039294D01*
X045225D01*
X045193Y03931D01*
X045177Y039326D01*
X045161D01*
X045145Y039343D01*
X045129Y039359D01*
X045113D01*
X045097Y039375D01*
X045049D01*
X045033Y039359D01*
X045017Y039343D01*
Y039326D01*
Y03931D01*
X045049Y039278D01*
X045081Y039262D01*
X045113Y03923D01*
Y039214D01*
Y039182D01*
X045097D01*
X045081Y03915D01*
X045065D01*
X045033Y039134D01*
X045017Y039118D01*
X044985Y039102D01*
X044968D01*
X044936Y039086D01*
X04492D01*
X044904Y03907D01*
X044856D01*
X04484Y039086D01*
X044808D01*
X044792Y03907D01*
X044776Y039038D01*
X04476Y039022D01*
Y03899D01*
X044776Y038974D01*
X044824Y038909D01*
X044856Y038893D01*
X044888Y038845D01*
Y038829D01*
X044904Y038781D01*
Y038749D01*
X04492Y038717D01*
Y038701D01*
X044936Y038685D01*
X044968Y038669D01*
X044985Y038653D01*
X045033Y038621D01*
Y038605D01*
X045049Y038589D01*
Y038573D01*
X045081Y038557D01*
X045209D01*
X045225Y038573D01*
X045257Y038589D01*
X045273Y038605D01*
X045353D01*
X045386Y038589D01*
X045434D01*
Y038605D01*
X04545D01*
Y038621D01*
X045466D01*
Y038637D01*
X045482D01*
X045498Y038621D01*
X045514D01*
X04553Y038605D01*
X045546D01*
X045562Y038589D01*
X045578D01*
X045594Y038573D01*
X04561Y038541D01*
Y038525D01*
X045594Y038476D01*
Y03846D01*
Y038396D01*
X04561Y03838D01*
X045658Y038348D01*
X04569Y038332D01*
X045738Y038316D01*
X045754Y0383D01*
X04577Y038284D01*
Y038268D01*
X045786Y038236D01*
Y03822D01*
X04577Y038204D01*
X045754Y038188D01*
X045738Y038172D01*
X045642D01*
X045578Y038156D01*
X045562Y03814D01*
X045498Y038091D01*
X045482Y038075D01*
X045466Y038059D01*
X04545D01*
X045434Y038043D01*
X045418D01*
X045369Y038011D01*
X045353D01*
X045337Y037995D01*
X045289Y037979D01*
X045273Y037963D01*
X045257Y037915D01*
X045241D01*
X045225Y037899D01*
X045209D01*
X045193Y037883D01*
X045177D01*
Y037867D01*
X045145Y037851D01*
X045113Y037819D01*
X045049Y037787D01*
X045033D01*
X045001Y037771D01*
X044952Y037755D01*
X044904Y037739D01*
X044888D01*
X044856Y037723D01*
X04484D01*
X044824Y037707D01*
X044808D01*
X044776Y03769D01*
X04476D01*
X044712Y037674D01*
X044696D01*
X04468Y037658D01*
X044616Y037626D01*
X0446D01*
X044584Y03761D01*
X044568Y037594D01*
Y037562D01*
X044584Y03753D01*
Y037514D01*
X0446Y037498D01*
X044616Y037466D01*
X044632Y03745D01*
X044648Y037418D01*
Y037402D01*
X044616Y037354D01*
X0446D01*
X044584Y037322D01*
X044568Y037306D01*
Y037273D01*
X044551D01*
X044535Y037241D01*
X044519Y037225D01*
X044471Y037177D01*
X044455D01*
X044439Y037145D01*
X044407Y037129D01*
X044391Y037113D01*
X044359D01*
X044343Y037129D01*
X044295D01*
X044263Y037113D01*
Y037097D01*
X044247Y037065D01*
X044231Y037049D01*
X044199Y036969D01*
X044183Y036937D01*
X044151Y036905D01*
X044134Y036889D01*
Y036856D01*
X044151Y03684D01*
Y036824D01*
X044134Y036808D01*
X044118Y036792D01*
X044102Y036776D01*
X044086Y036744D01*
X04407Y036728D01*
X044054Y036712D01*
Y036696D01*
Y03668D01*
X044038Y036616D01*
X044022D01*
X04399Y0366D01*
X043974D01*
X043942Y036568D01*
X043926D01*
X04391Y036536D01*
X043878Y036504D01*
X043846Y036455D01*
X04383D01*
X043814Y036439D01*
X043798Y036423D01*
X043766Y036375D01*
X04375D01*
X043733Y036343D01*
X043669Y036295D01*
X043653D01*
X043637Y036263D01*
X043605Y036231D01*
X043557D01*
X043541Y036247D01*
X043509D01*
X043493Y036231D01*
X043477Y036215D01*
Y036199D01*
Y036183D01*
Y036167D01*
Y036151D01*
X043461Y036103D01*
X043429Y036038D01*
X043413Y036022D01*
X043397Y03599D01*
X043365Y035958D01*
X043333Y035942D01*
X043316D01*
X0433Y03591D01*
X043284Y035894D01*
Y035878D01*
Y035862D01*
X0433Y035846D01*
Y03583D01*
Y035814D01*
X043284D01*
Y035798D01*
Y035766D01*
Y03575D01*
Y035702D01*
Y03567D01*
Y035621D01*
X043268Y035605D01*
X043236Y035573D01*
X04322D01*
X043204Y035557D01*
X043188Y035541D01*
Y035509D01*
X043172Y035493D01*
Y035477D01*
Y035461D01*
Y035445D01*
X043156Y035413D01*
X043124Y035397D01*
X043108D01*
X043092Y035413D01*
X043076Y035429D01*
X043044Y035477D01*
Y035493D01*
X043028Y035509D01*
X043012Y035525D01*
X042996D01*
Y035509D01*
X04298Y035493D01*
Y035461D01*
Y035445D01*
X042964Y035429D01*
X042948Y035381D01*
X042916Y035333D01*
X042899Y035317D01*
X042883Y035301D01*
X042835Y035285D01*
X042803Y035269D01*
X042787D01*
X042755Y035253D01*
X042739D01*
Y035237D01*
X042723Y035204D01*
X042707Y035188D01*
Y035172D01*
X042691D01*
X042675Y035156D01*
X042659Y03514D01*
X042643Y035108D01*
X042627D01*
X042579Y035092D01*
X042563Y035076D01*
X042531Y03506D01*
X042482D01*
X042418Y035076D01*
Y035012D01*
Y03498D01*
X04245Y034932D01*
X042466Y034916D01*
X042498Y0349D01*
X042563Y034868D01*
X042579D01*
X042595Y034836D01*
X042627Y03482D01*
X042643Y034803D01*
Y034787D01*
X042659Y034771D01*
Y034755D01*
Y034723D01*
X042643Y034707D01*
X042627Y034691D01*
X042611Y034675D01*
X042595Y034659D01*
X042579D01*
Y034643D01*
Y034627D01*
Y034611D01*
X042547D01*
Y034595D01*
X042531Y034579D01*
X042515Y034547D01*
X042498Y034531D01*
X042482Y034499D01*
X042466D01*
Y034483D01*
X04245D01*
X042418Y034467D01*
X042402D01*
X042386Y034451D01*
X04237Y034419D01*
X042354Y034402D01*
X042322Y034386D01*
X042274Y034338D01*
X042258Y034306D01*
Y034274D01*
Y034258D01*
X042274Y034226D01*
X04229Y03421D01*
X042306Y034178D01*
X042274Y034162D01*
X042258Y034146D01*
Y034114D01*
Y034098D01*
X042274Y03405D01*
X042306Y034034D01*
X042322D01*
X042354Y034018D01*
X04237D01*
X042386Y034002D01*
X042402D01*
X042386Y033985D01*
X042338D01*
X042306Y033969D01*
X042146D01*
X042065Y033985D01*
X042049D01*
X042033Y034002D01*
X042017Y034018D01*
X042001Y03405D01*
Y034066D01*
X041985Y034098D01*
X041953Y034194D01*
Y03421D01*
X041937Y034242D01*
X041905Y034338D01*
Y034354D01*
X041889Y03437D01*
Y034386D01*
Y034402D01*
X041873Y034419D01*
Y034435D01*
X041857Y034451D01*
Y034499D01*
Y034515D01*
X041841Y034531D01*
Y034563D01*
X041825Y034579D01*
X041793D01*
Y034547D01*
X041777Y034515D01*
Y034483D01*
X041761Y034435D01*
X041745Y03437D01*
X041729Y03429D01*
Y034274D01*
X041713Y034258D01*
X04168Y034178D01*
X041648Y034082D01*
X041632Y03405D01*
X041616Y034018D01*
Y034002D01*
X041584Y033969D01*
X041456D01*
X041328Y033985D01*
X041055Y033985D01*
X041039Y034002D01*
Y034018D01*
Y034034D01*
X041055Y03405D01*
X041087Y03413D01*
Y034146D01*
Y034162D01*
X041071Y034226D01*
X041055Y034242D01*
Y034258D01*
X041071Y034274D01*
X041087Y03429D01*
X041103Y034306D01*
X041119Y034322D01*
Y034338D01*
X041135Y034354D01*
Y03437D01*
X041151D01*
X041167Y034386D01*
X041199D01*
X041215Y034402D01*
X041263Y034435D01*
X041328Y034499D01*
X041344Y034515D01*
X041376Y034563D01*
X041424Y034595D01*
X04144Y034627D01*
Y034643D01*
X041456Y034675D01*
X041488Y034723D01*
Y034739D01*
X04152Y034771D01*
X041568Y034852D01*
X041584Y034868D01*
X041632Y034932D01*
Y034948D01*
Y034964D01*
X041648Y035012D01*
Y035028D01*
X041632Y035044D01*
X041616Y03506D01*
Y035076D01*
X0416Y035092D01*
Y035108D01*
X041632D01*
X04168Y035092D01*
X041697D01*
X041745Y035076D01*
X041761D01*
X041777Y035092D01*
X041793D01*
Y035108D01*
X041761Y035156D01*
X041745Y035172D01*
Y035188D01*
Y035204D01*
X041841D01*
Y03522D01*
Y035237D01*
X041857Y035253D01*
X041873Y035269D01*
Y035285D01*
X041937D01*
X042017Y035317D01*
X042033D01*
X042049Y035349D01*
X042098Y035381D01*
X042162Y035429D01*
Y035445D01*
X042194Y035461D01*
X042274Y035541D01*
X04229Y035557D01*
X042306Y035573D01*
X042386Y035621D01*
X042418Y035654D01*
X042498Y035718D01*
X042515Y035734D01*
X042531Y03575D01*
X042627Y03583D01*
X042643Y035846D01*
X042659Y035862D01*
X042723Y035926D01*
Y035942D01*
X042739Y03599D01*
Y036006D01*
X042755Y036022D01*
X042771Y036038D01*
X042787Y036071D01*
X042835Y036103D01*
X042851Y036119D01*
X042899Y036151D01*
X042964Y036199D01*
X043044Y036247D01*
X04306Y036263D01*
X043092Y036295D01*
X043172Y036391D01*
X043188Y036407D01*
X04322Y036455D01*
X043252Y03652D01*
X043316Y036616D01*
X043333Y036632D01*
X043349Y036696D01*
X043365Y036744D01*
X043381Y036792D01*
Y036808D01*
X043365Y036824D01*
X043349Y036856D01*
X043316Y036905D01*
X043365Y036937D01*
X043381Y036953D01*
X043397Y036969D01*
Y036985D01*
Y037017D01*
Y037033D01*
X043413D01*
Y037049D01*
X043493D01*
X043509Y037065D01*
X043541Y037097D01*
X043557Y037113D01*
X043589Y037129D01*
X043605Y037145D01*
X043653Y037177D01*
X043669Y037193D01*
X043717Y037209D01*
X043782Y037257D01*
X043846Y037322D01*
X043862Y037338D01*
X043894Y037386D01*
X043926Y037466D01*
X043958Y037546D01*
Y037562D01*
X043974Y037594D01*
X044006Y037674D01*
Y03769D01*
X044022Y037707D01*
X044086Y037787D01*
X044102Y037803D01*
X044134Y037851D01*
Y037867D01*
X044151Y037883D01*
X044167Y037947D01*
Y037963D01*
X044151Y037979D01*
X044134Y037995D01*
X044118Y038011D01*
X044102Y038027D01*
X044086Y038043D01*
X04407Y038059D01*
Y038091D01*
Y038107D01*
X044054Y038124D01*
X044038Y03814D01*
X044022Y038172D01*
X044006Y038188D01*
X04399Y03822D01*
Y038236D01*
Y038284D01*
Y0383D01*
X044006Y038316D01*
Y038332D01*
X04399Y038348D01*
Y038364D01*
Y03838D01*
X043974Y038396D01*
Y038444D01*
Y03846D01*
Y038476D01*
X043958Y038557D01*
Y038573D01*
X043942Y038589D01*
X043894Y038669D01*
X043878Y038685D01*
X043862Y038717D01*
X043846Y038733D01*
Y038781D01*
Y038797D01*
Y038813D01*
X043814Y038845D01*
X043798Y038861D01*
X043733Y038877D01*
X043717D01*
X043669Y038893D01*
X043637Y038925D01*
X043621Y038958D01*
X043573Y039006D01*
X043557Y039022D01*
X043525Y039038D01*
X043477Y03907D01*
X043461Y039086D01*
X043445Y039102D01*
X043397Y039118D01*
X043365D01*
X043333Y039134D01*
X043316Y039166D01*
Y039182D01*
X0433Y039198D01*
X043284Y039262D01*
Y039326D01*
Y039343D01*
Y039391D01*
Y039455D01*
X043268Y039487D01*
Y039503D01*
X043252Y039519D01*
X04322Y039551D01*
X043156Y039583D01*
X04314D01*
X043124Y039599D01*
X043092Y039631D01*
X043076Y039647D01*
Y039679D01*
Y039695D01*
Y039711D01*
X04306Y039727D01*
X043028D01*
X043012Y039743D01*
Y03976D01*
Y039776D01*
X042996Y039792D01*
X04298Y039824D01*
X042964Y03984D01*
X042932D01*
X042916Y039856D01*
X042739D01*
X042723Y039872D01*
X042707D01*
X042675Y039888D01*
X042659Y039904D01*
X042611Y03992D01*
X042595D01*
X042563Y039936D01*
X042531D01*
X042515Y039952D01*
X042498Y039968D01*
X04245Y040016D01*
X042434Y040032D01*
X042402Y04008D01*
X042354Y040128D01*
X042306Y040177D01*
X04229Y040193D01*
X042258Y040225D01*
X042194Y040257D01*
X042114Y040305D01*
X042098D01*
X042065Y040321D01*
X041985Y040369D01*
X041969Y040385D01*
X041953Y040401D01*
X041937Y040417D01*
X041921D01*
Y040433D01*
X041937Y040449D01*
Y040465D01*
X041953D01*
X041985Y040481D01*
X042001Y040497D01*
X042017Y040513D01*
X042033Y040529D01*
X042065Y040545D01*
X042162D01*
X04221Y040529D01*
X042226D01*
X042242Y040545D01*
X042306D01*
X042322Y040529D01*
X042338D01*
X042386Y040513D01*
X042402Y040545D01*
Y040561D01*
X04245D01*
X042482Y040545D01*
X042515Y040513D01*
X042531Y040561D01*
Y040578D01*
Y040594D01*
X042563Y040626D01*
X042579Y040642D01*
X042675D01*
X042723Y040658D01*
X042739D01*
X042755Y04069D01*
X042819Y040754D01*
X042835Y04077D01*
X042851D01*
Y040786D01*
X042819D01*
X042803Y040802D01*
Y040818D01*
X042819Y040834D01*
Y04085D01*
X042932D01*
X042948Y040866D01*
Y040882D01*
X04298D01*
X043012Y040898D01*
X043044Y040914D01*
X043108D01*
X043156Y040898D01*
Y041043D01*
Y041059D01*
Y041091D01*
X043172Y041171D01*
Y041187D01*
Y041203D01*
Y041219D01*
X043188Y041235D01*
X043204D01*
X043252Y041267D01*
Y041283D01*
X043268Y041299D01*
X043284Y041347D01*
Y041363D01*
Y041395D01*
X043268Y041412D01*
Y04146D01*
X043252Y041476D01*
Y041508D01*
X043236Y041524D01*
X043156D01*
X043124Y04154D01*
X043108Y041556D01*
Y041588D01*
X043092Y04162D01*
Y041636D01*
X043076Y041668D01*
X04306Y041684D01*
X043044Y041716D01*
Y041732D01*
Y041748D01*
Y041764D01*
X04306D01*
X043092Y04178D01*
X043108D01*
X043156Y041796D01*
X043172Y041813D01*
X043204Y041829D01*
X04322D01*
X043236Y041845D01*
X0433Y041861D01*
X043316D01*
X043333Y041845D01*
X043381D01*
X043413Y041829D01*
X043429Y041813D01*
X043461Y041796D01*
X043525D01*
X043541Y041813D01*
X043589Y041861D01*
X043637Y041925D01*
X043701Y041909D01*
X043717D01*
X043766Y041893D01*
X04383D01*
X043846Y041877D01*
X04391Y041861D01*
X043926Y041877D01*
X04399Y041925D01*
Y041941D01*
X044006Y041957D01*
X044054Y041989D01*
X04407Y042005D01*
X044167D01*
X044199Y042021D01*
Y042037D01*
X044215Y042069D01*
Y042085D01*
X044247Y042117D01*
X044263Y042149D01*
X044279Y042165D01*
X044327Y042213D01*
X044343Y04223D01*
X044407Y042278D01*
Y042294D01*
X044423Y04231D01*
X044439Y042326D01*
X044455Y04231D01*
D02*
G37*
G36*
X030614Y04231D02*
X030646D01*
X030662Y042294D01*
X030678Y042262D01*
Y042246D01*
Y04223D01*
Y042213D01*
X03071Y042197D01*
X03079D01*
X030806Y042181D01*
X030854Y042165D01*
X030918Y042133D01*
X030934D01*
X030966Y042117D01*
X030999Y042101D01*
X031015Y042085D01*
Y042069D01*
X031031Y042053D01*
X031063D01*
X031079Y042037D01*
Y042021D01*
X031063Y041989D01*
Y041973D01*
X031047Y041941D01*
Y041909D01*
Y041877D01*
Y041861D01*
X031079Y041845D01*
X031111Y041813D01*
X031143Y04178D01*
X031175Y041748D01*
X031191D01*
X031239Y041764D01*
X031255D01*
X031303Y041748D01*
X031319D01*
X031351Y041732D01*
X031383Y0417D01*
X0314D01*
X031432Y041684D01*
X031464Y041668D01*
X031512Y041652D01*
X031544D01*
X03156Y041668D01*
X031576Y0417D01*
Y041716D01*
Y041732D01*
X031592Y041764D01*
Y04178D01*
X031624D01*
X031656Y041764D01*
X031672Y041748D01*
X03172Y041732D01*
X031736D01*
X031752Y041716D01*
X031784Y041684D01*
X0318Y041652D01*
Y041636D01*
Y04162D01*
X031817Y041572D01*
Y041508D01*
Y041476D01*
Y041444D01*
X031881D01*
X031913Y04146D01*
X031929Y041492D01*
X032009Y041556D01*
X032025Y041572D01*
X032089Y041636D01*
Y041652D01*
X032105Y041668D01*
X032121Y0417D01*
X032153Y041716D01*
X032201D01*
X032217Y0417D01*
X032234Y041652D01*
Y041636D01*
X03225Y041604D01*
X032282Y041572D01*
X032314Y04154D01*
X03233Y041556D01*
X032346Y041572D01*
X032362Y04162D01*
X032378Y041636D01*
X032394Y041668D01*
X03241Y041684D01*
X032426Y041732D01*
X03249Y041764D01*
X032506Y041684D01*
X032522Y041668D01*
X032538Y04162D01*
X032554Y041604D01*
X032586Y041588D01*
X032602Y041572D01*
X032618Y041556D01*
Y04154D01*
X032634Y041524D01*
Y041508D01*
X032651Y041492D01*
X032667Y041476D01*
X032683Y04146D01*
X032699Y041444D01*
Y041428D01*
Y041395D01*
X032715D01*
X032731Y041379D01*
X032763D01*
X032827Y041395D01*
X032843Y041412D01*
X032891Y041476D01*
X032907Y041492D01*
X032939Y041508D01*
X032955Y041524D01*
X032971Y041556D01*
X033019Y041588D01*
X033052Y041604D01*
X033132Y041636D01*
X033164Y041652D01*
X033196Y041668D01*
X033228D01*
Y041684D01*
X033244Y0417D01*
X03326Y041716D01*
X033276D01*
X033292Y041684D01*
X033308Y041668D01*
X033324Y041636D01*
Y04162D01*
Y041588D01*
Y041572D01*
X033356Y04154D01*
X033372Y041524D01*
X033404Y041492D01*
X03342Y041476D01*
X033469Y041444D01*
Y041428D01*
X033485Y041395D01*
Y041379D01*
X033501Y041363D01*
X033533D01*
X033565Y041331D01*
Y041315D01*
Y041299D01*
X033549Y041283D01*
Y041267D01*
Y041251D01*
Y041235D01*
Y041219D01*
X033533Y041203D01*
X033501Y041187D01*
X033485Y041171D01*
X033452Y041155D01*
X033404Y041107D01*
X033356Y041043D01*
X03334Y041027D01*
X033308Y040995D01*
X033276Y040962D01*
X03326Y040946D01*
X033244Y040914D01*
X033228Y040898D01*
X033212Y040866D01*
X033196D01*
X03318Y04085D01*
X033148Y040802D01*
X033132Y040786D01*
Y040754D01*
Y040738D01*
X033116Y040706D01*
Y040658D01*
X0331Y040626D01*
X033084D01*
X033052Y04061D01*
X033003D01*
X032987Y040626D01*
X032971Y04069D01*
Y040706D01*
Y040722D01*
Y040754D01*
X032955Y04077D01*
X032939D01*
Y040754D01*
X032923D01*
Y040738D01*
Y040722D01*
Y04069D01*
Y040658D01*
X032907Y040626D01*
X032891D01*
X032859Y040658D01*
X032827D01*
X032811Y040642D01*
Y040626D01*
X032795Y040578D01*
Y040545D01*
Y040513D01*
Y040497D01*
X032827Y040465D01*
X032843Y040449D01*
X032875Y040385D01*
Y040369D01*
Y040321D01*
X032891Y040305D01*
X032907Y040257D01*
Y040241D01*
Y040225D01*
X032923D01*
X032939Y040193D01*
X032923Y040177D01*
X032907Y04016D01*
X032891D01*
Y040144D01*
X032875D01*
Y040128D01*
Y040112D01*
X032859Y04008D01*
X032843Y040064D01*
X032811Y040032D01*
X032763Y039984D01*
X032747Y039968D01*
X032731Y039936D01*
X032715Y03992D01*
X032699Y039888D01*
X032683Y039872D01*
X032667Y03984D01*
X032651D01*
X032618Y039824D01*
X032602D01*
X032586Y039808D01*
X03257D01*
Y039792D01*
Y039776D01*
X032554Y039743D01*
X032506D01*
X03249Y039727D01*
X032458D01*
X032442Y039711D01*
X032426Y039695D01*
X03241D01*
X032378Y039727D01*
X03233D01*
Y039711D01*
Y039695D01*
X032314Y039679D01*
X032282D01*
X032266Y039663D01*
X03225D01*
X032217Y039647D01*
X032201Y039631D01*
X032169Y039599D01*
X032121D01*
X032105Y039615D01*
X032089Y039647D01*
X032073Y039663D01*
X032057Y039679D01*
X032041Y039695D01*
Y039711D01*
Y039727D01*
Y039743D01*
X032025Y03976D01*
X032009Y039792D01*
X031993Y039808D01*
X031977D01*
X031961Y039824D01*
X031849D01*
X031833Y03984D01*
X031784Y039872D01*
X031768Y039888D01*
X031752D01*
X031736Y039904D01*
X031688D01*
X031656Y039888D01*
X031608Y039856D01*
X031592D01*
X03156Y039824D01*
X031512Y039792D01*
X031448Y039727D01*
X031432Y039711D01*
X031383Y039663D01*
X031351D01*
X031335Y039647D01*
X031319D01*
X031287Y039615D01*
X031271Y039599D01*
X031255Y039567D01*
Y039551D01*
X031287Y039519D01*
X031319Y039503D01*
X031351Y039471D01*
X0314Y039423D01*
X031416Y039407D01*
X031448Y039391D01*
Y039375D01*
X031464Y039359D01*
Y039342D01*
X031448D01*
X031432Y039326D01*
X031416Y03931D01*
X0314Y039294D01*
X031383D01*
X031351Y03931D01*
X031335Y039326D01*
X031319D01*
X031303Y039342D01*
X031287Y039359D01*
X031271D01*
X031255Y039375D01*
X031207D01*
X031191Y039359D01*
X031175Y039342D01*
Y039326D01*
Y03931D01*
X031207Y039278D01*
X031239Y039262D01*
X031271Y03923D01*
Y039214D01*
Y039182D01*
X031255D01*
X031239Y03915D01*
X031223D01*
X031191Y039134D01*
X031175Y039118D01*
X031143Y039102D01*
X031127D01*
X031095Y039086D01*
X031079D01*
X031063Y03907D01*
X031015D01*
X030999Y039086D01*
X030966D01*
X03095Y03907D01*
X030934Y039038D01*
X030918Y039022D01*
Y03899D01*
X030934Y038974D01*
X030982Y038909D01*
X031015Y038893D01*
X031047Y038845D01*
Y038829D01*
X031063Y038781D01*
Y038749D01*
X031079Y038717D01*
Y038701D01*
X031095Y038685D01*
X031127Y038669D01*
X031143Y038653D01*
X031191Y038621D01*
Y038605D01*
X031207Y038589D01*
Y038573D01*
X031239Y038557D01*
X031367D01*
X031383Y038573D01*
X031416Y038589D01*
X031432Y038605D01*
X031512D01*
X031544Y038589D01*
X031592D01*
Y038605D01*
X031608D01*
Y038621D01*
X031624D01*
Y038637D01*
X03164D01*
X031656Y038621D01*
X031672D01*
X031688Y038605D01*
X031704D01*
X03172Y038589D01*
X031736D01*
X031752Y038573D01*
X031768Y038541D01*
Y038525D01*
X031752Y038476D01*
Y03846D01*
Y038396D01*
X031768Y03838D01*
X031817Y038348D01*
X031849Y038332D01*
X031897Y038316D01*
X031913Y0383D01*
X031929Y038284D01*
Y038268D01*
X031945Y038236D01*
Y03822D01*
X031929Y038204D01*
X031913Y038188D01*
X031897Y038172D01*
X0318D01*
X031736Y038156D01*
X03172Y03814D01*
X031656Y038091D01*
X03164Y038075D01*
X031624Y038059D01*
X031608D01*
X031592Y038043D01*
X031576D01*
X031528Y038011D01*
X031512D01*
X031496Y037995D01*
X031448Y037979D01*
X031432Y037963D01*
X031416Y037915D01*
X0314D01*
X031383Y037899D01*
X031367D01*
X031351Y037883D01*
X031335D01*
Y037867D01*
X031303Y037851D01*
X031271Y037819D01*
X031207Y037787D01*
X031191D01*
X031159Y037771D01*
X031111Y037755D01*
X031063Y037739D01*
X031047D01*
X031015Y037723D01*
X030999D01*
X030982Y037707D01*
X030966D01*
X030934Y03769D01*
X030918D01*
X03087Y037674D01*
X030854D01*
X030838Y037658D01*
X030774Y037626D01*
X030758D01*
X030742Y03761D01*
X030726Y037594D01*
Y037562D01*
X030742Y03753D01*
Y037514D01*
X030758Y037498D01*
X030774Y037466D01*
X03079Y03745D01*
X030806Y037418D01*
Y037402D01*
X030774Y037354D01*
X030758D01*
X030742Y037322D01*
X030726Y037306D01*
Y037273D01*
X03071D01*
X030694Y037241D01*
X030678Y037225D01*
X03063Y037177D01*
X030614D01*
X030598Y037145D01*
X030565Y037129D01*
X030549Y037113D01*
X030517D01*
X030501Y037129D01*
X030453D01*
X030421Y037113D01*
Y037097D01*
X030405Y037065D01*
X030389Y037049D01*
X030357Y036969D01*
X030341Y036937D01*
X030309Y036905D01*
X030293Y036889D01*
Y036856D01*
X030309Y03684D01*
Y036824D01*
X030293Y036808D01*
X030277Y036792D01*
X030261Y036776D01*
X030245Y036744D01*
X030229Y036728D01*
X030213Y036712D01*
Y036696D01*
Y03668D01*
X030197Y036616D01*
X030181D01*
X030148Y0366D01*
X030132D01*
X0301Y036568D01*
X030084D01*
X030068Y036536D01*
X030036Y036504D01*
X030004Y036455D01*
X029988D01*
X029972Y036439D01*
X029956Y036423D01*
X029924Y036375D01*
X029908D01*
X029892Y036343D01*
X029828Y036295D01*
X029812D01*
X029796Y036263D01*
X029764Y036231D01*
X029715D01*
X029699Y036247D01*
X029667Y036247D01*
X029651Y036231D01*
X029635Y036215D01*
Y036199D01*
Y036183D01*
Y036167D01*
Y036151D01*
X029619Y036103D01*
X029587Y036038D01*
X029571Y036022D01*
X029555Y03599D01*
X029523Y035958D01*
X029491Y035942D01*
X029475D01*
X029459Y03591D01*
X029443Y035894D01*
Y035878D01*
Y035862D01*
X029459Y035846D01*
Y03583D01*
Y035814D01*
X029443D01*
Y035798D01*
Y035766D01*
Y03575D01*
Y035702D01*
Y03567D01*
Y035621D01*
X029427Y035605D01*
X029395Y035573D01*
X029379D01*
X029363Y035557D01*
X029347Y035541D01*
Y035509D01*
X02933Y035493D01*
Y035477D01*
Y035461D01*
Y035445D01*
X029314Y035413D01*
X029282Y035397D01*
X029266D01*
X02925Y035413D01*
X029234Y035429D01*
X029202Y035477D01*
Y035493D01*
X029186Y035509D01*
X02917Y035525D01*
X029154D01*
Y035509D01*
X029138Y035493D01*
Y035461D01*
Y035445D01*
X029122Y035429D01*
X029106Y035381D01*
X029074Y035333D01*
X029058Y035317D01*
X029042Y035301D01*
X028994Y035285D01*
X028962Y035269D01*
X028946D01*
X028913Y035253D01*
X028897D01*
Y035237D01*
X028881Y035204D01*
X028865Y035188D01*
Y035172D01*
X028849D01*
X028833Y035156D01*
X028817Y03514D01*
X028801Y035108D01*
X028785D01*
X028737Y035092D01*
X028721Y035076D01*
X028689Y03506D01*
X028641D01*
X028577Y035076D01*
Y035012D01*
Y03498D01*
X028609Y034932D01*
X028625Y034916D01*
X028657Y0349D01*
X028721Y034868D01*
X028737D01*
X028753Y034836D01*
X028785Y03482D01*
X028801Y034803D01*
Y034787D01*
X028817Y034771D01*
Y034755D01*
Y034723D01*
X028801Y034707D01*
X028785Y034691D01*
X028769Y034675D01*
X028753Y034659D01*
X028737D01*
Y034643D01*
Y034627D01*
Y034611D01*
X028705D01*
Y034595D01*
X028689Y034579D01*
X028673Y034547D01*
X028657Y034531D01*
X028641Y034499D01*
X028625D01*
Y034483D01*
X028609D01*
X028577Y034467D01*
X028561D01*
X028545Y034451D01*
X028529Y034419D01*
X028512Y034402D01*
X02848Y034386D01*
X028432Y034338D01*
X028416Y034306D01*
Y034274D01*
Y034258D01*
X028432Y034226D01*
X028448Y03421D01*
X028464Y034178D01*
X028432Y034162D01*
X028416Y034146D01*
Y034114D01*
Y034098D01*
X028432Y03405D01*
X028464Y034034D01*
X02848D01*
X028512Y034018D01*
X028529D01*
X028545Y034002D01*
X028561D01*
X028545Y033985D01*
X028496D01*
X028464Y033969D01*
X028304D01*
X028224Y033985D01*
X028208D01*
X028192Y034002D01*
X028176Y034018D01*
X02816Y03405D01*
Y034066D01*
X028144Y034098D01*
X028112Y034194D01*
Y03421D01*
X028095Y034242D01*
X028063Y034338D01*
Y034354D01*
X028047Y03437D01*
Y034386D01*
Y034402D01*
X028031Y034419D01*
Y034435D01*
X028015Y034451D01*
Y034499D01*
Y034515D01*
X027999Y034531D01*
Y034563D01*
X027983Y034579D01*
X027951D01*
Y034547D01*
X027935Y034515D01*
Y034483D01*
X027919Y034435D01*
X027903Y03437D01*
X027887Y03429D01*
Y034274D01*
X027871Y034258D01*
X027839Y034178D01*
X027807Y034082D01*
X027791Y03405D01*
X027775Y034018D01*
Y034002D01*
X027743Y033969D01*
X027614D01*
X027486Y033985D01*
X027213D01*
X027197Y034002D01*
Y034018D01*
Y034034D01*
X027213Y03405D01*
X027245Y03413D01*
Y034146D01*
Y034162D01*
X027229Y034226D01*
X027213Y034242D01*
Y034258D01*
X027229Y034274D01*
X027245Y03429D01*
X027261Y034306D01*
X027277Y034322D01*
Y034338D01*
X027294Y034354D01*
Y03437D01*
X02731D01*
X027326Y034386D01*
X027358D01*
X027374Y034402D01*
X027422Y034435D01*
X027486Y034499D01*
X027502Y034515D01*
X027534Y034563D01*
X027582Y034595D01*
X027598Y034627D01*
Y034643D01*
X027614Y034675D01*
X027646Y034723D01*
Y034739D01*
X027678Y034771D01*
X027727Y034852D01*
X027743Y034868D01*
X027791Y034932D01*
Y034948D01*
Y034964D01*
X027807Y035012D01*
Y035028D01*
X027791Y035044D01*
X027775Y03506D01*
Y035076D01*
X027759Y035092D01*
Y035108D01*
X027791D01*
X027839Y035092D01*
X027855D01*
X027903Y035076D01*
X027919D01*
X027935Y035092D01*
X027951D01*
Y035108D01*
X027919Y035156D01*
X027903Y035172D01*
Y035188D01*
Y035204D01*
X027999D01*
Y03522D01*
Y035237D01*
X028015Y035253D01*
X028031Y035269D01*
Y035285D01*
X028095D01*
X028176Y035317D01*
X028192D01*
X028208Y035349D01*
X028256Y035381D01*
X02832Y035429D01*
Y035445D01*
X028352Y035461D01*
X028432Y035541D01*
X028448Y035557D01*
X028464Y035573D01*
X028545Y035621D01*
X028577Y035654D01*
X028657Y035718D01*
X028673Y035734D01*
X028689Y03575D01*
X028785Y03583D01*
X028801Y035846D01*
X028817Y035862D01*
X028881Y035926D01*
Y035942D01*
X028897Y03599D01*
Y036006D01*
X028913Y036022D01*
X028929Y036038D01*
X028946Y036071D01*
X028994Y036103D01*
X02901Y036119D01*
X029058Y036151D01*
X029122Y036199D01*
X029202Y036247D01*
X029218Y036263D01*
X02925Y036295D01*
X02933Y036391D01*
X029347Y036407D01*
X029379Y036455D01*
X029411Y03652D01*
X029475Y036616D01*
X029491Y036632D01*
X029507Y036696D01*
X029523Y036744D01*
X029539Y036792D01*
Y036808D01*
X029523Y036824D01*
X029507Y036856D01*
X029475Y036905D01*
X029523Y036937D01*
X029539Y036953D01*
X029555Y036969D01*
Y036985D01*
Y037017D01*
Y037033D01*
X029571D01*
Y037049D01*
X029651D01*
X029667Y037065D01*
X029699Y037097D01*
X029715Y037113D01*
X029747Y037129D01*
X029764Y037145D01*
X029812Y037177D01*
X029828Y037193D01*
X029876Y037209D01*
X02994Y037257D01*
X030004Y037322D01*
X03002Y037338D01*
X030052Y037386D01*
X030084Y037466D01*
X030116Y037546D01*
Y037562D01*
X030132Y037594D01*
X030164Y037674D01*
Y03769D01*
X030181Y037707D01*
X030245Y037787D01*
X030261Y037803D01*
X030293Y037851D01*
Y037867D01*
X030309Y037883D01*
X030325Y037947D01*
Y037963D01*
X030309Y037979D01*
X030293Y037995D01*
X030277Y038011D01*
X030261Y038027D01*
X030245Y038043D01*
X030229Y038059D01*
Y038091D01*
Y038107D01*
X030213Y038124D01*
X030197Y03814D01*
X030181Y038172D01*
X030164Y038188D01*
X030148Y03822D01*
Y038236D01*
Y038284D01*
Y0383D01*
X030164Y038316D01*
Y038332D01*
X030148Y038348D01*
Y038364D01*
Y03838D01*
X030132Y038396D01*
Y038444D01*
Y03846D01*
Y038476D01*
X030116Y038557D01*
Y038573D01*
X0301Y038589D01*
X030052Y038669D01*
X030036Y038685D01*
X03002Y038717D01*
X030004Y038733D01*
Y038781D01*
Y038797D01*
Y038813D01*
X029972Y038845D01*
X029956Y038861D01*
X029892Y038877D01*
X029876D01*
X029828Y038893D01*
X029796Y038925D01*
X02978Y038958D01*
X029731Y039006D01*
X029715Y039022D01*
X029683Y039038D01*
X029635Y03907D01*
X029619Y039086D01*
X029603Y039102D01*
X029555Y039118D01*
X029523D01*
X029491Y039134D01*
X029475Y039166D01*
Y039182D01*
X029459Y039198D01*
X029443Y039262D01*
Y039326D01*
Y039342D01*
Y039391D01*
Y039455D01*
X029427Y039487D01*
Y039503D01*
X029411Y039519D01*
X029379Y039551D01*
X029314Y039583D01*
X029298D01*
X029282Y039599D01*
X02925Y039631D01*
X029234Y039647D01*
Y039679D01*
Y039695D01*
Y039711D01*
X029218Y039727D01*
X029186D01*
X02917Y039743D01*
Y03976D01*
Y039776D01*
X029154Y039792D01*
X029138Y039824D01*
X029122Y03984D01*
X02909D01*
X029074Y039856D01*
X028897D01*
X028881Y039872D01*
X028865D01*
X028833Y039888D01*
X028817Y039904D01*
X028769Y03992D01*
X028753D01*
X028721Y039936D01*
X028689D01*
X028673Y039952D01*
X028657Y039968D01*
X028609Y040016D01*
X028593Y040032D01*
X028561Y04008D01*
X028512Y040128D01*
X028464Y040177D01*
X028448Y040193D01*
X028416Y040225D01*
X028352Y040257D01*
X028272Y040305D01*
X028256D01*
X028224Y040321D01*
X028144Y040369D01*
X028128Y040385D01*
X028112Y040401D01*
X028095Y040417D01*
X028079D01*
Y040433D01*
X028095Y040449D01*
Y040465D01*
X028112D01*
X028144Y040481D01*
X02816Y040497D01*
X028176Y040513D01*
X028192Y040529D01*
X028224Y040545D01*
X02832D01*
X028368Y040529D01*
X028384D01*
X0284Y040545D01*
X028464D01*
X02848Y040529D01*
X028496D01*
X028545Y040513D01*
X028561Y040545D01*
Y040561D01*
X028609D01*
X028641Y040545D01*
X028673Y040513D01*
X028689Y040561D01*
Y040578D01*
Y040594D01*
X028721Y040626D01*
X028737Y040642D01*
X028833D01*
X028881Y040658D01*
X028897D01*
X028913Y04069D01*
X028978Y040754D01*
X028994Y04077D01*
X02901D01*
Y040786D01*
X028978D01*
X028962Y040802D01*
Y040818D01*
X028978Y040834D01*
Y04085D01*
X02909D01*
X029106Y040866D01*
Y040882D01*
X029138D01*
X02917Y040898D01*
X029202Y040914D01*
X029266D01*
X029314Y040898D01*
Y041043D01*
Y041059D01*
Y041091D01*
X02933Y041171D01*
Y041187D01*
Y041203D01*
Y041219D01*
X029347Y041235D01*
X029363D01*
X029411Y041267D01*
Y041283D01*
X029427Y041299D01*
X029443Y041347D01*
Y041363D01*
Y041395D01*
X029427Y041412D01*
Y04146D01*
X029411Y041476D01*
Y041508D01*
X029395Y041524D01*
X029314D01*
X029282Y04154D01*
X029266Y041556D01*
Y041588D01*
X02925Y04162D01*
Y041636D01*
X029234Y041668D01*
X029218Y041684D01*
X029202Y041716D01*
Y041732D01*
Y041748D01*
Y041764D01*
X029218D01*
X02925Y04178D01*
X029266D01*
X029314Y041796D01*
X02933Y041813D01*
X029363Y041829D01*
X029379D01*
X029395Y041845D01*
X029459Y041861D01*
X029475D01*
X029491Y041845D01*
X029539D01*
X029571Y041829D01*
X029587Y041813D01*
X029619Y041796D01*
X029683Y041796D01*
X029699Y041813D01*
X029747Y041861D01*
X029796Y041925D01*
X02986Y041909D01*
X029876D01*
X029924Y041893D01*
X029988D01*
X030004Y041877D01*
X030068Y041861D01*
X030084Y041877D01*
X030148Y041925D01*
Y041941D01*
X030164Y041957D01*
X030213Y041989D01*
X030229Y042005D01*
X030325D01*
X030357Y042021D01*
Y042037D01*
X030373Y042069D01*
Y042085D01*
X030405Y042117D01*
X030421Y042149D01*
X030437Y042165D01*
X030485Y042213D01*
X030501Y04223D01*
X030565Y042278D01*
Y042294D01*
X030582Y04231D01*
X030598Y042326D01*
X030614Y04231D01*
D02*
G37*
G36*
X016772Y04231D02*
X016804D01*
X01682Y042294D01*
X016836Y042262D01*
Y042246D01*
Y04223D01*
Y042213D01*
X016868Y042197D01*
X016948D01*
X016964Y042181D01*
X017013Y042165D01*
X017077Y042133D01*
X017093D01*
X017125Y042117D01*
X017157Y042101D01*
X017173Y042085D01*
Y042069D01*
X017189Y042053D01*
X017221D01*
X017237Y042037D01*
Y042021D01*
X017221Y041989D01*
Y041973D01*
X017205Y041941D01*
Y041909D01*
Y041877D01*
Y041861D01*
X017237Y041845D01*
X017269Y041813D01*
X017301Y04178D01*
X017333Y041748D01*
X017349D01*
X017397Y041764D01*
X017413D01*
X017462Y041748D01*
X017478D01*
X01751Y041732D01*
X017542Y0417D01*
X017558D01*
X01759Y041684D01*
X017622Y041668D01*
X01767Y041652D01*
X017702D01*
X017718Y041668D01*
X017734Y0417D01*
Y041716D01*
Y041732D01*
X01775Y041764D01*
Y04178D01*
X017782D01*
X017814Y041764D01*
X01783Y041748D01*
X017879Y041732D01*
X017895D01*
X017911Y041716D01*
X017943Y041684D01*
X017959Y041652D01*
Y041636D01*
Y04162D01*
X017975Y041572D01*
Y041508D01*
Y041476D01*
Y041444D01*
X018039D01*
X018071Y04146D01*
X018087Y041492D01*
X018167Y041556D01*
X018183Y041572D01*
X018248Y041636D01*
Y041652D01*
X018264Y041668D01*
X01828Y0417D01*
X018312Y041716D01*
X01836D01*
X018376Y0417D01*
X018392Y041652D01*
Y041636D01*
X018408Y041604D01*
X01844Y041572D01*
X018472Y04154D01*
X018488Y041556D01*
X018504Y041572D01*
X01852Y04162D01*
X018536Y041636D01*
X018552Y041668D01*
X018568Y041684D01*
X018584Y041732D01*
X018648Y041764D01*
X018665Y041684D01*
X018681Y041668D01*
X018697Y04162D01*
X018713Y041604D01*
X018745Y041588D01*
X018761Y041572D01*
X018777Y041556D01*
Y04154D01*
X018793Y041524D01*
Y041508D01*
X018809Y041492D01*
X018825Y041476D01*
X018841Y04146D01*
X018857Y041444D01*
Y041428D01*
Y041395D01*
X018873D01*
X018889Y041379D01*
X018921D01*
X018985Y041395D01*
X019001Y041412D01*
X019049Y041476D01*
X019066Y041492D01*
X019098Y041508D01*
X019114Y041524D01*
X01913Y041556D01*
X019178Y041588D01*
X01921Y041604D01*
X01929Y041636D01*
X019322Y041652D01*
X019354Y041668D01*
X019386D01*
Y041684D01*
X019402Y0417D01*
X019418Y041716D01*
X019434D01*
X01945Y041684D01*
X019466Y041668D01*
X019483Y041636D01*
Y04162D01*
Y041588D01*
Y041572D01*
X019515Y04154D01*
X019531Y041524D01*
X019563Y041492D01*
X019579Y041476D01*
X019627Y041444D01*
Y041428D01*
X019643Y041395D01*
Y041379D01*
X019659Y041363D01*
X019691D01*
X019723Y041331D01*
Y041315D01*
Y041299D01*
X019707Y041283D01*
Y041267D01*
Y041251D01*
Y041235D01*
Y041219D01*
X019691Y041203D01*
X019659Y041187D01*
X019643Y041171D01*
X019611Y041155D01*
X019563Y041107D01*
X019515Y041043D01*
X019499Y041027D01*
X019466Y040995D01*
X019434Y040962D01*
X019418Y040946D01*
X019402Y040914D01*
X019386Y040898D01*
X01937Y040866D01*
X019354D01*
X019338Y04085D01*
X019306Y040802D01*
X01929Y040786D01*
Y040754D01*
Y040738D01*
X019274Y040706D01*
Y040658D01*
X019258Y040626D01*
X019242D01*
X01921Y04061D01*
X019162D01*
X019146Y040626D01*
X01913Y04069D01*
Y040706D01*
Y040722D01*
Y040754D01*
X019114Y04077D01*
X019098D01*
Y040754D01*
X019082D01*
Y040738D01*
Y040722D01*
Y04069D01*
Y040658D01*
X019066Y040626D01*
X019049D01*
X019017Y040658D01*
X018985D01*
X018969Y040642D01*
Y040626D01*
X018953Y040578D01*
Y040545D01*
Y040513D01*
Y040497D01*
X018985Y040465D01*
X019001Y040449D01*
X019033Y040385D01*
Y040369D01*
Y040321D01*
X019049Y040305D01*
X019066Y040257D01*
Y040241D01*
Y040225D01*
X019082D01*
X019098Y040193D01*
X019082Y040177D01*
X019066Y04016D01*
X019049D01*
Y040144D01*
X019033D01*
Y040128D01*
Y040112D01*
X019017Y04008D01*
X019001Y040064D01*
X018969Y040032D01*
X018921Y039984D01*
X018905Y039968D01*
X018889Y039936D01*
X018873Y03992D01*
X018857Y039888D01*
X018841Y039872D01*
X018825Y03984D01*
X018809D01*
X018777Y039824D01*
X018761D01*
X018745Y039808D01*
X018729D01*
Y039792D01*
Y039776D01*
X018713Y039743D01*
X018665D01*
X018648Y039727D01*
X018616D01*
X0186Y039711D01*
X018584Y039695D01*
X018568D01*
X018536Y039727D01*
X018488D01*
Y039711D01*
Y039695D01*
X018472Y039679D01*
X01844D01*
X018424Y039663D01*
X018408D01*
X018376Y039647D01*
X01836Y039631D01*
X018328Y039599D01*
X01828D01*
X018264Y039615D01*
X018248Y039647D01*
X018231Y039663D01*
X018215Y039679D01*
X018199Y039695D01*
Y039711D01*
Y039727D01*
Y039743D01*
X018183Y03976D01*
X018167Y039792D01*
X018151Y039808D01*
X018135D01*
X018119Y039824D01*
X018007D01*
X017991Y03984D01*
X017943Y039872D01*
X017927Y039888D01*
X017911D01*
X017895Y039904D01*
X017847D01*
X017814Y039888D01*
X017766Y039856D01*
X01775D01*
X017718Y039824D01*
X01767Y039792D01*
X017606Y039727D01*
X01759Y039711D01*
X017542Y039663D01*
X01751D01*
X017494Y039647D01*
X017478D01*
X017446Y039615D01*
X01743Y039599D01*
X017413Y039567D01*
Y039551D01*
X017446Y039519D01*
X017478Y039503D01*
X01751Y039471D01*
X017558Y039423D01*
X017574Y039407D01*
X017606Y039391D01*
Y039375D01*
X017622Y039359D01*
Y039342D01*
X017606D01*
X01759Y039326D01*
X017574Y03931D01*
X017558Y039294D01*
X017542D01*
X01751Y03931D01*
X017494Y039326D01*
X017478D01*
X017462Y039342D01*
X017446Y039359D01*
X01743D01*
X017413Y039375D01*
X017365D01*
X017349Y039359D01*
X017333Y039342D01*
Y039326D01*
Y03931D01*
X017365Y039278D01*
X017397Y039262D01*
X01743Y03923D01*
Y039214D01*
Y039182D01*
X017413D01*
X017397Y03915D01*
X017381D01*
X017349Y039134D01*
X017333Y039118D01*
X017301Y039102D01*
X017285D01*
X017253Y039086D01*
X017237D01*
X017221Y03907D01*
X017173D01*
X017157Y039086D01*
X017125D01*
X017109Y03907D01*
X017093Y039038D01*
X017077Y039022D01*
Y03899D01*
X017093Y038974D01*
X017141Y038909D01*
X017173Y038893D01*
X017205Y038845D01*
Y038829D01*
X017221Y038781D01*
Y038749D01*
X017237Y038717D01*
Y038701D01*
X017253Y038685D01*
X017285Y038669D01*
X017301Y038653D01*
X017349Y038621D01*
Y038605D01*
X017365Y038589D01*
Y038573D01*
X017397Y038557D01*
X017526D01*
X017542Y038573D01*
X017574Y038589D01*
X01759Y038605D01*
X01767D01*
X017702Y038589D01*
X01775D01*
Y038605D01*
X017766D01*
Y038621D01*
X017782D01*
Y038637D01*
X017798D01*
X017814Y038621D01*
X017831D01*
X017847Y038605D01*
X017863D01*
X017879Y038589D01*
X017895D01*
X017911Y038573D01*
X017927Y038541D01*
Y038524D01*
X017911Y038476D01*
Y03846D01*
Y038396D01*
X017927Y03838D01*
X017975Y038348D01*
X018007Y038332D01*
X018055Y038316D01*
X018071Y0383D01*
X018087Y038284D01*
Y038268D01*
X018103Y038236D01*
Y03822D01*
X018087Y038204D01*
X018071Y038188D01*
X018055Y038172D01*
X017959D01*
X017895Y038156D01*
X017879Y03814D01*
X017814Y038091D01*
X017798Y038075D01*
X017782Y038059D01*
X017766D01*
X01775Y038043D01*
X017734D01*
X017686Y038011D01*
X01767D01*
X017654Y037995D01*
X017606Y037979D01*
X01759Y037963D01*
X017574Y037915D01*
X017558D01*
X017542Y037899D01*
X017526D01*
X01751Y037883D01*
X017494D01*
Y037867D01*
X017462Y037851D01*
X01743Y037819D01*
X017365Y037787D01*
X017349D01*
X017317Y037771D01*
X017269Y037755D01*
X017221Y037739D01*
X017205D01*
X017173Y037723D01*
X017157D01*
X017141Y037707D01*
X017125D01*
X017093Y03769D01*
X017077D01*
X017029Y037674D01*
X017013D01*
X016996Y037658D01*
X016932Y037626D01*
X016916D01*
X0169Y03761D01*
X016884Y037594D01*
Y037562D01*
X0169Y03753D01*
Y037514D01*
X016916Y037498D01*
X016932Y037466D01*
X016948Y03745D01*
X016964Y037418D01*
Y037402D01*
X016932Y037354D01*
X016916D01*
X0169Y037322D01*
X016884Y037306D01*
Y037273D01*
X016868D01*
X016852Y037241D01*
X016836Y037225D01*
X016788Y037177D01*
X016772D01*
X016756Y037145D01*
X016724Y037129D01*
X016708Y037113D01*
X016676D01*
X01666Y037129D01*
X016612D01*
X016579Y037113D01*
Y037097D01*
X016563Y037065D01*
X016547Y037049D01*
X016515Y036969D01*
X016499Y036937D01*
X016467Y036905D01*
X016451Y036889D01*
Y036856D01*
X016467Y03684D01*
Y036824D01*
X016451Y036808D01*
X016435Y036792D01*
X016419Y036776D01*
X016403Y036744D01*
X016387Y036728D01*
X016371Y036712D01*
Y036696D01*
Y03668D01*
X016355Y036616D01*
X016339D01*
X016307Y0366D01*
X016291D01*
X016259Y036568D01*
X016243D01*
X016227Y036536D01*
X016195Y036504D01*
X016162Y036455D01*
X016146D01*
X01613Y036439D01*
X016114Y036423D01*
X016082Y036375D01*
X016066D01*
X01605Y036343D01*
X015986Y036295D01*
X01597D01*
X015954Y036263D01*
X015922Y036231D01*
X015874D01*
X015858Y036247D01*
X015826D01*
X01581Y036231D01*
X015794Y036215D01*
Y036199D01*
Y036183D01*
Y036167D01*
Y036151D01*
X015778Y036103D01*
X015745Y036038D01*
X015729Y036022D01*
X015713Y03599D01*
X015681Y035958D01*
X015649Y035942D01*
X015633D01*
X015617Y03591D01*
X015601Y035894D01*
Y035878D01*
Y035862D01*
X015617Y035846D01*
Y03583D01*
Y035814D01*
X015601D01*
Y035798D01*
Y035766D01*
Y03575D01*
Y035702D01*
Y03567D01*
Y035621D01*
X015585Y035605D01*
X015553Y035573D01*
X015537D01*
X015521Y035557D01*
X015505Y035541D01*
Y035509D01*
X015489Y035493D01*
Y035477D01*
Y035461D01*
Y035445D01*
X015473Y035413D01*
X015441Y035397D01*
X015425D01*
X015409Y035413D01*
X015393Y035429D01*
X01536Y035477D01*
Y035493D01*
X015344Y035509D01*
X015328Y035525D01*
X015312D01*
Y035509D01*
X015296Y035493D01*
Y035461D01*
Y035445D01*
X01528Y035429D01*
X015264Y035381D01*
X015232Y035333D01*
X015216Y035317D01*
X0152Y035301D01*
X015152Y035285D01*
X01512Y035269D01*
X015104D01*
X015072Y035253D01*
X015056D01*
Y035237D01*
X01504Y035204D01*
X015024Y035188D01*
Y035172D01*
X015008D01*
X014992Y035156D01*
X014976Y03514D01*
X01496Y035108D01*
X014943D01*
X014895Y035092D01*
X014879Y035076D01*
X014847Y03506D01*
X014799D01*
X014735Y035076D01*
Y035012D01*
Y03498D01*
X014767Y034932D01*
X014783Y034916D01*
X014815Y0349D01*
X014879Y034868D01*
X014895D01*
X014911Y034836D01*
X014943Y034819D01*
X01496Y034803D01*
Y034787D01*
X014976Y034771D01*
Y034755D01*
Y034723D01*
X01496Y034707D01*
X014943Y034691D01*
X014927Y034675D01*
X014911Y034659D01*
X014895D01*
Y034643D01*
Y034627D01*
Y034611D01*
X014863D01*
Y034595D01*
X014847Y034579D01*
X014831Y034547D01*
X014815Y034531D01*
X014799Y034499D01*
X014783D01*
Y034483D01*
X014767D01*
X014735Y034467D01*
X014719D01*
X014703Y034451D01*
X014687Y034419D01*
X014671Y034402D01*
X014639Y034386D01*
X014591Y034338D01*
X014575Y034306D01*
Y034274D01*
Y034258D01*
X014591Y034226D01*
X014607Y03421D01*
X014623Y034178D01*
X014591Y034162D01*
X014575Y034146D01*
Y034114D01*
Y034098D01*
X014591Y03405D01*
X014623Y034034D01*
X014639D01*
X014671Y034018D01*
X014687D01*
X014703Y034002D01*
X014719D01*
X014703Y033985D01*
X014655D01*
X014623Y033969D01*
X014462D01*
X014382Y033985D01*
X014366D01*
X01435Y034002D01*
X014334Y034018D01*
X014318Y03405D01*
Y034066D01*
X014302Y034098D01*
X01427Y034194D01*
Y03421D01*
X014254Y034242D01*
X014222Y034338D01*
Y034354D01*
X014206Y03437D01*
Y034386D01*
Y034402D01*
X01419Y034419D01*
Y034435D01*
X014174Y034451D01*
Y034499D01*
Y034515D01*
X014158Y034531D01*
Y034563D01*
X014142Y034579D01*
X014109D01*
Y034547D01*
X014093Y034515D01*
Y034483D01*
X014077Y034435D01*
X014061Y03437D01*
X014045Y03429D01*
Y034274D01*
X014029Y034258D01*
X013997Y034178D01*
X013965Y034082D01*
X013949Y03405D01*
X013933Y034018D01*
Y034002D01*
X013901Y033969D01*
X013773D01*
X013644Y033985D01*
X013372D01*
X013356Y034002D01*
Y034018D01*
Y034034D01*
X013372Y03405D01*
X013404Y03413D01*
Y034146D01*
Y034162D01*
X013388Y034226D01*
X013372Y034242D01*
Y034258D01*
X013388Y034274D01*
X013404Y03429D01*
X01342Y034306D01*
X013436Y034322D01*
Y034338D01*
X013452Y034354D01*
Y03437D01*
X013468D01*
X013484Y034386D01*
X013516D01*
X013532Y034402D01*
X01358Y034435D01*
X013644Y034499D01*
X01366Y034515D01*
X013692Y034563D01*
X013741Y034595D01*
X013757Y034627D01*
Y034643D01*
X013773Y034675D01*
X013805Y034723D01*
Y034739D01*
X013837Y034771D01*
X013885Y034852D01*
X013901Y034868D01*
X013949Y034932D01*
Y034948D01*
Y034964D01*
X013965Y035012D01*
Y035028D01*
X013949Y035044D01*
X013933Y03506D01*
Y035076D01*
X013917Y035092D01*
Y035108D01*
X013949D01*
X013997Y035092D01*
X014013D01*
X014061Y035076D01*
X014077D01*
X014093Y035092D01*
X014109D01*
Y035108D01*
X014077Y035156D01*
X014061Y035172D01*
Y035188D01*
Y035204D01*
X014158D01*
Y03522D01*
Y035237D01*
X014174Y035253D01*
X01419Y035269D01*
Y035285D01*
X014254D01*
X014334Y035317D01*
X01435D01*
X014366Y035349D01*
X014414Y035381D01*
X014478Y035429D01*
Y035445D01*
X01451Y035461D01*
X014591Y035541D01*
X014607Y035557D01*
X014623Y035573D01*
X014703Y035621D01*
X014735Y035654D01*
X014815Y035718D01*
X014831Y035734D01*
X014847Y03575D01*
X014943Y03583D01*
X01496Y035846D01*
X014976Y035862D01*
X01504Y035926D01*
Y035942D01*
X015056Y03599D01*
Y036006D01*
X015072Y036022D01*
X015088Y036038D01*
X015104Y036071D01*
X015152Y036103D01*
X015168Y036119D01*
X015216Y036151D01*
X01528Y036199D01*
X01536Y036247D01*
X015377Y036263D01*
X015409Y036295D01*
X015489Y036391D01*
X015505Y036407D01*
X015537Y036455D01*
X015569Y03652D01*
X015633Y036616D01*
X015649Y036632D01*
X015665Y036696D01*
X015681Y036744D01*
X015697Y036792D01*
Y036808D01*
X015681Y036824D01*
X015665Y036856D01*
X015633Y036905D01*
X015681Y036937D01*
X015697Y036953D01*
X015713Y036969D01*
Y036985D01*
Y037017D01*
Y037033D01*
X015729D01*
Y037049D01*
X01581D01*
X015826Y037065D01*
X015858Y037097D01*
X015874Y037113D01*
X015906Y037129D01*
X015922Y037145D01*
X01597Y037177D01*
X015986Y037193D01*
X016034Y037209D01*
X016098Y037257D01*
X016162Y037322D01*
X016178Y037338D01*
X016211Y037386D01*
X016243Y037466D01*
X016275Y037546D01*
Y037562D01*
X016291Y037594D01*
X016323Y037674D01*
Y03769D01*
X016339Y037707D01*
X016403Y037787D01*
X016419Y037803D01*
X016451Y037851D01*
Y037867D01*
X016467Y037883D01*
X016483Y037947D01*
Y037963D01*
X016467Y037979D01*
X016451Y037995D01*
X016435Y038011D01*
X016419Y038027D01*
X016403Y038043D01*
X016387Y038059D01*
Y038091D01*
Y038107D01*
X016371Y038124D01*
X016355Y03814D01*
X016339Y038172D01*
X016323Y038188D01*
X016307Y03822D01*
Y038236D01*
Y038284D01*
Y0383D01*
X016323Y038316D01*
Y038332D01*
X016307Y038348D01*
Y038364D01*
Y03838D01*
X016291Y038396D01*
Y038444D01*
Y03846D01*
Y038476D01*
X016275Y038557D01*
Y038573D01*
X016259Y038589D01*
X016211Y038669D01*
X016195Y038685D01*
X016178Y038717D01*
X016162Y038733D01*
Y038781D01*
Y038797D01*
Y038813D01*
X01613Y038845D01*
X016114Y038861D01*
X01605Y038877D01*
X016034D01*
X015986Y038893D01*
X015954Y038925D01*
X015938Y038958D01*
X01589Y039006D01*
X015874Y039022D01*
X015842Y039038D01*
X015794Y03907D01*
X015778Y039086D01*
X015761Y039102D01*
X015713Y039118D01*
X015681D01*
X015649Y039134D01*
X015633Y039166D01*
Y039182D01*
X015617Y039198D01*
X015601Y039262D01*
Y039326D01*
Y039342D01*
Y039391D01*
Y039455D01*
X015585Y039487D01*
Y039503D01*
X015569Y039519D01*
X015537Y039551D01*
X015473Y039583D01*
X015457D01*
X015441Y039599D01*
X015409Y039631D01*
X015393Y039647D01*
Y039679D01*
Y039695D01*
Y039711D01*
X015377Y039727D01*
X015344D01*
X015328Y039743D01*
Y03976D01*
Y039776D01*
X015312Y039792D01*
X015296Y039824D01*
X01528Y03984D01*
X015248D01*
X015232Y039856D01*
X015056D01*
X01504Y039872D01*
X015024D01*
X014992Y039888D01*
X014976Y039904D01*
X014927Y03992D01*
X014911D01*
X014879Y039936D01*
X014847D01*
X014831Y039952D01*
X014815Y039968D01*
X014767Y040016D01*
X014751Y040032D01*
X014719Y04008D01*
X014671Y040128D01*
X014623Y040177D01*
X014607Y040193D01*
X014575Y040225D01*
X01451Y040257D01*
X01443Y040305D01*
X014414D01*
X014382Y040321D01*
X014302Y040369D01*
X014286Y040385D01*
X01427Y040401D01*
X014254Y040417D01*
X014238D01*
Y040433D01*
X014254Y040449D01*
Y040465D01*
X01427D01*
X014302Y040481D01*
X014318Y040497D01*
X014334Y040513D01*
X01435Y040529D01*
X014382Y040545D01*
X014478D01*
X014526Y040529D01*
X014543D01*
X014559Y040545D01*
X014623D01*
X014639Y040529D01*
X014655D01*
X014703Y040513D01*
X014719Y040545D01*
Y040561D01*
X014767D01*
X014799Y040545D01*
X014831Y040513D01*
X014847Y040561D01*
Y040577D01*
Y040594D01*
X014879Y040626D01*
X014895Y040642D01*
X014992D01*
X01504Y040658D01*
X015056D01*
X015072Y04069D01*
X015136Y040754D01*
X015152Y04077D01*
X015168D01*
Y040786D01*
X015136D01*
X01512Y040802D01*
Y040818D01*
X015136Y040834D01*
Y04085D01*
X015248D01*
X015264Y040866D01*
Y040882D01*
X015296D01*
X015328Y040898D01*
X01536Y040914D01*
X015425D01*
X015473Y040898D01*
Y041043D01*
Y041059D01*
Y041091D01*
X015489Y041171D01*
Y041187D01*
Y041203D01*
Y041219D01*
X015505Y041235D01*
X015521D01*
X015569Y041267D01*
Y041283D01*
X015585Y041299D01*
X015601Y041347D01*
Y041363D01*
Y041395D01*
X015585Y041412D01*
Y04146D01*
X015569Y041476D01*
Y041508D01*
X015553Y041524D01*
X015473D01*
X015441Y04154D01*
X015425Y041556D01*
Y041588D01*
X015409Y04162D01*
Y041636D01*
X015393Y041668D01*
X015377Y041684D01*
X01536Y041716D01*
Y041732D01*
Y041748D01*
Y041764D01*
X015377D01*
X015409Y04178D01*
X015425D01*
X015473Y041796D01*
X015489Y041813D01*
X015521Y041829D01*
X015537D01*
X015553Y041845D01*
X015617Y041861D01*
X015633D01*
X015649Y041845D01*
X015697D01*
X015729Y041829D01*
X015745Y041813D01*
X015778Y041796D01*
X015842D01*
X015858Y041813D01*
X015906Y041861D01*
X015954Y041925D01*
X016018Y041909D01*
X016034D01*
X016082Y041893D01*
X016146D01*
X016162Y041877D01*
X016227Y041861D01*
X016243Y041877D01*
X016307Y041925D01*
Y041941D01*
X016323Y041957D01*
X016371Y041989D01*
X016387Y042005D01*
X016483D01*
X016515Y042021D01*
Y042037D01*
X016531Y042069D01*
Y042085D01*
X016563Y042117D01*
X016579Y042149D01*
X016595Y042165D01*
X016644Y042213D01*
X01666Y04223D01*
X016724Y042278D01*
Y042294D01*
X01674Y04231D01*
X016756Y042326D01*
X016772Y04231D01*
D02*
G37*
G36*
X041985Y04016D02*
X042001D01*
Y040144D01*
X041985Y040128D01*
X041921D01*
X041905Y040144D01*
Y04016D01*
X041921D01*
Y040177D01*
X041953D01*
X041985Y04016D01*
D02*
G37*
G36*
X028144Y04016D02*
X02816D01*
Y040144D01*
X028144Y040128D01*
X028079D01*
X028063Y040144D01*
Y04016D01*
X028079D01*
Y040177D01*
X028112D01*
X028144Y04016D01*
D02*
G37*
G36*
X014302Y04016D02*
X014318D01*
Y040144D01*
X014302Y040128D01*
X014238D01*
X014222Y040144D01*
Y04016D01*
X014238D01*
Y040177D01*
X01427D01*
X014302Y04016D01*
D02*
G37*
G36*
X042146Y039968D02*
X042162D01*
X042194Y039952D01*
Y039936D01*
Y039904D01*
Y039888D01*
Y039856D01*
X042146D01*
X04213Y039872D01*
X042114Y039888D01*
X042065Y039904D01*
X042049Y03992D01*
X042033Y039936D01*
Y039952D01*
X042049Y039968D01*
X042065Y039984D01*
X042114D01*
X042146Y039968D01*
D02*
G37*
G36*
X028304Y039968D02*
X02832D01*
X028352Y039952D01*
Y039936D01*
Y039904D01*
Y039888D01*
Y039856D01*
X028304D01*
X028288Y039872D01*
X028272Y039888D01*
X028224Y039904D01*
X028208Y03992D01*
X028192Y039936D01*
Y039952D01*
X028208Y039968D01*
X028224Y039984D01*
X028272D01*
X028304Y039968D01*
D02*
G37*
G36*
X014462Y039968D02*
X014478D01*
X01451Y039952D01*
Y039936D01*
Y039904D01*
Y039888D01*
Y039856D01*
X014462D01*
X014446Y039872D01*
X01443Y039888D01*
X014382Y039904D01*
X014366Y03992D01*
X01435Y039936D01*
Y039952D01*
X014366Y039968D01*
X014382Y039984D01*
X01443D01*
X014462Y039968D01*
D02*
G37*
G36*
X042306Y040016D02*
X042322Y04D01*
X042386Y039968D01*
Y039952D01*
X042418Y039936D01*
X042434Y039904D01*
X042466Y039888D01*
X042482D01*
X042515Y039872D01*
X042531D01*
X042563Y039856D01*
X042579Y03984D01*
X042595Y039824D01*
Y039808D01*
Y039776D01*
X042579Y03976D01*
X042515Y039695D01*
X042498D01*
X042482Y039679D01*
X042466Y039663D01*
X042434Y039647D01*
X042418Y039663D01*
X042386Y039711D01*
Y039727D01*
X04237Y039776D01*
Y039792D01*
X042354Y039808D01*
X042338Y039888D01*
Y039904D01*
X042322Y03992D01*
X04229Y039968D01*
Y039984D01*
X042274Y04D01*
X042258Y040032D01*
X042274D01*
X042306Y040016D01*
D02*
G37*
G36*
X028464Y040016D02*
X02848Y04D01*
X028545Y039968D01*
Y039952D01*
X028577Y039936D01*
X028593Y039904D01*
X028625Y039888D01*
X028641D01*
X028673Y039872D01*
X028689D01*
X028721Y039856D01*
X028737Y03984D01*
X028753Y039824D01*
Y039808D01*
Y039776D01*
X028737Y03976D01*
X028673Y039695D01*
X028657D01*
X028641Y039679D01*
X028625Y039663D01*
X028593Y039647D01*
X028577Y039663D01*
X028545Y039711D01*
Y039727D01*
X028529Y039776D01*
Y039792D01*
X028512Y039808D01*
X028496Y039888D01*
Y039904D01*
X02848Y03992D01*
X028448Y039968D01*
Y039984D01*
X028432Y04D01*
X028416Y040032D01*
X028432D01*
X028464Y040016D01*
D02*
G37*
G36*
X014623Y040016D02*
X014639Y04D01*
X014703Y039968D01*
Y039952D01*
X014735Y039936D01*
X014751Y039904D01*
X014783Y039888D01*
X014799D01*
X014831Y039872D01*
X014847D01*
X014879Y039856D01*
X014895Y03984D01*
X014911Y039824D01*
Y039808D01*
Y039776D01*
X014895Y03976D01*
X014831Y039695D01*
X014815D01*
X014799Y039679D01*
X014783Y039663D01*
X014751Y039647D01*
X014735Y039663D01*
X014703Y039711D01*
Y039727D01*
X014687Y039776D01*
Y039792D01*
X014671Y039808D01*
X014655Y039888D01*
Y039904D01*
X014639Y03992D01*
X014607Y039968D01*
Y039984D01*
X014591Y04D01*
X014575Y040032D01*
X014591D01*
X014623Y040016D01*
D02*
G37*
G36*
X042883Y039727D02*
X042899Y039711D01*
X042916Y039695D01*
Y039679D01*
X042899Y039663D01*
X042835Y039647D01*
X042819D01*
X042803Y039631D01*
X042787D01*
X042755Y039647D01*
Y039663D01*
X042739Y039679D01*
X042723Y039711D01*
X042739Y039743D01*
X042851D01*
X042883Y039727D01*
D02*
G37*
G36*
X029042Y039727D02*
X029058Y039711D01*
X029074Y039695D01*
Y039679D01*
X029058Y039663D01*
X028994Y039647D01*
X028978D01*
X028962Y039631D01*
X028946D01*
X028913Y039647D01*
Y039663D01*
X028897Y039679D01*
X028881Y039711D01*
X028897Y039743D01*
X02901D01*
X029042Y039727D01*
D02*
G37*
G36*
X0152Y039727D02*
X015216Y039711D01*
X015232Y039695D01*
Y039679D01*
X015216Y039663D01*
X015152Y039647D01*
X015136D01*
X01512Y039631D01*
X015104D01*
X015072Y039647D01*
Y039663D01*
X015056Y039679D01*
X01504Y039711D01*
X015056Y039743D01*
X015168D01*
X0152Y039727D01*
D02*
G37*
G36*
X042194Y03907D02*
Y039054D01*
X04221Y039038D01*
X042194D01*
X042178Y039022D01*
X042146D01*
Y039038D01*
Y03907D01*
Y039086D01*
X042178D01*
X042194Y03907D01*
D02*
G37*
G36*
X028352Y03907D02*
Y039054D01*
X028368Y039038D01*
X028352D01*
X028336Y039022D01*
X028304D01*
Y039038D01*
Y03907D01*
Y039086D01*
X028336D01*
X028352Y03907D01*
D02*
G37*
G36*
X01451Y03907D02*
Y039054D01*
X014526Y039038D01*
X01451D01*
X014494Y039022D01*
X014462D01*
Y039038D01*
Y03907D01*
Y039086D01*
X014494D01*
X01451Y03907D01*
D02*
G37*
G36*
X038649Y036054D02*
X038665Y036038D01*
X038681Y036006D01*
X038617D01*
X038569Y036022D01*
X038553Y036038D01*
X038537Y036087D01*
X038617D01*
X038649Y036054D01*
D02*
G37*
G36*
X024807Y036054D02*
X024824Y036038D01*
X02484Y036006D01*
X024775D01*
X024727Y036022D01*
X024711Y036038D01*
X024695Y036087D01*
X024775D01*
X024807Y036054D01*
D02*
G37*
G36*
X010966Y036054D02*
X010982Y036038D01*
X010998Y036006D01*
X010934D01*
X010886Y036022D01*
X01087Y036038D01*
X010854Y036087D01*
X010934D01*
X010966Y036054D01*
D02*
G37*
G36*
X037975Y035942D02*
Y035926D01*
Y03591D01*
X037911D01*
X037895Y035894D01*
X037879D01*
Y035878D01*
X037863D01*
X037831Y035862D01*
X037815D01*
X037799Y035878D01*
Y035894D01*
Y03591D01*
X037831Y035926D01*
X037863Y035942D01*
X037911Y035958D01*
X037943D01*
X037975Y035942D01*
D02*
G37*
G36*
X024134Y035942D02*
Y035926D01*
Y03591D01*
X02407D01*
X024054Y035894D01*
X024038D01*
Y035878D01*
X024022D01*
X023989Y035862D01*
X023973D01*
X023957Y035878D01*
Y035894D01*
Y03591D01*
X023989Y035926D01*
X024022Y035942D01*
X02407Y035958D01*
X024102D01*
X024134Y035942D01*
D02*
G37*
G36*
X010292Y035942D02*
Y035926D01*
Y03591D01*
X010228D01*
X010212Y035894D01*
X010196D01*
Y035878D01*
X01018D01*
X010148Y035862D01*
X010132D01*
X010116Y035878D01*
Y035894D01*
Y03591D01*
X010148Y035926D01*
X01018Y035942D01*
X010228Y035958D01*
X01026D01*
X010292Y035942D01*
D02*
G37*
G36*
X037847Y035814D02*
Y035798D01*
Y035782D01*
Y035766D01*
X037831D01*
X037815Y03575D01*
Y035766D01*
X037799Y035782D01*
Y035798D01*
Y035814D01*
X037815D01*
Y03583D01*
X037831D01*
X037847Y035814D01*
D02*
G37*
G36*
X024006Y035814D02*
Y035798D01*
Y035782D01*
Y035766D01*
X023989D01*
X023973Y03575D01*
Y035766D01*
X023957Y035782D01*
Y035798D01*
Y035814D01*
X023973Y035814D01*
Y03583D01*
X023989D01*
X024006Y035814D01*
D02*
G37*
G36*
X010164Y035814D02*
Y035798D01*
Y035782D01*
Y035766D01*
X010148D01*
X010132Y03575D01*
Y035766D01*
X010116Y035782D01*
Y035798D01*
Y035814D01*
X010132D01*
Y03583D01*
X010148D01*
X010164Y035814D01*
D02*
G37*
G36*
X037478Y035637D02*
Y035621D01*
Y035605D01*
X037462D01*
X037446Y035621D01*
X03743Y035637D01*
Y035654D01*
X037462D01*
X037478Y035637D01*
D02*
G37*
G36*
X023637Y035637D02*
Y035621D01*
Y035605D01*
X023621D01*
X023605Y035621D01*
X023589Y035637D01*
Y035654D01*
X023621D01*
X023637Y035637D01*
D02*
G37*
G36*
X009795Y035637D02*
Y035621D01*
Y035605D01*
X009779D01*
X009763Y035621D01*
X009747Y035637D01*
Y035654D01*
X009779D01*
X009795Y035637D01*
D02*
G37*
G36*
X038473Y035557D02*
X038489Y035541D01*
X038505Y035525D01*
X038521Y035509D01*
X038569Y035477D01*
X038585D01*
X038617Y035461D01*
X038633D01*
X038649Y035445D01*
Y035429D01*
Y035413D01*
Y035397D01*
X038633Y035381D01*
X038521D01*
X038505Y035397D01*
Y035429D01*
Y035445D01*
Y035477D01*
X038489Y035493D01*
Y035509D01*
X038441D01*
X038425Y035493D01*
X038409Y035461D01*
Y035445D01*
Y035413D01*
X038393Y035397D01*
X03836Y035429D01*
Y035445D01*
X038344Y035461D01*
X038328Y035493D01*
Y035509D01*
X038344Y035525D01*
X038376Y035541D01*
X038409Y035557D01*
X038441Y035573D01*
X038473Y035557D01*
D02*
G37*
G36*
X024631Y035557D02*
X024647Y035541D01*
X024663Y035525D01*
X024679Y035509D01*
X024727Y035477D01*
X024743D01*
X024775Y035461D01*
X024791D01*
X024807Y035445D01*
Y035429D01*
Y035413D01*
Y035397D01*
X024791Y035381D01*
X024679D01*
X024663Y035397D01*
Y035429D01*
Y035445D01*
Y035477D01*
X024647Y035493D01*
Y035509D01*
X024599D01*
X024583Y035493D01*
X024567Y035461D01*
Y035445D01*
Y035413D01*
X024551Y035397D01*
X024519Y035429D01*
Y035445D01*
X024503Y035461D01*
X024487Y035493D01*
Y035509D01*
X024503Y035525D01*
X024535Y035541D01*
X024567Y035557D01*
X024599Y035573D01*
X024631Y035557D01*
D02*
G37*
G36*
X010789Y035557D02*
X010805Y035541D01*
X010821Y035525D01*
X010838Y035509D01*
X010886Y035477D01*
X010902D01*
X010934Y035461D01*
X01095D01*
X010966Y035445D01*
Y035429D01*
Y035413D01*
Y035397D01*
X01095Y035381D01*
X010838D01*
X010821Y035397D01*
Y035429D01*
Y035445D01*
Y035477D01*
X010805Y035493D01*
Y035509D01*
X010757D01*
X010741Y035493D01*
X010725Y035461D01*
Y035445D01*
Y035413D01*
X010709Y035397D01*
X010677Y035429D01*
Y035445D01*
X010661Y035461D01*
X010645Y035493D01*
Y035509D01*
X010661Y035525D01*
X010693Y035541D01*
X010725Y035557D01*
X010757Y035573D01*
X010789Y035557D01*
D02*
G37*
G36*
X038168Y035333D02*
X038184D01*
X0382Y035317D01*
Y035301D01*
Y035285D01*
Y035269D01*
X038168Y035253D01*
X038136D01*
X038072Y035285D01*
X03804Y035317D01*
X038072Y035333D01*
X038088Y035349D01*
X038136D01*
X038168Y035333D01*
D02*
G37*
G36*
X024326Y035333D02*
X024342D01*
X024358Y035317D01*
Y035301D01*
Y035285D01*
Y035269D01*
X024326Y035253D01*
X024294D01*
X02423Y035285D01*
X024198Y035317D01*
X02423Y035333D01*
X024246Y035349D01*
X024294D01*
X024326Y035333D01*
D02*
G37*
G36*
X010485Y035333D02*
X010501D01*
X010517Y035317D01*
Y035301D01*
Y035285D01*
Y035269D01*
X010485Y035253D01*
X010453D01*
X010388Y035285D01*
X010356Y035317D01*
X010388Y035333D01*
X010404Y035349D01*
X010453D01*
X010485Y035333D01*
D02*
G37*
G36*
X038473Y035237D02*
X038521Y035204D01*
X038537Y035188D01*
X038553Y035172D01*
Y035156D01*
X038537Y03514D01*
X038505Y035124D01*
X038473D01*
X038393Y035156D01*
X038376Y035172D01*
X038344Y035188D01*
X038328Y035204D01*
Y035237D01*
X038344Y035253D01*
X038457D01*
X038473Y035237D01*
D02*
G37*
G36*
X024631Y035237D02*
X024679Y035204D01*
X024695Y035188D01*
X024711Y035172D01*
Y035156D01*
X024695Y03514D01*
X024663Y035124D01*
X024631D01*
X024551Y035156D01*
X024535Y035172D01*
X024503Y035188D01*
X024487Y035204D01*
Y035237D01*
X024503Y035253D01*
X024615D01*
X024631Y035237D01*
D02*
G37*
G36*
X010789Y035237D02*
X010838Y035204D01*
X010854Y035188D01*
X01087Y035172D01*
Y035156D01*
X010854Y03514D01*
X010821Y035124D01*
X010789D01*
X010709Y035156D01*
X010693Y035172D01*
X010661Y035188D01*
X010645Y035204D01*
Y035237D01*
X010661Y035253D01*
X010773D01*
X010789Y035237D01*
D02*
G37*
G36*
X038393Y035044D02*
Y035028D01*
Y035012D01*
X038344D01*
X038328Y035028D01*
X038312Y035044D01*
Y03506D01*
X038376D01*
X038393Y035044D01*
D02*
G37*
G36*
X024551Y035044D02*
Y035028D01*
Y035012D01*
X024503D01*
X024487Y035028D01*
X024471Y035044D01*
Y03506D01*
X024535D01*
X024551Y035044D01*
D02*
G37*
G36*
X010709Y035044D02*
Y035028D01*
Y035012D01*
X010661D01*
X010645Y035028D01*
X010629Y035044D01*
Y03506D01*
X010693D01*
X010709Y035044D01*
D02*
G37*
G36*
X037719Y035044D02*
X037735Y035028D01*
X037751Y035012D01*
X037735Y034996D01*
X037719Y03498D01*
X037703Y034964D01*
X037687D01*
X037671Y034996D01*
X037655Y035012D01*
X037623D01*
X037607Y035028D01*
X037591D01*
X037575Y035044D01*
Y03506D01*
Y035076D01*
X037655D01*
X037719Y035044D01*
D02*
G37*
G36*
X023877Y035044D02*
X023893Y035028D01*
X023909Y035012D01*
X023893Y034996D01*
X023877Y03498D01*
X023861Y034964D01*
X023845D01*
X023829Y034996D01*
X023813Y035012D01*
X023781D01*
X023765Y035028D01*
X023749D01*
X023733Y035044D01*
Y03506D01*
Y035076D01*
X023813D01*
X023877Y035044D01*
D02*
G37*
G36*
X010036Y035044D02*
X010052Y035028D01*
X010068Y035012D01*
X010052Y034996D01*
X010036Y03498D01*
X01002Y034964D01*
X010003D01*
X009987Y034996D01*
X009971Y035012D01*
X009939D01*
X009923Y035028D01*
X009907D01*
X009891Y035044D01*
Y03506D01*
Y035076D01*
X009971D01*
X010036Y035044D01*
D02*
G37*
G36*
X038922Y034771D02*
X038938Y034755D01*
Y034739D01*
X038906D01*
X038874Y034755D01*
X038858Y034771D01*
Y034787D01*
X038922D01*
Y034771D01*
D02*
G37*
G36*
X02508Y034771D02*
X025096Y034755D01*
Y034739D01*
X025064D01*
X025032Y034755D01*
X025016Y034771D01*
Y034787D01*
X02508D01*
Y034771D01*
D02*
G37*
G36*
X011238Y034771D02*
X011255Y034755D01*
Y034739D01*
X011222D01*
X01119Y034755D01*
X011174Y034771D01*
Y034787D01*
X011238D01*
Y034771D01*
D02*
G37*
G36*
X041071Y029735D02*
Y029719D01*
Y029703D01*
X041039Y029687D01*
X041023D01*
Y029671D01*
X041007D01*
X040991Y029687D01*
Y029703D01*
Y029719D01*
Y029735D01*
Y029751D01*
X041007Y029767D01*
X041039D01*
X041071Y029735D01*
D02*
G37*
G36*
X027229Y029735D02*
Y029719D01*
Y029703D01*
X027197Y029687D01*
X027181D01*
Y029671D01*
X027165D01*
X027149Y029687D01*
Y029703D01*
Y029719D01*
Y029735D01*
Y029751D01*
X027165Y029767D01*
X027197D01*
X027229Y029735D01*
D02*
G37*
G36*
X013388Y029735D02*
Y029719D01*
Y029703D01*
X013356Y029687D01*
X01334D01*
Y029671D01*
X013324D01*
X013308Y029687D01*
Y029703D01*
Y029719D01*
Y029735D01*
Y029751D01*
X013324Y029767D01*
X013356D01*
X013388Y029735D01*
D02*
G37*
G36*
X041151Y033841D02*
X041183Y033809D01*
X041263Y033745D01*
X04128D01*
X041296Y033713D01*
X041392Y033665D01*
X041424Y033649D01*
X041472Y033601D01*
Y033584D01*
X041488Y033552D01*
X041472D01*
Y033536D01*
Y033504D01*
X041456Y033488D01*
X04144Y033424D01*
Y033408D01*
X041424Y033392D01*
Y033344D01*
X041408Y03328D01*
Y033264D01*
X041392Y033232D01*
X041344Y033135D01*
X041328Y033103D01*
X041296Y033039D01*
X04128Y033023D01*
Y033007D01*
Y032991D01*
Y032975D01*
X041312D01*
X041344Y032991D01*
X04136Y033007D01*
X041392Y033039D01*
X041472Y033087D01*
X041568Y033167D01*
X0416Y033184D01*
X041648Y033232D01*
X041729Y03328D01*
X041777Y033312D01*
X041809Y033328D01*
X041857D01*
X041873Y033312D01*
X041921Y03328D01*
X041937D01*
X041953Y033248D01*
X042049Y033184D01*
X042081Y033167D01*
X042146Y033119D01*
X042226Y033055D01*
X04229Y033023D01*
X042306Y033007D01*
X042322Y032991D01*
X042338D01*
Y033007D01*
Y033023D01*
Y033071D01*
Y033087D01*
X042306Y033135D01*
X04229Y0332D01*
X042242Y033264D01*
Y03328D01*
X042226Y033344D01*
X04221Y033408D01*
X042194Y033472D01*
Y033488D01*
X042178Y03352D01*
X042162Y033552D01*
Y033568D01*
Y033584D01*
X042194Y033601D01*
X04221Y033617D01*
X042242Y033665D01*
X042338Y033713D01*
Y033649D01*
Y033633D01*
X042354Y033601D01*
X042402Y033488D01*
X042418Y033456D01*
X042434Y033424D01*
X04245D01*
X042466Y033408D01*
X042482Y033376D01*
Y03336D01*
Y033328D01*
Y033312D01*
X042498Y033248D01*
Y033216D01*
X042515Y033167D01*
Y033135D01*
Y033087D01*
X042498Y033071D01*
X042466Y033039D01*
X04245D01*
Y033007D01*
X042434Y032991D01*
Y032975D01*
Y032927D01*
Y032895D01*
Y032863D01*
X042418Y032847D01*
X042402Y032831D01*
X042386Y032815D01*
X042338Y032734D01*
Y032718D01*
X042322Y032702D01*
X04229Y032654D01*
X042274Y032574D01*
Y032558D01*
X042258Y032526D01*
Y032478D01*
Y032414D01*
Y032398D01*
X042274Y032366D01*
X04229Y032301D01*
X042338Y032221D01*
Y032205D01*
X04237Y032173D01*
X042402Y032061D01*
Y032045D01*
Y032029D01*
X04237Y031949D01*
X042354Y031932D01*
X042338Y0319D01*
X042322Y031852D01*
Y031788D01*
Y031772D01*
Y03174D01*
Y031692D01*
Y031612D01*
Y031596D01*
X042338Y031564D01*
Y031515D01*
X042354Y031483D01*
X04237Y031467D01*
X042402Y031403D01*
X042418Y031387D01*
X042466Y031355D01*
X042482D01*
X042515Y031387D01*
X042531Y031403D01*
X042627D01*
X042643Y031387D01*
X042691Y031371D01*
X042739Y031323D01*
X042755Y031307D01*
X042819Y031259D01*
X042835Y031243D01*
X042883Y031211D01*
X042916Y031195D01*
X042948Y031179D01*
X042964D01*
X042996Y031195D01*
X04306D01*
X043076Y031163D01*
X043092Y031147D01*
Y031131D01*
X043108Y031098D01*
X043124Y031082D01*
X043172Y031066D01*
X043381D01*
Y031018D01*
Y031002D01*
Y030954D01*
Y030938D01*
Y030906D01*
X043397Y030874D01*
X043413Y030842D01*
X043445Y030826D01*
X043493D01*
X043509Y030842D01*
X043557D01*
X043573Y030858D01*
X043605D01*
X043621Y030874D01*
X043685D01*
X043701Y03089D01*
X043717Y030906D01*
X043733Y030922D01*
X04375D01*
X043766Y030906D01*
X043782Y030874D01*
X043846Y03081D01*
X043862Y030794D01*
X04391Y030778D01*
X043926Y030762D01*
X043958Y03073D01*
Y030714D01*
X043942Y030697D01*
X043926Y030681D01*
Y030649D01*
X04391Y030633D01*
Y030617D01*
Y030569D01*
X043926Y030441D01*
X043814Y030345D01*
X043798D01*
X043782Y030329D01*
X043733Y03028D01*
X043717Y030264D01*
X043669D01*
X043653Y030232D01*
X043637Y030216D01*
X043621Y030168D01*
Y030152D01*
X043637Y030136D01*
X043653D01*
Y03012D01*
X043669Y030088D01*
Y030072D01*
X043653Y03004D01*
X043637D01*
Y030024D01*
Y030008D01*
Y029992D01*
X043653Y029976D01*
X043701D01*
X04375Y029992D01*
X043766Y030008D01*
X043798Y03004D01*
Y030056D01*
Y030072D01*
X043814Y030088D01*
X043846D01*
X043862Y030056D01*
Y030024D01*
X043894Y029992D01*
X04391D01*
X043942Y030024D01*
X043958Y03004D01*
Y030056D01*
Y030072D01*
Y030088D01*
Y030104D01*
Y03012D01*
X043974Y030136D01*
X04399Y030152D01*
X044022Y030168D01*
X044054D01*
X044102Y030152D01*
X044183Y030136D01*
X044215Y03012D01*
X044263Y030104D01*
X044279D01*
X044295Y03012D01*
X044343D01*
X044359Y030104D01*
X044375Y030088D01*
X044391Y030072D01*
Y030056D01*
X044407Y03004D01*
X044423D01*
X044455Y030024D01*
X044471Y03004D01*
X044519Y030056D01*
X044535D01*
X044551Y030072D01*
X044632Y030088D01*
X04468D01*
X044696Y030072D01*
X044712Y03004D01*
X044696Y030024D01*
X04468Y029992D01*
X044664Y02996D01*
X044648Y029912D01*
Y029896D01*
X044664Y029879D01*
X044696Y029847D01*
X044712Y029831D01*
X04476Y029815D01*
X044776Y029799D01*
X044824Y029767D01*
X04484Y029751D01*
X044888Y029735D01*
X044904D01*
X044952Y029719D01*
X045001D01*
X045097Y029703D01*
X045113D01*
X045129Y029687D01*
X045193Y029655D01*
X045209Y029639D01*
X045225Y029607D01*
X045241Y029591D01*
Y029559D01*
X045225Y029543D01*
X045193Y029511D01*
X045177Y029495D01*
X045161Y029446D01*
X045145Y02943D01*
X045129Y029398D01*
X045113Y029382D01*
Y029366D01*
X045097Y02935D01*
X045081D01*
X045065Y029366D01*
X045049Y029398D01*
X045033Y029414D01*
X045017Y02943D01*
X045001Y029446D01*
X044985D01*
X044969Y02943D01*
X044952Y029414D01*
X04492Y029398D01*
X044904Y029382D01*
X044872Y02935D01*
X044856D01*
X044808Y029334D01*
X044792D01*
X04476Y029318D01*
X044744Y029302D01*
X044696Y029254D01*
X04468Y029238D01*
X044664Y029206D01*
X044648Y02919D01*
Y029174D01*
X04468Y029142D01*
X044696Y029126D01*
X044728Y02911D01*
X04476Y029094D01*
X044808Y029078D01*
X044824D01*
X04484Y029062D01*
X044856Y029029D01*
Y028981D01*
X044872Y028917D01*
Y028901D01*
Y028837D01*
X044888Y028741D01*
Y028612D01*
Y028596D01*
X044904Y028548D01*
Y028484D01*
X04492Y028404D01*
Y028388D01*
Y02834D01*
Y028276D01*
X044936Y028227D01*
Y028211D01*
Y028179D01*
Y028147D01*
Y028115D01*
Y028099D01*
Y028083D01*
X04492Y028067D01*
Y028035D01*
Y028003D01*
Y027987D01*
X044952Y027939D01*
X044969Y027923D01*
X044985Y027907D01*
X045001Y027891D01*
X044985D01*
X044952Y027875D01*
X04492D01*
X044904Y027891D01*
X044824D01*
X044792Y027907D01*
X044728D01*
X044696Y027923D01*
X04468D01*
X044664Y027939D01*
X044648Y027955D01*
X0446Y027971D01*
X044584Y027987D01*
X044551Y028035D01*
X044535Y028051D01*
X044503Y028067D01*
X044487Y028083D01*
X044455Y028115D01*
X044439Y028131D01*
X044407Y028179D01*
X044391Y028195D01*
X044375Y028244D01*
X044295Y02834D01*
X044279Y028356D01*
X044231Y028372D01*
X044167Y02842D01*
X04407Y028452D01*
X044038D01*
X043974Y028468D01*
X043958D01*
X043942Y028484D01*
X04391Y0285D01*
X043894Y028516D01*
X043846Y028532D01*
X04383Y028548D01*
X043798D01*
X043782Y028564D01*
X043766D01*
X04375Y02858D01*
X043701D01*
X043685Y028596D01*
X043669Y028612D01*
X043653Y028644D01*
X043621Y028709D01*
Y028725D01*
X043605Y028741D01*
X043541Y028805D01*
X043525D01*
X043509Y028821D01*
X043477D01*
X043461Y028805D01*
X043445Y028789D01*
X043413Y028773D01*
X043397Y028789D01*
X043333Y028805D01*
X043316Y028821D01*
X0433Y028853D01*
Y028869D01*
Y028901D01*
Y028933D01*
X043316Y029045D01*
X043188D01*
X043172Y029062D01*
Y029126D01*
Y029142D01*
Y029174D01*
X043156Y02919D01*
X043124Y029238D01*
Y029254D01*
X043108Y02927D01*
X043092Y029302D01*
Y029318D01*
Y029334D01*
Y029366D01*
Y029414D01*
Y02943D01*
Y029446D01*
Y029479D01*
Y029495D01*
X043076Y029511D01*
X04306Y029559D01*
X043044Y029575D01*
X043012Y029591D01*
X042996Y029607D01*
X042948D01*
X042932Y029591D01*
X042916Y029607D01*
X042883Y029639D01*
X042867Y029655D01*
X042851Y029671D01*
X042835D01*
X042803Y029639D01*
X042787Y029623D01*
Y029591D01*
X042803Y029559D01*
Y029543D01*
X042819Y029511D01*
X042803D01*
X042787Y029495D01*
X042771Y029511D01*
Y029527D01*
X042755Y029543D01*
X042723Y029559D01*
X042707D01*
X042691Y029575D01*
X042643Y029591D01*
X042627D01*
X042595Y029607D01*
X042579Y029623D01*
X042547Y029639D01*
X042531Y029655D01*
X042482Y029671D01*
X042466Y029687D01*
X042418D01*
X042402Y029703D01*
X042386Y029719D01*
X042354Y029735D01*
X042338Y029751D01*
X042306Y029767D01*
X04229D01*
X042274Y029783D01*
X042242D01*
X042226Y029799D01*
X042178Y029815D01*
X042162Y029831D01*
X042114Y029847D01*
X042098Y029863D01*
X042065Y029879D01*
X042033Y029896D01*
X041937D01*
X041905Y029912D01*
X041889Y029944D01*
X041873Y029976D01*
X041857Y030024D01*
Y03004D01*
Y030056D01*
X041841Y030072D01*
X041809Y030088D01*
X041793D01*
X041777Y030104D01*
X041664D01*
X041632Y030088D01*
X041616Y030104D01*
Y03012D01*
X0416Y030136D01*
X041584Y030168D01*
X041568Y030184D01*
X04152Y0302D01*
X041488D01*
X041472Y030216D01*
Y030232D01*
Y030248D01*
X041456Y030264D01*
X041424Y03028D01*
X041392Y030313D01*
X041376D01*
X04136Y030329D01*
X041328Y030345D01*
X041296D01*
X041247Y030361D01*
X041231Y030377D01*
X041215Y030425D01*
X041199Y030441D01*
X041183D01*
X041167Y030457D01*
X041151D01*
Y030473D01*
X041023Y030473D01*
X041007Y030489D01*
X040991Y030505D01*
X040975Y030569D01*
Y030585D01*
X040959Y030601D01*
X040943Y030665D01*
Y030681D01*
X040927Y030697D01*
X040911Y030714D01*
X040895D01*
X040879Y03073D01*
X040846Y030746D01*
X04083Y030778D01*
Y030794D01*
X040814Y03081D01*
X040798Y030874D01*
Y03089D01*
X040814Y030906D01*
Y030922D01*
X04083Y030938D01*
X040863Y030986D01*
X04083Y031034D01*
X040814Y03105D01*
Y031098D01*
X040798Y031114D01*
Y031131D01*
Y031147D01*
X040814Y031163D01*
Y031179D01*
X040798Y031195D01*
Y031227D01*
Y031243D01*
X040782Y031259D01*
Y031323D01*
Y031339D01*
Y031355D01*
X040798Y031419D01*
Y031435D01*
X040814Y031467D01*
X04083Y031483D01*
Y031499D01*
Y031515D01*
Y031532D01*
X040814Y031548D01*
X040798D01*
X040766Y031515D01*
X04075D01*
X040734Y031499D01*
X040702Y031483D01*
X040686D01*
X04067Y031515D01*
X040686Y031548D01*
X040702Y031564D01*
X04075Y031612D01*
Y031628D01*
X040766Y031644D01*
X040782Y031676D01*
Y031692D01*
Y031724D01*
Y03174D01*
X04075Y031788D01*
X040734Y031804D01*
X040718Y03182D01*
X04067Y031884D01*
X040558Y031981D01*
X04059Y032029D01*
Y032045D01*
X040606Y032077D01*
X040622Y032093D01*
X040638Y032125D01*
X040654Y032141D01*
X040686Y032189D01*
Y032205D01*
Y032221D01*
X040702Y032301D01*
Y032317D01*
X040734Y032349D01*
Y032366D01*
X04075Y032382D01*
X040766Y03243D01*
X040798Y03251D01*
X040766Y032542D01*
X04075D01*
X040734Y032558D01*
X040718D01*
Y032574D01*
Y03259D01*
Y032622D01*
X040734Y032638D01*
X040766Y03267D01*
Y032686D01*
Y032702D01*
Y032718D01*
Y032734D01*
X040782Y03275D01*
X040798Y032783D01*
X040782Y032799D01*
X04075Y032831D01*
X040734D01*
X040718Y032847D01*
X040702Y032863D01*
Y032879D01*
Y032895D01*
X040718Y032943D01*
X040734Y032959D01*
X04075Y032991D01*
X040766Y033023D01*
Y033039D01*
Y033055D01*
X040782Y033135D01*
Y033151D01*
Y033167D01*
X040798Y033232D01*
Y033248D01*
Y033264D01*
Y03328D01*
Y033296D01*
X040814Y033312D01*
X04083Y033344D01*
Y03336D01*
X040846Y033376D01*
X040863Y03344D01*
Y033456D01*
X040879Y033472D01*
X040911Y033552D01*
Y033568D01*
Y033584D01*
Y033665D01*
Y033681D01*
Y033697D01*
X040927Y033777D01*
Y033793D01*
X040943Y033809D01*
X040991Y033873D01*
X041023Y033937D01*
X041151Y033841D01*
D02*
G37*
G36*
X02731Y033841D02*
X027342Y033809D01*
X027422Y033745D01*
X027438D01*
X027454Y033713D01*
X02755Y033665D01*
X027582Y033649D01*
X02763Y033601D01*
Y033584D01*
X027646Y033552D01*
X02763D01*
Y033536D01*
Y033504D01*
X027614Y033488D01*
X027598Y033424D01*
Y033408D01*
X027582Y033392D01*
Y033344D01*
X027566Y03328D01*
Y033264D01*
X02755Y033232D01*
X027502Y033135D01*
X027486Y033103D01*
X027454Y033039D01*
X027438Y033023D01*
Y033007D01*
Y032991D01*
Y032975D01*
X02747D01*
X027502Y032991D01*
X027518Y033007D01*
X02755Y033039D01*
X02763Y033087D01*
X027727Y033167D01*
X027759Y033184D01*
X027807Y033232D01*
X027887Y03328D01*
X027935Y033312D01*
X027967Y033328D01*
X028015D01*
X028031Y033312D01*
X028079Y03328D01*
X028095D01*
X028112Y033248D01*
X028208Y033184D01*
X02824Y033167D01*
X028304Y033119D01*
X028384Y033055D01*
X028448Y033023D01*
X028464Y033007D01*
X02848Y032991D01*
X028496D01*
Y033007D01*
Y033023D01*
Y033071D01*
Y033087D01*
X028464Y033135D01*
X028448Y0332D01*
X0284Y033264D01*
Y03328D01*
X028384Y033344D01*
X028368Y033408D01*
X028352Y033472D01*
Y033488D01*
X028336Y03352D01*
X02832Y033552D01*
Y033568D01*
Y033584D01*
X028352Y033601D01*
X028368Y033617D01*
X0284Y033665D01*
X028496Y033713D01*
Y033649D01*
Y033633D01*
X028512Y033601D01*
X028561Y033488D01*
X028577Y033456D01*
X028593Y033424D01*
X028609D01*
X028625Y033408D01*
X028641Y033376D01*
Y03336D01*
Y033328D01*
Y033312D01*
X028657Y033248D01*
Y033216D01*
X028673Y033167D01*
Y033135D01*
Y033087D01*
X028657Y033071D01*
X028625Y033039D01*
X028609D01*
Y033007D01*
X028593Y032991D01*
Y032975D01*
Y032927D01*
Y032895D01*
Y032863D01*
X028577Y032847D01*
X028561Y032831D01*
X028545Y032815D01*
X028496Y032734D01*
Y032718D01*
X02848Y032702D01*
X028448Y032654D01*
X028432Y032574D01*
Y032558D01*
X028416Y032526D01*
Y032478D01*
Y032414D01*
Y032398D01*
X028432Y032366D01*
X028448Y032301D01*
X028496Y032221D01*
Y032205D01*
X028529Y032173D01*
X028561Y032061D01*
Y032045D01*
Y032029D01*
X028529Y031949D01*
X028512Y031932D01*
X028496Y0319D01*
X02848Y031852D01*
Y031788D01*
Y031772D01*
Y03174D01*
Y031692D01*
Y031612D01*
Y031596D01*
X028496Y031564D01*
Y031515D01*
X028512Y031483D01*
X028529Y031467D01*
X028561Y031403D01*
X028577Y031387D01*
X028625Y031355D01*
X028641D01*
X028673Y031387D01*
X028689Y031403D01*
X028785D01*
X028801Y031387D01*
X028849Y031371D01*
X028897Y031323D01*
X028913Y031307D01*
X028978Y031259D01*
X028994Y031243D01*
X029042Y031211D01*
X029074Y031195D01*
X029106Y031179D01*
X029122D01*
X029154Y031195D01*
X029218D01*
X029234Y031163D01*
X02925Y031147D01*
Y031131D01*
X029266Y031098D01*
X029282Y031082D01*
X02933Y031066D01*
X029539D01*
Y031018D01*
Y031002D01*
Y030954D01*
Y030938D01*
Y030906D01*
X029555Y030874D01*
X029571Y030842D01*
X029603Y030826D01*
X029651D01*
X029667Y030842D01*
X029715Y030842D01*
X029731Y030858D01*
X029764D01*
X02978Y030874D01*
X029844D01*
X02986Y03089D01*
X029876Y030906D01*
X029892Y030922D01*
X029908D01*
X029924Y030906D01*
X02994Y030874D01*
X030004Y03081D01*
X03002Y030794D01*
X030068Y030778D01*
X030084Y030762D01*
X030116Y03073D01*
Y030714D01*
X0301Y030697D01*
X030084Y030681D01*
Y030649D01*
X030068Y030633D01*
Y030617D01*
Y030569D01*
X030084Y030441D01*
X029972Y030345D01*
X029956D01*
X02994Y030329D01*
X029892Y03028D01*
X029876Y030264D01*
X029828D01*
X029812Y030232D01*
X029796Y030216D01*
X02978Y030168D01*
Y030152D01*
X029796Y030136D01*
X029812D01*
Y03012D01*
X029828Y030088D01*
Y030072D01*
X029812Y03004D01*
X029796D01*
Y030024D01*
Y030008D01*
Y029992D01*
X029812Y029976D01*
X02986D01*
X029908Y029992D01*
X029924Y030008D01*
X029956Y03004D01*
Y030056D01*
Y030072D01*
X029972Y030088D01*
X030004D01*
X03002Y030056D01*
Y030024D01*
X030052Y029992D01*
X030068D01*
X0301Y030024D01*
X030116Y03004D01*
Y030056D01*
Y030072D01*
Y030088D01*
Y030104D01*
Y03012D01*
X030132Y030136D01*
X030148Y030152D01*
X030181Y030168D01*
X030213D01*
X030261Y030152D01*
X030341Y030136D01*
X030373Y03012D01*
X030421Y030104D01*
X030437D01*
X030453Y03012D01*
X030501D01*
X030517Y030104D01*
X030533Y030088D01*
X030549Y030072D01*
Y030056D01*
X030565Y03004D01*
X030582D01*
X030614Y030024D01*
X03063Y03004D01*
X030678Y030056D01*
X030694D01*
X03071Y030072D01*
X03079Y030088D01*
X030838D01*
X030854Y030072D01*
X03087Y03004D01*
X030854Y030024D01*
X030838Y029992D01*
X030822Y02996D01*
X030806Y029912D01*
Y029896D01*
X030822Y029879D01*
X030854Y029847D01*
X03087Y029831D01*
X030918Y029815D01*
X030934Y029799D01*
X030982Y029767D01*
X030999Y029751D01*
X031047Y029735D01*
X031063D01*
X031111Y029719D01*
X031159D01*
X031255Y029703D01*
X031271D01*
X031287Y029687D01*
X031351Y029655D01*
X031367Y029639D01*
X031383Y029607D01*
X0314Y029591D01*
Y029559D01*
X031383Y029543D01*
X031351Y029511D01*
X031335Y029495D01*
X031319Y029446D01*
X031303Y02943D01*
X031287Y029398D01*
X031271Y029382D01*
Y029366D01*
X031255Y02935D01*
X031239D01*
X031223Y029366D01*
X031207Y029398D01*
X031191Y029414D01*
X031175Y02943D01*
X031159Y029446D01*
X031143D01*
X031127Y02943D01*
X031111Y029414D01*
X031079Y029398D01*
X031063Y029382D01*
X031031Y02935D01*
X031015D01*
X030966Y029334D01*
X03095D01*
X030918Y029318D01*
X030902Y029302D01*
X030854Y029254D01*
X030838Y029238D01*
X030822Y029206D01*
X030806Y02919D01*
Y029174D01*
X030838Y029142D01*
X030854Y029126D01*
X030886Y02911D01*
X030918Y029094D01*
X030966Y029078D01*
X030982D01*
X030999Y029062D01*
X031015Y029029D01*
Y028981D01*
X031031Y028917D01*
Y028901D01*
Y028837D01*
X031047Y028741D01*
Y028612D01*
Y028596D01*
X031063Y028548D01*
Y028484D01*
X031079Y028404D01*
Y028388D01*
Y02834D01*
Y028276D01*
X031095Y028227D01*
Y028211D01*
Y028179D01*
Y028147D01*
Y028115D01*
Y028099D01*
Y028083D01*
X031079Y028067D01*
Y028035D01*
Y028003D01*
Y027987D01*
X031111Y027939D01*
X031127Y027923D01*
X031143Y027907D01*
X031159Y027891D01*
X031143D01*
X031111Y027875D01*
X031079D01*
X031063Y027891D01*
X030982D01*
X03095Y027907D01*
X030886D01*
X030854Y027923D01*
X030838D01*
X030822Y027939D01*
X030806Y027955D01*
X030758Y027971D01*
X030742Y027987D01*
X03071Y028035D01*
X030694Y028051D01*
X030662Y028067D01*
X030646Y028083D01*
X030614Y028115D01*
X030598Y028131D01*
X030565Y028179D01*
X030549Y028195D01*
X030533Y028244D01*
X030453Y02834D01*
X030437Y028356D01*
X030389Y028372D01*
X030325Y02842D01*
X030229Y028452D01*
X030197D01*
X030132Y028468D01*
X030116D01*
X0301Y028484D01*
X030068Y0285D01*
X030052Y028516D01*
X030004Y028532D01*
X029988Y028548D01*
X029956D01*
X02994Y028564D01*
X029924D01*
X029908Y02858D01*
X02986D01*
X029844Y028596D01*
X029828Y028612D01*
X029812Y028644D01*
X02978Y028709D01*
Y028725D01*
X029764Y028741D01*
X029699Y028805D01*
X029683D01*
X029667Y028821D01*
X029635D01*
X029619Y028805D01*
X029603Y028789D01*
X029571Y028773D01*
X029555Y028789D01*
X029491Y028805D01*
X029475Y028821D01*
X029459Y028853D01*
Y028869D01*
Y028901D01*
Y028933D01*
X029475Y029045D01*
X029347D01*
X02933Y029061D01*
Y029126D01*
Y029142D01*
Y029174D01*
X029314Y02919D01*
X029282Y029238D01*
Y029254D01*
X029266Y02927D01*
X02925Y029302D01*
Y029318D01*
Y029334D01*
Y029366D01*
Y029414D01*
Y02943D01*
Y029446D01*
Y029479D01*
Y029495D01*
X029234Y029511D01*
X029218Y029559D01*
X029202Y029575D01*
X02917Y029591D01*
X029154Y029607D01*
X029106D01*
X02909Y029591D01*
X029074Y029607D01*
X029042Y029639D01*
X029026Y029655D01*
X02901Y029671D01*
X028994D01*
X028962Y029639D01*
X028946Y029623D01*
Y029591D01*
X028962Y029559D01*
Y029543D01*
X028978Y029511D01*
X028962D01*
X028946Y029495D01*
X02893Y029511D01*
Y029527D01*
X028913Y029543D01*
X028881Y029559D01*
X028865D01*
X028849Y029575D01*
X028801Y029591D01*
X028785D01*
X028753Y029607D01*
X028737Y029623D01*
X028705Y029639D01*
X028689Y029655D01*
X028641Y029671D01*
X028625Y029687D01*
X028577D01*
X028561Y029703D01*
X028545Y029719D01*
X028512Y029735D01*
X028496Y029751D01*
X028464Y029767D01*
X028448D01*
X028432Y029783D01*
X0284D01*
X028384Y029799D01*
X028336Y029815D01*
X02832Y029831D01*
X028272Y029847D01*
X028256Y029863D01*
X028224Y029879D01*
X028192Y029896D01*
X028095D01*
X028063Y029912D01*
X028047Y029944D01*
X028031Y029976D01*
X028015Y030024D01*
Y03004D01*
Y030056D01*
X027999Y030072D01*
X027967Y030088D01*
X027951D01*
X027935Y030104D01*
X027823D01*
X027791Y030088D01*
X027775Y030104D01*
Y03012D01*
X027759Y030136D01*
X027743Y030168D01*
X027727Y030184D01*
X027678Y0302D01*
X027646D01*
X02763Y030216D01*
Y030232D01*
Y030248D01*
X027614Y030264D01*
X027582Y03028D01*
X02755Y030313D01*
X027534D01*
X027518Y030329D01*
X027486Y030345D01*
X027454D01*
X027406Y030361D01*
X02739Y030377D01*
X027374Y030425D01*
X027358Y030441D01*
X027342D01*
X027326Y030457D01*
X02731D01*
Y030473D01*
X027181D01*
X027165Y030489D01*
X027149Y030505D01*
X027133Y030569D01*
Y030585D01*
X027117Y030601D01*
X027101Y030665D01*
Y030681D01*
X027085Y030697D01*
X027069Y030714D01*
X027053D01*
X027037Y03073D01*
X027005Y030746D01*
X026989Y030778D01*
Y030794D01*
X026973Y03081D01*
X026957Y030874D01*
Y03089D01*
X026973Y030906D01*
Y030922D01*
X026989Y030938D01*
X027021Y030986D01*
X026989Y031034D01*
X026973Y03105D01*
Y031098D01*
X026957Y031114D01*
Y031131D01*
Y031147D01*
X026973Y031163D01*
Y031179D01*
X026957Y031195D01*
Y031227D01*
Y031243D01*
X026941Y031259D01*
Y031323D01*
Y031339D01*
Y031355D01*
X026957Y031419D01*
Y031435D01*
X026973Y031467D01*
X026989Y031483D01*
Y031499D01*
Y031515D01*
Y031532D01*
X026973Y031548D01*
X026957D01*
X026925Y031515D01*
X026909D01*
X026893Y031499D01*
X02686Y031483D01*
X026844D01*
X026828Y031515D01*
X026844Y031548D01*
X02686Y031564D01*
X026909Y031612D01*
Y031628D01*
X026925Y031644D01*
X026941Y031676D01*
Y031692D01*
Y031724D01*
Y03174D01*
X026909Y031788D01*
X026893Y031804D01*
X026876Y03182D01*
X026828Y031884D01*
X026716Y031981D01*
X026748Y032029D01*
Y032045D01*
X026764Y032077D01*
X02678Y032093D01*
X026796Y032125D01*
X026812Y032141D01*
X026844Y032189D01*
Y032205D01*
Y032221D01*
X02686Y032301D01*
Y032317D01*
X026893Y032349D01*
Y032366D01*
X026909Y032382D01*
X026925Y03243D01*
X026957Y03251D01*
X026925Y032542D01*
X026909D01*
X026893Y032558D01*
X026876D01*
Y032574D01*
Y03259D01*
Y032622D01*
X026893Y032638D01*
X026925Y03267D01*
Y032686D01*
Y032702D01*
Y032718D01*
Y032734D01*
X026941Y03275D01*
X026957Y032783D01*
X026941Y032799D01*
X026909Y032831D01*
X026893D01*
X026876Y032847D01*
X02686Y032863D01*
Y032879D01*
Y032895D01*
X026876Y032943D01*
X026893Y032959D01*
X026909Y032991D01*
X026925Y033023D01*
Y033039D01*
Y033055D01*
X026941Y033135D01*
Y033151D01*
Y033167D01*
X026957Y033232D01*
Y033248D01*
Y033264D01*
Y03328D01*
Y033296D01*
X026973Y033312D01*
X026989Y033344D01*
Y03336D01*
X027005Y033376D01*
X027021Y03344D01*
Y033456D01*
X027037Y033472D01*
X027069Y033552D01*
Y033568D01*
Y033584D01*
Y033665D01*
Y033681D01*
Y033697D01*
X027085Y033777D01*
Y033793D01*
X027101Y033809D01*
X027149Y033873D01*
X027181Y033937D01*
X02731Y033841D01*
D02*
G37*
G36*
X013468Y033841D02*
X0135Y033809D01*
X01358Y033745D01*
X013596D01*
X013612Y033713D01*
X013708Y033665D01*
X013741Y033649D01*
X013789Y033601D01*
Y033584D01*
X013805Y033552D01*
X013789D01*
Y033536D01*
Y033504D01*
X013773Y033488D01*
X013757Y033424D01*
Y033408D01*
X013741Y033392D01*
Y033344D01*
X013725Y03328D01*
Y033264D01*
X013708Y033232D01*
X01366Y033135D01*
X013644Y033103D01*
X013612Y033039D01*
X013596Y033023D01*
Y033007D01*
Y032991D01*
Y032975D01*
X013628D01*
X01366Y032991D01*
X013676Y033007D01*
X013708Y033039D01*
X013789Y033087D01*
X013885Y033167D01*
X013917Y033184D01*
X013965Y033232D01*
X014045Y03328D01*
X014093Y033312D01*
X014125Y033328D01*
X014174D01*
X01419Y033312D01*
X014238Y03328D01*
X014254D01*
X01427Y033248D01*
X014366Y033184D01*
X014398Y033167D01*
X014462Y033119D01*
X014543Y033055D01*
X014607Y033023D01*
X014623Y033007D01*
X014639Y032991D01*
X014655D01*
Y033007D01*
Y033023D01*
Y033071D01*
Y033087D01*
X014623Y033135D01*
X014607Y0332D01*
X014559Y033264D01*
Y03328D01*
X014543Y033344D01*
X014526Y033408D01*
X01451Y033472D01*
Y033488D01*
X014494Y03352D01*
X014478Y033552D01*
Y033568D01*
Y033584D01*
X01451Y033601D01*
X014526Y033617D01*
X014559Y033665D01*
X014655Y033713D01*
Y033649D01*
Y033633D01*
X014671Y033601D01*
X014719Y033488D01*
X014735Y033456D01*
X014751Y033424D01*
X014767D01*
X014783Y033408D01*
X014799Y033376D01*
Y03336D01*
Y033328D01*
Y033312D01*
X014815Y033248D01*
Y033216D01*
X014831Y033167D01*
Y033135D01*
Y033087D01*
X014815Y033071D01*
X014783Y033039D01*
X014767D01*
Y033007D01*
X014751Y032991D01*
Y032975D01*
Y032927D01*
Y032895D01*
Y032863D01*
X014735Y032847D01*
X014719Y032831D01*
X014703Y032815D01*
X014655Y032734D01*
Y032718D01*
X014639Y032702D01*
X014607Y032654D01*
X014591Y032574D01*
Y032558D01*
X014575Y032526D01*
Y032478D01*
Y032414D01*
Y032398D01*
X014591Y032366D01*
X014607Y032301D01*
X014655Y032221D01*
Y032205D01*
X014687Y032173D01*
X014719Y032061D01*
Y032045D01*
Y032029D01*
X014687Y031949D01*
X014671Y031932D01*
X014655Y0319D01*
X014639Y031852D01*
Y031788D01*
Y031772D01*
Y03174D01*
Y031692D01*
Y031612D01*
Y031596D01*
X014655Y031564D01*
Y031515D01*
X014671Y031483D01*
X014687Y031467D01*
X014719Y031403D01*
X014735Y031387D01*
X014783Y031355D01*
X014799D01*
X014831Y031387D01*
X014847Y031403D01*
X014943D01*
X01496Y031387D01*
X015008Y031371D01*
X015056Y031323D01*
X015072Y031307D01*
X015136Y031259D01*
X015152Y031243D01*
X0152Y031211D01*
X015232Y031195D01*
X015264Y031179D01*
X01528D01*
X015312Y031195D01*
X015377D01*
X015393Y031163D01*
X015409Y031147D01*
Y031131D01*
X015425Y031098D01*
X015441Y031082D01*
X015489Y031066D01*
X015697D01*
Y031018D01*
Y031002D01*
Y030954D01*
Y030938D01*
Y030906D01*
X015713Y030874D01*
X015729Y030842D01*
X015761Y030826D01*
X01581D01*
X015826Y030842D01*
X015874D01*
X01589Y030858D01*
X015922D01*
X015938Y030874D01*
X016002D01*
X016018Y03089D01*
X016034Y030906D01*
X01605Y030922D01*
X016066D01*
X016082Y030906D01*
X016098Y030874D01*
X016162Y03081D01*
X016178Y030794D01*
X016227Y030778D01*
X016243Y030762D01*
X016275Y03073D01*
Y030714D01*
X016259Y030697D01*
X016243Y030681D01*
Y030649D01*
X016227Y030633D01*
Y030617D01*
Y030569D01*
X016243Y030441D01*
X01613Y030345D01*
X016114D01*
X016098Y030329D01*
X01605Y03028D01*
X016034Y030264D01*
X015986D01*
X01597Y030232D01*
X015954Y030216D01*
X015938Y030168D01*
Y030152D01*
X015954Y030136D01*
X01597D01*
Y03012D01*
X015986Y030088D01*
Y030072D01*
X01597Y03004D01*
X015954D01*
Y030024D01*
Y030008D01*
Y029992D01*
X01597Y029976D01*
X016018D01*
X016066Y029992D01*
X016082Y030008D01*
X016114Y03004D01*
Y030056D01*
Y030072D01*
X01613Y030088D01*
X016162D01*
X016178Y030056D01*
Y030024D01*
X016211Y029992D01*
X016227D01*
X016259Y030024D01*
X016275Y03004D01*
Y030056D01*
Y030072D01*
Y030088D01*
Y030104D01*
Y03012D01*
X016291Y030136D01*
X016307Y030152D01*
X016339Y030168D01*
X016371D01*
X016419Y030152D01*
X016499Y030136D01*
X016531Y03012D01*
X016579Y030104D01*
X016595D01*
X016612Y03012D01*
X01666D01*
X016676Y030104D01*
X016692Y030088D01*
X016708Y030072D01*
Y030056D01*
X016724Y03004D01*
X01674D01*
X016772Y030024D01*
X016788Y03004D01*
X016836Y030056D01*
X016852D01*
X016868Y030072D01*
X016948Y030088D01*
X016996D01*
X017013Y030072D01*
X017029Y03004D01*
X017013Y030024D01*
X016996Y029992D01*
X01698Y02996D01*
X016964Y029912D01*
Y029896D01*
X01698Y029879D01*
X017013Y029847D01*
X017029Y029831D01*
X017077Y029815D01*
X017093Y029799D01*
X017141Y029767D01*
X017157Y029751D01*
X017205Y029735D01*
X017221D01*
X017269Y029719D01*
X017317D01*
X017413Y029703D01*
X01743D01*
X017446Y029687D01*
X01751Y029655D01*
X017526Y029639D01*
X017542Y029607D01*
X017558Y029591D01*
Y029559D01*
X017542Y029543D01*
X01751Y029511D01*
X017494Y029495D01*
X017478Y029446D01*
X017462Y02943D01*
X017446Y029398D01*
X01743Y029382D01*
Y029366D01*
X017413Y02935D01*
X017397D01*
X017381Y029366D01*
X017365Y029398D01*
X017349Y029414D01*
X017333Y02943D01*
X017317Y029446D01*
X017301D01*
X017285Y02943D01*
X017269Y029414D01*
X017237Y029398D01*
X017221Y029382D01*
X017189Y02935D01*
X017173D01*
X017125Y029334D01*
X017109D01*
X017077Y029318D01*
X017061Y029302D01*
X017013Y029254D01*
X016996Y029238D01*
X01698Y029206D01*
X016964Y02919D01*
Y029174D01*
X016996Y029142D01*
X017013Y029126D01*
X017045Y02911D01*
X017077Y029094D01*
X017125Y029078D01*
X017141D01*
X017157Y029061D01*
X017173Y029029D01*
Y028981D01*
X017189Y028917D01*
Y028901D01*
Y028837D01*
X017205Y028741D01*
Y028612D01*
Y028596D01*
X017221Y028548D01*
Y028484D01*
X017237Y028404D01*
Y028388D01*
Y02834D01*
Y028276D01*
X017253Y028227D01*
Y028211D01*
Y028179D01*
Y028147D01*
Y028115D01*
Y028099D01*
Y028083D01*
X017237Y028067D01*
Y028035D01*
Y028003D01*
Y027987D01*
X017269Y027939D01*
X017285Y027923D01*
X017301Y027907D01*
X017317Y027891D01*
X017301D01*
X017269Y027875D01*
X017237D01*
X017221Y027891D01*
X017141D01*
X017109Y027907D01*
X017045D01*
X017013Y027923D01*
X016996D01*
X01698Y027939D01*
X016964Y027955D01*
X016916Y027971D01*
X0169Y027987D01*
X016868Y028035D01*
X016852Y028051D01*
X01682Y028067D01*
X016804Y028083D01*
X016772Y028115D01*
X016756Y028131D01*
X016724Y028179D01*
X016708Y028195D01*
X016692Y028244D01*
X016612Y02834D01*
X016595Y028356D01*
X016547Y028372D01*
X016483Y02842D01*
X016387Y028452D01*
X016355D01*
X016291Y028468D01*
X016275D01*
X016259Y028484D01*
X016227Y0285D01*
X016211Y028516D01*
X016162Y028532D01*
X016146Y028548D01*
X016114D01*
X016098Y028564D01*
X016082D01*
X016066Y02858D01*
X016018D01*
X016002Y028596D01*
X015986Y028612D01*
X01597Y028644D01*
X015938Y028709D01*
Y028725D01*
X015922Y028741D01*
X015858Y028805D01*
X015842D01*
X015826Y028821D01*
X015794D01*
X015778Y028805D01*
X015761Y028789D01*
X015729Y028773D01*
X015713Y028789D01*
X015649Y028805D01*
X015633Y028821D01*
X015617Y028853D01*
Y028869D01*
Y028901D01*
Y028933D01*
X015633Y029045D01*
X015505D01*
X015489Y029061D01*
Y029126D01*
Y029142D01*
Y029174D01*
X015473Y02919D01*
X015441Y029238D01*
Y029254D01*
X015425Y02927D01*
X015409Y029302D01*
Y029318D01*
Y029334D01*
Y029366D01*
Y029414D01*
Y02943D01*
Y029446D01*
Y029479D01*
Y029495D01*
X015393Y029511D01*
X015377Y029559D01*
X01536Y029575D01*
X015328Y029591D01*
X015312Y029607D01*
X015264D01*
X015248Y029591D01*
X015232Y029607D01*
X0152Y029639D01*
X015184Y029655D01*
X015168Y029671D01*
X015152D01*
X01512Y029639D01*
X015104Y029623D01*
Y029591D01*
X01512Y029559D01*
Y029543D01*
X015136Y029511D01*
X01512D01*
X015104Y029495D01*
X015088Y029511D01*
Y029527D01*
X015072Y029543D01*
X01504Y029559D01*
X015024D01*
X015008Y029575D01*
X01496Y029591D01*
X014943D01*
X014911Y029607D01*
X014895Y029623D01*
X014863Y029639D01*
X014847Y029655D01*
X014799Y029671D01*
X014783Y029687D01*
X014735D01*
X014719Y029703D01*
X014703Y029719D01*
X014671Y029735D01*
X014655Y029751D01*
X014623Y029767D01*
X014607D01*
X014591Y029783D01*
X014559D01*
X014543Y029799D01*
X014494Y029815D01*
X014478Y029831D01*
X01443Y029847D01*
X014414Y029863D01*
X014382Y029879D01*
X01435Y029896D01*
X014254D01*
X014222Y029912D01*
X014206Y029944D01*
X01419Y029976D01*
X014174Y030024D01*
Y03004D01*
Y030056D01*
X014158Y030072D01*
X014125Y030088D01*
X014109D01*
X014093Y030104D01*
X013981D01*
X013949Y030088D01*
X013933Y030104D01*
Y03012D01*
X013917Y030136D01*
X013901Y030168D01*
X013885Y030184D01*
X013837Y0302D01*
X013805D01*
X013789Y030216D01*
Y030232D01*
Y030248D01*
X013773Y030264D01*
X013741Y03028D01*
X013708Y030313D01*
X013692D01*
X013676Y030329D01*
X013644Y030345D01*
X013612D01*
X013564Y030361D01*
X013548Y030377D01*
X013532Y030425D01*
X013516Y030441D01*
X0135D01*
X013484Y030457D01*
X013468D01*
Y030473D01*
X01334D01*
X013324Y030489D01*
X013308Y030505D01*
X013291Y030569D01*
Y030585D01*
X013275Y030601D01*
X013259Y030665D01*
Y030681D01*
X013243Y030697D01*
X013227Y030714D01*
X013211D01*
X013195Y03073D01*
X013163Y030746D01*
X013147Y030778D01*
Y030794D01*
X013131Y03081D01*
X013115Y030874D01*
Y03089D01*
X013131Y030906D01*
Y030922D01*
X013147Y030938D01*
X013179Y030986D01*
X013147Y031034D01*
X013131Y03105D01*
Y031098D01*
X013115Y031114D01*
Y031131D01*
Y031147D01*
X013131Y031163D01*
Y031179D01*
X013115Y031195D01*
Y031227D01*
Y031243D01*
X013099Y031259D01*
Y031323D01*
Y031339D01*
Y031355D01*
X013115Y031419D01*
Y031435D01*
X013131Y031467D01*
X013147Y031483D01*
Y031499D01*
Y031515D01*
Y031532D01*
X013131Y031548D01*
X013115D01*
X013083Y031515D01*
X013067D01*
X013051Y031499D01*
X013019Y031483D01*
X013003D01*
X012987Y031515D01*
X013003Y031548D01*
X013019Y031564D01*
X013067Y031612D01*
Y031628D01*
X013083Y031644D01*
X013099Y031676D01*
Y031692D01*
Y031724D01*
Y03174D01*
X013067Y031788D01*
X013051Y031804D01*
X013035Y03182D01*
X012987Y031884D01*
X012874Y031981D01*
X012907Y032029D01*
Y032045D01*
X012923Y032077D01*
X012939Y032093D01*
X012955Y032125D01*
X012971Y032141D01*
X013003Y032189D01*
Y032205D01*
Y032221D01*
X013019Y032301D01*
Y032317D01*
X013051Y032349D01*
Y032366D01*
X013067Y032382D01*
X013083Y03243D01*
X013115Y03251D01*
X013083Y032542D01*
X013067D01*
X013051Y032558D01*
X013035D01*
Y032574D01*
Y03259D01*
Y032622D01*
X013051Y032638D01*
X013083Y03267D01*
Y032686D01*
Y032702D01*
Y032718D01*
Y032734D01*
X013099Y03275D01*
X013115Y032783D01*
X013099Y032799D01*
X013067Y032831D01*
X013051D01*
X013035Y032847D01*
X013019Y032863D01*
Y032879D01*
Y032895D01*
X013035Y032943D01*
X013051Y032959D01*
X013067Y032991D01*
X013083Y033023D01*
Y033039D01*
Y033055D01*
X013099Y033135D01*
Y033151D01*
Y033167D01*
X013115Y033232D01*
Y033248D01*
Y033264D01*
Y03328D01*
Y033296D01*
X013131Y033312D01*
X013147Y033344D01*
Y03336D01*
X013163Y033376D01*
X013179Y03344D01*
Y033456D01*
X013195Y033472D01*
X013227Y033552D01*
Y033568D01*
Y033584D01*
Y033665D01*
Y033681D01*
Y033697D01*
X013243Y033777D01*
Y033793D01*
X013259Y033809D01*
X013308Y033873D01*
X01334Y033937D01*
X013468Y033841D01*
D02*
G37*
G36*
X045193Y02927D02*
Y029254D01*
Y029238D01*
Y029222D01*
Y029206D01*
X045145D01*
Y029222D01*
Y029238D01*
X045161D01*
Y029254D01*
Y02927D01*
Y029286D01*
X045177D01*
X045193Y02927D01*
D02*
G37*
G36*
X031351Y02927D02*
Y029254D01*
Y029238D01*
Y029222D01*
Y029206D01*
X031303D01*
Y029222D01*
Y029238D01*
X031319D01*
Y029254D01*
Y02927D01*
Y029286D01*
X031335D01*
X031351Y02927D01*
D02*
G37*
G36*
X01751Y02927D02*
Y029254D01*
Y029238D01*
Y029222D01*
Y029206D01*
X017462D01*
Y029222D01*
Y029238D01*
X017478D01*
Y029254D01*
Y02927D01*
Y029286D01*
X017494D01*
X01751Y02927D01*
D02*
G37*
G36*
X045722Y029607D02*
X045738Y029575D01*
X045754Y029543D01*
X045819D01*
X045835Y029527D01*
X045851Y029511D01*
X045835Y029495D01*
X045786Y029479D01*
X04577Y029462D01*
X045754Y029446D01*
X045738Y02943D01*
Y029398D01*
X045722Y029382D01*
Y029302D01*
Y02927D01*
X045706Y02919D01*
Y029174D01*
X04569Y029158D01*
X045674D01*
X045658Y029142D01*
X045642D01*
Y029174D01*
Y02919D01*
Y029254D01*
Y02927D01*
Y029286D01*
Y029318D01*
Y029334D01*
X045626Y029366D01*
Y029382D01*
X04561Y029398D01*
Y029479D01*
Y029495D01*
Y029511D01*
X045642Y029591D01*
Y029607D01*
X045658Y029623D01*
X045674Y029639D01*
X045706D01*
X045722Y029607D01*
D02*
G37*
G36*
X044936Y029174D02*
Y029158D01*
X04492Y029142D01*
X044904D01*
X044888Y029158D01*
X044872D01*
Y029174D01*
Y02919D01*
X04492D01*
X044936Y029174D01*
D02*
G37*
G36*
X031881Y029607D02*
X031897Y029575D01*
X031913Y029543D01*
X031977D01*
X031993Y029527D01*
X032009Y029511D01*
X031993Y029495D01*
X031945Y029479D01*
X031929Y029462D01*
X031913Y029446D01*
X031897Y02943D01*
Y029398D01*
X031881Y029382D01*
Y029302D01*
Y02927D01*
X031865Y02919D01*
Y029174D01*
X031849Y029158D01*
X031833D01*
X031817Y029142D01*
X0318D01*
Y029174D01*
Y02919D01*
Y029254D01*
Y02927D01*
Y029286D01*
Y029318D01*
Y029334D01*
X031784Y029366D01*
Y029382D01*
X031768Y029398D01*
Y029479D01*
Y029495D01*
Y029511D01*
X0318Y029591D01*
Y029607D01*
X031817Y029623D01*
X031833Y029639D01*
X031865D01*
X031881Y029607D01*
D02*
G37*
G36*
X031095Y029174D02*
Y029158D01*
X031079Y029142D01*
X031063D01*
X031047Y029158D01*
X031031D01*
Y029174D01*
Y02919D01*
X031079D01*
X031095Y029174D01*
D02*
G37*
G36*
X018039Y029607D02*
X018055Y029575D01*
X018071Y029543D01*
X018135D01*
X018151Y029527D01*
X018167Y029511D01*
X018151Y029495D01*
X018103Y029479D01*
X018087Y029462D01*
X018071Y029446D01*
X018055Y02943D01*
Y029398D01*
X018039Y029382D01*
Y029302D01*
Y02927D01*
X018023Y02919D01*
Y029174D01*
X018007Y029158D01*
X017991D01*
X017975Y029142D01*
X017959D01*
Y029174D01*
Y02919D01*
Y029254D01*
Y02927D01*
Y029286D01*
Y029318D01*
Y029334D01*
X017943Y029366D01*
Y029382D01*
X017927Y029398D01*
Y029479D01*
Y029495D01*
Y029511D01*
X017959Y029591D01*
Y029607D01*
X017975Y029623D01*
X017991Y029639D01*
X018023D01*
X018039Y029607D01*
D02*
G37*
G36*
X017253Y029174D02*
Y029158D01*
X017237Y029142D01*
X017221D01*
X017205Y029158D01*
X017189D01*
Y029174D01*
Y02919D01*
X017237D01*
X017253Y029174D01*
D02*
G37*
G36*
X045129Y029045D02*
X045161Y029013D01*
X045065D01*
X045049Y029029D01*
Y029045D01*
Y029062D01*
X045097D01*
X045129Y029045D01*
D02*
G37*
G36*
X031287Y029045D02*
X031319Y029013D01*
X031223D01*
X031207Y029029D01*
Y029045D01*
Y029062D01*
X031255D01*
X031287Y029045D01*
D02*
G37*
G36*
X017446Y029045D02*
X017478Y029013D01*
X017381D01*
X017365Y029029D01*
Y029045D01*
Y029061D01*
X017413D01*
X017446Y029045D01*
D02*
G37*
G36*
X045402Y028917D02*
Y028901D01*
X045386Y028869D01*
X045337D01*
X045321Y028885D01*
Y028901D01*
Y028917D01*
X045353Y028949D01*
X045386D01*
X045402Y028917D01*
D02*
G37*
G36*
X03156Y028917D02*
Y028901D01*
X031544Y028869D01*
X031496D01*
X03148Y028885D01*
Y028901D01*
Y028917D01*
X031512Y028949D01*
X031544D01*
X03156Y028917D01*
D02*
G37*
G36*
X017718Y028917D02*
Y028901D01*
X017702Y028869D01*
X017654D01*
X017638Y028885D01*
Y028901D01*
Y028917D01*
X01767Y028949D01*
X017702D01*
X017718Y028917D01*
D02*
G37*
G36*
X04622Y028564D02*
Y028548D01*
X046203D01*
X046187Y028532D01*
X046171Y0285D01*
X046107Y028564D01*
X046203D01*
Y02858D01*
X04622D01*
Y028564D01*
D02*
G37*
G36*
X032378Y028564D02*
Y028548D01*
X032362D01*
X032346Y028532D01*
X03233Y0285D01*
X032266Y028564D01*
X032362D01*
Y02858D01*
X032378D01*
Y028564D01*
D02*
G37*
G36*
X018536Y028564D02*
Y028548D01*
X01852D01*
X018504Y028532D01*
X018488Y0285D01*
X018424Y028564D01*
X01852D01*
Y02858D01*
X018536D01*
Y028564D01*
D02*
G37*
G36*
X043236Y028019D02*
X043268Y027987D01*
X043333Y027923D01*
X0433Y027907D01*
X043284D01*
X043268Y027891D01*
X043252D01*
X043236Y027907D01*
X043188D01*
X043172Y027923D01*
X04314D01*
X043124Y027939D01*
Y027955D01*
X04314Y027971D01*
X043156D01*
X043172Y027987D01*
Y028003D01*
Y028019D01*
Y028035D01*
X043188Y028051D01*
X04322D01*
X043236Y028019D01*
D02*
G37*
G36*
X029395Y028019D02*
X029427Y027987D01*
X029491Y027923D01*
X029459Y027907D01*
X029443D01*
X029427Y027891D01*
X029411D01*
X029395Y027907D01*
X029347D01*
X02933Y027923D01*
X029298D01*
X029282Y027939D01*
Y027955D01*
X029298Y027971D01*
X029314D01*
X02933Y027987D01*
Y028003D01*
Y028019D01*
Y028035D01*
X029347Y028051D01*
X029379D01*
X029395Y028019D01*
D02*
G37*
G36*
X015553Y028019D02*
X015585Y027987D01*
X015649Y027923D01*
X015617Y027907D01*
X015601D01*
X015585Y027891D01*
X015569D01*
X015553Y027907D01*
X015505D01*
X015489Y027923D01*
X015457D01*
X015441Y027939D01*
Y027955D01*
X015457Y027971D01*
X015473D01*
X015489Y027987D01*
Y028003D01*
Y028019D01*
Y028035D01*
X015505Y028051D01*
X015537D01*
X015553Y028019D01*
D02*
G37*
G36*
X04492Y027746D02*
Y02773D01*
X044936Y027714D01*
X04492Y027698D01*
X044888D01*
X044872Y027714D01*
Y027746D01*
X044888Y027762D01*
X044904D01*
X04492Y027746D01*
D02*
G37*
G36*
X031079Y027746D02*
Y02773D01*
X031095Y027714D01*
X031079Y027698D01*
X031047D01*
X031031Y027714D01*
Y027746D01*
X031047Y027762D01*
X031063D01*
X031079Y027746D01*
D02*
G37*
G36*
X017237Y027746D02*
Y02773D01*
X017253Y027714D01*
X017237Y027698D01*
X017205D01*
X017189Y027714D01*
Y027746D01*
X017205Y027762D01*
X017221D01*
X017237Y027746D01*
D02*
G37*
G36*
X039483Y027506D02*
X039611D01*
X039644Y02749D01*
Y027458D01*
Y027442D01*
Y027426D01*
Y027393D01*
X039628Y027377D01*
X039515D01*
Y027345D01*
X039499Y027329D01*
X039483Y027297D01*
X039419D01*
Y027313D01*
X039403Y027329D01*
Y027361D01*
Y027393D01*
Y027522D01*
X039483Y027506D01*
D02*
G37*
G36*
X025642Y027506D02*
X02577D01*
X025802Y02749D01*
Y027458D01*
Y027442D01*
Y027426D01*
Y027393D01*
X025786Y027377D01*
X025674D01*
Y027345D01*
X025658Y027329D01*
X025642Y027297D01*
X025577D01*
Y027313D01*
X025561Y027329D01*
Y027361D01*
Y027393D01*
Y027522D01*
X025642Y027506D01*
D02*
G37*
G36*
X0118Y027506D02*
X011928D01*
X01196Y02749D01*
Y027458D01*
Y027442D01*
Y027426D01*
Y027393D01*
X011944Y027377D01*
X011832D01*
Y027345D01*
X011816Y027329D01*
X0118Y027297D01*
X011736D01*
Y027313D01*
X01172Y027329D01*
Y027361D01*
Y027393D01*
Y027522D01*
X0118Y027506D01*
D02*
G37*
G36*
X040077Y027265D02*
X040093Y027249D01*
X040125Y027233D01*
Y027217D01*
X040141Y027185D01*
Y027153D01*
X040125Y027137D01*
X040093Y027121D01*
X040061D01*
X040012Y027153D01*
X039996D01*
X03998Y027169D01*
X039964Y027185D01*
Y027201D01*
Y027217D01*
X039996Y027281D01*
X040028Y027313D01*
X040077Y027265D01*
D02*
G37*
G36*
X026235Y027265D02*
X026251Y027249D01*
X026283Y027233D01*
Y027217D01*
X026299Y027185D01*
Y027153D01*
X026283Y027137D01*
X026251Y027121D01*
X026219D01*
X026171Y027153D01*
X026155D01*
X026139Y027169D01*
X026123Y027185D01*
Y027201D01*
Y027217D01*
X026155Y027281D01*
X026187Y027313D01*
X026235Y027265D01*
D02*
G37*
G36*
X012393Y027265D02*
X012409Y027249D01*
X012441Y027233D01*
Y027217D01*
X012457Y027185D01*
Y027153D01*
X012441Y027137D01*
X012409Y027121D01*
X012377D01*
X012329Y027153D01*
X012313D01*
X012297Y027169D01*
X012281Y027185D01*
Y027201D01*
Y027217D01*
X012313Y027281D01*
X012345Y027313D01*
X012393Y027265D01*
D02*
G37*
G36*
X039419Y027185D02*
X039435D01*
Y027169D01*
Y027153D01*
Y027137D01*
Y027121D01*
Y027105D01*
X039419D01*
X039403Y027089D01*
X039387D01*
Y027105D01*
X039371Y027121D01*
Y027153D01*
Y027169D01*
Y027185D01*
Y027201D01*
X039403D01*
X039419Y027185D01*
D02*
G37*
G36*
X025577Y027185D02*
X025593D01*
Y027169D01*
Y027153D01*
Y027137D01*
Y027121D01*
Y027105D01*
X025577D01*
X025561Y027089D01*
X025545D01*
Y027105D01*
X025529Y027121D01*
Y027153D01*
Y027169D01*
Y027185D01*
Y027201D01*
X025561D01*
X025577Y027185D01*
D02*
G37*
G36*
X011736Y027185D02*
X011752D01*
Y027169D01*
Y027153D01*
Y027137D01*
Y027121D01*
Y027105D01*
X011736D01*
X01172Y027089D01*
X011704D01*
Y027105D01*
X011688Y027121D01*
Y027153D01*
Y027169D01*
Y027185D01*
Y027201D01*
X01172D01*
X011736Y027185D01*
D02*
G37*
G36*
X038473Y027169D02*
X038489Y027153D01*
X038505Y027137D01*
Y027121D01*
X038521Y027105D01*
X038537Y027041D01*
Y027009D01*
Y026976D01*
X038553Y026928D01*
Y026896D01*
Y026832D01*
Y026816D01*
X038537Y0268D01*
X038505Y026816D01*
X038489Y026832D01*
X038441Y026896D01*
X038344Y026976D01*
X03836Y027057D01*
Y027073D01*
Y027089D01*
X038393Y027153D01*
X038409Y027169D01*
X038457Y027201D01*
X038473Y027169D01*
D02*
G37*
G36*
X024631Y027169D02*
X024647Y027153D01*
X024663Y027137D01*
Y027121D01*
X024679Y027105D01*
X024695Y027041D01*
Y027009D01*
Y026976D01*
X024711Y026928D01*
Y026896D01*
Y026832D01*
Y026816D01*
X024695Y0268D01*
X024663Y026816D01*
X024647Y026832D01*
X024599Y026896D01*
X024503Y026976D01*
X024519Y027057D01*
Y027073D01*
Y027089D01*
X024551Y027153D01*
X024567Y027169D01*
X024615Y027201D01*
X024631Y027169D01*
D02*
G37*
G36*
X010789Y027169D02*
X010805Y027153D01*
X010821Y027137D01*
Y027121D01*
X010838Y027105D01*
X010854Y027041D01*
Y027009D01*
Y026976D01*
X01087Y026928D01*
Y026896D01*
Y026832D01*
Y026816D01*
X010854Y0268D01*
X010821Y026816D01*
X010805Y026832D01*
X010757Y026896D01*
X010661Y026976D01*
X010677Y027057D01*
Y027073D01*
Y027089D01*
X010709Y027153D01*
X010725Y027169D01*
X010773Y027201D01*
X010789Y027169D01*
D02*
G37*
G36*
X040381Y026912D02*
X040413Y026896D01*
X040462Y026848D01*
X040478Y026816D01*
X040494Y026784D01*
X04051Y026736D01*
Y02672D01*
Y026704D01*
Y026688D01*
Y026672D01*
X040494D01*
X040478Y026688D01*
X040462Y02672D01*
X040445Y026736D01*
X040413Y026768D01*
X040397Y026784D01*
X040349Y026816D01*
Y026832D01*
X040333Y026848D01*
X040317Y026864D01*
X040109D01*
X040093Y02688D01*
X040109Y026896D01*
X040125Y026912D01*
X040173Y026928D01*
X040349D01*
X040381Y026912D01*
D02*
G37*
G36*
X02654Y026912D02*
X026572Y026896D01*
X02662Y026848D01*
X026636Y026816D01*
X026652Y026784D01*
X026668Y026736D01*
Y02672D01*
Y026704D01*
Y026688D01*
Y026672D01*
X026652D01*
X026636Y026688D01*
X02662Y02672D01*
X026604Y026736D01*
X026572Y026768D01*
X026556Y026784D01*
X026508Y026816D01*
Y026832D01*
X026492Y026848D01*
X026476Y026864D01*
X026267D01*
X026251Y02688D01*
X026267Y026896D01*
X026283Y026912D01*
X026331Y026928D01*
X026508D01*
X02654Y026912D01*
D02*
G37*
G36*
X012698Y026912D02*
X01273Y026896D01*
X012778Y026848D01*
X012794Y026816D01*
X01281Y026784D01*
X012826Y026736D01*
Y02672D01*
Y026704D01*
Y026688D01*
Y026672D01*
X01281D01*
X012794Y026688D01*
X012778Y02672D01*
X012762Y026736D01*
X01273Y026768D01*
X012714Y026784D01*
X012666Y026816D01*
Y026832D01*
X01265Y026848D01*
X012634Y026864D01*
X012425Y026864D01*
X012409Y02688D01*
X012425Y026896D01*
X012441Y026912D01*
X01249Y026928D01*
X012666Y026928D01*
X012698Y026912D01*
D02*
G37*
D10*
X0415Y0168D02*
Y0162D01*
X0412D01*
X0411Y0163D01*
Y0164D01*
X0412Y0165D01*
X0415D01*
X0412D01*
X0411Y0166D01*
Y0167D01*
X0412Y0168D01*
X0415D01*
X0409D02*
X0405D01*
X0407D01*
Y0162D01*
D11*
X02595Y027D02*
Y04625D01*
X0275D01*
X02595Y02625D02*
Y027D01*
Y02625D02*
X02737D01*
X02096D02*
Y04625D01*
X01941D02*
X02096D01*
X0195Y02625D02*
X02096D01*
X037097Y014147D02*
X037079Y014166D01*
X03706Y014147D01*
X037079Y014129D01*
X037097D01*
X037135Y014147D01*
X037154Y014166D01*
X037172Y014222D01*
Y014297D01*
X037154Y014354D01*
X037116Y014372D01*
X03706D01*
X037022Y014354D01*
X037004Y014297D01*
Y014241D01*
X037172Y014297D02*
X037154Y014335D01*
X037116Y014354D01*
X03706D01*
X037022Y014335D01*
X037004Y014297D01*
X036985Y014335D01*
X036947Y014372D01*
X03691Y014391D01*
X036854D01*
X036816Y014372D01*
X036797Y014354D01*
X036779Y014297D01*
Y014222D01*
X036797Y014166D01*
X036816Y014147D01*
X036854Y014129D01*
X036872D01*
X036891Y014147D01*
X036872Y014166D01*
X036854Y014147D01*
X036966Y014354D02*
X03691Y014372D01*
X036854D01*
X036816Y014354D01*
X036797Y014335D01*
X036779Y014297D01*
X036816Y014468D02*
X036797Y014449D01*
X036779Y014468D01*
X036797Y014487D01*
X036816Y014468D01*
X037097Y014586D02*
X037079Y014605D01*
X03706Y014586D01*
X037079Y014567D01*
X037097D01*
X037135Y014586D01*
X037154Y014605D01*
X037172Y014661D01*
Y014736D01*
X037154Y014792D01*
X037116Y014811D01*
X03706D01*
X037022Y014792D01*
X037004Y014736D01*
Y01468D01*
X037172Y014736D02*
X037154Y014774D01*
X037116Y014792D01*
X03706D01*
X037022Y014774D01*
X037004Y014736D01*
X036985Y014774D01*
X036947Y014811D01*
X03691Y01483D01*
X036854D01*
X036816Y014811D01*
X036797Y014792D01*
X036779Y014736D01*
Y014661D01*
X036797Y014605D01*
X036816Y014586D01*
X036854Y014567D01*
X036872D01*
X036891Y014586D01*
X036872Y014605D01*
X036854Y014586D01*
X036966Y014792D02*
X03691Y014811D01*
X036854D01*
X036816Y014792D01*
X036797Y014774D01*
X036779Y014736D01*
X037172Y014925D02*
X036779Y015057D01*
X037172Y014944D02*
X036835Y015057D01*
X037172Y015188D02*
X036779Y015057D01*
X037172Y014888D02*
Y015D01*
Y015113D02*
Y015225D01*
D17*
X03814Y01366D02*
Y01396D01*
X03864D01*
Y01366D02*
Y01396D01*
X04266Y01367D02*
Y01397D01*
X04316D01*
Y01367D02*
Y01397D01*
X03665Y01605D02*
X04465D01*
X03665Y01365D02*
Y01465D01*
Y01365D02*
X04465D01*
Y01605D01*
X03665Y01465D02*
Y01605D01*
M02*
