G04*
G04 #@! TF.GenerationSoftware,Altium Limited,Altium Designer,21.3.2 (30)*
G04*
G04 Layer_Color=16711935*
%FSTAX24Y24*%
%MOIN*%
G70*
G04*
G04 #@! TF.SameCoordinates,110FFF50-2F86-4F7F-B504-3501B117D145*
G04*
G04*
G04 #@! TF.FilePolarity,Positive*
G04*
G01*
G75*
%ADD11C,0.0079*%
%ADD14C,0.0050*%
%ADD15C,0.0080*%
G36*
X01956Y025623D02*
Y025461D01*
X01554D01*
Y025623D01*
X01622Y025803D01*
X01888D01*
X01956Y025623D01*
D02*
G37*
G36*
X01841Y019999D02*
X01803D01*
Y02085D01*
X01841D01*
Y019999D01*
D02*
G37*
G36*
X0164Y019998D02*
X016019D01*
Y02085D01*
X0164D01*
Y019998D01*
D02*
G37*
G36*
X01707Y019997D02*
X016689D01*
Y02085D01*
X01707D01*
Y019997D01*
D02*
G37*
G36*
X01774Y019996D02*
X01736D01*
Y02085D01*
X01774D01*
Y019996D01*
D02*
G37*
G36*
X01908Y019995D02*
X018702D01*
Y02085D01*
X01908D01*
Y019995D01*
D02*
G37*
D11*
X010438Y0136D02*
G03*
X010438Y0136I-000039J0D01*
G01*
X02104Y020321D02*
G03*
X02104Y020321I-000039J0D01*
G01*
X02099Y024821D02*
G03*
X02099Y024821I-000039J0D01*
G01*
X015789Y017844D02*
G03*
X015789Y017844I-000039J0D01*
G01*
D14*
X010792Y0126D02*
X014808D01*
X010792D02*
Y0206D01*
X014808D01*
Y0126D02*
Y0206D01*
X02161Y020031D02*
X02299D01*
Y017469D02*
Y020031D01*
X02161Y017469D02*
X02299D01*
X02161D02*
Y020031D01*
X02156Y024531D02*
X02294D01*
Y021969D02*
Y024531D01*
X02156Y021969D02*
X02294D01*
X02156D02*
Y024531D01*
X015241Y017111D02*
X016259D01*
X015241Y015389D02*
Y017111D01*
Y015389D02*
X016259D01*
Y017111D01*
D15*
X01554Y025461D02*
X01956D01*
Y025623D01*
X01888Y025803D02*
X01956Y025623D01*
X01622Y025803D02*
X01888D01*
X01554Y025623D02*
X01622Y025803D01*
X01554Y025461D02*
Y025623D01*
X015544Y025421D02*
X019556D01*
X015544Y021466D02*
Y025421D01*
X019556Y021466D02*
Y025421D01*
M02*
