G04*
G04 #@! TF.GenerationSoftware,Altium Limited,Altium Designer,21.3.2 (30)*
G04*
G04 Layer_Physical_Order=1*
G04 Layer_Color=255*
%FSTAX24Y24*%
%MOIN*%
G70*
G04*
G04 #@! TF.SameCoordinates,110FFF50-2F86-4F7F-B504-3501B117D145*
G04*
G04*
G04 #@! TF.FilePolarity,Positive*
G04*
G01*
G75*
%ADD20R,0.0420X0.0850*%
%ADD21R,0.4252X0.4098*%
%ADD22R,0.0394X0.0550*%
%ADD23R,0.0550X0.0394*%
%ADD24R,0.0472X0.0335*%
G04:AMPARAMS|DCode=25|XSize=36.6mil|YSize=51.6mil|CornerRadius=2.7mil|HoleSize=0mil|Usage=FLASHONLY|Rotation=270.000|XOffset=0mil|YOffset=0mil|HoleType=Round|Shape=RoundedRectangle|*
%AMROUNDEDRECTD25*
21,1,0.0366,0.0461,0,0,270.0*
21,1,0.0311,0.0516,0,0,270.0*
1,1,0.0055,-0.0230,-0.0156*
1,1,0.0055,-0.0230,0.0156*
1,1,0.0055,0.0230,0.0156*
1,1,0.0055,0.0230,-0.0156*
%
%ADD25ROUNDEDRECTD25*%
G04:AMPARAMS|DCode=26|XSize=127.6mil|YSize=51.6mil|CornerRadius=3.9mil|HoleSize=0mil|Usage=FLASHONLY|Rotation=270.000|XOffset=0mil|YOffset=0mil|HoleType=Round|Shape=RoundedRectangle|*
%AMROUNDEDRECTD26*
21,1,0.1276,0.0438,0,0,270.0*
21,1,0.1198,0.0516,0,0,270.0*
1,1,0.0077,-0.0219,-0.0599*
1,1,0.0077,-0.0219,0.0599*
1,1,0.0077,0.0219,0.0599*
1,1,0.0077,0.0219,-0.0599*
%
%ADD26ROUNDEDRECTD26*%
%ADD27R,0.0610X0.0917*%
%ADD61C,0.0236*%
%ADD62C,0.0787*%
%ADD63C,0.0276*%
%ADD64C,0.0394*%
%ADD65C,0.0197*%
%ADD66O,0.0750X0.0900*%
%ADD67R,0.0750X0.0900*%
%ADD68C,0.0945*%
%ADD69C,0.0650*%
%ADD70R,0.0650X0.0650*%
%ADD71C,0.0197*%
%ADD72C,0.1969*%
%ADD73O,0.0787X0.0630*%
%ADD74R,0.0945X0.0945*%
%ADD75C,0.0669*%
%ADD76O,0.0860X0.0600*%
%ADD77R,0.0598X0.0598*%
%ADD78C,0.0598*%
%ADD79R,0.0598X0.0598*%
%ADD80O,0.0709X0.0630*%
%ADD81R,0.0709X0.0630*%
%ADD82O,0.0900X0.0750*%
%ADD83R,0.0900X0.0750*%
%ADD84R,0.0591X0.0591*%
%ADD85C,0.0591*%
%ADD86R,0.0945X0.0945*%
%ADD87R,0.0669X0.0669*%
%ADD88C,0.0500*%
%ADD89C,0.0787*%
%ADD90C,0.0394*%
G36*
X045647Y047131D02*
X045572Y047093D01*
X045432Y046991D01*
X045309Y046868D01*
X045207Y046728D01*
X045128Y046573D01*
X045075Y046408D01*
X045048Y046237D01*
Y046063D01*
X045075Y045892D01*
X045128Y045727D01*
X045207Y045572D01*
X045309Y045432D01*
X045432Y045309D01*
X045572Y045207D01*
X045727Y045128D01*
X045892Y045075D01*
X046063Y045048D01*
X046237D01*
X046408Y045075D01*
X046573Y045128D01*
X046728Y045207D01*
X046868Y045309D01*
X046991Y045432D01*
X047093Y045572D01*
X047131Y045647D01*
X047181Y045635D01*
Y011765D01*
X047131Y011753D01*
X047093Y011828D01*
X046991Y011968D01*
X046868Y012091D01*
X046728Y012193D01*
X046573Y012272D01*
X046408Y012325D01*
X046237Y012352D01*
X046063D01*
X045892Y012325D01*
X045727Y012272D01*
X045572Y012193D01*
X045432Y012091D01*
X045309Y011968D01*
X045207Y011828D01*
X045128Y011673D01*
X045075Y011508D01*
X045048Y011337D01*
Y011163D01*
X045075Y010992D01*
X045128Y010827D01*
X045207Y010672D01*
X045309Y010532D01*
X045432Y010409D01*
X045572Y010307D01*
X045644Y010271D01*
X045632Y010221D01*
X035818D01*
X035806Y010271D01*
X035878Y010307D01*
X036018Y010409D01*
X036141Y010532D01*
X036243Y010672D01*
X036322Y010827D01*
X036375Y010992D01*
X036402Y011163D01*
Y011337D01*
X036375Y011508D01*
X036322Y011673D01*
X036243Y011828D01*
X036141Y011968D01*
X036018Y012091D01*
X035878Y012193D01*
X035723Y012272D01*
X035558Y012325D01*
X035387Y012352D01*
X035213D01*
X035042Y012325D01*
X034877Y012272D01*
X034722Y012193D01*
X034582Y012091D01*
X034459Y011968D01*
X034357Y011828D01*
X034278Y011673D01*
X034225Y011508D01*
X034198Y011337D01*
Y011163D01*
X034225Y010992D01*
X034278Y010827D01*
X034357Y010672D01*
X034459Y010532D01*
X034582Y010409D01*
X034722Y010307D01*
X034794Y010271D01*
X034782Y010221D01*
X033318D01*
X033306Y010271D01*
X033378Y010307D01*
X033518Y010409D01*
X033641Y010532D01*
X033743Y010672D01*
X033822Y010827D01*
X033875Y010992D01*
X033902Y011163D01*
Y011337D01*
X033875Y011508D01*
X033822Y011673D01*
X033743Y011828D01*
X033641Y011968D01*
X033518Y012091D01*
X033378Y012193D01*
X033223Y012272D01*
X033058Y012325D01*
X032887Y012352D01*
X032713D01*
X032542Y012325D01*
X032377Y012272D01*
X032222Y012193D01*
X032082Y012091D01*
X031959Y011968D01*
X031857Y011828D01*
X031778Y011673D01*
X031725Y011508D01*
X031698Y011337D01*
Y011163D01*
X031725Y010992D01*
X031778Y010827D01*
X031857Y010672D01*
X031959Y010532D01*
X032082Y010409D01*
X032222Y010307D01*
X032294Y010271D01*
X032282Y010221D01*
X027629D01*
X02761Y010267D01*
X027645Y010303D01*
X027698Y010381D01*
X027716Y010473D01*
Y010543D01*
X027756Y010566D01*
X027834Y010644D01*
X027889Y010739D01*
X027917Y010845D01*
Y010955D01*
X027889Y011061D01*
X027834Y011156D01*
X027756Y011234D01*
X027661Y011289D01*
X027555Y011317D01*
X027445D01*
X027339Y011289D01*
X027244Y011234D01*
X027166Y011156D01*
X027111Y011061D01*
X027083Y010955D01*
Y010845D01*
X027111Y010739D01*
X027166Y010644D01*
X027188Y010622D01*
X027169Y010575D01*
X026811D01*
X02679Y010625D01*
X026819Y010655D01*
X026872Y010746D01*
X026899Y010847D01*
Y01085D01*
X0265D01*
X026101D01*
Y010847D01*
X026128Y010746D01*
X026181Y010655D01*
X02621Y010625D01*
X026189Y010575D01*
X025788D01*
X025774Y010625D01*
X025826Y010655D01*
X025895Y010724D01*
X025943Y010808D01*
X025968Y010902D01*
Y010998D01*
X025943Y011092D01*
X025895Y011176D01*
X025841Y01123D01*
Y0115D01*
X026Y011659D01*
X026157D01*
X026166Y011644D01*
X026244Y011566D01*
X026339Y011511D01*
X026445Y011483D01*
X026555D01*
X026661Y011511D01*
X026756Y011566D01*
X026834Y011644D01*
X026889Y011739D01*
X026917Y011845D01*
Y011955D01*
X026889Y012061D01*
X026834Y012156D01*
X026756Y012234D01*
X026661Y012289D01*
X026555Y012317D01*
X026445D01*
X026339Y012289D01*
X026244Y012234D01*
X026166Y012156D01*
X026157Y012141D01*
X0259D01*
X025808Y012123D01*
X02573Y01207D01*
X02543Y01177D01*
X025405Y011733D01*
X025355Y011748D01*
Y014379D01*
X025401Y014399D01*
X026392Y013407D01*
Y013332D01*
X026417Y013238D01*
X026465Y013154D01*
X026534Y013085D01*
X026618Y013037D01*
X026712Y013012D01*
X026808D01*
X026902Y013037D01*
X026986Y013085D01*
X027055Y013154D01*
X027103Y013238D01*
X027128Y013332D01*
Y013428D01*
X027103Y013522D01*
X027055Y013606D01*
X026986Y013675D01*
X026902Y013723D01*
X026808Y013748D01*
X026732D01*
X025766Y014715D01*
Y016848D01*
X025812Y016868D01*
X026632Y016048D01*
Y015972D01*
X026657Y015878D01*
X026705Y015794D01*
X026774Y015725D01*
X026858Y015677D01*
X026952Y015652D01*
X027048D01*
X027142Y015677D01*
X027209Y015716D01*
X027259Y015693D01*
Y012243D01*
X027244Y012234D01*
X027166Y012156D01*
X027111Y012061D01*
X027083Y011955D01*
Y011845D01*
X027111Y011739D01*
X027166Y011644D01*
X027244Y011566D01*
X027339Y011511D01*
X027445Y011483D01*
X027555D01*
X027661Y011511D01*
X027756Y011566D01*
X027834Y011644D01*
X027889Y011739D01*
X027917Y011845D01*
Y011955D01*
X027889Y012061D01*
X027834Y012156D01*
X02787Y012189D01*
X028087Y011972D01*
X028083Y011955D01*
Y011845D01*
X028111Y011739D01*
X028166Y011644D01*
X028244Y011566D01*
X028339Y011511D01*
X028445Y011483D01*
X028555D01*
X028661Y011511D01*
X028756Y011566D01*
X028834Y011644D01*
X028889Y011739D01*
X028917Y011845D01*
Y011955D01*
X028889Y012061D01*
X028834Y012156D01*
X02887Y012189D01*
X029087Y011972D01*
X029083Y011955D01*
Y011845D01*
X029111Y011739D01*
X029166Y011644D01*
X029244Y011566D01*
X029339Y011511D01*
X029445Y011483D01*
X029555D01*
X029661Y011511D01*
X029756Y011566D01*
X029834Y011644D01*
X029889Y011739D01*
X029917Y011845D01*
Y011955D01*
X029889Y012061D01*
X029834Y012156D01*
X029756Y012234D01*
X029661Y012289D01*
X029555Y012317D01*
X029445D01*
X029428Y012313D01*
X028691Y01305D01*
Y025871D01*
X028673Y025963D01*
X02862Y026041D01*
X028091Y026571D01*
Y03235D01*
X028073Y032442D01*
X02802Y03252D01*
X026892Y033649D01*
X026903Y03369D01*
Y03381D01*
X026872Y033925D01*
X026812Y034028D01*
X026728Y034112D01*
X026625Y034172D01*
X02651Y034203D01*
X02639D01*
X026275Y034172D01*
X026172Y034112D01*
X026088Y034028D01*
X026028Y033925D01*
X025997Y03381D01*
Y03369D01*
X026028Y033575D01*
X026088Y033472D01*
X026172Y033388D01*
X026275Y033328D01*
X02639Y033297D01*
X02651D01*
X026551Y033308D01*
X026643Y033216D01*
X026642Y033212D01*
X026614Y033175D01*
X02651Y033203D01*
X02639D01*
X026275Y033172D01*
X026172Y033112D01*
X026088Y033028D01*
X026028Y032925D01*
X025997Y03281D01*
Y03269D01*
X026028Y032575D01*
X026088Y032472D01*
X026172Y032388D01*
X026275Y032328D01*
X02639Y032297D01*
X02651D01*
X026625Y032328D01*
X026728Y032388D01*
X026812Y032472D01*
X026872Y032575D01*
X026903Y03269D01*
Y03281D01*
X026875Y032914D01*
X026912Y032942D01*
X026916Y032943D01*
X027609Y03225D01*
Y028997D01*
X027559Y028981D01*
X026892Y029649D01*
X026903Y02969D01*
Y02981D01*
X026872Y029925D01*
X026812Y030028D01*
X026728Y030112D01*
X026625Y030172D01*
X02651Y030203D01*
X02639D01*
X026286Y030175D01*
X026258Y030212D01*
X026257Y030216D01*
X026349Y030308D01*
X02639Y030297D01*
X02651D01*
X026625Y030328D01*
X026728Y030388D01*
X026812Y030472D01*
X026872Y030575D01*
X026903Y03069D01*
Y03081D01*
X026872Y030925D01*
X026812Y031028D01*
X026728Y031112D01*
X026625Y031172D01*
X02651Y031203D01*
X02639D01*
X026275Y031172D01*
X026172Y031112D01*
X026088Y031028D01*
X026028Y030925D01*
X025997Y03081D01*
Y03069D01*
X026008Y030649D01*
X024943Y029584D01*
X024891Y029506D01*
X024873Y029414D01*
Y01053D01*
X024891Y010438D01*
X024943Y010359D01*
X025036Y010267D01*
X025017Y010221D01*
X011768D01*
X011756Y010271D01*
X011828Y010307D01*
X011968Y010409D01*
X012091Y010532D01*
X012193Y010672D01*
X012272Y010827D01*
X012325Y010992D01*
X012352Y011163D01*
Y011337D01*
X012325Y011508D01*
X012272Y011673D01*
X012193Y011828D01*
X012091Y011968D01*
X011968Y012091D01*
X011828Y012193D01*
X011673Y012272D01*
X011508Y012325D01*
X011337Y012352D01*
X011163D01*
X010992Y012325D01*
X010827Y012272D01*
X010672Y012193D01*
X010532Y012091D01*
X010409Y011968D01*
X010307Y011828D01*
X010271Y011756D01*
X010221Y011768D01*
Y045632D01*
X010271Y045644D01*
X010307Y045572D01*
X010409Y045432D01*
X010532Y045309D01*
X010672Y045207D01*
X010827Y045128D01*
X010992Y045075D01*
X011163Y045048D01*
X011337D01*
X011508Y045075D01*
X011673Y045128D01*
X011828Y045207D01*
X011968Y045309D01*
X012091Y045432D01*
X012193Y045572D01*
X012272Y045727D01*
X012325Y045892D01*
X012352Y046063D01*
Y046237D01*
X012325Y046408D01*
X012272Y046573D01*
X012193Y046728D01*
X012091Y046868D01*
X011968Y046991D01*
X011828Y047093D01*
X011753Y047131D01*
X011765Y047181D01*
X032268D01*
X03228Y047131D01*
X032223Y047102D01*
X032083Y047D01*
X03196Y046877D01*
X031858Y046737D01*
X031779Y046582D01*
X031726Y046417D01*
X031699Y046246D01*
Y046072D01*
X031726Y045901D01*
X031779Y045736D01*
X031858Y045581D01*
X03196Y045441D01*
X032083Y045318D01*
X032223Y045216D01*
X032378Y045138D01*
X032543Y045084D01*
X032714Y045057D01*
X032888D01*
X033059Y045084D01*
X033224Y045138D01*
X033379Y045216D01*
X033519Y045318D01*
X033642Y045441D01*
X033744Y045581D01*
X033822Y045736D01*
X033876Y045901D01*
X033903Y046072D01*
Y046246D01*
X033876Y046417D01*
X033822Y046582D01*
X033744Y046737D01*
X033642Y046877D01*
X033519Y047D01*
X033379Y047102D01*
X033322Y047131D01*
X033334Y047181D01*
X034785D01*
X034797Y047131D01*
X034722Y047093D01*
X034582Y046991D01*
X034459Y046868D01*
X034357Y046728D01*
X034278Y046573D01*
X034225Y046408D01*
X034198Y046237D01*
Y046063D01*
X034225Y045892D01*
X034278Y045727D01*
X034357Y045572D01*
X034459Y045432D01*
X034582Y045309D01*
X034722Y045207D01*
X034877Y045128D01*
X035042Y045075D01*
X035213Y045048D01*
X035387D01*
X035558Y045075D01*
X035723Y045128D01*
X035878Y045207D01*
X036018Y045309D01*
X036141Y045432D01*
X036243Y045572D01*
X036322Y045727D01*
X036375Y045892D01*
X036402Y046063D01*
Y046237D01*
X036375Y046408D01*
X036322Y046573D01*
X036243Y046728D01*
X036141Y046868D01*
X036018Y046991D01*
X035878Y047093D01*
X035803Y047131D01*
X035815Y047181D01*
X045635D01*
X045647Y047131D01*
D02*
G37*
%LPC*%
G36*
X03033Y047111D02*
X02362D01*
X023528Y047093D01*
X02345Y04704D01*
X020878Y044469D01*
X020838Y044499D01*
X020882Y044575D01*
X020913Y04469D01*
Y04481D01*
X020882Y044925D01*
X020822Y045028D01*
X020738Y045112D01*
X020635Y045172D01*
X02052Y045203D01*
X0204D01*
X020359Y045192D01*
X020267Y045284D01*
X020268Y045288D01*
X020296Y045325D01*
X0204Y045297D01*
X02052D01*
X020635Y045328D01*
X020738Y045388D01*
X020822Y045472D01*
X020882Y045575D01*
X020913Y04569D01*
Y04581D01*
X020882Y045925D01*
X020822Y046028D01*
X020738Y046112D01*
X020635Y046172D01*
X02052Y046203D01*
X0204D01*
X020285Y046172D01*
X020182Y046112D01*
X020098Y046028D01*
X020038Y045925D01*
X020007Y04581D01*
Y04569D01*
X020038Y045575D01*
X020073Y045516D01*
X02007Y04551D01*
X020038Y045475D01*
X01996Y045491D01*
X019293D01*
Y045565D01*
X018517D01*
X018507Y045565D01*
X018464Y045547D01*
X018457Y045547D01*
X01815D01*
Y04525D01*
Y044953D01*
X018464Y044953D01*
X018507Y044935D01*
X018518Y044935D01*
X019293D01*
Y045009D01*
X01986D01*
X020018Y044851D01*
X020007Y04481D01*
Y04469D01*
X020038Y044575D01*
X020098Y044472D01*
X020182Y044388D01*
X020285Y044328D01*
X0204Y044297D01*
X02052D01*
X020635Y044328D01*
X020711Y044372D01*
X020741Y044332D01*
X020593Y044183D01*
X02052Y044203D01*
X0204D01*
X020285Y044172D01*
X020182Y044112D01*
X020098Y044028D01*
X020038Y043925D01*
X020007Y04381D01*
Y04369D01*
X020038Y043575D01*
X020098Y043472D01*
X020182Y043388D01*
X020285Y043328D01*
X0204Y043297D01*
X02052D01*
X020635Y043328D01*
X020738Y043388D01*
X020822Y043472D01*
X020882Y043575D01*
X020913Y04369D01*
Y04381D01*
X02091Y043819D01*
X021447Y044357D01*
X02149Y044332D01*
X021487Y04432D01*
Y0442D01*
X021518Y044085D01*
X021578Y043982D01*
X021662Y043898D01*
X021765Y043838D01*
X02188Y043807D01*
X022D01*
X022115Y043838D01*
X022218Y043898D01*
X022302Y043982D01*
X022362Y044085D01*
X022393Y0442D01*
Y04432D01*
X022362Y044435D01*
X022302Y044538D01*
X022218Y044622D01*
X022115Y044682D01*
X022Y044713D01*
X02188D01*
X021868Y04471D01*
X021843Y044753D01*
X02372Y046629D01*
X024351D01*
X024366Y046579D01*
X024308Y04654D01*
X02417Y046402D01*
X024117Y046324D01*
X024099Y046232D01*
Y04573D01*
X024045Y045676D01*
X023997Y045592D01*
X023972Y045498D01*
Y045402D01*
X023997Y045308D01*
X024045Y045224D01*
X024114Y045155D01*
X024198Y045107D01*
X024292Y045082D01*
X024388D01*
X024482Y045107D01*
X024566Y045155D01*
X024635Y045224D01*
X024683Y045308D01*
X024708Y045402D01*
Y045498D01*
X024683Y045592D01*
X024635Y045676D01*
X024581Y04573D01*
Y046129D01*
X026118D01*
X026139Y046079D01*
X026088Y046028D01*
X026028Y045925D01*
X025997Y04581D01*
Y04569D01*
X026028Y045575D01*
X026088Y045472D01*
X026172Y045388D01*
X026275Y045328D01*
X02639Y045297D01*
X02651D01*
X026625Y045328D01*
X026728Y045388D01*
X026812Y045472D01*
X026872Y045575D01*
X026903Y04569D01*
Y04581D01*
X026872Y045925D01*
X026812Y046028D01*
X026761Y046079D01*
X026782Y046129D01*
X027775D01*
Y045245D01*
X027755Y045226D01*
X027707Y045142D01*
X027682Y045048D01*
Y044952D01*
X027707Y044858D01*
X027755Y044774D01*
X027824Y044705D01*
X027908Y044657D01*
X028002Y044632D01*
X028098D01*
X028192Y044657D01*
X028276Y044705D01*
X028345Y044774D01*
X028393Y044858D01*
X028418Y044952D01*
Y045048D01*
X028393Y045142D01*
X028345Y045226D01*
X028276Y045295D01*
X028257Y045306D01*
Y046232D01*
X028238Y046324D01*
X028186Y046402D01*
X028048Y04654D01*
X027989Y046579D01*
X028005Y046629D01*
X03023D01*
X030399Y04646D01*
Y046347D01*
X030349Y046323D01*
X030274Y046381D01*
X030154Y04643D01*
X030025Y046447D01*
X029875D01*
X029746Y04643D01*
X029626Y046381D01*
X029523Y046302D01*
X029444Y046199D01*
X029441Y046191D01*
X028988D01*
X028896Y046173D01*
X028818Y04612D01*
X02868Y045982D01*
X028627Y045904D01*
X028609Y045812D01*
Y03925D01*
X028627Y039158D01*
X02868Y03908D01*
X029349Y03841D01*
Y037481D01*
X029303Y037462D01*
X029295Y037469D01*
X029204Y037522D01*
X029103Y037549D01*
X0291D01*
Y03715D01*
Y036751D01*
X029103D01*
X029204Y036778D01*
X029275Y036819D01*
X029324Y0368D01*
X029329Y036795D01*
X029332Y036773D01*
X029122Y036563D01*
X029105Y036567D01*
X028995D01*
X028889Y036539D01*
X028794Y036484D01*
X028716Y036406D01*
X028661Y036311D01*
X028633Y036205D01*
Y036095D01*
X028661Y035989D01*
X028716Y035894D01*
X02868Y035861D01*
X027741Y0368D01*
Y038048D01*
X027791Y038069D01*
X028652Y037207D01*
X028651Y037203D01*
Y0372D01*
X029D01*
Y037549D01*
X028997D01*
X028993Y037548D01*
X028171Y03837D01*
Y04412D01*
X028153Y044212D01*
X0281Y04429D01*
X02747Y04492D01*
X027392Y044973D01*
X0273Y044991D01*
X026813D01*
X026798Y045017D01*
X026717Y045098D01*
X026618Y045155D01*
X026507Y045185D01*
X0265D01*
Y04475D01*
Y044315D01*
X026507D01*
X026618Y044345D01*
X026717Y044402D01*
X026798Y044483D01*
X026813Y044509D01*
X0272D01*
X027689Y04402D01*
Y039922D01*
X027639Y039901D01*
X026892Y040649D01*
X026903Y04069D01*
Y04081D01*
X026872Y040925D01*
X026812Y041028D01*
X026728Y041112D01*
X026625Y041172D01*
X02651Y041203D01*
X02639D01*
X026275Y041172D01*
X026172Y041112D01*
X026088Y041028D01*
X026028Y040925D01*
X025997Y04081D01*
Y04069D01*
X026028Y040575D01*
X026088Y040472D01*
X026172Y040388D01*
X026275Y040328D01*
X02639Y040297D01*
X02651D01*
X026551Y040308D01*
X026643Y040216D01*
X026642Y040212D01*
X026614Y040175D01*
X02651Y040203D01*
X02639D01*
X026275Y040172D01*
X026172Y040112D01*
X026088Y040028D01*
X026028Y039925D01*
X025997Y03981D01*
Y03969D01*
X026028Y039575D01*
X026088Y039472D01*
X026172Y039388D01*
X026275Y039328D01*
X02639Y039297D01*
X02651D01*
X026551Y039308D01*
X026643Y039216D01*
X026642Y039212D01*
X026614Y039175D01*
X02651Y039203D01*
X02639D01*
X026275Y039172D01*
X026172Y039112D01*
X026088Y039028D01*
X026028Y038925D01*
X025997Y03881D01*
Y03869D01*
X026028Y038575D01*
X026088Y038472D01*
X026172Y038388D01*
X026275Y038328D01*
X02639Y038297D01*
X02651D01*
X026625Y038328D01*
X026728Y038388D01*
X026779Y038439D01*
X026829Y038418D01*
Y038082D01*
X026779Y038061D01*
X026728Y038112D01*
X026625Y038172D01*
X02651Y038203D01*
X02639D01*
X026275Y038172D01*
X026172Y038112D01*
X026088Y038028D01*
X026028Y037925D01*
X025997Y03781D01*
Y03769D01*
X026028Y037575D01*
X026088Y037472D01*
X026172Y037388D01*
X026275Y037328D01*
X02639Y037297D01*
X02651D01*
X026625Y037328D01*
X026728Y037388D01*
X026779Y037439D01*
X026829Y037418D01*
Y037082D01*
X026779Y037061D01*
X026728Y037112D01*
X026625Y037172D01*
X02651Y037203D01*
X02639D01*
X026275Y037172D01*
X026172Y037112D01*
X026088Y037028D01*
X026028Y036925D01*
X025997Y03681D01*
Y03669D01*
X026008Y036649D01*
X02433Y03497D01*
X024277Y034892D01*
X024259Y0348D01*
Y026967D01*
X024209Y026938D01*
X024156Y026969D01*
X024062Y026994D01*
X023965D01*
X023872Y026969D01*
X023788Y026921D01*
X02374Y026873D01*
X023509D01*
X023462Y02692D01*
X023384Y026973D01*
X023291Y026991D01*
X022941D01*
Y0399D01*
X025984Y042943D01*
X025988Y042942D01*
X026025Y042914D01*
X025997Y04281D01*
Y04269D01*
X026028Y042575D01*
X026088Y042472D01*
X026172Y042388D01*
X026275Y042328D01*
X02639Y042297D01*
X02651D01*
X026625Y042328D01*
X026728Y042388D01*
X026812Y042472D01*
X026872Y042575D01*
X026903Y04269D01*
Y04281D01*
X026872Y042925D01*
X026812Y043028D01*
X026728Y043112D01*
X026625Y043172D01*
X02651Y043203D01*
X02639D01*
X026286Y043175D01*
X026258Y043212D01*
X026257Y043216D01*
X026349Y043308D01*
X02639Y043297D01*
X02651D01*
X026625Y043328D01*
X026728Y043388D01*
X026812Y043472D01*
X026872Y043575D01*
X026903Y04369D01*
Y04381D01*
X026872Y043925D01*
X026812Y044028D01*
X026728Y044112D01*
X026625Y044172D01*
X02651Y044203D01*
X02639D01*
X026286Y044175D01*
X026258Y044212D01*
X026257Y044216D01*
X026364Y044323D01*
X026393Y044315D01*
X0264D01*
Y0447D01*
X026015D01*
Y044693D01*
X026023Y044664D01*
X0254Y04404D01*
X025353Y044059D01*
Y044673D01*
X024527D01*
Y043847D01*
X025141D01*
X02516Y0438D01*
X02217Y04081D01*
X022117Y040732D01*
X022099Y04064D01*
Y02973D01*
X020926Y028557D01*
X020922Y028558D01*
X020885Y028586D01*
X020913Y02869D01*
Y02881D01*
X020882Y028925D01*
X020822Y029028D01*
X020738Y029112D01*
X020635Y029172D01*
X02052Y029203D01*
X0204D01*
X020285Y029172D01*
X020182Y029112D01*
X020098Y029028D01*
X020076Y028991D01*
X014891D01*
Y0405D01*
X014873Y040592D01*
X01482Y04067D01*
X014776Y040714D01*
X013302Y042189D01*
X013318Y042228D01*
X013341Y042342D01*
Y042458D01*
X013318Y042572D01*
X013273Y04268D01*
X013209Y042776D01*
X013126Y042859D01*
X01303Y042923D01*
X012922Y042968D01*
X012808Y042991D01*
X012692D01*
X012578Y042968D01*
X01247Y042923D01*
X012374Y042859D01*
X012291Y042776D01*
X012227Y04268D01*
X012182Y042572D01*
X012159Y042458D01*
Y042342D01*
X012182Y042228D01*
X012227Y04212D01*
X012291Y042024D01*
X012374Y041941D01*
X01247Y041877D01*
X012578Y041832D01*
X012692Y041809D01*
X012808D01*
X012922Y041832D01*
X012961Y041848D01*
X014409Y0404D01*
Y02875D01*
Y021348D01*
X014427Y021256D01*
X01448Y021178D01*
X014618Y02104D01*
X014696Y020987D01*
X014788Y020969D01*
X01953D01*
X019599Y0209D01*
Y018875D01*
X019617Y018783D01*
X01967Y018705D01*
X019795Y01858D01*
X019873Y018527D01*
X019965Y018509D01*
X020635D01*
X020648Y018489D01*
X020696Y018457D01*
X020753Y018446D01*
X021213D01*
X02127Y018457D01*
X021318Y018489D01*
X021332Y018509D01*
X021609D01*
Y017193D01*
X021535D01*
Y016407D01*
X021575D01*
X02158Y016389D01*
X021543Y016343D01*
X021535D01*
Y015557D01*
X021584D01*
Y015507D01*
X021574Y015501D01*
X021505Y015432D01*
X021457Y015348D01*
X021432Y015255D01*
Y015158D01*
X021457Y015064D01*
X021488Y015011D01*
X021459Y014961D01*
X019441D01*
Y015683D01*
X019443Y015684D01*
X019516Y015757D01*
X019524Y015771D01*
X019574Y015757D01*
Y015587D01*
X020401D01*
Y016413D01*
X019574D01*
Y016243D01*
X019524Y016229D01*
X019516Y016243D01*
X019443Y016316D01*
X019353Y016368D01*
X019252Y016395D01*
X01925D01*
Y016D01*
X0192D01*
Y01595D01*
X018805D01*
Y015948D01*
X018832Y015847D01*
X018884Y015757D01*
X018957Y015684D01*
X018959Y015683D01*
Y01475D01*
Y013973D01*
X01843Y013443D01*
X018377Y013365D01*
X018359Y013273D01*
Y012922D01*
X018249Y012858D01*
X018142Y012751D01*
X018067Y012621D01*
X018028Y012475D01*
Y01245D01*
X019172D01*
Y012475D01*
X019133Y012621D01*
X019058Y012751D01*
X018951Y012858D01*
X018841Y012922D01*
Y013173D01*
X01937Y013703D01*
X019423Y013781D01*
X019441Y013873D01*
Y014479D01*
X022509D01*
Y013D01*
X022528Y012908D01*
X02258Y01283D01*
X022911Y012499D01*
X022878Y012375D01*
Y01235D01*
X0234D01*
Y012872D01*
X023375D01*
X023251Y012839D01*
X022991Y0131D01*
Y01472D01*
Y015575D01*
X023047D01*
Y0159D01*
X02275D01*
X022453D01*
Y015575D01*
X022509D01*
Y014961D01*
X022141D01*
X022112Y015011D01*
X022143Y015064D01*
X022168Y015158D01*
Y015255D01*
X022143Y015348D01*
X022095Y015432D01*
X022066Y015461D01*
Y015557D01*
X022165D01*
Y016343D01*
X022134D01*
X022127Y016357D01*
X022159Y016407D01*
X022165D01*
Y017193D01*
X022091D01*
Y018625D01*
X022073Y018717D01*
X02202Y018795D01*
X021895Y01892D01*
X021817Y018973D01*
X021725Y018991D01*
X021332D01*
X021318Y019011D01*
X02127Y019043D01*
X021213Y019054D01*
X020753D01*
X020696Y019043D01*
X020648Y019011D01*
X020635Y018991D01*
X020081D01*
Y020537D01*
X020119Y020548D01*
X020131Y020549D01*
X02025Y02043D01*
X020328Y020377D01*
X02042Y020359D01*
X020675D01*
Y020303D01*
X020798D01*
X020808Y020253D01*
X020761Y020182D01*
X020742Y02009D01*
Y019935D01*
X020703Y019927D01*
X020661Y019899D01*
X020633Y019857D01*
X020623Y019807D01*
Y019702D01*
X020983D01*
X021343D01*
Y019807D01*
X021334Y019857D01*
X021305Y019899D01*
X021263Y019927D01*
X021224Y019935D01*
Y019992D01*
X021273Y020065D01*
X021291Y020157D01*
Y020303D01*
X021425D01*
Y020305D01*
X021453Y020317D01*
X021475Y020303D01*
Y020303D01*
X0218D01*
Y0206D01*
Y020897D01*
X021475D01*
Y020894D01*
X021435Y020888D01*
X021425Y020897D01*
Y020897D01*
X0211D01*
Y0206D01*
X021D01*
Y020897D01*
X020675D01*
Y020841D01*
X020541D01*
Y022083D01*
X020591Y022098D01*
X020598Y022088D01*
X020646Y022056D01*
X020675Y02205D01*
Y021977D01*
X020684Y02191D01*
X020702Y021865D01*
X020677Y021815D01*
X020657D01*
Y021185D01*
X021407D01*
X021443Y021185D01*
Y021185D01*
X021457Y021185D01*
Y021185D01*
X022243D01*
Y021185D01*
X022257D01*
Y021185D01*
X023043D01*
Y021185D01*
X023057Y021185D01*
Y021185D01*
X023093Y021185D01*
X023843D01*
Y021242D01*
X024143D01*
X024182Y021203D01*
Y011607D01*
X024157Y011582D01*
X022533D01*
X022041Y012074D01*
Y012891D01*
X020859D01*
Y011709D01*
X021676D01*
X022243Y011142D01*
X022297Y0111D01*
X022332Y011086D01*
X022339Y011061D01*
X022336Y01103D01*
X022274Y010995D01*
X022205Y010926D01*
X022157Y010842D01*
X022132Y010748D01*
Y010652D01*
X022157Y010558D01*
X022205Y010474D01*
X022274Y010405D01*
X022358Y010357D01*
X022452Y010332D01*
X022548D01*
X022642Y010357D01*
X022726Y010405D01*
X02278Y010459D01*
X02417D01*
X024224Y010405D01*
X024308Y010357D01*
X024402Y010332D01*
X024498D01*
X024592Y010357D01*
X024676Y010405D01*
X024745Y010474D01*
X024793Y010558D01*
X024818Y010652D01*
Y010748D01*
X024793Y010842D01*
X024745Y010926D01*
X024676Y010995D01*
X024592Y011043D01*
X024498Y011068D01*
X024433D01*
X024416Y011118D01*
X024447Y011142D01*
X024623Y011317D01*
X024664Y011371D01*
X024689Y011433D01*
X024698Y0115D01*
Y02131D01*
X024689Y021377D01*
X024664Y021439D01*
X024623Y021492D01*
X024433Y021682D01*
X024379Y021724D01*
X024317Y021749D01*
X02425Y021758D01*
X023843D01*
Y021815D01*
X023057D01*
Y021815D01*
X023043Y021815D01*
Y021815D01*
X023007Y021815D01*
X022257D01*
Y021815D01*
X022243D01*
Y021815D01*
X021493D01*
X021457Y021815D01*
Y021815D01*
X021443Y021815D01*
Y021815D01*
X021308D01*
Y02186D01*
X021299Y021927D01*
X021274Y021989D01*
X021252Y022017D01*
X021258Y022078D01*
X021262Y022083D01*
X021268Y022088D01*
X021301Y022136D01*
X021312Y022193D01*
Y022504D01*
X021301Y022561D01*
X021268Y022609D01*
X02122Y022641D01*
X021163Y022652D01*
X020703D01*
X020646Y022641D01*
X020598Y022609D01*
X020591Y022599D01*
X020541Y022614D01*
Y022985D01*
X020591Y023D01*
X020598Y022989D01*
X020646Y022957D01*
X020703Y022946D01*
X021163D01*
X02122Y022957D01*
X021268Y022989D01*
X021282Y023009D01*
X022575D01*
X022667Y023027D01*
X022745Y02308D01*
X02287Y023205D01*
X022922Y023283D01*
X022941Y023375D01*
Y024607D01*
X023015D01*
Y025357D01*
Y026143D01*
X022941D01*
Y026509D01*
X023192D01*
X023239Y026462D01*
X023317Y026409D01*
X023409Y026391D01*
X023728D01*
X023788Y026332D01*
X023872Y026283D01*
X023965Y026258D01*
X024062D01*
X024156Y026283D01*
X024209Y026314D01*
X024259Y026285D01*
Y0256D01*
X024088Y025428D01*
X024012D01*
X023918Y025403D01*
X023834Y025355D01*
X023765Y025286D01*
X023717Y025202D01*
X023692Y025108D01*
Y025012D01*
X023717Y024918D01*
X023765Y024834D01*
X023834Y024765D01*
X023918Y024717D01*
X024012Y024692D01*
X024108D01*
X024202Y024717D01*
X024286Y024765D01*
X024355Y024834D01*
X024403Y024918D01*
X024428Y025012D01*
Y025087D01*
X02467Y02533D01*
X024723Y025408D01*
X024741Y0255D01*
Y0347D01*
X025984Y035943D01*
X025988Y035942D01*
X026025Y035914D01*
X025997Y03581D01*
Y03569D01*
X026028Y035575D01*
X026088Y035472D01*
X026172Y035388D01*
X026275Y035328D01*
X02639Y035297D01*
X02651D01*
X026625Y035328D01*
X026728Y035388D01*
X026812Y035472D01*
X026872Y035575D01*
X026903Y03569D01*
Y03581D01*
X026875Y035914D01*
X026912Y035942D01*
X026916Y035943D01*
X027862Y034997D01*
Y034922D01*
X027887Y034828D01*
X027935Y034744D01*
X028004Y034675D01*
X028088Y034627D01*
X028182Y034602D01*
X028278D01*
X028372Y034627D01*
X028456Y034675D01*
X028525Y034744D01*
X028573Y034828D01*
X028598Y034922D01*
Y035018D01*
X028573Y035112D01*
X028525Y035196D01*
X028456Y035265D01*
X028372Y035313D01*
X028278Y035338D01*
X028203D01*
X027311Y03623D01*
Y036478D01*
X027361Y036499D01*
X028637Y035222D01*
X028633Y035205D01*
Y035095D01*
X028661Y034989D01*
X028716Y034894D01*
X028794Y034816D01*
X028889Y034761D01*
X028995Y034733D01*
X029105D01*
X029211Y034761D01*
X029306Y034816D01*
X029384Y034894D01*
X029439Y034989D01*
X029467Y035095D01*
Y035205D01*
X029439Y035311D01*
X029384Y035406D01*
X029306Y035484D01*
X029211Y035539D01*
X029105Y035567D01*
X028995D01*
X028978Y035563D01*
X028761Y03578D01*
X028794Y035816D01*
X028889Y035761D01*
X028995Y035733D01*
X029105D01*
X029211Y035761D01*
X029306Y035816D01*
X029384Y035894D01*
X029439Y035989D01*
X029467Y036095D01*
Y036205D01*
X029463Y036222D01*
X02976Y03652D01*
X029813Y036598D01*
X029831Y03669D01*
Y03851D01*
X029813Y038602D01*
X02976Y03868D01*
X029091Y03935D01*
Y045709D01*
X029441D01*
X029444Y045701D01*
X029523Y045598D01*
X029626Y045519D01*
X029729Y045477D01*
Y045423D01*
X029626Y045381D01*
X029523Y045302D01*
X029444Y045199D01*
X029395Y045079D01*
X029378Y04495D01*
X029395Y044821D01*
X029444Y044701D01*
X029523Y044598D01*
X029626Y044519D01*
X029729Y044477D01*
Y044423D01*
X029626Y044381D01*
X029523Y044302D01*
X029444Y044199D01*
X029395Y044079D01*
X029378Y04395D01*
X029395Y043821D01*
X029444Y043701D01*
X029523Y043598D01*
X029626Y043519D01*
X029729Y043477D01*
Y043423D01*
X029626Y043381D01*
X029523Y043302D01*
X029444Y043199D01*
X029395Y043079D01*
X029378Y04295D01*
X029395Y042821D01*
X029444Y042701D01*
X029523Y042598D01*
X029626Y042519D01*
X029729Y042477D01*
Y042423D01*
X029626Y042381D01*
X029523Y042302D01*
X029444Y042199D01*
X029395Y042079D01*
X029378Y04195D01*
X029395Y041821D01*
X029444Y041701D01*
X029523Y041598D01*
X029626Y041519D01*
X029729Y041477D01*
Y041423D01*
X029626Y041381D01*
X029523Y041302D01*
X029444Y041199D01*
X029395Y041079D01*
X029378Y04095D01*
X029395Y040821D01*
X029444Y040701D01*
X029523Y040598D01*
X029626Y040519D01*
X029689Y040493D01*
X02968Y040443D01*
X029382D01*
Y039457D01*
X030399D01*
Y03675D01*
X02992Y03627D01*
X029867Y036192D01*
X029849Y0361D01*
Y03429D01*
X02942Y033861D01*
X029384Y033894D01*
X029439Y033989D01*
X029467Y034095D01*
Y034205D01*
X029439Y034311D01*
X029384Y034406D01*
X029306Y034484D01*
X029211Y034539D01*
X029105Y034567D01*
X028995D01*
X028889Y034539D01*
X028794Y034484D01*
X028716Y034406D01*
X028661Y034311D01*
X028633Y034205D01*
Y034095D01*
X028661Y033989D01*
X028716Y033894D01*
X028794Y033816D01*
X028889Y033761D01*
X028995Y033733D01*
X029105D01*
X029211Y033761D01*
X029306Y033816D01*
X029339Y03378D01*
X029122Y033563D01*
X029105Y033567D01*
X028995D01*
X028889Y033539D01*
X028794Y033484D01*
X028716Y033406D01*
X028661Y033311D01*
X028633Y033205D01*
Y033095D01*
X028661Y032989D01*
X028716Y032894D01*
X028794Y032816D01*
X028889Y032761D01*
X028995Y032733D01*
X029105D01*
X029211Y032761D01*
X029306Y032816D01*
X029384Y032894D01*
X029439Y032989D01*
X029467Y033095D01*
Y033205D01*
X029463Y033222D01*
X03026Y03402D01*
X030313Y034098D01*
X030331Y03419D01*
Y0354D01*
X030379Y035417D01*
X030409Y035393D01*
Y03009D01*
X0304Y030081D01*
X030329D01*
X030295Y030125D01*
X030212Y030189D01*
X030114Y03023D01*
X03001Y030243D01*
X02993D01*
Y02984D01*
X02983D01*
Y030243D01*
X02975D01*
X029646Y03023D01*
X029548Y030189D01*
X029465Y030125D01*
X029418Y030064D01*
X029391Y030063D01*
X02936Y030068D01*
X029298Y030148D01*
X029211Y030215D01*
X029109Y030257D01*
X029Y030272D01*
X02874D01*
X028631Y030257D01*
X028529Y030215D01*
X028442Y030148D01*
X028375Y030061D01*
X028333Y029959D01*
X028318Y02985D01*
X028333Y029741D01*
X028375Y029639D01*
X028442Y029552D01*
X028529Y029485D01*
X028629Y029443D01*
Y029257D01*
X028529Y029215D01*
X028442Y029148D01*
X028375Y029061D01*
X028333Y028959D01*
X028318Y02885D01*
X028333Y028741D01*
X028375Y028639D01*
X028442Y028552D01*
X028529Y028485D01*
X028631Y028443D01*
X02874Y028428D01*
X029D01*
X029109Y028443D01*
X029211Y028485D01*
X029298Y028552D01*
X029353Y028623D01*
X029365Y028627D01*
X029402Y028627D01*
X029413Y028623D01*
X029465Y028555D01*
X029548Y028491D01*
X029646Y02845D01*
X02975Y028437D01*
X02983D01*
Y02884D01*
X02988D01*
Y02889D01*
X030407D01*
X0304Y028944D01*
X030359Y029042D01*
X030295Y029125D01*
X030212Y029189D01*
X030121Y029227D01*
Y029453D01*
X030212Y029491D01*
X030295Y029555D01*
X030329Y029599D01*
X0305D01*
X030592Y029617D01*
X03067Y02967D01*
X03082Y02982D01*
X030849Y029863D01*
X030899Y029848D01*
Y028086D01*
X030337D01*
X030293Y028143D01*
X030206Y02821D01*
X030104Y028252D01*
X029995Y028267D01*
X029735D01*
X029626Y028252D01*
X029524Y02821D01*
X029437Y028143D01*
X029405Y028101D01*
X029342D01*
X029298Y028158D01*
X029211Y028225D01*
X029109Y028267D01*
X029Y028282D01*
X02874D01*
X028631Y028267D01*
X028529Y028225D01*
X028442Y028158D01*
X028375Y028071D01*
X028333Y027969D01*
X028318Y02786D01*
X028333Y027751D01*
X028375Y027649D01*
X028442Y027562D01*
X028529Y027495D01*
X028631Y027453D01*
X02874Y027438D01*
X029D01*
X029109Y027453D01*
X029211Y027495D01*
X029298Y027562D01*
X02933Y027604D01*
X029393D01*
X029437Y027547D01*
X029524Y02748D01*
X029626Y027438D01*
X029709Y027427D01*
Y027256D01*
X029641Y027247D01*
X029539Y027205D01*
X029452Y027138D01*
X029397Y027067D01*
X02937Y027064D01*
X029349Y027066D01*
X029338Y02707D01*
X029278Y027148D01*
X029191Y027215D01*
X029089Y027257D01*
X02898Y027272D01*
X02872D01*
X028611Y027257D01*
X028509Y027215D01*
X028422Y027148D01*
X028355Y027061D01*
X028313Y026959D01*
X028298Y02685D01*
X028313Y026741D01*
X028355Y026639D01*
X028422Y026552D01*
X028509Y026485D01*
X028611Y026443D01*
X02872Y026428D01*
X02898D01*
X029089Y026443D01*
X029191Y026485D01*
X029278Y026552D01*
X029333Y026623D01*
X02936Y026626D01*
X029381Y026624D01*
X029392Y02662D01*
X029452Y026542D01*
X029539Y026475D01*
X029641Y026433D01*
X02975Y026418D01*
X03001D01*
X030119Y026433D01*
X030221Y026475D01*
X030308Y026542D01*
X030375Y026629D01*
X030417Y026731D01*
X030432Y02684D01*
X030417Y026949D01*
X030375Y027051D01*
X030308Y027138D01*
X030221Y027205D01*
X030191Y027218D01*
Y027474D01*
X030206Y02748D01*
X030293Y027547D01*
X030337Y027604D01*
X031D01*
X031092Y027622D01*
X03117Y027675D01*
X03131Y027815D01*
X031363Y027893D01*
X031381Y027985D01*
Y03519D01*
X03145Y035259D01*
X03155D01*
X031602Y035191D01*
X031692Y035122D01*
X031798Y035078D01*
X031911Y035063D01*
X031989D01*
X032102Y035078D01*
X032208Y035122D01*
X032298Y035191D01*
X032368Y035282D01*
X032411Y035387D01*
X032426Y0355D01*
X032411Y035613D01*
X032368Y035718D01*
X032298Y035809D01*
X032208Y035878D01*
X032102Y035922D01*
X031989Y035937D01*
X031911D01*
X031798Y035922D01*
X031692Y035878D01*
X031602Y035809D01*
X03155Y035741D01*
X03135D01*
X031258Y035723D01*
X03118Y03567D01*
X031027Y035518D01*
X030983Y035544D01*
X030999Y035605D01*
X03065D01*
Y035655D01*
X0306D01*
Y036004D01*
X030515Y035981D01*
X030435Y035935D01*
X030381Y035881D01*
X030331Y035896D01*
Y036D01*
X03081Y03648D01*
X030863Y036558D01*
X030881Y03665D01*
Y04656D01*
X030863Y046652D01*
X03081Y04673D01*
X0305Y04704D01*
X030422Y047093D01*
X03033Y047111D01*
D02*
G37*
G36*
X041375Y046951D02*
X03947D01*
X039378Y046933D01*
X0393Y04688D01*
X03897Y04655D01*
X038917Y046472D01*
X038899Y04638D01*
Y03937D01*
X038855Y039326D01*
X038807Y039242D01*
X038782Y039148D01*
Y039052D01*
X038807Y038958D01*
X038855Y038874D01*
X038924Y038805D01*
X039008Y038757D01*
X039102Y038732D01*
X039198D01*
X039292Y038757D01*
X039376Y038805D01*
X039445Y038874D01*
X039493Y038958D01*
X039518Y039052D01*
Y039148D01*
X039493Y039242D01*
X039445Y039326D01*
X039381Y03939D01*
Y04628D01*
X03957Y046469D01*
X040335D01*
Y045707D01*
X040409D01*
Y045393D01*
X040335D01*
Y044607D01*
X040409D01*
Y04439D01*
X040303Y044284D01*
X040268Y044293D01*
X040152D01*
X040039Y044263D01*
X039938Y044205D01*
X039855Y044122D01*
X039797Y044021D01*
X039767Y043908D01*
Y043792D01*
X039797Y043679D01*
X039855Y043578D01*
X039938Y043495D01*
X039969Y043477D01*
Y041493D01*
X039767D01*
Y040607D01*
X040653D01*
Y041493D01*
X040451D01*
Y043477D01*
X040482Y043495D01*
X040565Y043578D01*
X040623Y043679D01*
X040653Y043792D01*
Y043908D01*
X040644Y043943D01*
X04082Y04412D01*
X040872Y044198D01*
X040891Y04429D01*
Y044607D01*
X040965D01*
Y045393D01*
X040891D01*
Y045707D01*
X040965D01*
Y046469D01*
X041235D01*
Y045707D01*
X041865D01*
Y046493D01*
X041791D01*
Y046535D01*
X041772Y046627D01*
X04172Y046705D01*
X041545Y04688D01*
X041467Y046933D01*
X041375Y046951D01*
D02*
G37*
G36*
X01805Y045547D02*
X017725D01*
Y045476D01*
X01771Y045472D01*
X017632Y04542D01*
X017617Y045405D01*
X017442D01*
Y045138D01*
Y044871D01*
X017728D01*
Y044905D01*
X017782Y044915D01*
X017839Y044953D01*
X01805D01*
Y04525D01*
Y045547D01*
D02*
G37*
G36*
X0264Y045185D02*
X026393D01*
X026282Y045155D01*
X026183Y045098D01*
X026102Y045017D01*
X026045Y044918D01*
X026015Y044807D01*
Y0448D01*
X0264D01*
Y045185D01*
D02*
G37*
G36*
X024Y044713D02*
X02388D01*
X023765Y044682D01*
X023662Y044622D01*
X023578Y044538D01*
X023518Y044435D01*
X023487Y04432D01*
Y0442D01*
X023518Y044085D01*
X023578Y043982D01*
X023662Y043898D01*
X023765Y043838D01*
X02388Y043807D01*
X024D01*
X024115Y043838D01*
X024218Y043898D01*
X024302Y043982D01*
X024362Y044085D01*
X024393Y0442D01*
Y04432D01*
X024362Y044435D01*
X024302Y044538D01*
X024218Y044622D01*
X024115Y044682D01*
X024Y044713D01*
D02*
G37*
G36*
X023D02*
X02288D01*
X022765Y044682D01*
X022662Y044622D01*
X022578Y044538D01*
X022518Y044435D01*
X022487Y04432D01*
Y0442D01*
X022518Y044085D01*
X022578Y043982D01*
X022662Y043898D01*
X022765Y043838D01*
X02288Y043807D01*
X023D01*
X023115Y043838D01*
X023218Y043898D01*
X023302Y043982D01*
X023362Y044085D01*
X023393Y0442D01*
Y04432D01*
X023362Y044435D01*
X023302Y044538D01*
X023218Y044622D01*
X023115Y044682D01*
X023Y044713D01*
D02*
G37*
G36*
X01541Y045903D02*
X01529D01*
X015175Y045872D01*
X015072Y045812D01*
X014988Y045728D01*
X014928Y045625D01*
X014897Y04551D01*
Y04539D01*
X014928Y045275D01*
X014988Y045172D01*
X015072Y045088D01*
X015175Y045028D01*
X01529Y044997D01*
X01541D01*
X015451Y045008D01*
X015878Y044582D01*
X015956Y04453D01*
X016048Y044511D01*
X016054D01*
Y044467D01*
X016659D01*
Y042523D01*
X016609Y042513D01*
X016607Y042518D01*
X016538Y042609D01*
X016447Y042678D01*
X016342Y042722D01*
X016229Y042737D01*
X016071D01*
X015958Y042722D01*
X015853Y042678D01*
X015762Y042609D01*
X01571Y042541D01*
X01435D01*
X014331Y04256D01*
Y044741D01*
X014313Y044834D01*
X01426Y044912D01*
X013823Y045349D01*
X013834Y04539D01*
Y04551D01*
X013803Y045625D01*
X013744Y045728D01*
X013659Y045812D01*
X013556Y045872D01*
X013441Y045903D01*
X013322D01*
X013207Y045872D01*
X013103Y045812D01*
X013019Y045728D01*
X01296Y045625D01*
X012929Y04551D01*
Y04539D01*
X01296Y045275D01*
X013019Y045172D01*
X013103Y045088D01*
X013207Y045028D01*
X013322Y044997D01*
X013441D01*
X013482Y045008D01*
X013849Y044642D01*
Y04246D01*
X013867Y042368D01*
X01392Y04229D01*
X01408Y04213D01*
X014158Y042077D01*
X01425Y042059D01*
X01571D01*
X015762Y041991D01*
X015853Y041922D01*
X015958Y041878D01*
X016071Y041863D01*
X016229D01*
X016342Y041878D01*
X016447Y041922D01*
X016538Y041991D01*
X016607Y042082D01*
X016609Y042087D01*
X016659Y042077D01*
Y041541D01*
X016567D01*
X016525Y041596D01*
X016438Y041662D01*
X016337Y041704D01*
X016229Y041719D01*
X0162D01*
Y0413D01*
Y040881D01*
X016229D01*
X016337Y040896D01*
X016438Y040938D01*
X016525Y041004D01*
X016567Y041059D01*
X01678D01*
X016872Y041077D01*
X01695Y04113D01*
X01707Y04125D01*
X017123Y041328D01*
X017141Y04142D01*
Y044095D01*
X017707D01*
Y044035D01*
X018457D01*
X018493Y044035D01*
Y044035D01*
X018507Y044035D01*
Y044035D01*
X019293D01*
Y044665D01*
X018543D01*
X018507Y044665D01*
Y044665D01*
X018493Y044665D01*
Y044665D01*
X017744D01*
Y044665D01*
X017141D01*
Y044871D01*
X017342D01*
Y045138D01*
Y045405D01*
X017056D01*
Y045379D01*
X017038D01*
X016946Y045361D01*
X016868Y045308D01*
X01673Y04517D01*
X016677Y045092D01*
X016667Y045037D01*
X016103D01*
X015792Y045349D01*
X015803Y04539D01*
Y04551D01*
X015772Y045625D01*
X015712Y045728D01*
X015628Y045812D01*
X015525Y045872D01*
X01541Y045903D01*
D02*
G37*
G36*
X02052Y043203D02*
X0204D01*
X020285Y043172D01*
X020182Y043112D01*
X020098Y043028D01*
X020038Y042925D01*
X020007Y04281D01*
Y04269D01*
X020038Y042575D01*
X020098Y042472D01*
X020182Y042388D01*
X020285Y042328D01*
X0204Y042297D01*
X02052D01*
X020635Y042328D01*
X020738Y042388D01*
X020822Y042472D01*
X020882Y042575D01*
X020913Y04269D01*
Y04281D01*
X020882Y042925D01*
X020822Y043028D01*
X020738Y043112D01*
X020635Y043172D01*
X02052Y043203D01*
D02*
G37*
G36*
X0161Y041719D02*
X016071D01*
X015963Y041704D01*
X015862Y041662D01*
X015775Y041596D01*
X015709Y041509D01*
X015667Y041408D01*
X015659Y04135D01*
X0161D01*
Y041719D01*
D02*
G37*
G36*
X02651Y042203D02*
X02639D01*
X026275Y042172D01*
X026172Y042112D01*
X026088Y042028D01*
X026028Y041925D01*
X025997Y04181D01*
Y04169D01*
X026028Y041575D01*
X026088Y041472D01*
X026172Y041388D01*
X026275Y041328D01*
X02639Y041297D01*
X02651D01*
X026625Y041328D01*
X026728Y041388D01*
X026812Y041472D01*
X026872Y041575D01*
X026903Y04169D01*
Y04181D01*
X026872Y041925D01*
X026812Y042028D01*
X026728Y042112D01*
X026625Y042172D01*
X02651Y042203D01*
D02*
G37*
G36*
X02052D02*
X0204D01*
X020285Y042172D01*
X020182Y042112D01*
X020098Y042028D01*
X020038Y041925D01*
X020007Y04181D01*
Y04169D01*
X020038Y041575D01*
X020098Y041472D01*
X020182Y041388D01*
X020285Y041328D01*
X0204Y041297D01*
X02052D01*
X020635Y041328D01*
X020738Y041388D01*
X020822Y041472D01*
X020882Y041575D01*
X020913Y04169D01*
Y04181D01*
X020882Y041925D01*
X020822Y042028D01*
X020738Y042112D01*
X020635Y042172D01*
X02052Y042203D01*
D02*
G37*
G36*
X0161Y04125D02*
X015659D01*
X015667Y041192D01*
X015709Y041091D01*
X015775Y041004D01*
X015862Y040938D01*
X015963Y040896D01*
X016071Y040881D01*
X0161D01*
Y04125D01*
D02*
G37*
G36*
X012825Y040972D02*
X0128D01*
Y04045D01*
X013322D01*
Y040475D01*
X013283Y040621D01*
X013208Y040751D01*
X013101Y040858D01*
X012971Y040933D01*
X012825Y040972D01*
D02*
G37*
G36*
X0127D02*
X012675D01*
X012529Y040933D01*
X012399Y040858D01*
X012292Y040751D01*
X012217Y040621D01*
X012178Y040475D01*
Y04045D01*
X0127D01*
Y040972D01*
D02*
G37*
G36*
X02052Y041203D02*
X0204D01*
X020285Y041172D01*
X020182Y041112D01*
X020098Y041028D01*
X020038Y040925D01*
X020007Y04081D01*
Y04069D01*
X020038Y040575D01*
X020098Y040472D01*
X020182Y040388D01*
X020285Y040328D01*
X0204Y040297D01*
X02052D01*
X020635Y040328D01*
X020738Y040388D01*
X020822Y040472D01*
X020882Y040575D01*
X020913Y04069D01*
Y04081D01*
X020882Y040925D01*
X020822Y041028D01*
X020738Y041112D01*
X020635Y041172D01*
X02052Y041203D01*
D02*
G37*
G36*
X013322Y04035D02*
X0128D01*
Y039828D01*
X012825D01*
X012971Y039867D01*
X013101Y039942D01*
X013208Y040049D01*
X013283Y040179D01*
X013322Y040325D01*
Y04035D01*
D02*
G37*
G36*
X011298Y041048D02*
X011202D01*
X011108Y041023D01*
X011024Y040975D01*
X010955Y040906D01*
X010907Y040822D01*
X010882Y040728D01*
Y040632D01*
X010907Y040538D01*
X010955Y040454D01*
X011009Y0404D01*
Y0294D01*
X011027Y029308D01*
X01108Y02923D01*
X012248Y028061D01*
X012232Y028022D01*
X012209Y027908D01*
Y027792D01*
X012232Y027678D01*
X012277Y02757D01*
X012341Y027474D01*
X012424Y027391D01*
X01252Y027327D01*
X012628Y027282D01*
X012742Y027259D01*
X012858D01*
X012972Y027282D01*
X01308Y027327D01*
X013176Y027391D01*
X013218Y027433D01*
X013268Y027412D01*
Y026288D01*
X013218Y026267D01*
X013176Y026309D01*
X01308Y026373D01*
X012972Y026418D01*
X012858Y026441D01*
X012742D01*
X012628Y026418D01*
X01252Y026373D01*
X012424Y026309D01*
X012341Y026226D01*
X012277Y02613D01*
X012261Y026091D01*
X01195D01*
X011791Y02625D01*
Y02682D01*
X011845Y026874D01*
X011893Y026958D01*
X011918Y027052D01*
Y027148D01*
X011893Y027242D01*
X011845Y027326D01*
X011776Y027395D01*
X011692Y027443D01*
X011598Y027468D01*
X011502D01*
X011408Y027443D01*
X011324Y027395D01*
X011255Y027326D01*
X011207Y027242D01*
X011182Y027148D01*
Y027052D01*
X011207Y026958D01*
X011255Y026874D01*
X011309Y02682D01*
Y02615D01*
X011327Y026058D01*
X01138Y02598D01*
X01168Y02568D01*
X011758Y025627D01*
X01185Y025609D01*
X012261D01*
X012277Y02557D01*
X012341Y025474D01*
X012424Y025391D01*
X01252Y025327D01*
X012628Y025282D01*
X012742Y025259D01*
X012858D01*
X012972Y025282D01*
X01308Y025327D01*
X013176Y025391D01*
X013218Y025433D01*
X013268Y025412D01*
Y024288D01*
X013218Y024267D01*
X013176Y024309D01*
X01308Y024373D01*
X012972Y024418D01*
X012858Y024441D01*
X012742D01*
X012628Y024418D01*
X01252Y024373D01*
X012424Y024309D01*
X012341Y024226D01*
X012277Y02413D01*
X012232Y024022D01*
X012209Y023908D01*
Y023792D01*
X012232Y023678D01*
X012277Y02357D01*
X012341Y023474D01*
X012424Y023391D01*
X01252Y023327D01*
X012628Y023282D01*
X012742Y023259D01*
X012858D01*
X012972Y023282D01*
X012995Y023292D01*
X013037Y023264D01*
Y022436D01*
X012995Y022408D01*
X012972Y022418D01*
X012858Y022441D01*
X012742D01*
X012628Y022418D01*
X01252Y022373D01*
X012424Y022309D01*
X012341Y022226D01*
X012277Y02213D01*
X012232Y022022D01*
X012209Y021908D01*
Y021792D01*
X012232Y021678D01*
X012277Y02157D01*
X012341Y021474D01*
X012424Y021391D01*
X01252Y021327D01*
X012628Y021282D01*
X012742Y021259D01*
X012858D01*
X012972Y021282D01*
X01308Y021327D01*
X013176Y021391D01*
X013218Y021433D01*
X013268Y021412D01*
Y020408D01*
X013011Y020152D01*
X012972Y020168D01*
X012858Y020191D01*
X012742D01*
X012628Y020168D01*
X01252Y020123D01*
X012424Y020059D01*
X012341Y019976D01*
X012277Y01988D01*
X012232Y019772D01*
X012209Y019658D01*
Y019542D01*
X012232Y019428D01*
X012277Y01932D01*
X012341Y019224D01*
X012424Y019141D01*
X01252Y019077D01*
X012628Y019032D01*
X012742Y019009D01*
X012858D01*
X012972Y019032D01*
X01308Y019077D01*
X013176Y019141D01*
X013259Y019224D01*
X013323Y01932D01*
X013368Y019428D01*
X013391Y019542D01*
Y019658D01*
X013368Y019772D01*
X013352Y019811D01*
X013609Y020068D01*
X013655Y020049D01*
Y014795D01*
X01305Y014191D01*
X012209D01*
Y013009D01*
X013391D01*
Y01385D01*
X014066Y014525D01*
X014118Y014604D01*
X014137Y014696D01*
Y022258D01*
X014118Y02235D01*
X014066Y022428D01*
X014055Y022439D01*
Y022496D01*
X014058Y022499D01*
X014107Y022583D01*
X014132Y022677D01*
Y022773D01*
X014107Y022867D01*
X014058Y022951D01*
X01399Y02302D01*
X013906Y023068D01*
X013812Y023093D01*
X013715D01*
X013622Y023068D01*
X013568Y023037D01*
X013518Y023066D01*
Y023226D01*
X013679Y023386D01*
X013731Y023464D01*
X01375Y023556D01*
Y028381D01*
X013731Y028473D01*
X013679Y028551D01*
X013309Y02892D01*
X013231Y028973D01*
X013139Y028991D01*
X012998D01*
X012761Y029228D01*
X012782Y029278D01*
X012875D01*
X013021Y029317D01*
X013151Y029392D01*
X013258Y029499D01*
X013333Y029629D01*
X013372Y029775D01*
Y0298D01*
X0128D01*
Y0299D01*
X013372D01*
Y029925D01*
X013333Y030071D01*
X013258Y030201D01*
X013151Y030308D01*
X013041Y030372D01*
Y030476D01*
X013237Y030672D01*
X013289Y03075D01*
X013307Y030842D01*
Y031375D01*
X013289Y031467D01*
X013237Y031545D01*
X013065Y031717D01*
X012987Y031769D01*
X012923Y031781D01*
X012922Y031832D01*
X01303Y031877D01*
X013126Y031941D01*
X013209Y032024D01*
X013273Y03212D01*
X013318Y032228D01*
X013341Y032342D01*
Y032458D01*
X013318Y032572D01*
X013273Y03268D01*
X013209Y032776D01*
X013126Y032859D01*
X01303Y032923D01*
X012922Y032968D01*
X012808Y032991D01*
X012692D01*
X012578Y032968D01*
X01247Y032923D01*
X012374Y032859D01*
X012331Y032816D01*
X012281Y032837D01*
Y033963D01*
X012331Y033984D01*
X012374Y033941D01*
X01247Y033877D01*
X012578Y033832D01*
X012692Y033809D01*
X012808D01*
X012922Y033832D01*
X01303Y033877D01*
X013126Y033941D01*
X013209Y034024D01*
X013273Y03412D01*
X013318Y034228D01*
X013341Y034342D01*
Y034458D01*
X013318Y034572D01*
X013273Y03468D01*
X013209Y034776D01*
X013126Y034859D01*
X01303Y034923D01*
X012922Y034968D01*
X012808Y034991D01*
X012692D01*
X012578Y034968D01*
X01247Y034923D01*
X012374Y034859D01*
X012331Y034816D01*
X012281Y034837D01*
Y035963D01*
X012331Y035984D01*
X012374Y035941D01*
X01247Y035877D01*
X012578Y035832D01*
X012692Y035809D01*
X012808D01*
X012922Y035832D01*
X01303Y035877D01*
X013126Y035941D01*
X013209Y036024D01*
X013273Y03612D01*
X013318Y036228D01*
X013341Y036342D01*
Y036458D01*
X013318Y036572D01*
X013273Y03668D01*
X013209Y036776D01*
X013126Y036859D01*
X01303Y036923D01*
X012922Y036968D01*
X012808Y036991D01*
X012692D01*
X012578Y036968D01*
X01247Y036923D01*
X012374Y036859D01*
X012331Y036816D01*
X012281Y036837D01*
Y037963D01*
X012331Y037984D01*
X012374Y037941D01*
X01247Y037877D01*
X012578Y037832D01*
X012692Y037809D01*
X012808D01*
X012922Y037832D01*
X01303Y037877D01*
X013126Y037941D01*
X013209Y038024D01*
X013273Y03812D01*
X013318Y038228D01*
X013341Y038342D01*
Y038458D01*
X013318Y038572D01*
X013273Y03868D01*
X013209Y038776D01*
X013126Y038859D01*
X01303Y038923D01*
X012922Y038968D01*
X012808Y038991D01*
X012692D01*
X012578Y038968D01*
X01247Y038923D01*
X012374Y038859D01*
X012331Y038816D01*
X012281Y038837D01*
Y03959D01*
X012551Y039861D01*
X012675Y039828D01*
X0127D01*
Y04035D01*
X012178D01*
Y040325D01*
X012211Y040201D01*
X01187Y03986D01*
X011817Y039782D01*
X011799Y03969D01*
Y03173D01*
X011817Y031638D01*
X01187Y03156D01*
X012053Y031376D01*
X012132Y031324D01*
X012224Y031305D01*
X012239D01*
X012268Y031255D01*
X012237Y031202D01*
X012212Y031108D01*
Y031033D01*
X011921Y030742D01*
X011869Y030663D01*
X01185Y030571D01*
Y029556D01*
X011869Y029464D01*
X011921Y029386D01*
X012727Y02858D01*
X012806Y028527D01*
X012898Y028509D01*
X013039D01*
X013186Y028362D01*
X013154Y028323D01*
X01308Y028373D01*
X012972Y028418D01*
X012858Y028441D01*
X012742D01*
X012628Y028418D01*
X012589Y028402D01*
X011491Y0295D01*
Y0404D01*
X011545Y040454D01*
X011593Y040538D01*
X011618Y040632D01*
Y040728D01*
X011593Y040822D01*
X011545Y040906D01*
X011476Y040975D01*
X011392Y041023D01*
X011298Y041048D01*
D02*
G37*
G36*
X02052Y040203D02*
X0204D01*
X020285Y040172D01*
X020182Y040112D01*
X020098Y040028D01*
X020038Y039925D01*
X020007Y03981D01*
Y03969D01*
X020038Y039575D01*
X020098Y039472D01*
X020182Y039388D01*
X020285Y039328D01*
X0204Y039297D01*
X02052D01*
X020635Y039328D01*
X020738Y039388D01*
X020822Y039472D01*
X020882Y039575D01*
X020913Y03969D01*
Y03981D01*
X020882Y039925D01*
X020822Y040028D01*
X020738Y040112D01*
X020635Y040172D01*
X02052Y040203D01*
D02*
G37*
G36*
X041865Y045393D02*
X041235D01*
Y044607D01*
X041309D01*
Y04429D01*
X041327Y044198D01*
X04138Y04412D01*
X041556Y043943D01*
X041547Y043908D01*
Y043792D01*
X041577Y043679D01*
X041635Y043578D01*
X041718Y043495D01*
X041749Y043477D01*
Y041423D01*
X041718Y041405D01*
X041635Y041322D01*
X041577Y041221D01*
X041547Y041108D01*
Y040992D01*
X041577Y040879D01*
X041635Y040778D01*
X041718Y040695D01*
X041749Y040677D01*
Y0403D01*
Y0386D01*
X04169Y038541D01*
X037865D01*
Y038693D01*
X037235D01*
Y037907D01*
X037309D01*
Y03729D01*
X037327Y037198D01*
X03738Y03712D01*
X037506Y036993D01*
X037497Y036958D01*
Y036842D01*
X037527Y036729D01*
X037585Y036628D01*
X037668Y036545D01*
X037699Y036527D01*
Y034473D01*
X037668Y034455D01*
X037585Y034372D01*
X037527Y034271D01*
X037497Y034158D01*
Y034042D01*
X037527Y033929D01*
X037585Y033828D01*
X037668Y033745D01*
X037769Y033687D01*
X037882Y033657D01*
X037998D01*
X038111Y033687D01*
X038212Y033745D01*
X038295Y033828D01*
X038353Y033929D01*
X038383Y034042D01*
Y034158D01*
X038353Y034271D01*
X038295Y034372D01*
X038212Y034455D01*
X038181Y034473D01*
Y036527D01*
X038212Y036545D01*
X038295Y036628D01*
X038353Y036729D01*
X038383Y036842D01*
Y036958D01*
X038353Y037071D01*
X038295Y037172D01*
X038212Y037255D01*
X038111Y037313D01*
X037998Y037343D01*
X037882D01*
X037847Y037334D01*
X037791Y03739D01*
Y037907D01*
X037865D01*
Y038059D01*
X04179D01*
X041882Y038077D01*
X04196Y03813D01*
X04216Y03833D01*
X042213Y038408D01*
X042231Y0385D01*
Y040059D01*
X045409D01*
Y039693D01*
X045335D01*
Y038907D01*
X045965D01*
Y038907D01*
X046009Y038893D01*
Y038507D01*
X045965Y038493D01*
Y038493D01*
X045335D01*
Y038047D01*
X045115Y037827D01*
X045065Y037848D01*
Y038493D01*
X044991D01*
Y038907D01*
X045065D01*
Y039693D01*
X044435D01*
Y038907D01*
X044509D01*
Y038493D01*
X044435D01*
Y037707D01*
X044509D01*
Y03749D01*
X044353Y037334D01*
X044318Y037343D01*
X044202D01*
X044089Y037313D01*
X043988Y037255D01*
X043905Y037172D01*
X043847Y037071D01*
X043817Y036958D01*
Y036842D01*
X043847Y036729D01*
X043905Y036628D01*
X043988Y036545D01*
X044019Y036527D01*
Y034543D01*
X043817D01*
Y033657D01*
X044703D01*
Y034543D01*
X044501D01*
Y036527D01*
X044532Y036545D01*
X044615Y036628D01*
X044673Y036729D01*
X044703Y036842D01*
Y036958D01*
X044694Y036993D01*
X04492Y03722D01*
X044959Y037278D01*
X045009Y037263D01*
Y02637D01*
X04318Y02454D01*
X043127Y024462D01*
X043109Y02437D01*
Y0213D01*
X04243Y02062D01*
X042377Y020542D01*
X042359Y02045D01*
Y015123D01*
X042298Y015077D01*
X042219Y014974D01*
X042177Y014871D01*
X042123D01*
X042081Y014974D01*
X042002Y015077D01*
X041899Y015156D01*
X041891Y015159D01*
Y0208D01*
X04273Y02164D01*
X042783Y021718D01*
X042801Y02181D01*
Y03181D01*
X042783Y031902D01*
X04273Y03198D01*
X04234Y03237D01*
X042262Y032423D01*
X04217Y032441D01*
X041965D01*
Y032593D01*
X041335D01*
Y031807D01*
X041965D01*
Y031959D01*
X04207D01*
X042319Y03171D01*
Y030313D01*
X042273Y030294D01*
X042262Y030305D01*
X042161Y030363D01*
X042048Y030393D01*
X041932D01*
X041891Y030434D01*
Y030807D01*
X041965D01*
Y031593D01*
X041335D01*
Y030807D01*
X041409D01*
Y03029D01*
X041427Y030198D01*
X04148Y03012D01*
X041556Y030043D01*
X041547Y030008D01*
Y029892D01*
X041577Y029779D01*
X041635Y029678D01*
X041718Y029595D01*
X041749Y029577D01*
Y027523D01*
X041718Y027505D01*
X041635Y027422D01*
X041577Y027321D01*
X041547Y027208D01*
Y027092D01*
X041577Y026979D01*
X041635Y026878D01*
X041718Y026795D01*
X041819Y026737D01*
X041932Y026707D01*
X042048D01*
X042161Y026737D01*
X042262Y026795D01*
X042273Y026806D01*
X042319Y026787D01*
Y02191D01*
X04148Y02107D01*
X041427Y020992D01*
X041409Y0209D01*
Y015159D01*
X041401Y015156D01*
X041298Y015077D01*
X041219Y014974D01*
X041177Y014871D01*
X041123D01*
X041081Y014974D01*
X041002Y015077D01*
X040899Y015156D01*
X040891Y015159D01*
Y01555D01*
X040873Y015642D01*
X04082Y01572D01*
X039741Y0168D01*
Y024697D01*
X039723Y024789D01*
X03967Y024867D01*
X039391Y025147D01*
Y03687D01*
X039445Y036924D01*
X039493Y037008D01*
X039518Y037102D01*
Y037198D01*
X039493Y037292D01*
X039445Y037376D01*
X039376Y037445D01*
X039292Y037493D01*
X039198Y037518D01*
X039102D01*
X039008Y037493D01*
X038924Y037445D01*
X038855Y037376D01*
X038807Y037292D01*
X038782Y037198D01*
Y037102D01*
X038807Y037008D01*
X038855Y036924D01*
X038909Y03687D01*
Y025047D01*
X038927Y024955D01*
X03898Y024877D01*
X039259Y024597D01*
Y0167D01*
X039277Y016608D01*
X03933Y01653D01*
X040409Y01545D01*
Y015159D01*
X040401Y015156D01*
X040298Y015077D01*
X040219Y014974D01*
X040177Y014871D01*
X040123D01*
X040081Y014974D01*
X040002Y015077D01*
X039899Y015156D01*
X039779Y015205D01*
X03965Y015222D01*
X039521Y015205D01*
X039401Y015156D01*
X039298Y015077D01*
X039219Y014974D01*
X039177Y014871D01*
X039123D01*
X039081Y014974D01*
X039002Y015077D01*
X038899Y015156D01*
X038779Y015205D01*
X03865Y015222D01*
X038521Y015205D01*
X038401Y015156D01*
X038298Y015077D01*
X038219Y014974D01*
X038177Y014871D01*
X038123D01*
X038081Y014974D01*
X038002Y015077D01*
X037899Y015156D01*
X037891Y015159D01*
Y01609D01*
X0381Y0163D01*
X038153Y016378D01*
X038171Y01647D01*
Y020377D01*
X038202Y020395D01*
X038285Y020478D01*
X038343Y020579D01*
X038373Y020692D01*
Y020808D01*
X038343Y020921D01*
X038285Y021022D01*
X038202Y021105D01*
X038171Y021123D01*
Y023177D01*
X038202Y023195D01*
X038285Y023278D01*
X038343Y023379D01*
X038373Y023492D01*
Y023608D01*
X038343Y023721D01*
X038285Y023822D01*
X038202Y023905D01*
X038101Y023963D01*
X037988Y023993D01*
X037872D01*
X037759Y023963D01*
X037658Y023905D01*
X037575Y023822D01*
X037517Y023721D01*
X037487Y023608D01*
Y023492D01*
X037517Y023379D01*
X037575Y023278D01*
X037658Y023195D01*
X037689Y023177D01*
Y021123D01*
X037658Y021105D01*
X037575Y021022D01*
X037517Y020921D01*
X037487Y020808D01*
Y020692D01*
X037517Y020579D01*
X037575Y020478D01*
X037658Y020395D01*
X037689Y020377D01*
Y019743D01*
X037135D01*
Y018957D01*
X037689D01*
Y018593D01*
X037085D01*
Y017807D01*
X037159D01*
Y017519D01*
X037012Y017371D01*
X036761D01*
X036722Y017393D01*
X036641Y017415D01*
X036559D01*
X036478Y017393D01*
X036407Y017352D01*
X036348Y017293D01*
X036307Y017222D01*
X036285Y017141D01*
Y017059D01*
X036307Y016978D01*
X036348Y016907D01*
X036407Y016848D01*
X036478Y016806D01*
X036559Y016785D01*
X036641D01*
X036722Y016806D01*
X036793Y016848D01*
X036835Y016889D01*
X037111D01*
X037203Y016908D01*
X037282Y01696D01*
X03757Y017249D01*
X037623Y017327D01*
X037639Y01741D01*
X037689Y017405D01*
Y01657D01*
X03748Y01636D01*
X037427Y016282D01*
X037409Y01619D01*
Y015159D01*
X037401Y015156D01*
X037298Y015077D01*
X037219Y014974D01*
X03717Y014854D01*
X037153Y014725D01*
Y014575D01*
X03717Y014446D01*
X037219Y014326D01*
X037298Y014223D01*
X037401Y014144D01*
X037521Y014095D01*
X03765Y014078D01*
X037779Y014095D01*
X037899Y014144D01*
X038002Y014223D01*
X038081Y014326D01*
X038123Y014429D01*
X038177D01*
X038219Y014326D01*
X038298Y014223D01*
X038401Y014144D01*
X038521Y014095D01*
X03865Y014078D01*
X038779Y014095D01*
X038899Y014144D01*
X039002Y014223D01*
X039081Y014326D01*
X039123Y014429D01*
X039177D01*
X039219Y014326D01*
X039298Y014223D01*
X039401Y014144D01*
X039521Y014095D01*
X03965Y014078D01*
X039779Y014095D01*
X039899Y014144D01*
X040002Y014223D01*
X040081Y014326D01*
X040123Y014429D01*
X040177D01*
X040219Y014326D01*
X040298Y014223D01*
X040401Y014144D01*
X040521Y014095D01*
X04065Y014078D01*
X040779Y014095D01*
X040899Y014144D01*
X041002Y014223D01*
X041081Y014326D01*
X041123Y014429D01*
X041177D01*
X041219Y014326D01*
X041298Y014223D01*
X041401Y014144D01*
X041521Y014095D01*
X04165Y014078D01*
X041779Y014095D01*
X041899Y014144D01*
X042002Y014223D01*
X042081Y014326D01*
X042123Y014429D01*
X042177D01*
X042219Y014326D01*
X042298Y014223D01*
X042401Y014144D01*
X042521Y014095D01*
X04265Y014078D01*
X042779Y014095D01*
X042899Y014144D01*
X043002Y014223D01*
X043081Y014326D01*
X043107Y014389D01*
X043157Y01438D01*
Y014082D01*
X043409D01*
Y013491D01*
X03667D01*
X035821Y01434D01*
Y020307D01*
X036253D01*
X036309Y02025D01*
Y019743D01*
X036235D01*
Y018957D01*
X036309D01*
Y01889D01*
X036277Y018842D01*
X036259Y01875D01*
Y018593D01*
X036185D01*
Y017807D01*
X036815D01*
Y018593D01*
X036741D01*
Y01866D01*
X036772Y018708D01*
X036791Y0188D01*
Y018957D01*
X036865D01*
Y019743D01*
X036791D01*
Y02035D01*
X036772Y020442D01*
X03672Y02052D01*
X036593Y020647D01*
Y021193D01*
X036391D01*
Y023177D01*
X036422Y023195D01*
X036505Y023278D01*
X036563Y023379D01*
X036593Y023492D01*
Y023608D01*
X036563Y023721D01*
X036505Y023822D01*
X036422Y023905D01*
X036321Y023963D01*
X036208Y023993D01*
X036092D01*
X035979Y023963D01*
X035878Y023905D01*
X035867Y023894D01*
X035821Y023913D01*
Y033657D01*
X036603D01*
Y034543D01*
X036401D01*
Y036527D01*
X036432Y036545D01*
X036515Y036628D01*
X036573Y036729D01*
X036603Y036842D01*
Y036958D01*
X036594Y036993D01*
X03682Y03722D01*
X036873Y037298D01*
X036891Y03739D01*
Y037907D01*
X036965D01*
Y038693D01*
X036891D01*
Y039057D01*
X036965D01*
Y039729D01*
X037235D01*
Y039057D01*
X037865D01*
Y039843D01*
X037781D01*
X037773Y039887D01*
X03772Y039965D01*
X037545Y04014D01*
X037467Y040193D01*
X037375Y040211D01*
X03575D01*
X035658Y040193D01*
X03558Y04014D01*
X03541Y03997D01*
X035357Y039892D01*
X035339Y0398D01*
Y01424D01*
X035357Y014148D01*
X03541Y01407D01*
X0364Y01308D01*
X036478Y013027D01*
X03657Y013009D01*
X043512D01*
X043604Y013027D01*
X043682Y01308D01*
X04382Y013218D01*
X043873Y013296D01*
X043891Y013388D01*
Y014082D01*
X044143D01*
Y015218D01*
X043157D01*
Y01492D01*
X043107Y014911D01*
X043081Y014974D01*
X043002Y015077D01*
X042899Y015156D01*
X042841Y01518D01*
Y02035D01*
X04352Y02103D01*
X043573Y021108D01*
X043591Y0212D01*
Y02427D01*
X04542Y0261D01*
X045473Y026178D01*
X045491Y02627D01*
Y037522D01*
X045676Y037707D01*
X045891D01*
X04591Y037661D01*
X04587Y03762D01*
X045817Y037542D01*
X045799Y03745D01*
Y037273D01*
X045768Y037255D01*
X045685Y037172D01*
X045627Y037071D01*
X045597Y036958D01*
Y036842D01*
X045627Y036729D01*
X045685Y036628D01*
X045768Y036545D01*
X045799Y036527D01*
Y034473D01*
X045768Y034455D01*
X045685Y034372D01*
X045627Y034271D01*
X045597Y034158D01*
Y034042D01*
X045627Y033929D01*
X045685Y033828D01*
X045768Y033745D01*
X045869Y033687D01*
X045982Y033657D01*
X046098D01*
X046211Y033687D01*
X046312Y033745D01*
X046395Y033828D01*
X046453Y033929D01*
X046483Y034042D01*
Y034158D01*
X046453Y034271D01*
X046395Y034372D01*
X046312Y034455D01*
X046281Y034473D01*
Y036527D01*
X046312Y036545D01*
X046395Y036628D01*
X046453Y036729D01*
X046483Y036842D01*
Y036958D01*
X046453Y037071D01*
X046395Y037172D01*
X046312Y037255D01*
X046281Y037273D01*
Y03735D01*
X04642Y03749D01*
X046473Y037568D01*
X046491Y03766D01*
Y040162D01*
X046473Y040254D01*
X04642Y040332D01*
X046282Y04047D01*
X046204Y040523D01*
X046112Y040541D01*
X042231D01*
Y040677D01*
X042262Y040695D01*
X042345Y040778D01*
X042403Y040879D01*
X042433Y040992D01*
Y041108D01*
X042403Y041221D01*
X042345Y041322D01*
X042262Y041405D01*
X042231Y041423D01*
Y043477D01*
X042262Y043495D01*
X042345Y043578D01*
X042403Y043679D01*
X042433Y043792D01*
Y043908D01*
X042403Y044021D01*
X042345Y044122D01*
X042262Y044205D01*
X042161Y044263D01*
X042048Y044293D01*
X041932D01*
X041897Y044284D01*
X041791Y04439D01*
Y044607D01*
X041865D01*
Y045393D01*
D02*
G37*
G36*
X02052Y039203D02*
X0204D01*
X020285Y039172D01*
X020182Y039112D01*
X020098Y039028D01*
X020038Y038925D01*
X020007Y03881D01*
Y03869D01*
X020038Y038575D01*
X020098Y038472D01*
X020182Y038388D01*
X020285Y038328D01*
X0204Y038297D01*
X02052D01*
X020635Y038328D01*
X020738Y038388D01*
X020822Y038472D01*
X020882Y038575D01*
X020913Y03869D01*
Y03881D01*
X020882Y038925D01*
X020822Y039028D01*
X020738Y039112D01*
X020635Y039172D01*
X02052Y039203D01*
D02*
G37*
G36*
X016229Y038737D02*
X016071D01*
X015958Y038722D01*
X015853Y038678D01*
X015762Y038609D01*
X015693Y038518D01*
X015649Y038413D01*
X015634Y0383D01*
X015649Y038187D01*
X015693Y038082D01*
X015762Y037991D01*
X015853Y037922D01*
X015958Y037878D01*
X016071Y037863D01*
X016229D01*
X016342Y037878D01*
X016447Y037922D01*
X016538Y037991D01*
X016607Y038082D01*
X016651Y038187D01*
X016666Y0383D01*
X016651Y038413D01*
X016607Y038518D01*
X016538Y038609D01*
X016447Y038678D01*
X016342Y038722D01*
X016229Y038737D01*
D02*
G37*
G36*
X02052Y038203D02*
X0204D01*
X020285Y038172D01*
X020182Y038112D01*
X020098Y038028D01*
X020038Y037925D01*
X020007Y03781D01*
Y03769D01*
X020038Y037575D01*
X020098Y037472D01*
X020182Y037388D01*
X020285Y037328D01*
X0204Y037297D01*
X02052D01*
X020635Y037328D01*
X020738Y037388D01*
X020822Y037472D01*
X020882Y037575D01*
X020913Y03769D01*
Y03781D01*
X020882Y037925D01*
X020822Y038028D01*
X020738Y038112D01*
X020635Y038172D01*
X02052Y038203D01*
D02*
G37*
G36*
X016229Y037737D02*
X016071D01*
X015958Y037722D01*
X015853Y037678D01*
X015762Y037609D01*
X015693Y037518D01*
X015649Y037413D01*
X015634Y0373D01*
X015649Y037187D01*
X015693Y037082D01*
X015762Y036991D01*
X015853Y036922D01*
X015958Y036878D01*
X016071Y036863D01*
X016229D01*
X016342Y036878D01*
X016447Y036922D01*
X016538Y036991D01*
X016607Y037082D01*
X016651Y037187D01*
X016666Y0373D01*
X016651Y037413D01*
X016607Y037518D01*
X016538Y037609D01*
X016447Y037678D01*
X016342Y037722D01*
X016229Y037737D01*
D02*
G37*
G36*
X029Y0371D02*
X028651D01*
Y037097D01*
X028678Y036996D01*
X028731Y036905D01*
X028805Y036831D01*
X028896Y036778D01*
X028997Y036751D01*
X029D01*
Y0371D01*
D02*
G37*
G36*
X032Y036917D02*
Y03655D01*
X032401D01*
X032394Y036608D01*
X032352Y036709D01*
X032285Y036796D01*
X032199Y036862D01*
X032098Y036904D01*
X032Y036917D01*
D02*
G37*
G36*
X0319D02*
X031802Y036904D01*
X031701Y036862D01*
X031615Y036796D01*
X031548Y036709D01*
X031506Y036608D01*
X031499Y03655D01*
X0319D01*
Y036917D01*
D02*
G37*
G36*
X02052Y037203D02*
X0204D01*
X020285Y037172D01*
X020182Y037112D01*
X020098Y037028D01*
X020038Y036925D01*
X020007Y03681D01*
Y03669D01*
X020038Y036575D01*
X020098Y036472D01*
X020182Y036388D01*
X020285Y036328D01*
X0204Y036297D01*
X02052D01*
X020635Y036328D01*
X020738Y036388D01*
X020822Y036472D01*
X020882Y036575D01*
X020913Y03669D01*
Y03681D01*
X020882Y036925D01*
X020822Y037028D01*
X020738Y037112D01*
X020635Y037172D01*
X02052Y037203D01*
D02*
G37*
G36*
X032401Y03645D02*
X032D01*
Y036083D01*
X032098Y036096D01*
X032199Y036138D01*
X032285Y036204D01*
X032352Y036291D01*
X032394Y036392D01*
X032401Y03645D01*
D02*
G37*
G36*
X0319D02*
X031499D01*
X031506Y036392D01*
X031548Y036291D01*
X031615Y036204D01*
X031701Y036138D01*
X031802Y036096D01*
X0319Y036083D01*
Y03645D01*
D02*
G37*
G36*
X016229Y036737D02*
X016071D01*
X015958Y036722D01*
X015853Y036678D01*
X015762Y036609D01*
X015693Y036518D01*
X015649Y036413D01*
X015634Y0363D01*
X015649Y036187D01*
X015693Y036082D01*
X015762Y035991D01*
X015853Y035922D01*
X015958Y035878D01*
X016071Y035863D01*
X016229D01*
X016342Y035878D01*
X016447Y035922D01*
X016538Y035991D01*
X016607Y036082D01*
X016651Y036187D01*
X016666Y0363D01*
X016651Y036413D01*
X016607Y036518D01*
X016538Y036609D01*
X016447Y036678D01*
X016342Y036722D01*
X016229Y036737D01*
D02*
G37*
G36*
X0307Y036004D02*
Y035705D01*
X030999D01*
X030976Y03579D01*
X03093Y03587D01*
X030865Y035935D01*
X030785Y035981D01*
X0307Y036004D01*
D02*
G37*
G36*
X02052Y036203D02*
X0204D01*
X020285Y036172D01*
X020182Y036112D01*
X020098Y036028D01*
X020038Y035925D01*
X020007Y03581D01*
Y03569D01*
X020038Y035575D01*
X020098Y035472D01*
X020182Y035388D01*
X020285Y035328D01*
X0204Y035297D01*
X02052D01*
X020635Y035328D01*
X020738Y035388D01*
X020822Y035472D01*
X020882Y035575D01*
X020913Y03569D01*
Y03581D01*
X020882Y035925D01*
X020822Y036028D01*
X020738Y036112D01*
X020635Y036172D01*
X02052Y036203D01*
D02*
G37*
G36*
X016229Y035737D02*
X016071D01*
X015958Y035722D01*
X015853Y035678D01*
X015762Y035609D01*
X015693Y035518D01*
X015649Y035413D01*
X015634Y0353D01*
X015649Y035187D01*
X015693Y035082D01*
X015762Y034991D01*
X015853Y034922D01*
X015958Y034878D01*
X016071Y034863D01*
X016229D01*
X016342Y034878D01*
X016447Y034922D01*
X016538Y034991D01*
X016607Y035082D01*
X016651Y035187D01*
X016666Y0353D01*
X016651Y035413D01*
X016607Y035518D01*
X016538Y035609D01*
X016447Y035678D01*
X016342Y035722D01*
X016229Y035737D01*
D02*
G37*
G36*
X02651Y035203D02*
X02639D01*
X026275Y035172D01*
X026172Y035112D01*
X026088Y035028D01*
X026028Y034925D01*
X025997Y03481D01*
Y03469D01*
X026028Y034575D01*
X026088Y034472D01*
X026172Y034388D01*
X026275Y034328D01*
X02639Y034297D01*
X02651D01*
X026625Y034328D01*
X026728Y034388D01*
X026812Y034472D01*
X026872Y034575D01*
X026903Y03469D01*
Y03481D01*
X026872Y034925D01*
X026812Y035028D01*
X026728Y035112D01*
X026625Y035172D01*
X02651Y035203D01*
D02*
G37*
G36*
X02052D02*
X0204D01*
X020285Y035172D01*
X020182Y035112D01*
X020098Y035028D01*
X020038Y034925D01*
X020007Y03481D01*
Y03469D01*
X020038Y034575D01*
X020098Y034472D01*
X020182Y034388D01*
X020285Y034328D01*
X0204Y034297D01*
X02052D01*
X020635Y034328D01*
X020738Y034388D01*
X020822Y034472D01*
X020882Y034575D01*
X020913Y03469D01*
Y03481D01*
X020882Y034925D01*
X020822Y035028D01*
X020738Y035112D01*
X020635Y035172D01*
X02052Y035203D01*
D02*
G37*
G36*
X031989Y034937D02*
X031911D01*
X031798Y034922D01*
X031692Y034878D01*
X031602Y034809D01*
X031532Y034718D01*
X031489Y034613D01*
X031474Y0345D01*
X031489Y034387D01*
X031532Y034282D01*
X031602Y034191D01*
X031692Y034122D01*
X031798Y034078D01*
X031911Y034063D01*
X031989D01*
X032102Y034078D01*
X032208Y034122D01*
X032298Y034191D01*
X032368Y034282D01*
X032411Y034387D01*
X032426Y0345D01*
X032411Y034613D01*
X032368Y034718D01*
X032298Y034809D01*
X032208Y034878D01*
X032102Y034922D01*
X031989Y034937D01*
D02*
G37*
G36*
X016229Y034737D02*
X016071D01*
X015958Y034722D01*
X015853Y034678D01*
X015762Y034609D01*
X015693Y034518D01*
X015649Y034413D01*
X015634Y0343D01*
X015649Y034187D01*
X015693Y034082D01*
X015762Y033991D01*
X015853Y033922D01*
X015958Y033878D01*
X016071Y033863D01*
X016229D01*
X016342Y033878D01*
X016447Y033922D01*
X016538Y033991D01*
X016607Y034082D01*
X016651Y034187D01*
X016666Y0343D01*
X016651Y034413D01*
X016607Y034518D01*
X016538Y034609D01*
X016447Y034678D01*
X016342Y034722D01*
X016229Y034737D01*
D02*
G37*
G36*
X02052Y034203D02*
X0204D01*
X020285Y034172D01*
X020182Y034112D01*
X020098Y034028D01*
X020038Y033925D01*
X020007Y03381D01*
Y03369D01*
X020038Y033575D01*
X020098Y033472D01*
X020182Y033388D01*
X020285Y033328D01*
X0204Y033297D01*
X02052D01*
X020635Y033328D01*
X020738Y033388D01*
X020822Y033472D01*
X020882Y033575D01*
X020913Y03369D01*
Y03381D01*
X020882Y033925D01*
X020822Y034028D01*
X020738Y034112D01*
X020635Y034172D01*
X02052Y034203D01*
D02*
G37*
G36*
X032422Y033933D02*
X031478D01*
Y033067D01*
X032422D01*
Y033933D01*
D02*
G37*
G36*
X016229Y033737D02*
X016071D01*
X015958Y033722D01*
X015853Y033678D01*
X015762Y033609D01*
X015693Y033518D01*
X015649Y033413D01*
X015634Y0333D01*
X015649Y033187D01*
X015693Y033082D01*
X015762Y032991D01*
X015853Y032922D01*
X015958Y032878D01*
X016071Y032863D01*
X016229D01*
X016342Y032878D01*
X016447Y032922D01*
X016538Y032991D01*
X016607Y033082D01*
X016651Y033187D01*
X016666Y0333D01*
X016651Y033413D01*
X016607Y033518D01*
X016538Y033609D01*
X016447Y033678D01*
X016342Y033722D01*
X016229Y033737D01*
D02*
G37*
G36*
X029467Y032567D02*
X028633D01*
Y031733D01*
X029467D01*
Y032567D01*
D02*
G37*
G36*
X016229Y040737D02*
X016071D01*
X015958Y040722D01*
X015853Y040678D01*
X015762Y040609D01*
X015693Y040518D01*
X015649Y040413D01*
X015634Y0403D01*
X015649Y040187D01*
X015693Y040082D01*
X015762Y039991D01*
X015853Y039922D01*
X015958Y039878D01*
X016071Y039863D01*
X016229D01*
X016342Y039878D01*
X016447Y039922D01*
X016538Y039991D01*
X01659Y040059D01*
X01795D01*
X019309Y0387D01*
Y03266D01*
X019327Y032568D01*
X01938Y03249D01*
X020018Y031851D01*
X020007Y03181D01*
Y03169D01*
X020035Y031586D01*
X019998Y031558D01*
X019994Y031557D01*
X019191Y03236D01*
Y03845D01*
X019173Y038542D01*
X01912Y03862D01*
X01822Y03952D01*
X018142Y039573D01*
X01805Y039591D01*
X016551D01*
X016538Y039609D01*
X016447Y039678D01*
X016342Y039722D01*
X016229Y039737D01*
X016071D01*
X015958Y039722D01*
X015853Y039678D01*
X015762Y039609D01*
X015693Y039518D01*
X015649Y039413D01*
X015634Y0393D01*
X015649Y039187D01*
X015693Y039082D01*
X015762Y038991D01*
X015853Y038922D01*
X015958Y038878D01*
X016071Y038863D01*
X016229D01*
X016342Y038878D01*
X016447Y038922D01*
X016538Y038991D01*
X016607Y039082D01*
X016618Y039109D01*
X01795D01*
X018709Y03835D01*
Y03226D01*
X018727Y032168D01*
X01878Y03209D01*
X020018Y030851D01*
X020007Y03081D01*
Y03069D01*
X020038Y030575D01*
X020098Y030472D01*
X020182Y030388D01*
X020285Y030328D01*
X0204Y030297D01*
X02052D01*
X020635Y030328D01*
X020738Y030388D01*
X020822Y030472D01*
X020882Y030575D01*
X020913Y03069D01*
Y03081D01*
X020882Y030925D01*
X020822Y031028D01*
X020738Y031112D01*
X020635Y031172D01*
X02052Y031203D01*
X0204D01*
X020359Y031192D01*
X020267Y031284D01*
X020268Y031288D01*
X020296Y031325D01*
X0204Y031297D01*
X02052D01*
X020635Y031328D01*
X020738Y031388D01*
X020822Y031472D01*
X020882Y031575D01*
X020913Y03169D01*
Y03181D01*
X020882Y031925D01*
X020822Y032028D01*
X020738Y032112D01*
X020635Y032172D01*
X02052Y032203D01*
X0204D01*
X020359Y032192D01*
X020267Y032284D01*
X020268Y032288D01*
X020296Y032325D01*
X0204Y032297D01*
X02052D01*
X020635Y032328D01*
X020738Y032388D01*
X020822Y032472D01*
X020882Y032575D01*
X020913Y03269D01*
Y03281D01*
X020882Y032925D01*
X020822Y033028D01*
X020738Y033112D01*
X020635Y033172D01*
X02052Y033203D01*
X0204D01*
X020285Y033172D01*
X020182Y033112D01*
X020098Y033028D01*
X020038Y032925D01*
X020007Y03281D01*
Y03269D01*
X020035Y032586D01*
X019998Y032558D01*
X019994Y032557D01*
X019791Y03276D01*
Y0388D01*
X019773Y038892D01*
X01972Y03897D01*
X01822Y04047D01*
X018142Y040523D01*
X01805Y040541D01*
X01659D01*
X016538Y040609D01*
X016447Y040678D01*
X016342Y040722D01*
X016229Y040737D01*
D02*
G37*
G36*
X02651Y032203D02*
X02639D01*
X026275Y032172D01*
X026172Y032112D01*
X026088Y032028D01*
X026028Y031925D01*
X025997Y03181D01*
Y03169D01*
X026028Y031575D01*
X026088Y031472D01*
X026172Y031388D01*
X026275Y031328D01*
X02639Y031297D01*
X02651D01*
X026625Y031328D01*
X026728Y031388D01*
X026812Y031472D01*
X026872Y031575D01*
X026903Y03169D01*
Y03181D01*
X026872Y031925D01*
X026812Y032028D01*
X026728Y032112D01*
X026625Y032172D01*
X02651Y032203D01*
D02*
G37*
G36*
X041065Y032593D02*
X040435D01*
Y031807D01*
X040509D01*
Y031593D01*
X040435D01*
Y030807D01*
X040509D01*
Y03059D01*
X040303Y030384D01*
X040268Y030393D01*
X040152D01*
X040039Y030363D01*
X039938Y030305D01*
X039855Y030222D01*
X039797Y030121D01*
X039767Y030008D01*
Y029892D01*
X039797Y029779D01*
X039855Y029678D01*
X039938Y029595D01*
X039969Y029577D01*
Y027593D01*
X039767D01*
Y026707D01*
X040653D01*
Y027593D01*
X040451D01*
Y029577D01*
X040482Y029595D01*
X040565Y029678D01*
X040623Y029779D01*
X040653Y029892D01*
Y030008D01*
X040644Y030043D01*
X04092Y03032D01*
X040972Y030398D01*
X040991Y03049D01*
Y030807D01*
X041065D01*
Y031593D01*
X040991D01*
Y031807D01*
X041065D01*
Y032593D01*
D02*
G37*
G36*
X02052Y030203D02*
X0204D01*
X020285Y030172D01*
X020182Y030112D01*
X020098Y030028D01*
X020038Y029925D01*
X020007Y02981D01*
Y02969D01*
X020038Y029575D01*
X020098Y029472D01*
X020182Y029388D01*
X020285Y029328D01*
X0204Y029297D01*
X02052D01*
X020635Y029328D01*
X020738Y029388D01*
X020822Y029472D01*
X020882Y029575D01*
X020913Y02969D01*
Y02981D01*
X020882Y029925D01*
X020822Y030028D01*
X020738Y030112D01*
X020635Y030172D01*
X02052Y030203D01*
D02*
G37*
G36*
X030407Y02879D02*
X02993D01*
Y028437D01*
X03001D01*
X030114Y02845D01*
X030212Y028491D01*
X030295Y028555D01*
X030359Y028638D01*
X0304Y028736D01*
X030407Y02879D01*
D02*
G37*
G36*
X023818Y036808D02*
X023722D01*
X023628Y036783D01*
X023544Y036735D01*
X023475Y036666D01*
X023427Y036582D01*
X023402Y036488D01*
Y036392D01*
X023427Y036298D01*
X023475Y036214D01*
X023529Y03616D01*
Y02788D01*
X023475Y027826D01*
X023427Y027742D01*
X023402Y027648D01*
Y027552D01*
X023427Y027458D01*
X023475Y027374D01*
X023544Y027305D01*
X023628Y027257D01*
X023722Y027232D01*
X023818D01*
X023912Y027257D01*
X023996Y027305D01*
X024065Y027374D01*
X024113Y027458D01*
X024138Y027552D01*
Y027648D01*
X024113Y027742D01*
X024065Y027826D01*
X024011Y02788D01*
Y03616D01*
X024065Y036214D01*
X024113Y036298D01*
X024138Y036392D01*
Y036488D01*
X024113Y036582D01*
X024065Y036666D01*
X023996Y036735D01*
X023912Y036783D01*
X023818Y036808D01*
D02*
G37*
G36*
X023786Y024009D02*
X023348D01*
X023287Y023997D01*
X023235Y023962D01*
X0232Y02391D01*
X023188Y023849D01*
Y022651D01*
X0232Y02259D01*
X023235Y022538D01*
X023287Y022503D01*
X023348Y022491D01*
X023786D01*
X023847Y022503D01*
X023899Y022538D01*
X023934Y02259D01*
X023946Y022651D01*
Y023849D01*
X023934Y02391D01*
X023899Y023962D01*
X023847Y023997D01*
X023786Y024009D01*
D02*
G37*
G36*
X023825Y020897D02*
X0235D01*
Y02065D01*
X023825D01*
Y020897D01*
D02*
G37*
G36*
X023025Y020897D02*
X0227D01*
Y0206D01*
X0226D01*
Y020897D01*
X022275D01*
Y020841D01*
X022225D01*
Y020897D01*
X0219D01*
Y0206D01*
Y020303D01*
X022225D01*
Y020359D01*
X022275D01*
Y020303D01*
X022509D01*
Y017175D01*
X022453D01*
Y01685D01*
X02275D01*
X023047D01*
Y017175D01*
X022991D01*
Y020303D01*
X023025D01*
Y020359D01*
X023075D01*
Y020303D01*
X0234D01*
Y0206D01*
Y020897D01*
X023075D01*
Y020897D01*
X023053Y020883D01*
X023025Y020895D01*
Y020897D01*
D02*
G37*
G36*
X023825Y02055D02*
X0235D01*
Y020303D01*
X023825D01*
Y02055D01*
D02*
G37*
G36*
X021343Y019602D02*
X021033D01*
Y019366D01*
X021213D01*
X021263Y019376D01*
X021305Y019404D01*
X021334Y019446D01*
X021343Y019496D01*
Y019602D01*
D02*
G37*
G36*
X020933D02*
X020623D01*
Y019496D01*
X020633Y019446D01*
X020661Y019404D01*
X020703Y019376D01*
X020753Y019366D01*
X020933D01*
Y019602D01*
D02*
G37*
G36*
X046048Y023993D02*
X045932D01*
X045819Y023963D01*
X045718Y023905D01*
X045635Y023822D01*
X045577Y023721D01*
X045547Y023608D01*
Y023492D01*
X045577Y023379D01*
X045635Y023278D01*
X045718Y023195D01*
X045749Y023177D01*
Y021123D01*
X045718Y021105D01*
X045635Y021022D01*
X045577Y020921D01*
X045547Y020808D01*
Y020692D01*
X045556Y020657D01*
X04548Y02058D01*
X045427Y020502D01*
X045409Y02041D01*
Y019793D01*
X045335D01*
Y019007D01*
X045965D01*
Y019793D01*
X045891D01*
Y020266D01*
X045932Y020307D01*
X046048D01*
X046161Y020337D01*
X046262Y020395D01*
X046345Y020478D01*
X046403Y020579D01*
X046433Y020692D01*
Y020808D01*
X046403Y020921D01*
X046345Y021022D01*
X046262Y021105D01*
X046231Y021123D01*
Y023177D01*
X046262Y023195D01*
X046345Y023278D01*
X046403Y023379D01*
X046433Y023492D01*
Y023608D01*
X046403Y023721D01*
X046345Y023822D01*
X046262Y023905D01*
X046161Y023963D01*
X046048Y023993D01*
D02*
G37*
G36*
X023836Y019509D02*
X023398D01*
X023337Y019497D01*
X023285Y019462D01*
X02325Y01941D01*
X023238Y019349D01*
Y018151D01*
X02325Y01809D01*
X023285Y018038D01*
X023337Y018003D01*
X023398Y017991D01*
X023836D01*
X023897Y018003D01*
X023949Y018038D01*
X023984Y01809D01*
X023996Y018151D01*
Y019349D01*
X023984Y01941D01*
X023949Y019462D01*
X023897Y019497D01*
X023836Y019509D01*
D02*
G37*
G36*
X044268Y023993D02*
X044152D01*
X044039Y023963D01*
X043938Y023905D01*
X043855Y023822D01*
X043797Y023721D01*
X043767Y023608D01*
Y023492D01*
X043797Y023379D01*
X043855Y023278D01*
X043938Y023195D01*
X043969Y023177D01*
Y021193D01*
X043767D01*
Y020307D01*
X044313D01*
X044509Y02011D01*
Y019793D01*
X044435D01*
Y019007D01*
X044509D01*
Y01886D01*
X044477Y018812D01*
X044459Y01872D01*
Y018493D01*
X044385D01*
Y017707D01*
X045015D01*
Y018493D01*
X044941D01*
Y01863D01*
X044972Y018678D01*
X044991Y01877D01*
Y019007D01*
X045065D01*
Y019793D01*
X044991D01*
Y02021D01*
X044972Y020302D01*
X04492Y02038D01*
X044653Y020647D01*
Y021193D01*
X044451D01*
Y023177D01*
X044482Y023195D01*
X044565Y023278D01*
X044623Y023379D01*
X044653Y023492D01*
Y023608D01*
X044623Y023721D01*
X044565Y023822D01*
X044482Y023905D01*
X044381Y023963D01*
X044268Y023993D01*
D02*
G37*
G36*
X016538Y020863D02*
Y020863D01*
X016502Y020863D01*
X015882D01*
Y020713D01*
X015845Y020685D01*
X015385Y020225D01*
X015303Y020118D01*
X015251Y019994D01*
X015234Y01986D01*
X015234Y01986D01*
Y017091D01*
X015251Y016957D01*
X015303Y016832D01*
X015327Y016801D01*
Y016514D01*
X016173D01*
Y016801D01*
X016197Y016832D01*
X016603D01*
X016804Y01663D01*
Y016413D01*
X016649D01*
Y015587D01*
X017476D01*
Y015757D01*
X017526Y015771D01*
X017534Y015757D01*
X017607Y015684D01*
X017697Y015632D01*
X017798Y015605D01*
X0178D01*
Y016D01*
Y016395D01*
X017798D01*
X017697Y016368D01*
X017607Y016316D01*
X017534Y016243D01*
X017526Y016229D01*
X017476Y016243D01*
Y016413D01*
X017321D01*
Y016737D01*
X017312Y016804D01*
X017286Y016866D01*
X017245Y01692D01*
X016892Y017273D01*
X016839Y017314D01*
X016776Y01734D01*
X016709Y017349D01*
X016266D01*
Y019646D01*
X016397Y019777D01*
X016502D01*
X016538Y019777D01*
Y019777D01*
X016552D01*
Y019777D01*
X017208D01*
Y019777D01*
X01724Y019795D01*
X017309D01*
Y0184D01*
X017327Y018308D01*
X01738Y01823D01*
X017903Y017706D01*
Y017375D01*
X017959D01*
Y01645D01*
X017904Y016395D01*
X017902Y016395D01*
X0179D01*
Y01605D01*
X018245D01*
Y016052D01*
X018245Y016054D01*
X01837Y01618D01*
X018423Y016258D01*
X018441Y01635D01*
Y017375D01*
X018497D01*
Y0177D01*
X0182D01*
Y0178D01*
X018497D01*
Y018125D01*
X018401D01*
X018391Y018175D01*
X018458Y018203D01*
X018565Y018285D01*
X018647Y018392D01*
X018699Y018516D01*
X018716Y01865D01*
Y019242D01*
X018766Y019263D01*
X018859Y01917D01*
Y019043D01*
X018785D01*
Y018257D01*
X018859D01*
Y01819D01*
X018857Y018143D01*
X018785D01*
Y017357D01*
X019415D01*
Y018143D01*
X019341D01*
Y01819D01*
X019341Y01819D01*
Y018257D01*
X019415D01*
Y019043D01*
X019341D01*
Y01927D01*
X019322Y019362D01*
X01927Y01944D01*
X019131Y01958D01*
Y019777D01*
X019218D01*
Y020863D01*
X018562D01*
Y020863D01*
X018548D01*
Y020863D01*
X018512Y020863D01*
X017892D01*
Y020863D01*
X01786Y020845D01*
X0176D01*
Y02032D01*
X0175D01*
Y020845D01*
X01724D01*
X017208Y020863D01*
Y020863D01*
X016552D01*
X016552Y020863D01*
X016538D01*
D02*
G37*
G36*
X02033Y018365D02*
X020196Y018347D01*
X020072Y018295D01*
X019965Y018213D01*
X019917Y018165D01*
X019896Y018138D01*
X019872Y018114D01*
X019855Y018085D01*
X019835Y018058D01*
X019822Y018027D01*
X019805Y017998D01*
X019796Y017965D01*
X019783Y017934D01*
X019779Y0179D01*
X01977Y017867D01*
Y017834D01*
X019765Y0178D01*
X01977Y017766D01*
Y017733D01*
X019779Y0177D01*
X019783Y017666D01*
X019796Y017635D01*
X019805Y017602D01*
X019822Y017573D01*
X019835Y017542D01*
X019855Y017515D01*
X019872Y017486D01*
X019896Y017462D01*
X019917Y017435D01*
X019943Y017414D01*
X019967Y01739D01*
X019997Y017374D01*
X020023Y017353D01*
X020055Y01734D01*
X020084Y017323D01*
X020117Y017314D01*
X020148Y017301D01*
X020182Y017297D01*
X020214Y017288D01*
X020248D01*
X020282Y017284D01*
X020315Y017288D01*
X020349D01*
X020382Y017297D01*
X020415Y017301D01*
X020446Y017314D01*
X020479Y017323D01*
X020508Y01734D01*
X02054Y017353D01*
X020567Y017374D01*
X020596Y01739D01*
X02062Y017414D01*
X020647Y017435D01*
X020695Y017483D01*
X020731Y017531D01*
X020983D01*
X021065Y017542D01*
X021072Y017544D01*
X021213D01*
X02127Y017556D01*
X021318Y017588D01*
X021351Y017636D01*
X021362Y017693D01*
Y018004D01*
X021351Y018061D01*
X021318Y018109D01*
X02127Y018141D01*
X021213Y018152D01*
X021072D01*
X021065Y018155D01*
X020983Y018166D01*
X020731D01*
X020695Y018213D01*
X020588Y018295D01*
X020464Y018347D01*
X02033Y018365D01*
D02*
G37*
G36*
X012858Y018191D02*
X012742D01*
X012628Y018168D01*
X01252Y018123D01*
X012424Y018059D01*
X012341Y017976D01*
X012277Y01788D01*
X012232Y017772D01*
X012209Y017658D01*
Y017542D01*
X012232Y017428D01*
X012277Y01732D01*
X012341Y017224D01*
X012424Y017141D01*
X01252Y017077D01*
X012628Y017032D01*
X012742Y017009D01*
X012858D01*
X012972Y017032D01*
X01308Y017077D01*
X013176Y017141D01*
X013259Y017224D01*
X013323Y01732D01*
X013368Y017428D01*
X013391Y017542D01*
Y017658D01*
X013368Y017772D01*
X013323Y01788D01*
X013259Y017976D01*
X013176Y018059D01*
X01308Y018123D01*
X012972Y018168D01*
X012858Y018191D01*
D02*
G37*
G36*
X01915Y016395D02*
X019148D01*
X019047Y016368D01*
X018957Y016316D01*
X018884Y016243D01*
X018832Y016153D01*
X018805Y016052D01*
Y01605D01*
X01915D01*
Y016395D01*
D02*
G37*
G36*
X023047Y01675D02*
X02275D01*
X022453D01*
Y016425D01*
X022509D01*
Y01637D01*
X022498Y016325D01*
X022453D01*
Y016D01*
X02275D01*
X023047D01*
Y016325D01*
X022991D01*
Y01637D01*
X022991Y01637D01*
Y016425D01*
X023047D01*
Y01675D01*
D02*
G37*
G36*
X018245Y01595D02*
X0179D01*
Y015605D01*
X017902D01*
X018003Y015632D01*
X018093Y015684D01*
X018166Y015757D01*
X018218Y015847D01*
X018245Y015948D01*
Y01595D01*
D02*
G37*
G36*
X012858Y016191D02*
X012742D01*
X012628Y016168D01*
X01252Y016123D01*
X012424Y016059D01*
X012341Y015976D01*
X012277Y01588D01*
X012232Y015772D01*
X012209Y015658D01*
Y015542D01*
X012232Y015428D01*
X012277Y01532D01*
X012341Y015224D01*
X012424Y015141D01*
X01252Y015077D01*
X012628Y015032D01*
X012742Y015009D01*
X012858D01*
X012972Y015032D01*
X01308Y015077D01*
X013176Y015141D01*
X013259Y015224D01*
X013323Y01532D01*
X013368Y015428D01*
X013391Y015542D01*
Y015658D01*
X013368Y015772D01*
X013323Y01588D01*
X013259Y015976D01*
X013176Y016059D01*
X01308Y016123D01*
X012972Y016168D01*
X012858Y016191D01*
D02*
G37*
G36*
X045915Y018493D02*
X045285D01*
Y017707D01*
X045359D01*
Y01357D01*
X045305Y013516D01*
X045257Y013432D01*
X045232Y013338D01*
Y013242D01*
X045257Y013148D01*
X045305Y013064D01*
X045374Y012995D01*
X045458Y012947D01*
X045552Y012922D01*
X045648D01*
X045742Y012947D01*
X045826Y012995D01*
X045895Y013064D01*
X045943Y013148D01*
X045968Y013242D01*
Y013338D01*
X045943Y013432D01*
X045895Y013516D01*
X045841Y01357D01*
Y017707D01*
X045915D01*
Y018493D01*
D02*
G37*
G36*
X023525Y012872D02*
X0235D01*
Y01235D01*
X024022D01*
Y012375D01*
X023983Y012521D01*
X023908Y012651D01*
X023801Y012758D01*
X023671Y012833D01*
X023525Y012872D01*
D02*
G37*
G36*
X019172Y01235D02*
X01865D01*
Y011828D01*
X018675D01*
X018821Y011867D01*
X018951Y011942D01*
X019058Y012049D01*
X019133Y012179D01*
X019172Y012325D01*
Y01235D01*
D02*
G37*
G36*
X01855D02*
X018028D01*
Y012325D01*
X018067Y012179D01*
X018142Y012049D01*
X018249Y011942D01*
X018379Y011867D01*
X018525Y011828D01*
X01855D01*
Y01235D01*
D02*
G37*
G36*
X016173Y015986D02*
X015327D01*
Y015699D01*
X015303Y015668D01*
X015251Y015543D01*
X015234Y015409D01*
Y01432D01*
X015234Y01432D01*
X015251Y014186D01*
X015303Y014062D01*
X015385Y013955D01*
X016084Y013256D01*
Y012991D01*
X016009D01*
Y011809D01*
X017191D01*
Y012991D01*
X017116D01*
Y01347D01*
X017116Y01347D01*
X017099Y013604D01*
X017047Y013728D01*
X016965Y013835D01*
X016965Y013835D01*
X016266Y014534D01*
Y015409D01*
X016249Y015543D01*
X016197Y015668D01*
X016173Y015699D01*
Y015986D01*
D02*
G37*
G36*
X024022Y01225D02*
X0235D01*
Y011728D01*
X023525D01*
X023671Y011767D01*
X023801Y011842D01*
X023908Y011949D01*
X023983Y012079D01*
X024022Y012225D01*
Y01225D01*
D02*
G37*
G36*
X0234D02*
X022878D01*
Y012225D01*
X022917Y012079D01*
X022992Y011949D01*
X023099Y011842D01*
X023229Y011767D01*
X023375Y011728D01*
X0234D01*
Y01225D01*
D02*
G37*
G36*
X026553Y011299D02*
X02655D01*
Y01095D01*
X026899D01*
Y010953D01*
X026872Y011054D01*
X026819Y011145D01*
X026745Y011219D01*
X026654Y011272D01*
X026553Y011299D01*
D02*
G37*
G36*
X02645D02*
X026447D01*
X026346Y011272D01*
X026255Y011219D01*
X026181Y011145D01*
X026128Y011054D01*
X026101Y010953D01*
Y01095D01*
X02645D01*
Y011299D01*
D02*
G37*
G36*
X029917Y011317D02*
X029083D01*
Y010483D01*
X029917D01*
Y011317D01*
D02*
G37*
G36*
X028555D02*
X028445D01*
X028339Y011289D01*
X028244Y011234D01*
X028166Y011156D01*
X028111Y011061D01*
X028083Y010955D01*
Y010845D01*
X028111Y010739D01*
X028166Y010644D01*
X028244Y010566D01*
X028339Y010511D01*
X028445Y010483D01*
X028555D01*
X028661Y010511D01*
X028756Y010566D01*
X028834Y010644D01*
X028889Y010739D01*
X028917Y010845D01*
Y010955D01*
X028889Y011061D01*
X028834Y011156D01*
X028756Y011234D01*
X028661Y011289D01*
X028555Y011317D01*
D02*
G37*
%LPD*%
G36*
X022459Y029343D02*
Y026991D01*
X020913D01*
Y027203D01*
X020705D01*
X020686Y027239D01*
X020683Y027253D01*
X020701Y02734D01*
Y027387D01*
X020727Y027402D01*
X020808Y027483D01*
X020865Y027582D01*
X020895Y027693D01*
Y0277D01*
X02046D01*
X020025D01*
Y027693D01*
X020045Y027621D01*
X020006Y027571D01*
X01989D01*
X019798Y027553D01*
X01972Y0275D01*
X01971Y02749D01*
X019657Y027412D01*
X019639Y02732D01*
Y026125D01*
X019657Y026033D01*
X01971Y025955D01*
X019845Y02582D01*
X019923Y025767D01*
X020015Y025749D01*
X021503D01*
Y025375D01*
Y025055D01*
X020885Y024437D01*
X020703D01*
X020653Y024427D01*
X020611Y024399D01*
X020606Y024392D01*
X020452D01*
X020359Y024374D01*
X020281Y024322D01*
X02013Y02417D01*
X020077Y024092D01*
X020059Y024D01*
Y021183D01*
X020021Y021172D01*
X020009Y021171D01*
X0198Y02138D01*
X019796Y021383D01*
X019794Y021433D01*
X019794Y021433D01*
X019794Y021433D01*
Y025767D01*
X015306D01*
Y021451D01*
X014891D01*
Y028509D01*
X020076D01*
X020098Y028472D01*
X020182Y028388D01*
X020285Y028328D01*
X0204Y028297D01*
X02052D01*
X020624Y028325D01*
X020652Y028288D01*
X020653Y028284D01*
X020546Y028177D01*
X020517Y028185D01*
X02051D01*
Y0278D01*
X020895D01*
Y027807D01*
X020887Y027836D01*
X022413Y029362D01*
X022459Y029343D01*
D02*
G37*
G36*
Y026143D02*
X022385D01*
Y025357D01*
Y024607D01*
X022459D01*
Y023491D01*
X021282D01*
X021268Y023511D01*
X02122Y023543D01*
X021163Y023554D01*
X020703D01*
X020646Y023543D01*
X020598Y023511D01*
X020591Y0235D01*
X020541Y023515D01*
Y0239D01*
X020551Y023911D01*
X020606D01*
X020611Y023904D01*
X020653Y023876D01*
X020703Y023866D01*
X020883D01*
Y024152D01*
X020933D01*
Y024202D01*
X021331D01*
X02175Y024621D01*
Y025D01*
X0218D01*
Y02505D01*
X022097D01*
Y025375D01*
Y0257D01*
X0218D01*
Y0258D01*
X022097D01*
Y026125D01*
X021994D01*
X02197Y02616D01*
X021892Y026213D01*
X0218Y026231D01*
X020121D01*
Y026297D01*
X020913D01*
Y026509D01*
X022459D01*
Y026143D01*
D02*
G37*
%LPC*%
G36*
X02041Y028185D02*
X020403D01*
X020292Y028155D01*
X020193Y028098D01*
X020112Y028017D01*
X020055Y027918D01*
X020025Y027807D01*
Y0278D01*
X02041D01*
Y028185D01*
D02*
G37*
G36*
X022097Y02495D02*
X02185D01*
Y024625D01*
X022097D01*
Y02495D01*
D02*
G37*
G36*
X021293Y024102D02*
X020983D01*
Y023866D01*
X021163D01*
X021213Y023876D01*
X021255Y023904D01*
X021284Y023946D01*
X021293Y023996D01*
Y024102D01*
D02*
G37*
%LPD*%
D20*
X01889Y02032D02*
D03*
X01822D02*
D03*
X01755D02*
D03*
X01688D02*
D03*
X01621D02*
D03*
D21*
X01755Y0236D02*
D03*
D22*
X0456Y0181D02*
D03*
X0447D02*
D03*
X04475Y0194D02*
D03*
X04565D02*
D03*
X0374Y0182D02*
D03*
X0365D02*
D03*
X03655Y01935D02*
D03*
X03745D02*
D03*
X04165Y0322D02*
D03*
X04075D02*
D03*
Y0312D02*
D03*
X04165D02*
D03*
X04565Y0381D02*
D03*
X04475D02*
D03*
Y0393D02*
D03*
X04565D02*
D03*
X03755Y03945D02*
D03*
X03665D02*
D03*
Y0383D02*
D03*
X03755D02*
D03*
X04155Y0461D02*
D03*
X04065D02*
D03*
Y045D02*
D03*
X04155D02*
D03*
X0218Y025D02*
D03*
X0227D02*
D03*
X0218Y02575D02*
D03*
X0227D02*
D03*
X0191Y01865D02*
D03*
X0182D02*
D03*
X0182Y01775D02*
D03*
X0191D02*
D03*
X02275Y01595D02*
D03*
X02185D02*
D03*
X02275Y0168D02*
D03*
X02185D02*
D03*
D23*
X02265Y0206D02*
D03*
Y0215D02*
D03*
X02345Y0206D02*
D03*
Y0215D02*
D03*
X0181Y04525D02*
D03*
Y04435D02*
D03*
X0189Y04435D02*
D03*
Y04525D02*
D03*
X02185Y0206D02*
D03*
Y0215D02*
D03*
X02105Y0206D02*
D03*
Y0215D02*
D03*
D24*
X017392Y045138D02*
D03*
X01739Y04438D02*
D03*
X016408Y044752D02*
D03*
D25*
X020983Y019652D02*
D03*
Y01875D02*
D03*
Y017848D02*
D03*
X020933Y024152D02*
D03*
Y02325D02*
D03*
Y022348D02*
D03*
D26*
X023617Y01875D02*
D03*
X023567Y02325D02*
D03*
D27*
X01575Y017091D02*
D03*
Y015409D02*
D03*
D61*
X03558Y01424D02*
X03657Y01325D01*
X04365Y013388D02*
Y01465D01*
X03657Y01325D02*
X043512D01*
X04365Y013388D01*
X0395Y0167D02*
Y024697D01*
Y0167D02*
X04065Y01555D01*
Y01465D02*
Y01555D01*
X03914Y0391D02*
Y04638D01*
X03915Y025047D02*
Y03715D01*
Y025047D02*
X0395Y024697D01*
X03755Y0383D02*
X04179D01*
X04199Y0385D02*
Y0403D01*
X04179Y0383D02*
X04199Y0385D01*
Y0403D02*
X046112D01*
X03914Y04638D02*
X03947Y04671D01*
X03793Y02075D02*
Y02355D01*
Y01647D02*
Y02075D01*
X0191Y01865D02*
Y01927D01*
X01889Y01948D02*
Y02032D01*
Y01948D02*
X0191Y01927D01*
Y01819D02*
Y01865D01*
X024008Y026632D02*
X024014Y026626D01*
X023409Y026632D02*
X024008D01*
X023291Y02675D02*
X023409Y026632D01*
X022825Y02675D02*
X023291D01*
X0225Y0107D02*
X02445D01*
X021825Y015925D02*
X02185Y01595D01*
X021825Y015231D02*
Y015925D01*
X0218Y015206D02*
X021825Y015231D01*
X019965Y01875D02*
X020983D01*
X01984Y018875D02*
Y021D01*
Y018875D02*
X019965Y01875D01*
X01963Y02121D02*
X01984Y021D01*
X014788Y02121D02*
X01963D01*
X01465Y021348D02*
X014788Y02121D01*
X0259Y0119D02*
X0265D01*
X0256Y0116D02*
X0259Y0119D01*
X0256Y01095D02*
Y0116D01*
X025114Y029414D02*
X02645Y03075D01*
X025114Y01053D02*
Y029414D01*
Y01053D02*
X025309Y010335D01*
X01465Y02875D02*
Y0405D01*
Y021348D02*
Y02875D01*
X02046D01*
X014606Y040544D02*
X01465Y0405D01*
X01275Y0424D02*
X014606Y040544D01*
X013896Y014696D02*
Y022258D01*
X013814Y022339D02*
X013896Y022258D01*
X013814Y022339D02*
Y022675D01*
X013278Y023325D02*
X013509Y023556D01*
X012898Y02875D02*
X013139D01*
X013278Y022375D02*
Y023325D01*
X013509Y020309D02*
Y022144D01*
X013278Y022375D02*
X013509Y022144D01*
Y023556D02*
Y028381D01*
X0128Y0196D02*
X013509Y020309D01*
X0128Y0136D02*
X013896Y014696D01*
X013139Y02875D02*
X013509Y028381D01*
X013764Y022725D02*
X013814Y022675D01*
X0245Y0255D02*
Y0348D01*
X02645Y03675D01*
X0273Y04475D02*
X02793Y04412D01*
X02645Y04475D02*
X0273D01*
X02793Y03827D02*
Y04412D01*
X024478Y04637D02*
X027877D01*
X02434Y04545D02*
Y046232D01*
X024478Y04637D01*
X028016Y045034D02*
Y046232D01*
X027877Y04637D02*
X028016Y046232D01*
X0205Y04375D02*
X02362Y04687D01*
X02046Y04375D02*
X0205D01*
X02362Y04687D02*
X03033D01*
X03663Y01713D02*
X037111D01*
X0374Y017419D01*
X0366Y0171D02*
X03663Y01713D01*
X0374Y017419D02*
Y0182D01*
X0374Y0182D02*
X0374Y0182D01*
X03765Y01619D02*
X03793Y01647D01*
X03745Y01935D02*
X03788D01*
X04525Y037622D02*
X045571Y037943D01*
X04525Y02627D02*
Y037622D01*
X045571Y037943D02*
X045571D01*
X0456Y0403D02*
X04565Y04025D01*
Y0393D02*
Y04025D01*
X04199Y0403D02*
Y04105D01*
X046112Y0403D02*
X04625Y040162D01*
Y03766D02*
Y040162D01*
X04604Y0341D02*
Y0369D01*
Y03745D01*
X04625Y03766D01*
X045571Y037943D02*
X04565Y038022D01*
X04335Y02437D02*
X04525Y02627D01*
X04565Y038022D02*
Y0381D01*
X0426Y0147D02*
X04265Y01465D01*
X0426Y0147D02*
Y02045D01*
X04335Y0212D01*
Y02437D01*
X04256Y02181D02*
Y03181D01*
X04165Y01465D02*
Y0209D01*
X04256Y02181D01*
X04217Y0322D02*
X04256Y03181D01*
X04165Y0322D02*
X04217D01*
X026333Y02775D02*
X02645D01*
X026124Y027574D02*
X026157D01*
X025879Y017141D02*
Y027329D01*
X026124Y027574D01*
X026157D02*
X026333Y02775D01*
X025879Y017141D02*
X027Y01602D01*
X0275Y0119D02*
Y0257D01*
X02645Y02675D02*
X0275Y0257D01*
X02185Y0206D02*
X02265D01*
X02275Y020475D02*
X022875Y0206D01*
X0227Y025D02*
Y02575D01*
X020015Y02599D02*
X0218D01*
Y025D02*
Y02575D01*
X01955Y03266D02*
X02046Y03175D01*
X01955Y03266D02*
Y0388D01*
X01805Y0403D02*
X01955Y0388D01*
X01615Y0403D02*
X01805D01*
X01895Y03226D02*
Y03845D01*
X0162Y03935D02*
X01805D01*
X01895Y03845D01*
X01615Y0393D02*
X0162Y03935D01*
X01895Y03226D02*
X02046Y03075D01*
X01185Y02585D02*
X0128D01*
X01155Y02615D02*
Y0271D01*
Y02615D02*
X01185Y02585D01*
X02988Y02684D02*
X02995Y02691D01*
X029865Y027845D02*
X02995Y02776D01*
Y02691D02*
Y02776D01*
X029865Y027845D02*
X031D01*
X02988Y02884D02*
Y02984D01*
X02887Y02885D02*
Y02985D01*
X04075Y0312D02*
Y0322D01*
X04065Y045D02*
Y0461D01*
X03665Y0383D02*
Y03945D01*
X04475Y0381D02*
Y0393D01*
X02845Y01295D02*
Y025871D01*
X02785Y026471D02*
X02845Y025871D01*
Y01295D02*
X0295Y0119D01*
X028Y0124D02*
X0285Y0119D01*
X028Y0124D02*
Y02582D01*
X0274Y02642D02*
X028Y02582D01*
X02785Y026471D02*
Y03235D01*
X02645Y03375D02*
X02785Y03235D01*
X02645Y02975D02*
X0274Y0288D01*
Y02642D02*
Y0288D01*
X02885Y045812D02*
X028988Y04595D01*
X02995D01*
X02885Y03925D02*
X02959Y03851D01*
X02885Y03925D02*
Y045812D01*
X028016Y045034D02*
X02805Y045D01*
X04421Y02075D02*
Y02355D01*
X04599Y02075D02*
Y02355D01*
X03615Y02075D02*
Y02355D01*
X04199Y02715D02*
Y02995D01*
X04021Y02715D02*
Y02995D01*
X03616Y0341D02*
Y0369D01*
X03794Y0341D02*
Y0369D01*
X04426Y0341D02*
Y0369D01*
X04199Y04105D02*
Y04385D01*
X04021Y04105D02*
Y04385D01*
X027475Y010875D02*
X0275Y0109D01*
X027337Y010335D02*
X027475Y010473D01*
X025309Y010335D02*
X027337D01*
X027475Y010473D02*
Y010875D01*
X0192Y013873D02*
Y01475D01*
X0186Y0124D02*
Y013273D01*
X0192Y013873D01*
Y01475D02*
Y016D01*
Y01472D02*
Y01475D01*
Y01472D02*
X02275D01*
Y01595D01*
Y013D02*
Y01472D01*
X02185Y01637D02*
Y01672D01*
X0227Y02575D02*
Y04D01*
X02304Y0206D02*
X02345D01*
X022875D02*
X02304D01*
X04155Y04429D02*
Y045D01*
Y04429D02*
X04199Y04385D01*
X04565Y0194D02*
Y02041D01*
X04599Y02075D01*
X03755Y03729D02*
Y0383D01*
Y03729D02*
X03794Y0369D01*
X0227Y04D02*
X02645Y04375D01*
X0182Y01635D02*
Y01775D01*
X01785Y016D02*
X0182Y01635D01*
X02905Y03315D02*
X03009Y03419D01*
Y0361D01*
X03064Y03665D01*
Y04656D01*
X03033Y04687D02*
X03064Y04656D01*
X025525Y027825D02*
X02645Y02875D01*
X025525Y014615D02*
Y027825D01*
Y014615D02*
X02676Y01338D01*
X03655Y01935D02*
Y02035D01*
X03615Y02075D02*
X03655Y02035D01*
X04475Y03739D02*
Y0381D01*
X04426Y0369D02*
X04475Y03739D01*
Y0194D02*
Y02021D01*
X04421Y02075D02*
X04475Y02021D01*
X04075Y03049D02*
Y0312D01*
X04021Y02995D02*
X04075Y03049D01*
X04065Y04429D02*
Y045D01*
X04021Y04385D02*
X04065Y04429D01*
X0275Y0367D02*
X02905Y03515D01*
X0275Y0367D02*
Y0397D01*
X02645Y04075D02*
X0275Y0397D01*
X02406Y02506D02*
X0245Y0255D01*
X012091Y030571D02*
X01258Y03106D01*
X012091Y029556D02*
Y030571D01*
Y029556D02*
X012898Y02875D01*
X016048Y044752D02*
X016408D01*
X01535Y04545D02*
X016048Y044752D01*
X03665Y03739D02*
Y0383D01*
X03616Y0369D02*
X03665Y03739D01*
X02304Y0206D02*
X02304Y0206D01*
X02265Y0206D02*
X02304D01*
X02275Y013D02*
X02345Y0123D01*
X04165Y03029D02*
Y0312D01*
Y03029D02*
X04199Y02995D01*
X03765Y01465D02*
Y01619D01*
X02377Y0276D02*
Y03644D01*
X03755Y03945D02*
Y039795D01*
X037375Y03997D02*
X03755Y039795D01*
X03575Y03997D02*
X037375D01*
X03558Y0398D02*
X03575Y03997D01*
X03558Y01424D02*
Y0398D01*
X01125Y0294D02*
X0128Y02785D01*
X01125Y0294D02*
Y04068D01*
X0128Y02985D02*
Y030576D01*
X013066Y030842D01*
Y031375D01*
X012895Y031546D02*
X013066Y031375D01*
X012224Y031546D02*
X012895D01*
X01204Y03173D02*
X012224Y031546D01*
X01204Y03173D02*
Y03969D01*
X01275Y0404D01*
X0456Y01329D02*
Y0181D01*
X04155Y0461D02*
Y046535D01*
X041375Y04671D02*
X04155Y046535D01*
X03947Y04671D02*
X041375D01*
X0189Y04525D02*
X01996D01*
X02046Y04475D01*
X03065Y02999D02*
Y035655D01*
X0305Y02984D02*
X03065Y02999D01*
X02988Y02984D02*
X0305D01*
X02707Y03613D02*
X02823Y03497D01*
X02707Y03613D02*
Y03913D01*
X02645Y03975D02*
X02707Y03913D01*
X013381Y04545D02*
X01409Y044741D01*
Y04246D02*
Y044741D01*
Y04246D02*
X01425Y0423D01*
X01615D01*
X02793Y03827D02*
X02905Y03715D01*
X02234Y04064D02*
X02645Y04475D01*
X02234Y02963D02*
Y04064D01*
X02046Y02775D02*
X02234Y02963D01*
X03135Y0355D02*
X03195D01*
X03114Y03529D02*
X03135Y0355D01*
X03114Y027985D02*
Y03529D01*
X031Y027845D02*
X03114Y027985D01*
X01615Y0413D02*
X01678D01*
X0169Y04142D01*
Y045D01*
X017038Y045138D01*
X017392D01*
X02042Y0206D02*
X02105D01*
X0203Y02072D02*
X02042Y0206D01*
X0203Y02072D02*
Y024D01*
X020452Y024152D01*
X020933D01*
X02275Y0168D02*
Y020475D01*
X020933Y02325D02*
X022575D01*
X0227Y023375D01*
Y025D01*
X02046Y02675D02*
X022575D01*
X02046Y02734D02*
Y02775D01*
X02045Y02733D02*
X02046Y02734D01*
X01989Y02733D02*
X02045D01*
X01988Y02732D02*
X01989Y02733D01*
X01988Y026125D02*
Y02732D01*
Y026125D02*
X020015Y02599D01*
X0218Y02575D02*
Y02599D01*
X020983Y01875D02*
X021725D01*
X02185Y018625D01*
Y0168D02*
Y018625D01*
X01755Y0184D02*
Y02032D01*
Y0184D02*
X0182Y01775D01*
X02959Y03669D02*
Y03851D01*
X02905Y03615D02*
X02959Y03669D01*
X02185Y01637D02*
X02185Y01637D01*
Y01595D02*
Y01637D01*
X017802Y04525D02*
X0181D01*
X01769Y045138D02*
X017802Y04525D01*
X017392Y045138D02*
X01769D01*
X02275Y01637D02*
Y0168D01*
Y01637D02*
X02275Y01637D01*
Y01595D02*
Y01637D01*
X021788Y025D02*
X0218D01*
X02094Y024152D02*
X021788Y025D01*
X020933Y024152D02*
X02094D01*
X02105Y020157D02*
Y0206D01*
X020983Y02009D02*
X02105Y020157D01*
X020983Y019652D02*
Y02009D01*
X02144Y0206D02*
X02185D01*
X02144Y0206D02*
X02144Y0206D01*
X02105Y0206D02*
X02144D01*
X03655Y0188D02*
Y01935D01*
X0365Y01875D02*
X03655Y0188D01*
X0365Y0182D02*
Y01875D01*
X04475Y01877D02*
Y0194D01*
X0447Y01872D02*
X04475Y01877D01*
X0447Y0181D02*
Y01872D01*
X0191Y01819D02*
X0191Y01819D01*
Y01775D02*
Y01819D01*
X01849Y04435D02*
X0189D01*
X01849Y04435D02*
X01849Y04435D01*
X0181Y04435D02*
X01849D01*
X01775D02*
X0181D01*
X01772Y04438D02*
X01775Y04435D01*
X01739Y04438D02*
X01772D01*
D62*
X0182Y01938D02*
Y019611D01*
X018234Y019645D01*
X0182Y01865D02*
Y01938D01*
X01575Y017091D02*
Y01986D01*
X01621Y02032D01*
X020282Y0178D02*
X02033Y017848D01*
X01575Y01432D02*
Y015409D01*
Y01432D02*
X0166Y01347D01*
Y0124D02*
Y01347D01*
D63*
X02145Y0123D02*
X022426Y011324D01*
X024264D01*
X02444Y0115D01*
X017063Y016D02*
Y016737D01*
X016709Y017091D02*
X017063Y016737D01*
X01575Y017091D02*
X016709D01*
X02444Y0115D02*
Y02131D01*
X02425Y0215D02*
X02444Y02131D01*
X02345Y0215D02*
X02425D01*
X020933Y021977D02*
Y022348D01*
X02105Y0215D02*
Y02186D01*
X02304Y0215D02*
X02345D01*
X02265Y0215D02*
X02304D01*
X02185D02*
X02265D01*
D64*
X01621Y02032D02*
X01688D01*
X02033Y017848D02*
X020983D01*
D65*
X020933Y021977D02*
X02105Y02186D01*
X02304Y0215D02*
X02304Y0215D01*
X02144Y0215D02*
X02185D01*
X02105Y0215D02*
X02144D01*
D66*
X03765Y01465D02*
D03*
X03965D02*
D03*
X04265D02*
D03*
X04165D02*
D03*
X04065D02*
D03*
X03865D02*
D03*
D67*
X04365D02*
D03*
D68*
X0128Y02985D02*
D03*
Y02785D02*
D03*
Y02585D02*
D03*
Y02385D02*
D03*
Y02185D02*
D03*
Y0156D02*
D03*
Y0176D02*
D03*
Y0196D02*
D03*
X01275Y0424D02*
D03*
Y0404D02*
D03*
Y0384D02*
D03*
Y0364D02*
D03*
Y0344D02*
D03*
Y0324D02*
D03*
X02345Y0123D02*
D03*
X0186Y0124D02*
D03*
D69*
X04599Y02355D02*
D03*
X04421D02*
D03*
X04599Y02075D02*
D03*
X03794Y0369D02*
D03*
X03616D02*
D03*
X03794Y0341D02*
D03*
X03793Y02355D02*
D03*
X03615D02*
D03*
X03793Y02075D02*
D03*
X04199Y02995D02*
D03*
X04021D02*
D03*
X04199Y02715D02*
D03*
X04604Y0369D02*
D03*
X04426D02*
D03*
X04604Y0341D02*
D03*
X04199Y04385D02*
D03*
X04021D02*
D03*
X04199Y04105D02*
D03*
D70*
X04421Y02075D02*
D03*
X03616Y0341D02*
D03*
X03615Y02075D02*
D03*
X04021Y02715D02*
D03*
X04426Y0341D02*
D03*
X04021Y04105D02*
D03*
D71*
X033324Y010656D02*
D03*
X032751Y010459D02*
D03*
X032206Y010726D02*
D03*
X032009Y011299D02*
D03*
X032276Y011844D02*
D03*
X032849Y012041D02*
D03*
X033394Y011774D02*
D03*
X033591Y011201D02*
D03*
X035824Y010656D02*
D03*
X035251Y010459D02*
D03*
X034706Y010726D02*
D03*
X034509Y011299D02*
D03*
X034776Y011844D02*
D03*
X035349Y012041D02*
D03*
X035894Y011774D02*
D03*
X036091Y011201D02*
D03*
X046674Y010656D02*
D03*
X046101Y010459D02*
D03*
X045556Y010726D02*
D03*
X045359Y011299D02*
D03*
X045626Y011844D02*
D03*
X046199Y012041D02*
D03*
X046744Y011774D02*
D03*
X046941Y011201D02*
D03*
X046674Y045556D02*
D03*
X046101Y045359D02*
D03*
X045556Y045626D02*
D03*
X045359Y046199D02*
D03*
X045626Y046744D02*
D03*
X046199Y046941D02*
D03*
X046744Y046674D02*
D03*
X046941Y046101D02*
D03*
X035824Y045556D02*
D03*
X035251Y045359D02*
D03*
X034706Y045626D02*
D03*
X034509Y046199D02*
D03*
X034776Y046744D02*
D03*
X035349Y046941D02*
D03*
X035894Y046674D02*
D03*
X036091Y046101D02*
D03*
X033325Y045565D02*
D03*
X032752Y045368D02*
D03*
X032207Y045635D02*
D03*
X03201Y046208D02*
D03*
X032276Y046753D02*
D03*
X03285Y04695D02*
D03*
X033395Y046684D02*
D03*
X033592Y04611D02*
D03*
X011774Y010656D02*
D03*
X011201Y010459D02*
D03*
X010656Y010726D02*
D03*
X010459Y011299D02*
D03*
X010726Y011844D02*
D03*
X011299Y012041D02*
D03*
X011844Y011774D02*
D03*
X012041Y011201D02*
D03*
X011774Y045556D02*
D03*
X011201Y045359D02*
D03*
X010656Y045626D02*
D03*
X010459Y046199D02*
D03*
X010726Y046744D02*
D03*
X011299Y046941D02*
D03*
X011844Y046674D02*
D03*
X012041Y046101D02*
D03*
D72*
X0328Y01125D02*
D03*
X0353D02*
D03*
X04615D02*
D03*
Y04615D02*
D03*
X0353D02*
D03*
X032801Y046159D02*
D03*
X01125Y01125D02*
D03*
Y04615D02*
D03*
D73*
X01615Y0423D02*
D03*
Y0333D02*
D03*
Y0393D02*
D03*
Y0353D02*
D03*
Y0343D02*
D03*
Y0373D02*
D03*
Y0383D02*
D03*
Y0413D02*
D03*
Y0363D02*
D03*
Y0403D02*
D03*
D74*
X0128Y0136D02*
D03*
D75*
X01535Y04545D02*
D03*
X013381D02*
D03*
X02645Y03375D02*
D03*
Y04275D02*
D03*
Y04175D02*
D03*
Y04075D02*
D03*
Y03975D02*
D03*
Y03875D02*
D03*
Y03775D02*
D03*
Y03675D02*
D03*
Y03575D02*
D03*
Y03275D02*
D03*
Y03175D02*
D03*
Y03075D02*
D03*
Y02975D02*
D03*
Y02875D02*
D03*
Y02775D02*
D03*
Y03475D02*
D03*
Y04575D02*
D03*
Y04475D02*
D03*
Y04375D02*
D03*
X02394Y04426D02*
D03*
X02294D02*
D03*
X02194D02*
D03*
X02046Y04575D02*
D03*
Y04475D02*
D03*
Y04375D02*
D03*
Y04275D02*
D03*
Y04175D02*
D03*
Y04075D02*
D03*
Y03975D02*
D03*
Y03875D02*
D03*
Y03775D02*
D03*
Y03675D02*
D03*
Y03575D02*
D03*
Y03475D02*
D03*
Y03375D02*
D03*
Y03275D02*
D03*
Y03175D02*
D03*
Y03075D02*
D03*
Y02975D02*
D03*
Y02875D02*
D03*
Y02775D02*
D03*
D76*
X02887Y02985D02*
D03*
Y02885D02*
D03*
Y02786D02*
D03*
X02885Y02685D02*
D03*
X02988Y02684D02*
D03*
X029865Y027845D02*
D03*
X02988Y02884D02*
D03*
Y02984D02*
D03*
D77*
X0295Y0109D02*
D03*
D78*
X0285D02*
D03*
X0275D02*
D03*
X0265D02*
D03*
Y0119D02*
D03*
X0275D02*
D03*
X0285D02*
D03*
X0295D02*
D03*
X02905Y03715D02*
D03*
Y03615D02*
D03*
Y03515D02*
D03*
Y03415D02*
D03*
Y03315D02*
D03*
D79*
Y03215D02*
D03*
D80*
X03195Y0365D02*
D03*
Y0355D02*
D03*
Y0345D02*
D03*
D81*
Y0335D02*
D03*
D82*
X02995Y04595D02*
D03*
Y04395D02*
D03*
Y04095D02*
D03*
Y04195D02*
D03*
Y04295D02*
D03*
Y04495D02*
D03*
D83*
Y03995D02*
D03*
D84*
X019987Y016D02*
D03*
X017063D02*
D03*
X02494Y04426D02*
D03*
D85*
X0192Y016D02*
D03*
X01785D02*
D03*
D86*
X02145Y0123D02*
D03*
X0166Y0124D02*
D03*
D87*
X02645Y02675D02*
D03*
X02046D02*
D03*
D88*
X03915Y0391D02*
D03*
Y03715D02*
D03*
X024014Y026626D02*
D03*
X0225Y0107D02*
D03*
X0218Y015206D02*
D03*
X0256Y01095D02*
D03*
X02445Y0107D02*
D03*
X013764Y022725D02*
D03*
X027Y01602D02*
D03*
X02805Y045D02*
D03*
X02676Y01338D02*
D03*
X02406Y02506D02*
D03*
X01258Y03106D02*
D03*
X02434Y04545D02*
D03*
X02377Y0276D02*
D03*
Y03644D02*
D03*
X01125Y04068D02*
D03*
X01155Y0271D02*
D03*
X0456Y01329D02*
D03*
X03065Y035655D02*
D03*
X02823Y03497D02*
D03*
D89*
X0182Y01938D02*
D03*
X020282Y0178D02*
D03*
D90*
X0366Y0171D02*
D03*
M02*
